<?xml version="1.0" encoding="UTF-8" standalone="no"?>
<!-- Created with Inkscape (http://www.inkscape.org/) -->

<svg
   version="1.1"
   id="svg1"
   width="533.33331"
   height="330.66666"
   viewBox="0 0 533.33331 330.66666"
   sodipodi:docname="calcite.svg"
   inkscape:version="1.3 (0e150ed6c4, 2023-07-21)"
   xmlns:inkscape="http://www.inkscape.org/namespaces/inkscape"
   xmlns:sodipodi="http://sodipodi.sourceforge.net/DTD/sodipodi-0.dtd"
   xmlns="http://www.w3.org/2000/svg"
   xmlns:svg="http://www.w3.org/2000/svg">
  <defs
     id="defs1" />
  <sodipodi:namedview
     id="namedview1"
     pagecolor="#ffffff"
     bordercolor="#000000"
     borderopacity="0.25"
     inkscape:showpageshadow="2"
     inkscape:pageopacity="0.0"
     inkscape:pagecheckerboard="0"
     inkscape:deskcolor="#d1d1d1"
     inkscape:zoom="1.2825"
     inkscape:cx="266.66667"
     inkscape:cy="165.69201"
     inkscape:window-width="2560"
     inkscape:window-height="1369"
     inkscape:window-x="-8"
     inkscape:window-y="-7"
     inkscape:window-maximized="1"
     inkscape:current-layer="g1">
    <inkscape:page
       x="0"
       y="0"
       inkscape:label="1"
       id="page1"
       width="533.33331"
       height="330.66666"
       margin="0"
       bleed="0" />
  </sodipodi:namedview>
  <g
     id="g1"
     inkscape:groupmode="layer"
     inkscape:label="1">
    <path
       id="path1"
       d="M 3998.55,1455.4 1319.49,1451.57 7.30078,7.32031 2686.41,11.1406 Z"
       style="display:none;fill:#f9f9f9;fill-opacity:1;fill-rule:evenodd;stroke:none;opacity:0"
       transform="matrix(0.13333333,0,0,-0.13333333,0,330.66667)" />
    <path
       id="path2"
       d="M -3234.48,-2367.2 -0.830078,-2367.18 -0.798929,-11.9235 -3234.48,-11.937 Z"
       style="fill:none;stroke:#000000;stroke-width:20.5247;stroke-linecap:butt;stroke-linejoin:miter;stroke-miterlimit:4;stroke-dasharray:none;stroke-opacity:1"
       transform="matrix(-0.11046587,1.5750267e-4,-0.0742824,0.08176093,0,330.66667)" />
    <path
       id="path3"
       d="m 2119.3,2363.14 240,-1120 480,-720.003"
       style="fill:none;stroke:#000000;stroke-width:24;stroke-linecap:butt;stroke-linejoin:miter;stroke-miterlimit:4;stroke-dasharray:288, 24;stroke-dashoffset:0;stroke-opacity:1"
       transform="matrix(0.13333333,0,0,-0.13333333,0,330.66667)" />
    <path
       id="path4"
       d="M 860.59,552.906 2119.3,2363.14"
       style="fill:none;stroke:#000000;stroke-width:24;stroke-linecap:butt;stroke-linejoin:miter;stroke-miterlimit:4;stroke-dasharray:none;stroke-opacity:1"
       transform="matrix(0.13333333,0,0,-0.13333333,0,330.66667)" />
    <path
       id="path5"
       d="m 915.391,631.73 -11.993,66.84 -56.519,-165.351 135.312,110.5 z"
       style="fill:#000000;fill-opacity:1;fill-rule:evenodd;stroke:none"
       transform="matrix(0.13333333,0,0,-0.13333333,0,330.66667)" />
    <path
       id="path6"
       d="m 915.398,631.73 -12.003,66.84 -56.52,-165.363 135.313,110.516 z"
       style="fill:none;stroke:#000000;stroke-width:12;stroke-linecap:butt;stroke-linejoin:miter;stroke-miterlimit:4;stroke-dasharray:none;stroke-opacity:1"
       transform="matrix(0.13333333,0,0,-0.13333333,0,330.66667)" />
    <path
       id="path7"
       d="m 2839.3,523.137 -720,1840.003 v 0"
       style="fill:none;stroke:#000000;stroke-width:24;stroke-linecap:butt;stroke-linejoin:miter;stroke-miterlimit:4;stroke-dasharray:none;stroke-opacity:1"
       transform="matrix(0.13333333,0,0,-0.13333333,0,330.66667)" />
    <path
       id="path8"
       d="m 839.301,523.137 1279.999,240 v 0 l -160,-240 v 0"
       style="fill:none;stroke:#000000;stroke-width:16;stroke-linecap:butt;stroke-linejoin:miter;stroke-miterlimit:4;stroke-dasharray:32, 16;stroke-dashoffset:0;stroke-opacity:1"
       transform="matrix(0.13333333,0,0,-0.13333333,0,330.66667)" />
    <path
       id="path9"
       d="M 2119.3,2363.14 V 758.914"
       style="fill:none;stroke:#000000;stroke-width:16;stroke-linecap:butt;stroke-linejoin:miter;stroke-miterlimit:4;stroke-dasharray:48, 48;stroke-dashoffset:0;stroke-opacity:1"
       transform="matrix(0.13333333,0,0,-0.13333333,0,330.66667)" />
    <path
       id="path10"
       d="M 839.301,523.137 H 2805.27"
       style="fill:none;stroke:#000000;stroke-width:24;stroke-linecap:butt;stroke-linejoin:miter;stroke-miterlimit:4;stroke-dasharray:none;stroke-opacity:1"
       transform="matrix(0.13333333,0,0,-0.13333333,0,330.66667)" />
    <path
       id="path11"
       d="m 2709.26,523.141 -48.01,-48.012 168.01,48.012 -168.01,48 z"
       style="fill:#000000;fill-opacity:1;fill-rule:evenodd;stroke:none"
       transform="matrix(0.13333333,0,0,-0.13333333,0,330.66667)" />
    <path
       id="path12"
       d="m 2709.26,523.137 -48.01,-48.012 168.01,48.012 -168.01,48.008 z"
       style="fill:none;stroke:#000000;stroke-width:12;stroke-linecap:butt;stroke-linejoin:miter;stroke-miterlimit:4;stroke-dasharray:none;stroke-opacity:1"
       transform="matrix(0.13333333,0,0,-0.13333333,0,330.66667)" />
    <path
       id="path13"
       d="m 2235.04,2341.54 c 0,-66.29 -53.71,-120 -120,-120 -66.29,0 -120,53.71 -120,120 0,66.28 53.71,120 120,120 66.29,0 120,-53.72 120,-120 z"
       style="fill:none;stroke:#000000;stroke-width:20;stroke-linecap:butt;stroke-linejoin:miter;stroke-miterlimit:4;stroke-dasharray:none;stroke-opacity:1"
       transform="matrix(0.13333333,0,0,-0.13333333,0,330.66667)" />
    <path
       id="path14"
       d="m 975.309,523.684 c 0,-66.289 -53.707,-120 -120,-120 -66.289,0 -120,53.711 -120,120 0,66.25 53.711,120 120,120 66.293,0 120,-53.75 120,-120 z"
       style="fill:none;stroke:#000000;stroke-width:20;stroke-linecap:butt;stroke-linejoin:miter;stroke-miterlimit:4;stroke-dasharray:none;stroke-opacity:1"
       transform="matrix(0.13333333,0,0,-0.13333333,0,330.66667)" />
    <path
       id="path15"
       d="m 2481.72,1230.88 c 0,-66.29 -53.71,-120 -120,-120 -66.29,0 -120,53.71 -120,120 0,66.25 53.71,120 120,120 66.29,0 120,-53.75 120,-120 z"
       style="fill:none;stroke:#000000;stroke-width:20;stroke-linecap:butt;stroke-linejoin:miter;stroke-miterlimit:4;stroke-dasharray:none;stroke-opacity:1"
       transform="matrix(0.13333333,0,0,-0.13333333,0,330.66667)" />
    <path
       id="path16"
       d="m 2940.9,538.336 c 0,-66.25 -53.71,-120 -120,-120 -66.25,0 -120,53.75 -120,120 0,66.289 53.75,120 120,120 66.29,0 120,-53.711 120,-120 z"
       style="fill:none;stroke:#000000;stroke-width:20;stroke-linecap:butt;stroke-linejoin:miter;stroke-miterlimit:4;stroke-dasharray:none;stroke-opacity:1"
       transform="matrix(0.13333333,0,0,-0.13333333,0,330.66667)" />
    <path
       id="path17"
       d="m 13.512883,-12.725133 -2.742188,9.5390627 -0.304687,1.2773437 c -0.03223,0.1171875 -0.04687,0.2197266 -0.04687,0.3046875 0,0.1494141 0.04687,0.28125 0.140625,0.3984375 0.07617,0.087891 0.169922,0.1289063 0.28125,0.1289063 0.123047,0 0.28418,-0.076172 0.480469,-0.234375 0.366211,-0.2636719 0.855468,-0.8261719 1.464843,-1.6875 l 0.480469,0.3398437 c -0.650391,0.9785157 -1.318359,1.72265629 -2.003906,2.23828129 -0.679688,0.50683594 -1.3125002,0.76171875 -1.8984377,0.76171875 -0.3984375,0 -0.7001953,-0.10253906 -0.9023437,-0.3046875 -0.2050782,-0.20214844 -0.3046875,-0.49511719 -0.3046875,-0.87890625 0,-0.45996089 0.1054687,-1.06640629 0.3164062,-1.81640629 L 8.7667891,-3.7134141 C 7.5304609,-2.110875 6.3996016,-0.98880469 5.3683516,-0.35013281 4.633,0.10982813 3.9064375,0.34127344 3.1886641,0.34127344 c -0.6796875,0 -1.2714844,-0.28125 -1.7695313,-0.84375 C 0.92694531,-1.0708359 0.68085156,-1.8559922 0.68085156,-2.8579453 c 0,-1.4824219 0.44531254,-3.0527344 1.33593754,-4.7109375 0.8964843,-1.6552734 2.0332031,-2.9794922 3.4101562,-3.9726562 1.078125,-0.788086 2.0976563,-1.183594 3.0585938,-1.183594 0.5683593,0 1.0429687,0.152344 1.4179687,0.457031 0.3808592,0.298829 0.6708982,0.791016 0.8671872,1.476563 l 0.515625,-1.59375 z m -5.0039064,0.726563 c -0.6035157,0 -1.2392578,0.28125 -1.9101563,0.84375 -0.9609375,0.796875 -1.8134765,1.9804684 -2.5546875,3.5507809 -0.7441406,1.5644532 -1.1132812,2.9765625 -1.1132812,4.2421875 0,0.6416016 0.1552734,1.1484375 0.46875,1.5234375 0.3193359,0.3691407 0.6855468,0.5507813 1.1015625,0.5507813 1.0224609,0 2.1357422,-0.7558594 3.3398437,-2.2734375 1.5996094,-1.9980469 2.4023442,-4.0576172 2.4023442,-6.1757813 0,-0.7968754 -0.158204,-1.3710934 -0.4687504,-1.7226564 -0.3046875,-0.357422 -0.7265625,-0.539062 -1.265625,-0.539062 z m -115.4238266,200.55469 -2.76563,9.72656 c 0.89649,-0.9375 1.68164,-1.57617 2.35547,-1.92188 0.6709,-0.35156 1.3711,-0.52734 2.09766,-0.52734 1.03125,0 1.875,0.3457 2.53125,1.03125 0.65625,0.67969 0.98437,1.60547 0.98437,2.77734 0,1.50879 -0.43066,3.01172 -1.28906,4.51172 -0.86133,1.49414 -1.94238,2.65723 -3.24609,3.49219 -1.30664,0.83789 -2.58985,1.25391 -3.85547,1.25391 -1.41504,0 -2.86817,-0.53028 -4.35938,-1.59375 l 4.27735,-14.71875 c 0.32812,-1.13965 0.49218,-1.80762 0.49218,-2.00391 0,-0.24023 -0.0791,-0.4248 -0.23437,-0.55078 -0.21094,-0.16406 -0.52734,-0.24609 -0.94922,-0.24609 -0.19629,0 -0.49805,0.0322 -0.90234,0.0937 v -0.52735 z m -5.4375,18.90234 c 0.9375,0.51563 1.76074,0.77344 2.47265,0.77344 0.82618,0 1.68165,-0.29883 2.56641,-0.90235 0.89063,-0.60058 1.6582,-1.62011 2.30859,-3.05859 0.64747,-1.43555 0.97266,-2.88574 0.97266,-4.34766 0,-0.85839 -0.2168,-1.52929 -0.64453,-2.01562 -0.42188,-0.49219 -0.92285,-0.73828 -1.5,-0.73828 -0.87598,0 -1.73145,0.35156 -2.56641,1.05469 -0.83789,0.69726 -1.42968,1.66406 -1.78125,2.90625 z m 162.726561,-76.9834 c -0.978516,1.17188 -1.962891,2.03614 -2.953125,2.58985 -0.993164,0.54492 -2.044922,0.82031 -3.152344,0.82031 -1.330078,0 -2.367187,-0.375 -3.117187,-1.125 -0.744141,-0.75 -1.113282,-1.75781 -1.113282,-3.02344 0,-1.43555 0.398438,-2.84765 1.195313,-4.23047 0.802734,-1.38867 1.880859,-2.51953 3.234375,-3.38672 1.359375,-0.86718 2.689453,-1.30078 3.996094,-1.30078 1.022461,0 1.784179,0.2168 2.285156,0.64453 0.506836,0.42188 0.761719,0.94336 0.761719,1.5586 0,0.58594 -0.175782,1.08398 -0.527344,1.48828 -0.266602,0.32226 -0.591797,0.48047 -0.972656,0.48047 -0.290039,0 -0.533203,-0.0937 -0.726563,-0.28125 -0.1875,-0.1875 -0.28125,-0.42188 -0.28125,-0.70313 0,-0.17871 0.03516,-0.34277 0.105469,-0.49218 0.07031,-0.14649 0.213867,-0.32813 0.433594,-0.53907 0.216797,-0.21093 0.351562,-0.36328 0.398437,-0.45703 0.04687,-0.0937 0.07031,-0.19043 0.07031,-0.29297 0,-0.19336 -0.09082,-0.35742 -0.269532,-0.49218 -0.27539,-0.1875 -0.65625,-0.28125 -1.148437,-0.28125 -0.922852,0 -1.833984,0.32519 -2.730469,0.97265 -0.899414,0.6416 -1.669922,1.5586 -2.308594,2.75391 -0.767578,1.44726 -1.148437,2.8916 -1.148437,4.33594 0,0.95507 0.269531,1.71093 0.808594,2.27343 0.544922,0.55664 1.289062,0.83203 2.226562,0.83203 0.717774,0 1.432617,-0.17871 2.144531,-0.53906 0.708985,-0.36621 1.50293,-1.02246 2.378907,-1.96875 z m 39.641602,58.15723 -4.839844,16.60547 c -0.266602,0.89941 -0.398438,1.48828 -0.398438,1.76953 0,0.0937 0.03809,0.18457 0.117188,0.26953 0.08496,0.0791 0.169922,0.11719 0.257812,0.11719 0.117188,0 0.260742,-0.0586 0.433594,-0.17578 0.319336,-0.22559 0.855469,-0.78809 1.605469,-1.6875 l 0.46875,0.29297 c -0.673828,0.9375 -1.353516,1.69921 -2.039063,2.28515 -0.688476,0.57715 -1.333008,0.86719 -1.933593,0.86719 -0.322266,0 -0.585938,-0.11426 -0.796875,-0.33984 -0.205079,-0.22559 -0.304688,-0.54493 -0.304688,-0.96094 0,-0.53028 0.140625,-1.24512 0.421875,-2.14453 l 0.550781,-1.7461 c -1.359375,2.10352 -2.598633,3.55664 -3.714843,4.35938 -0.767579,0.55371 -1.5,0.83203 -2.203125,0.83203 -0.720704,0 -1.344727,-0.31641 -1.875,-0.94922 -0.524415,-0.63281 -0.785157,-1.49121 -0.785157,-2.57812 0,-1.39747 0.445313,-2.88868 1.335938,-4.47657 0.890625,-1.58496 2.065429,-2.87402 3.527344,-3.86718 1.154296,-0.79688 2.214843,-1.19532 3.175781,-1.19532 0.506836,0 0.943359,0.10547 1.3125,0.31641 0.366211,0.20508 0.726562,0.54492 1.078125,1.01953 l 1.382812,-4.89844 c 0.09961,-0.34277 0.1875,-0.62109 0.257813,-0.83203 0.108398,-0.375 0.164062,-0.68262 0.164062,-0.92578 0,-0.19336 -0.07031,-0.35742 -0.210937,-0.49219 -0.196289,-0.15527 -0.451172,-0.23437 -0.761719,-0.23437 -0.210937,0 -0.568359,0.0322 -1.066406,0.0937 v -0.51563 z m -5.214844,9.98437 c 0,-0.59179 -0.175781,-1.07226 -0.527344,-1.4414 -0.345703,-0.36621 -0.785156,-0.55078 -1.324219,-0.55078 -1.180664,0 -2.411133,0.97851 -3.691406,2.92968 -1.283203,1.94532 -1.921875,3.8086 -1.921875,5.58985 0,0.70312 0.155273,1.24219 0.46875,1.61719 0.310547,0.36914 0.682617,0.55078 1.113281,0.55078 0.975586,0 2.197266,-1.05469 3.667969,-3.16407 1.476563,-2.10937 2.214844,-3.95214 2.214844,-5.53125 z M 14.467961,66.385219 12.018742,74.764125 c -0.36914,1.250977 -0.550781,2.039063 -0.550781,2.367188 0,0.164062 0.0293,0.290039 0.09375,0.375 0.06152,0.0791 0.143555,0.117187 0.246094,0.117187 0.164062,0 0.339843,-0.07324 0.527343,-0.222656 0.19336,-0.146485 0.679688,-0.726563 1.453125,-1.734375 l 0.421875,0.316406 c -0.735351,1.171875 -1.49414,2.036133 -2.273437,2.589844 -0.515625,0.357422 -1.013672,0.539062 -1.488281,0.539062 -0.369141,0 -0.6562503,-0.105468 -0.8671878,-0.316406 -0.2050781,-0.202148 -0.3046875,-0.46875 -0.3046875,-0.796875 0,-0.319336 0.061523,-0.741211 0.1875,-1.265625 0.1464844,-0.694336 0.5742183,-2.203125 1.2773433,-4.523437 -1.5937496,2.610351 -2.9296871,4.415039 -4.0078121,5.414062 -1.0722656,0.993164 -2.0683593,1.488281 -2.9882812,1.488281 -0.4306641,0 -0.796875,-0.149414 -1.1015625,-0.445312 -0.2988281,-0.304688 -0.4453125,-0.685547 -0.4453125,-1.148438 0,-0.703125 0.2050781,-1.78125 0.6210937,-3.234375 L 4.0499922,69.936 c 0.2958984,-1.037109 0.4453125,-1.681641 0.4453125,-1.933594 0,-0.117187 -0.041016,-0.213867 -0.1171875,-0.292968 -0.079102,-0.07617 -0.1640625,-0.117188 -0.2578125,-0.117188 -0.2050781,0 -0.4042969,0.07031 -0.5976563,0.210938 -0.196289,0.140625 -0.6416015,0.662109 -1.3359375,1.558593 L 1.7531172,69.057094 c 0.703125,-1.092774 1.4472656,-1.898438 2.2382812,-2.414063 0.600586,-0.398437 1.1513672,-0.597656 1.6523438,-0.597656 0.3515625,0 0.6357422,0.111328 0.8554687,0.328125 0.2167969,0.219727 0.328125,0.503906 0.328125,0.855469 0,0.500976 -0.1875,1.40332 -0.5625,2.707031 l -1.3242187,4.546875 c -0.3603516,1.236328 -0.5390625,2.015625 -0.5390625,2.34375 0,0.181641 0.058594,0.325195 0.1757812,0.433594 0.1171875,0.111328 0.272461,0.164062 0.46875,0.164062 0.3046875,0 0.7060547,-0.152343 1.2070313,-0.457031 0.4980469,-0.310547 1.1630859,-0.999023 1.9921875,-2.0625 0.8261719,-1.069336 1.5117187,-2.068359 2.0507813,-3 0.539062,-0.9375 1.113281,-2.419922 1.722656,-4.453125 l 0.316406,-1.066406 z m 0,0"
       style="fill:#000000;fill-opacity:1;fill-rule:nonzero;stroke:none"
       aria-label="a&#10;b&#10;c&#10;d&#10;u"
       transform="matrix(1.3333333,0,0,1.3333333,242.32267,25.752)" />
    <path
       id="path18"
       d="m 2742.5,-1928.08 c -12.32,0 1.51,-1.53 -4.64,4.62 -1.07,1.08 -3.54,-1.09 -4.6,0 -1.11,1.08 1.06,3.54 0,4.62 -1.11,1.08 -3.28,-0.7 -4.64,0 -19.21,9.62 4.94,-0.31 -4.65,9.24 -1.04,1.08 -3.52,-1.08 -4.58,0 -1.11,1.08 0.71,3.26 0,4.63 -1.96,3.88 -7.32,5.35 -9.23,9.24 -0.71,1.37 0.66,3.21 0,4.62 -1.01,1.94 -3.68,2.67 -4.64,4.62 -0.66,1.37 0.7,3.22 0,4.62 -1.91,3.89 -7.27,5.32 -9.23,9.21 -1.37,2.78 2.16,7.08 0,9.25 -1.11,1.11 -3.54,-1.09 -4.65,0 -1.11,1.11 1.17,17.37 0,18.48 -1.06,1.08 -3.52,-1.09 -4.58,0 -0.96,0.95 0.9,12.02 0,13.86 -0.96,1.95 -3.63,2.68 -4.65,4.63 -1.36,2.74 1.42,6.47 0,9.24 -0.96,1.94 -3.62,2.68 -4.59,4.62 -1.46,2.93 1.52,20.08 0,23.07 -1,1.95 -3.68,2.68 -4.64,4.63 -0.6,1.21 0,24.44 0,27.72 0,1.54 1.11,3.54 0,4.62 -1.05,1.09 -3.52,-1.08 -4.59,0 -1.66,1.63 1.56,19.89 0,23.11 -1.01,1.95 -3.69,2.65 -4.64,4.62 -0.6,1.18 0,24.42 0,27.7 v 60.04 78.53 23.11 4.62 c 0,1.53 0.71,3.26 0,4.63 -0.95,1.94 -3.63,2.67 -4.64,4.61 -0.61,1.21 0,16.07 0,18.49 v 41.56 73.91 4.62 c 0,1.53 1.11,3.54 0,4.62 -1.06,1.09 -3.53,-1.08 -4.59,0 -1.11,1.12 1.11,17.37 0,18.48 -1.11,1.09 -3.53,-1.07 -4.64,0 -1.06,1.09 0.7,3.26 0,4.63 -0.96,1.94 -3.63,2.67 -4.59,4.62 -0.7,1.37 1.06,3.5 0,4.62 -9.59,9.53 0.35,-14.63 -9.23,4.62 -0.71,1.37 0.65,3.22 0,4.59 -2.77,5.54 -11.11,8.32 -13.88,13.86 -0.7,1.41 1.06,3.54 0,4.62 -1.11,1.09 -3.52,-1.08 -4.63,0 -1.06,1.09 1.11,3.54 0,4.63 -1.06,1.08 -3.54,-1.09 -4.6,0 -2.17,2.2 2.17,7.07 0,9.24 -1.11,1.08 -3.28,-0.7 -4.64,0 -1.92,0.99 -3.08,3.09 -4.58,4.62 -2.73,2.71 -16.35,17.41 -18.53,18.48 -1.35,0.68 -3.52,-1.07 -4.58,0 -1.11,1.09 1.06,3.54 0,4.63 -1.11,1.08 -3.08,0 -4.64,0 h -4.59"
       style="fill:none;stroke:#000000;stroke-width:8.21178;stroke-linecap:butt;stroke-linejoin:miter;stroke-miterlimit:4;stroke-dasharray:16.4236, 8.21178;stroke-dashoffset:0;stroke-opacity:1"
       transform="matrix(0.10324773,0,0,0.16341867,0,330.66667)" />
    <path
       id="path19"
       d="m 2748.95,-622.643 c -12.31,0 1.51,1.527 -4.64,-4.624 -1.06,-1.077 -3.53,1.084 -4.6,0 -1.11,-1.077 1.07,-3.535 0,-4.618 -1.11,-1.087 -3.21,0.701 -4.63,0 -19.22,-9.596 4.95,0.319 -4.59,-9.246 -1.11,-1.084 -3.53,1.119 -4.64,0 -1.06,-1.084 0.71,-3.213 0,-4.618 -1.92,-3.891 -7.27,-5.326 -9.23,-9.211 -0.71,-1.402 0.7,-3.254 0,-4.624 -0.96,-1.944 -3.63,-2.677 -4.65,-4.618 -0.65,-1.371 0.72,-3.248 0,-4.618 -1.91,-3.892 -7.25,-5.361 -9.22,-9.246 -1.36,-2.773 2.16,-7.072 0,-9.243 -1.06,-1.087 -3.53,1.084 -4.6,0 -1.11,-1.119 1.11,-17.37 0,-18.488 -1.11,-1.078 -3.53,1.083 -4.64,0 -0.95,-0.921 0.91,-12.012 0,-13.864 -0.95,-1.941 -3.63,-2.642 -4.59,-4.583 -1.41,-2.776 1.36,-6.505 0,-9.246 -1.01,-1.941 -3.68,-2.677 -4.64,-4.618 -1.46,-2.935 1.51,-20.111 0,-23.113 -0.96,-1.944 -3.64,-2.677 -4.64,-4.618 -0.56,-1.176 0,-24.445 0,-27.725 0,-1.533 1.11,-3.509 0,-4.627 -1.06,-1.084 -3.53,1.118 -4.59,0 -1.62,-1.591 1.56,-19.882 0,-23.072 -0.96,-1.944 -3.63,-2.677 -4.64,-4.618 -0.61,-1.218 0,-24.445 0,-27.734 v -60.042 -78.53 -23.103 -4.63 c 0,-1.53 0.7,-3.21 0,-4.62 -0.96,-1.94 -3.63,-2.64 -4.59,-4.61 -0.6,-1.22 0,-16.04 0,-18.46 v -41.6 -73.9 -4.63 c 0,-1.52 1.06,-3.5 0,-4.61 -1.11,-1.09 -3.53,1.11 -4.64,0 -1.11,-1.12 1.11,-17.37 0,-18.46 -1.06,-1.12 -3.54,1.09 -4.59,0 -1.11,-1.12 0.66,-3.25 0,-4.62 -1.01,-1.95 -3.69,-2.67 -4.65,-4.62 -0.7,-1.41 1.12,-3.53 0,-4.62 -9.58,-9.56 0.36,14.6 -9.23,-4.62 -0.71,-1.37 0.65,-3.25 0,-4.62 -2.77,-5.55 -11.09,-8.32 -13.87,-13.87 -0.71,-1.37 1.11,-3.54 0,-4.62 -1.06,-1.08 -3.53,1.08 -4.59,0 -1.11,-1.08 1.06,-3.54 0,-4.62 -1.11,-1.09 -3.53,1.08 -4.64,0 -2.17,-2.17 2.17,-7.04 0,-9.25 -1.11,-1.08 -3.22,0.7 -4.64,0 -1.91,-0.95 -3.08,-3.06 -4.59,-4.61 -2.73,-2.71 -16.34,-17.41 -18.47,-18.46 -1.41,-0.7 -3.53,1.09 -4.64,0 -1.11,-1.12 1.11,-3.53 0,-4.62 -1.11,-1.08 -3.07,0 -4.64,0 h -4.58"
       style="fill:none;stroke:#000000;stroke-width:8.21178;stroke-linecap:butt;stroke-linejoin:miter;stroke-miterlimit:4;stroke-dasharray:16.4236, 8.21178;stroke-dashoffset:0;stroke-opacity:1"
       transform="matrix(0.10324773,0,0,0.16341867,0,330.66667)" />
    <path
       id="path20"
       d="M 839.301,523.137 2321.02,1217.59"
       style="fill:none;stroke:#000000;stroke-width:24;stroke-linecap:butt;stroke-linejoin:miter;stroke-miterlimit:4;stroke-dasharray:288, 24;stroke-dashoffset:0;stroke-opacity:1"
       transform="matrix(0.13333333,0,0,-0.13333333,0,330.66667)" />
    <path
       id="path21"
       d="m 2234.1,1176.85 -23.08,-63.83 131.71,114.77 -172.46,-27.86 z"
       style="fill:#000000;fill-opacity:1;fill-rule:evenodd;stroke:none"
       transform="matrix(0.13333333,0,0,-0.13333333,0,330.66667)" />
    <path
       id="path22"
       d="m 2234.11,1176.85 -23.09,-63.83 131.72,114.77 -172.46,-27.85 z"
       style="fill:none;stroke:#000000;stroke-width:12;stroke-linecap:butt;stroke-linejoin:miter;stroke-miterlimit:4;stroke-dasharray:none;stroke-opacity:1"
       transform="matrix(0.13333333,0,0,-0.13333333,0,330.66667)" />
  </g>
</svg>
