<?xml version="1.0" encoding="UTF-8" standalone="no"?>
<!-- Created with Inkscape (http://www.inkscape.org/) -->

<svg
   version="1.1"
   id="svg1"
   width="498.66666"
   height="252"
   viewBox="0 0 498.66666 252"
   sodipodi:docname="dihedral.svg"
   inkscape:version="1.3 (0e150ed6c4, 2023-07-21)"
   xmlns:inkscape="http://www.inkscape.org/namespaces/inkscape"
   xmlns:sodipodi="http://sodipodi.sourceforge.net/DTD/sodipodi-0.dtd"
   xmlns="http://www.w3.org/2000/svg"
   xmlns:svg="http://www.w3.org/2000/svg">
  <defs
     id="defs1" />
  <sodipodi:namedview
     id="namedview1"
     pagecolor="#ffffff"
     bordercolor="#000000"
     borderopacity="0.25"
     inkscape:showpageshadow="2"
     inkscape:pageopacity="0.0"
     inkscape:pagecheckerboard="0"
     inkscape:deskcolor="#d1d1d1"
     inkscape:zoom="1.3716578"
     inkscape:cx="250.06237"
     inkscape:cy="126.48927"
     inkscape:window-width="2560"
     inkscape:window-height="1369"
     inkscape:window-x="-8"
     inkscape:window-y="-7"
     inkscape:window-maximized="1"
     inkscape:current-layer="g1">
    <inkscape:page
       x="0"
       y="0"
       inkscape:label="1"
       id="page1"
       width="498.66666"
       height="252"
       margin="0"
       bleed="0" />
  </sodipodi:namedview>
  <g
     id="g1"
     inkscape:groupmode="layer"
     inkscape:label="1">
    <path
       id="path1"
       d="m 10.219122,-13.124617 c 0.128906,-0.480469 0.199219,-0.84375 0.199219,-1.101563 0,-0.316406 -0.09375,-0.609375 -0.316407,-0.867187 -0.1874996,-0.246094 -0.6679684,-0.363281 -1.4648434,-0.363281 l 0.1289063,-0.433594 h 7.1015621 l -0.128906,0.433594 c -0.925781,0.02344 -1.605469,0.164062 -2.0625,0.433593 -0.457031,0.292969 -0.808594,0.914063 -1.101562,1.898438 1.828125,0.07031 3.164062,0.527344 4.054687,1.335937 0.867188,0.84375 1.324219,1.8515628 1.324219,3.0000003 0,1.640625 -0.726563,3.0234375 -2.132813,4.2070313 -1.417968,1.1484375 -3.503906,1.7695312 -6.2460934,1.8164062 -0.1171875,0.5039063 -0.1640625,0.890625 -0.1640625,1.1601563 0,0.3632812 0.1171875,0.64453121 0.3867188,0.86718746 0.2578121,0.2109375 0.7851561,0.3046875 1.6054691,0.3046875 L 11.262091,3.828125e-4 H 4.1019344 L 4.2191219,-0.43321094 c 0.8671875,0 1.5117187,-0.140625 1.96875,-0.45703125 0.4570312,-0.30468751 0.796875,-0.93750001 1.0078125,-1.87500001 -1.8398438,-0.070312 -3.2109375,-0.5507812 -4.078125,-1.359375 -0.8320313,-0.84375 -1.265625,-1.828125 -1.265625,-2.953125 0,-1.5820312 0.6679687,-2.9765628 2.0390625,-4.1484378 1.3710937,-1.183593 3.4804687,-1.828125 6.3281251,-1.898437 z m -0.4804689,9.7148436 c 1.8046879,0 3.2460939,-0.5742188 4.3476559,-1.7460938 1.101563,-1.1601562 1.652344,-2.4960937 1.652344,-4.0078125 0,-2.0156253 -1.125,-3.1289063 -3.328125,-3.3164063 z m 0.3164059,-9.0703126 c -1.8281246,0 -3.2812496,0.597656 -4.3710934,1.78125 -1.1015625,1.1484376 -1.6289062,2.4960938 -1.6289062,4.0078126 0,2.015625 1.1015625,3.09375 3.3398437,3.28125 z m 23.548828,-54.486328 c 0.304688,0 0.597657,0.128906 0.808594,0.339844 0.246094,0.246093 0.363281,0.503906 0.363281,0.84375 0,0.304687 -0.117187,0.597656 -0.363281,0.808593 -0.210937,0.246094 -0.503906,0.363282 -0.808594,0.363282 -0.339843,0 -0.597656,-0.117188 -0.84375,-0.363282 -0.210937,-0.210937 -0.339843,-0.503906 -0.339843,-0.808593 0,-0.339844 0.128906,-0.597657 0.339843,-0.84375 0.222657,-0.210938 0.503907,-0.339844 0.84375,-0.339844 z m 0.140625,4.664062 -2.332031,8.203125 c -0.140625,0.550782 -0.210937,0.890625 -0.210937,1.007813 0,0.117187 0.02344,0.222656 0.09375,0.316406 0.07031,0.07031 0.164062,0.09375 0.269531,0.09375 0.117187,0 0.257812,-0.04687 0.433594,-0.164062 0.421875,-0.363282 0.878906,-0.867188 1.335937,-1.511719 l 0.410156,0.257812 c -0.527343,0.820313 -1.148437,1.511719 -1.875,2.0625 -0.527343,0.410157 -1.03125,0.632813 -1.535156,0.632813 -0.304687,0 -0.574219,-0.105469 -0.761719,-0.292969 -0.222656,-0.1875 -0.316406,-0.433594 -0.316406,-0.714844 0,-0.292968 0.09375,-0.773437 0.292969,-1.441406 l 1.535156,-5.261719 c 0.234375,-0.867187 0.351563,-1.394531 0.351563,-1.628906 0,-0.164062 -0.04687,-0.316406 -0.164063,-0.410156 -0.117187,-0.117188 -0.28125,-0.164063 -0.503906,-0.164063 -0.164063,0 -0.527344,0.04687 -1.054688,0.117188 v -0.457031 z m 0,0"
       style="fill:#231f20;fill-opacity:1;fill-rule:nonzero;stroke:none"
       aria-label="Φ&#10;i"
       transform="matrix(1.3333333,0,0,1.3333333,67.101067,118.08933)" />
    <path
       id="path2"
       d="m 1048.01,664.112 c -67.349,72.615 -163.299,113.943 -262.933,113.943 -103.329,0 -202.042,-43.689 -269.392,-120.439"
       style="fill:none;stroke:#231f20;stroke-width:11.6192;stroke-linecap:butt;stroke-linejoin:miter;stroke-miterlimit:2.6131;stroke-dasharray:none;stroke-opacity:1"
       transform="matrix(0.1040576,0,0,-0.16260933,0,252)" />
    <path
       id="path3"
       d="m 777.578,825.051 44.641,-22.321 2.16,49.68"
       style="fill:none;stroke:#231f20;stroke-width:10.5846;stroke-linecap:butt;stroke-linejoin:miter;stroke-miterlimit:2.6131;stroke-dasharray:none;stroke-opacity:1"
       transform="matrix(0.13333333,0,0,-0.13333333,0,252)" />
    <path
       id="path4"
       d="m 442.059,817.848 -43.922,-23.039 -2.879,48.961"
       style="fill:none;stroke:#231f20;stroke-width:10.4797;stroke-linecap:butt;stroke-linejoin:miter;stroke-miterlimit:2.6131;stroke-dasharray:none;stroke-opacity:1"
       transform="matrix(0.13333333,0,0,-0.13333333,0,252)" />
    <path
       id="path5"
       d="M 596.859,278.57 H 3231.34 L 2651.02,1737.29 H 16.5391 Z"
       style="fill:none;stroke:#231f20;stroke-width:14.1704;stroke-linecap:butt;stroke-linejoin:miter;stroke-miterlimit:2.6131;stroke-dasharray:none;stroke-opacity:1"
       transform="matrix(0.13333333,0,0,-0.13333333,0,252)" />
    <path
       id="path6"
       d="M 1091.5,1411.85 H 3724.54 L 3235.66,278.57 H 602.617 L 1091.5,1411.85"
       style="display:none;fill:#ffffff;fill-opacity:1;fill-rule:evenodd;stroke:none;opacity:0"
       transform="matrix(0.13333333,0,0,-0.13333333,0,252)" />
    <path
       id="path7"
       d="M 602.617,278.57 H 3231.34 l -450.85,1133.28"
       style="display:inline;opacity:0.363;fill:none;stroke:#8f8d8d;stroke-width:14.1704;stroke-linecap:butt;stroke-linejoin:miter;stroke-miterlimit:2.6131;stroke-dasharray:none;stroke-opacity:1"
       transform="matrix(0.13333333,0,0,-0.13333333,0,252)" />
    <path
       id="path8"
       d="M 1091.5,1411.85 H 3724.54 L 3235.66,278.57 H 602.617 Z"
       style="fill:none;stroke:#231f20;stroke-width:14.1704;stroke-linecap:butt;stroke-linejoin:miter;stroke-miterlimit:2.6131;stroke-dasharray:none;stroke-opacity:1"
       transform="matrix(0.13333333,0,0,-0.13333333,0,252)" />
    <path
       id="path9"
       d="m 2835.34,277.129 c 0,-74.16 -60.48,-134.641 -134.64,-134.641 -74.88,0 -135.36,60.481 -135.36,134.641 0,74.879 60.48,135.359 135.36,135.359 74.16,0 134.64,-60.48 134.64,-135.359"
       style="display:none;fill:#ffffff;fill-opacity:1;fill-rule:evenodd;stroke:none;opacity:0"
       transform="matrix(0.13333333,0,0,-0.13333333,0,252)" />
    <path
       id="path10"
       d="m 2835.34,277.129 c 0,-74.16 -60.48,-134.641 -134.64,-134.641 -74.88,0 -135.36,60.481 -135.36,134.641 0,74.879 60.48,135.359 135.36,135.359 74.16,0 134.64,-60.48 134.64,-135.359 z"
       style="fill:none;stroke:#231f20;stroke-width:29.9991;stroke-linecap:square;stroke-linejoin:miter;stroke-miterlimit:2.6131;stroke-dasharray:none;stroke-opacity:1"
       transform="matrix(0.13333333,0,0,-0.13333333,0,252)" />
    <path
       id="path11"
       d="m 3331.42,1411.13 c 0,-74.16 -60.48,-134.64 -134.64,-134.64 -74.88,0 -135.36,60.48 -135.36,134.64 0,74.88 60.48,135.36 135.36,135.36 74.16,0 134.64,-60.48 134.64,-135.36"
       style="display:none;fill:#ffffff;fill-opacity:1;fill-rule:evenodd;stroke:none;opacity:0"
       transform="matrix(0.13333333,0,0,-0.13333333,0,252)" />
    <path
       id="path12"
       d="m 3331.42,1411.13 c 0,-74.16 -60.48,-134.64 -134.64,-134.64 -74.88,0 -135.36,60.48 -135.36,134.64 0,74.88 60.48,135.36 135.36,135.36 74.16,0 134.64,-60.48 134.64,-135.36 z"
       style="fill:none;stroke:#231f20;stroke-width:29.9991;stroke-linecap:square;stroke-linejoin:miter;stroke-miterlimit:2.6131;stroke-dasharray:none;stroke-opacity:1"
       transform="matrix(0.13333333,0,0,-0.13333333,0,252)" />
    <path
       id="path13"
       d="m 1298.14,267.77 c 0,-74.879 -60.48,-135.36 -135.36,-135.36 -74.16,0 -134.64,60.481 -134.64,135.36 0,74.878 60.48,134.64 134.64,134.64 74.88,0 135.36,-60.48 135.36,-134.64"
       style="display:none;fill:#ffffff;fill-opacity:1;fill-rule:evenodd;stroke:none;opacity:0"
       transform="matrix(0.13333333,0,0,-0.13333333,0,252)" />
    <path
       id="path14"
       d="m 1298.14,267.77 c 0,-74.879 -60.48,-135.36 -135.36,-135.36 -74.16,0 -134.64,60.481 -134.64,135.36 0,74.878 60.48,134.64 134.64,134.64 74.88,0 135.36,-60.48 135.36,-134.64 z"
       style="fill:none;stroke:#231f20;stroke-width:29.9991;stroke-linecap:square;stroke-linejoin:miter;stroke-miterlimit:2.6131;stroke-dasharray:none;stroke-opacity:1"
       transform="matrix(0.13333333,0,0,-0.13333333,0,252)" />
    <path
       id="path15"
       d="m 723.578,1737.29 c 0,-74.88 -59.762,-134.64 -134.64,-134.64 -74.879,0 -135.36,59.76 -135.36,134.64 0,74.88 60.481,135.36 135.36,135.36 74.878,0 134.64,-60.48 134.64,-135.36"
       style="display:none;fill:#ffffff;fill-opacity:1;fill-rule:evenodd;stroke:none;opacity:0"
       transform="matrix(0.13333333,0,0,-0.13333333,0,252)" />
    <path
       id="path16"
       d="m 723.578,1737.29 c 0,-74.88 -59.762,-134.64 -134.64,-134.64 -74.879,0 -135.36,59.76 -135.36,134.64 0,74.88 60.481,135.36 135.36,135.36 74.878,0 134.64,-60.48 134.64,-135.36 z"
       style="fill:none;stroke:#231f20;stroke-width:29.9991;stroke-linecap:square;stroke-linejoin:miter;stroke-miterlimit:2.6131;stroke-dasharray:none;stroke-opacity:1"
       transform="matrix(0.13333333,0,0,-0.13333333,0,252)" />
    <path
       id="path17"
       d="M 588.938,1737.29 1126.78,359.93"
       style="fill:none;stroke:#231f20;stroke-width:28.3465;stroke-linecap:butt;stroke-linejoin:miter;stroke-miterlimit:2.6131;stroke-dasharray:none;stroke-opacity:1"
       transform="matrix(0.13333333,0,0,-0.13333333,0,252)" />
    <path
       id="path18"
       d="m 1163.5,267.77 6.48,215.281 c -41.76,-47.524 -95.04,-67.684 -157.68,-61.922 L 1163.5,267.77"
       style="fill:#231f20;fill-opacity:1;fill-rule:evenodd;stroke:none"
       transform="matrix(0.13333333,0,0,-0.13333333,0,252)" />
    <path
       id="path19"
       d="M 2699.98,277.129 3156.46,1320.41"
       style="fill:none;stroke:#231f20;stroke-width:28.3465;stroke-linecap:butt;stroke-linejoin:miter;stroke-miterlimit:2.6131;stroke-dasharray:none;stroke-opacity:1"
       transform="matrix(0.13333333,0,0,-0.13333333,0,252)" />
    <path
       id="path20"
       d="M 3196.06,1411.13 3039.1,1264.25 c 63.36,2.88 115.2,-19.44 155.52,-68.4 l 1.44,215.28"
       style="fill:#231f20;fill-opacity:1;fill-rule:evenodd;stroke:none"
       transform="matrix(0.13333333,0,0,-0.13333333,0,252)" />
    <path
       id="path21"
       d="m 1159.18,278.57 1441.44,-1.441"
       style="fill:none;stroke:#231f20;stroke-width:28.3465;stroke-linecap:butt;stroke-linejoin:miter;stroke-miterlimit:2.6131;stroke-dasharray:none;stroke-opacity:1"
       transform="matrix(0.13333333,0,0,-0.13333333,0,252)" />
    <path
       id="path22"
       d="m 2699.98,277.129 -198,85.68 c 28.08,-56.879 28.08,-113.758 -0.72,-170.641 l 198.72,84.961"
       style="fill:#231f20;fill-opacity:1;fill-rule:evenodd;stroke:none"
       transform="matrix(0.13333333,0,0,-0.13333333,0,252)" />
    <path
       id="path23"
       d="m 1.2428281,-9.9619141 4.0664063,-0.6445309 -1.7109375,5.6835934 c 1.3710937,-2.3203125 2.6132812,-3.9609375 3.75,-4.8984375 0.6210937,-0.5273439 1.1484375,-0.7851559 1.5351562,-0.7851559 0.2578125,0 0.4570313,0.07031 0.6210938,0.234375 0.140625,0.152343 0.2109375,0.363281 0.2109375,0.6562497 0,0.5273437 -0.140625,1.0078125 -0.3984375,1.4882812 -0.1992188,0.328125 -0.4570313,0.5273438 -0.796875,0.5273438 -0.1875,0 -0.3398438,-0.082031 -0.4804688,-0.1992188 -0.1171875,-0.1171875 -0.1875,-0.28125 -0.234375,-0.5273437 0,-0.140625 -0.046875,-0.234375 -0.1054687,-0.28125 -0.070312,-0.082031 -0.140625,-0.1054688 -0.2109375,-0.1054688 -0.140625,0 -0.2695313,0.023437 -0.3867188,0.1054688 -0.1875,0.09375 -0.5039062,0.3984375 -0.9375,0.9023437 -0.6445312,0.7734375 -1.3359375,1.7578125 -2.0859375,2.9765625 -0.3398437,0.5039063 -0.6210937,1.0898438 -0.8671875,1.734375 -0.3046875,0.9140625 -0.5039062,1.4414063 -0.5507812,1.6054688 l -0.375,1.4882812375 H 0.50454688 L 2.6607969,-7.2783203 c 0.2460937,-0.8320313 0.3867187,-1.453125 0.3867187,-1.8164063 0,-0.1171875 -0.070312,-0.2460937 -0.1875,-0.3398437 -0.1523437,-0.1171875 -0.3632812,-0.1875 -0.6328125,-0.1875 -0.140625,0 -0.4453125,0.046875 -0.8789062,0.09375 z M 14.857086,-10.483398 c 0.339844,0 0.597656,0.09375 0.84375,0.328125 0.234375,0.2460933 0.328125,0.5039058 0.328125,0.8437496 0,0.3398437 -0.09375,0.5976562 -0.328125,0.84375 -0.246094,0.2109375 -0.503906,0.328125 -0.84375,0.328125 -0.339844,0 -0.597656,-0.1171875 -0.84375,-0.328125 -0.210938,-0.2460938 -0.328125,-0.5039063 -0.328125,-0.84375 0,-0.3398438 0.117187,-0.5976563 0.328125,-0.8437496 0.246094,-0.234375 0.503906,-0.328125 0.84375,-0.328125 z m 0.1875,4.6289058 -3.046875,10.4882813 c -0.527344,1.875 -1.265625,3.234375 -2.2031251,4.0546875 -0.9375,0.84375 -1.96875,1.2421875 -3.046875,1.2421875 -0.5039062,0 -0.890625,-0.1171875 -1.125,-0.328125 C 5.3531797,9.3564453 5.2359922,9.0986328 5.2359922,8.7822266 c 0,-0.234375 0.09375,-0.4570313 0.28125,-0.6445313 0.1992187,-0.1757812 0.4101562,-0.2695312 0.6796875,-0.2695312 0.2109375,0 0.3984375,0.070312 0.5742187,0.2226562 0.140625,0.1171875 0.2109375,0.2578125 0.2109375,0.3984375 0,0.1992188 -0.09375,0.3867188 -0.28125,0.5390625 -0.1054687,0.070312 -0.1757812,0.140625 -0.1757812,0.2109375 l 0.023437,0.046875 c 0.023437,0.023437 0.082031,0.046875 0.1289062,0.070312 0.046875,0.023437 0.09375,0.023437 0.1875,0.023437 0.6445313,0 1.171875,-0.1875 1.6289063,-0.5976562 0.4570312,-0.4101563 0.84375,-1.1953125 1.2070312,-2.4257813 l 2.6367196,-9 c 0.234375,-0.8671875 0.386718,-1.3710937 0.386718,-1.4648437 0,-0.1875 -0.09375,-0.3515625 -0.269531,-0.5039063 -0.164062,-0.140625 -0.386719,-0.2109375 -0.621094,-0.2109375 -0.117187,0 -0.210937,0 -0.363281,0.023437 -0.09375,0.023437 -0.234375,0.046875 -0.457031,0.070312 v -0.4101562 z m 4.494141,-6.0468748 -3.316407,11.51953106 1.324219,-1.16015626 c 1.464844,-1.21875 2.425781,-2.1328125 2.847656,-2.7304687 0.152344,-0.1875 0.222657,-0.3398438 0.222657,-0.4570313 0,-0.070312 -0.02344,-0.1171875 -0.07031,-0.1875 -0.04687,-0.070312 -0.152344,-0.1289062 -0.292969,-0.1523437 -0.117187,-0.046875 -0.363281,-0.070312 -0.714843,-0.070312 h -0.41016 l 0.117188,-0.4335938 h 5.132812 l -0.117187,0.4335938 c -0.574219,0.046875 -1.078125,0.1171875 -1.511719,0.2929687 -0.433594,0.140625 -0.84375,0.3632813 -1.242187,0.6679688 -0.796875,0.5742187 -1.300782,0.984375 -1.558594,1.2304687 l -1.007813,0.8789063 c 0.164063,0.5507812 0.375,1.34765621 0.644532,2.35546871 0.410156,1.67578129 0.691406,2.66015629 0.84375,2.97656249 0.164062,0.3164063 0.304687,0.4570313 0.445312,0.4570313 0.152344,0 0.292969,-0.046875 0.480469,-0.1875 0.410156,-0.2929688 0.84375,-0.7734375 1.300781,-1.4179688 l 0.410156,0.28125 c -0.84375,1.078125 -1.488281,1.78125 -1.945312,2.1210938 -0.457031,0.3515625 -0.867188,0.5273437 -1.253906,0.5273437 -0.328125,0 -0.574219,-0.1523437 -0.761719,-0.3867187 -0.316406,-0.4804688 -0.84375,-2.2851563 -1.558594,-5.47265629 L 15.94107,0.60253906 14.734039,4.7509766 h -1.828125 l 3.890625,-13.3710938 0.339844,-1.1484375 c 0.02344,-0.1875 0.04687,-0.3632813 0.04687,-0.5039063 0,-0.1875 -0.07031,-0.339844 -0.210938,-0.480469 -0.152343,-0.117187 -0.363281,-0.164062 -0.632812,-0.164062 -0.1875,0 -0.457031,0.02344 -0.855469,0.09375 v -0.410156 z m -101.888672,-85.97168 4.066406,-0.644531 -1.710938,5.683594 c 1.371094,-2.320313 2.613282,-3.960938 3.75,-4.898438 0.621094,-0.527344 1.148438,-0.785156 1.535157,-0.785156 0.257812,0 0.457031,0.07031 0.621093,0.234375 0.140625,0.152344 0.210938,0.363281 0.210938,0.65625 0,0.527344 -0.140625,1.007812 -0.398438,1.488281 -0.199218,0.328125 -0.457031,0.527344 -0.796875,0.527344 -0.1875,0 -0.339843,-0.08203 -0.480468,-0.199219 -0.117188,-0.117187 -0.1875,-0.28125 -0.234375,-0.527344 0,-0.140625 -0.04687,-0.234375 -0.105469,-0.28125 -0.07031,-0.08203 -0.140625,-0.105468 -0.210938,-0.105468 -0.140625,0 -0.269531,0.02344 -0.386718,0.105468 -0.1875,0.09375 -0.503907,0.398438 -0.9375,0.902344 -0.644532,0.773438 -1.335938,1.757813 -2.085938,2.976563 -0.339844,0.503906 -0.621094,1.089843 -0.867187,1.734375 -0.304688,0.914062 -0.503907,1.441406 -0.550782,1.605468 l -0.375,1.488282 h -1.78125 l 2.15625,-7.277344 c 0.246094,-0.832031 0.386719,-1.453125 0.386719,-1.816406 0,-0.117188 -0.07031,-0.246094 -0.1875,-0.339844 -0.152344,-0.117188 -0.363281,-0.1875 -0.632812,-0.1875 -0.140625,0 -0.445313,0.04687 -0.878907,0.09375 z m 13.423828,-0.483398 c 0.304687,0 0.597656,0.128906 0.808594,0.339843 0.246093,0.246094 0.363281,0.503907 0.363281,0.84375 0,0.304688 -0.117188,0.597657 -0.363281,0.808594 -0.210938,0.246094 -0.503907,0.363281 -0.808594,0.363281 -0.339844,0 -0.597656,-0.117187 -0.84375,-0.363281 -0.210938,-0.210937 -0.339844,-0.503906 -0.339844,-0.808594 0,-0.339843 0.128906,-0.597656 0.339844,-0.84375 0.222656,-0.210937 0.503906,-0.339843 0.84375,-0.339843 z m 0.140625,4.664062 -2.332031,8.203125 c -0.140625,0.550781 -0.210938,0.890625 -0.210938,1.007813 0,0.117187 0.02344,0.222656 0.09375,0.316406 0.07031,0.07031 0.164063,0.09375 0.269531,0.09375 0.117188,0 0.257813,-0.04687 0.433594,-0.164063 0.421875,-0.363281 0.878906,-0.867187 1.335938,-1.511718 l 0.410156,0.257812 c -0.527344,0.820313 -1.148438,1.511719 -1.875,2.0625 -0.527344,0.410156 -1.03125,0.632813 -1.535156,0.632813 -0.304688,0 -0.574219,-0.105469 -0.761719,-0.292969 -0.222656,-0.1875 -0.316406,-0.433594 -0.316406,-0.714844 0,-0.292969 0.09375,-0.773437 0.292968,-1.441406 l 1.535157,-5.261719 c 0.234375,-0.867187 0.351562,-1.394531 0.351562,-1.628906 0,-0.164063 -0.04687,-0.316406 -0.164062,-0.410156 -0.117188,-0.117188 -0.28125,-0.164063 -0.503907,-0.164063 -0.164062,0 -0.527343,0.04687 -1.054687,0.117188 v -0.457032 z m 3.360351,-4.628906 c 0.339844,0 0.597657,0.09375 0.84375,0.328125 0.234375,0.246094 0.328125,0.503906 0.328125,0.84375 0,0.339844 -0.09375,0.597656 -0.328125,0.84375 -0.246093,0.210937 -0.503906,0.328125 -0.84375,0.328125 -0.339843,0 -0.597656,-0.117188 -0.84375,-0.328125 -0.210937,-0.246094 -0.328125,-0.503906 -0.328125,-0.84375 0,-0.339844 0.117188,-0.597656 0.328125,-0.84375 0.246094,-0.234375 0.503907,-0.328125 0.84375,-0.328125 z m 0.1875,4.628906 -3.046875,10.488281 c -0.527343,1.875 -1.265625,3.234375 -2.203125,4.054688 -0.9375,0.84375 -1.96875,1.242187 -3.046875,1.242187 -0.503906,0 -0.890625,-0.117187 -1.125,-0.328125 -0.269531,-0.246093 -0.386718,-0.503906 -0.386718,-0.820312 0,-0.234375 0.09375,-0.457031 0.28125,-0.644531 0.199218,-0.175782 0.410156,-0.269532 0.679687,-0.269532 0.210938,0 0.398438,0.07031 0.574219,0.222657 0.140625,0.117187 0.210937,0.257812 0.210937,0.398437 0,0.199219 -0.09375,0.386719 -0.28125,0.539063 -0.105468,0.07031 -0.175781,0.140625 -0.175781,0.210937 l 0.02344,0.04687 c 0.02344,0.02344 0.08203,0.04687 0.128906,0.07031 0.04687,0.02344 0.09375,0.02344 0.1875,0.02344 0.644531,0 1.171875,-0.1875 1.628906,-0.597656 0.457031,-0.410156 0.84375,-1.195313 1.207031,-2.425781 l 2.636719,-9 c 0.234375,-0.867188 0.386719,-1.371094 0.386719,-1.464844 0,-0.1875 -0.09375,-0.351563 -0.269531,-0.503906 -0.164063,-0.140625 -0.386719,-0.210938 -0.621094,-0.210938 -0.117188,0 -0.210938,0 -0.363281,0.02344 -0.09375,0.02344 -0.234375,0.04687 -0.457032,0.07031 v -0.410156 z m 189.240231,4.962891 4.06641,-0.644531 -1.71094,5.683593 c 1.3711,-2.320312 2.61328,-3.960937 3.75,-4.898437 0.6211,-0.527344 1.14844,-0.785156 1.53516,-0.785156 0.25781,0 0.45703,0.07031 0.62109,0.234375 0.14063,0.152343 0.21094,0.363281 0.21094,0.65625 0,0.527343 -0.14062,1.007812 -0.39844,1.488281 -0.19922,0.328125 -0.45703,0.527344 -0.79687,0.527344 -0.1875,0 -0.33985,-0.08203 -0.48047,-0.199219 -0.11719,-0.117188 -0.1875,-0.28125 -0.23438,-0.527344 0,-0.140625 -0.0469,-0.234375 -0.10546,-0.28125 -0.0703,-0.08203 -0.14063,-0.105469 -0.21094,-0.105469 -0.14063,0 -0.26953,0.02344 -0.38672,0.105469 -0.1875,0.09375 -0.50391,0.398438 -0.9375,0.902344 -0.64453,0.773437 -1.33594,1.757812 -2.08594,2.976562 -0.33984,0.503907 -0.62109,1.089844 -0.86719,1.734375 -0.30468,0.914063 -0.5039,1.441407 -0.55078,1.605469 l -0.375,1.488281 h -1.78125 l 2.15625,-7.277343 c 0.2461,-0.832032 0.38672,-1.453125 0.38672,-1.816407 0,-0.117187 -0.0703,-0.246093 -0.1875,-0.339843 -0.15234,-0.117188 -0.36328,-0.1875 -0.63281,-0.1875 -0.14063,0 -0.44531,0.04687 -0.87891,0.09375 z m 14.98536,-1.939453 -3.31641,11.519531 1.32422,-1.160156 c 1.46484,-1.21875 2.42578,-2.132813 2.84765,-2.730469 0.15235,-0.1875 0.22266,-0.339844 0.22266,-0.457031 0,-0.07031 -0.0234,-0.117188 -0.0703,-0.1875 -0.0469,-0.07031 -0.15235,-0.128907 -0.29297,-0.152344 -0.11719,-0.04687 -0.36328,-0.07031 -0.71484,-0.07031 h -0.41016 l 0.11719,-0.433593 h 5.13281 l -0.11719,0.433593 c -0.57422,0.04687 -1.07812,0.117188 -1.51172,0.292969 -0.43359,0.140625 -0.84375,0.363281 -1.24218,0.667969 -0.79688,0.574219 -1.30079,0.984375 -1.5586,1.230469 l -1.00781,0.878906 c 0.16406,0.550781 0.375,1.347656 0.64453,2.355469 0.41016,1.675781 0.69141,2.660156 0.84375,2.976562 0.16406,0.316406 0.30469,0.457031 0.44531,0.457031 0.15235,0 0.29297,-0.04687 0.48047,-0.1875 0.41016,-0.292968 0.84375,-0.773437 1.30078,-1.417968 l 0.41016,0.28125 c -0.84375,1.078125 -1.48828,1.78125 -1.94531,2.121093 -0.45703,0.351563 -0.86719,0.527344 -1.25391,0.527344 -0.32812,0 -0.57422,-0.152344 -0.76172,-0.386719 -0.3164,-0.480468 -0.84375,-2.285156 -1.55859,-5.472656 l -1.60547,1.417969 -1.20703,4.148437 h -1.82813 l 3.89063,-13.371093 0.33984,-1.148438 c 0.0234,-0.1875 0.0469,-0.363281 0.0469,-0.503906 0,-0.1875 -0.0703,-0.339844 -0.21094,-0.480469 -0.15234,-0.117187 -0.36328,-0.164062 -0.63281,-0.164062 -0.1875,0 -0.45703,0.02344 -0.85547,0.09375 v -0.410157 z m 3.76757,6.046875 -1.57031,5.320312 c 1.46484,-2.179687 2.57813,-3.597656 3.36328,-4.289062 0.77344,-0.703125 1.51172,-1.03125 2.23828,-1.03125 0.39844,0 0.71485,0.117187 0.98438,0.386718 0.23437,0.257813 0.35156,0.597657 0.35156,1.007813 0,0.480469 -0.0937,1.101562 -0.32812,1.863281 l -1.41797,4.945313 c -0.16407,0.574218 -0.26953,0.914062 -0.26953,1.03125 0,0.128906 0.0469,0.222656 0.10546,0.292968 0.0703,0.07031 0.14063,0.09375 0.21094,0.09375 0.0937,0 0.1875,-0.04687 0.33985,-0.140625 0.39843,-0.339843 0.85546,-0.820312 1.33593,-1.488281 l 0.38672,0.210938 c -0.73828,1.03125 -1.41797,1.78125 -2.0625,2.238281 -0.45703,0.28125 -0.86719,0.457031 -1.21875,0.457031 -0.29297,0 -0.53906,-0.105469 -0.70312,-0.269531 -0.16407,-0.1875 -0.25782,-0.433594 -0.25782,-0.714844 0,-0.386719 0.14063,-1.007812 0.39844,-1.921875 l 1.3711,-4.734375 c 0.16406,-0.574219 0.24609,-1.03125 0.24609,-1.359375 0,-0.152344 -0.0469,-0.292969 -0.15234,-0.386719 -0.0937,-0.09375 -0.23438,-0.140625 -0.375,-0.140625 -0.22266,0 -0.48047,0.09375 -0.77344,0.28125 -0.59766,0.363282 -1.19531,0.9375 -1.82813,1.734375 -0.62109,0.808594 -1.26562,1.839844 -1.96875,3.117188 -0.35156,0.644531 -0.66797,1.371094 -0.90234,2.15625 l -0.60938,1.945312 h -1.74609 l 2.13281,-7.347656 c 0.2461,-0.878906 0.38672,-1.417969 0.38672,-1.582031 0,-0.164063 -0.0703,-0.339844 -0.21094,-0.457031 -0.15234,-0.117188 -0.3164,-0.1875 -0.5039,-0.1875 -0.10547,0 -0.26953,0.02344 -0.50391,0.04687 l -0.43359,0.07031 -0.082,-0.433594 z m -186.867184,29.572265 c 0.339844,0 0.597656,0.09375 0.84375,0.328125 0.234375,0.246094 0.328125,0.503907 0.328125,0.84375 0,0.339844 -0.09375,0.597657 -0.328125,0.84375 -0.246094,0.210938 -0.503906,0.328125 -0.84375,0.328125 -0.339844,0 -0.597656,-0.117187 -0.84375,-0.328125 -0.210938,-0.246093 -0.328125,-0.503906 -0.328125,-0.84375 0,-0.339843 0.117187,-0.597656 0.328125,-0.84375 0.246094,-0.234375 0.503906,-0.328125 0.84375,-0.328125 z m 0.1875,4.628907 -3.046875,10.488281 c -0.527344,1.875 -1.265625,3.234375 -2.203125,4.054687 -0.9375,0.84375 -1.96875,1.242188 -3.046875,1.242188 -0.503906,0 -0.890625,-0.117188 -1.125,-0.328125 -0.269531,-0.246094 -0.386719,-0.503906 -0.386719,-0.820313 0,-0.234375 0.09375,-0.457031 0.28125,-0.644531 0.199219,-0.175781 0.410156,-0.269531 0.679688,-0.269531 0.210937,0 0.398437,0.07031 0.574218,0.222656 0.140625,0.117188 0.210938,0.257813 0.210938,0.398438 0,0.199218 -0.09375,0.386718 -0.28125,0.539062 -0.105469,0.07031 -0.175781,0.140625 -0.175781,0.210938 l 0.02344,0.04687 c 0.02344,0.02344 0.08203,0.04687 0.128906,0.07031 0.04687,0.02344 0.09375,0.02344 0.1875,0.02344 0.644532,0 1.171875,-0.1875 1.628907,-0.597657 0.457031,-0.410156 0.84375,-1.195312 1.207031,-2.425781 l 2.636719,-9 c 0.234375,-0.867187 0.386718,-1.371094 0.386718,-1.464844 0,-0.1875 -0.09375,-0.351562 -0.269531,-0.503906 -0.164062,-0.140625 -0.386719,-0.210937 -0.621094,-0.210937 -0.117187,0 -0.210937,0 -0.363281,0.02344 -0.09375,0.02344 -0.234375,0.04687 -0.457031,0.07031 v -0.410157 z m 118.974609,-3.310547 -3.316406,11.519531 1.324219,-1.160156 c 1.464844,-1.21875 2.425781,-2.132813 2.847656,-2.730469 0.152344,-0.1875 0.222656,-0.339844 0.222656,-0.457031 0,-0.07031 -0.02344,-0.117188 -0.07031,-0.1875 -0.04687,-0.07031 -0.152344,-0.128907 -0.292969,-0.152344 -0.117187,-0.04687 -0.363281,-0.07031 -0.714844,-0.07031 h -0.410156 l 0.117188,-0.433593 h 5.132812 l -0.117187,0.433593 c -0.574219,0.04687 -1.078125,0.117188 -1.511719,0.292969 -0.433594,0.140625 -0.84375,0.363281 -1.242188,0.667969 -0.796875,0.574219 -1.300781,0.984375 -1.558593,1.230469 l -1.007813,0.878906 c 0.164063,0.550781 0.375,1.347656 0.644531,2.355469 0.410157,1.675781 0.691407,2.660156 0.84375,2.976562 0.164063,0.316406 0.304688,0.457031 0.445313,0.457031 0.152344,0 0.292969,-0.04687 0.480469,-0.1875 0.410156,-0.292968 0.84375,-0.773437 1.300781,-1.417968 l 0.410156,0.28125 c -0.84375,1.078125 -1.488281,1.78125 -1.945312,2.121093 -0.457032,0.351563 -0.867188,0.527344 -1.253907,0.527344 -0.328125,0 -0.574218,-0.152344 -0.761718,-0.386719 -0.316407,-0.480468 -0.84375,-2.285156 -1.558594,-5.472656 l -1.605469,1.417969 -1.207031,4.148437 h -1.828125 l 3.890625,-13.371093 0.339844,-1.148438 c 0.02344,-0.1875 0.04687,-0.363281 0.04687,-0.503906 0,-0.1875 -0.07031,-0.339844 -0.210938,-0.480469 -0.152344,-0.117187 -0.363281,-0.164062 -0.632812,-0.164062 -0.1875,0 -0.457032,0.02344 -0.855469,0.09375 v -0.410157 z m 38.115235,-101.666015 -1.57031,5.32031 c 1.46484,-2.17969 2.57812,-3.59765 3.36328,-4.28906 0.77344,-0.70313 1.51172,-1.03125 2.23828,-1.03125 0.39844,0 0.71484,0.11719 0.98437,0.38672 0.23438,0.25781 0.35157,0.59765 0.35157,1.00781 0,0.48047 -0.0937,1.10156 -0.32813,1.86328 l -1.41797,4.94531 c -0.16406,0.57422 -0.26953,0.91407 -0.26953,1.03125 0,0.12891 0.0469,0.22266 0.10547,0.29297 0.0703,0.0703 0.14063,0.0937 0.21094,0.0937 0.0937,0 0.1875,-0.0469 0.33984,-0.14062 0.39844,-0.33985 0.85547,-0.82031 1.33594,-1.48828 l 0.38672,0.21093 c -0.73828,1.03125 -1.41797,1.78125 -2.0625,2.23829 -0.45703,0.28125 -0.86719,0.45703 -1.21875,0.45703 -0.29297,0 -0.53906,-0.10547 -0.70313,-0.26953 -0.16406,-0.1875 -0.25781,-0.4336 -0.25781,-0.71485 0,-0.38672 0.14063,-1.00781 0.39844,-1.92187 l 1.37109,-4.73438 c 0.16406,-0.57422 0.2461,-1.03125 0.2461,-1.35937 0,-0.15235 -0.0469,-0.29297 -0.15235,-0.38672 -0.0937,-0.0937 -0.23437,-0.14063 -0.375,-0.14063 -0.22265,0 -0.48047,0.0937 -0.77344,0.28125 -0.59765,0.36328 -1.19531,0.9375 -1.82812,1.73438 -0.62109,0.80859 -1.26563,1.83984 -1.96875,3.11719 -0.35156,0.64453 -0.66797,1.37109 -0.90234,2.15625 l -0.60938,1.94531 h -1.74609 l 2.13281,-7.34766 c 0.24609,-0.8789 0.38672,-1.41797 0.38672,-1.58203 0,-0.16406 -0.0703,-0.33984 -0.21094,-0.45703 -0.15234,-0.11719 -0.31641,-0.1875 -0.50391,-0.1875 -0.10546,0 -0.26953,0.0234 -0.5039,0.0469 l -0.4336,0.0703 -0.082,-0.4336 z m 0,0"
       style="fill:#231f20;fill-opacity:1;fill-rule:nonzero;stroke:none"
       aria-label="r&#10;jk&#10;r&#10;ij&#10;r&#10;kn&#10;j&#10;k&#10;n"
       transform="matrix(1.3333333,0,0,1.3333333,243.74133,241.83333)" />
  </g>
</svg>
