<?xml version="1.0" encoding="UTF-8" standalone="no"?>
<!-- Created with Inkscape (http://www.inkscape.org/) -->

<svg
   version="1.1"
   id="svg1"
   width="298.66666"
   height="281.33334"
   viewBox="0 0 298.66666 281.33334"
   sodipodi:docname="finitediff.svg"
   inkscape:version="1.3 (1:1.3+202307231459+0e150ed6c4)"
   xmlns:inkscape="http://www.inkscape.org/namespaces/inkscape"
   xmlns:sodipodi="http://sodipodi.sourceforge.net/DTD/sodipodi-0.dtd"
   xmlns="http://www.w3.org/2000/svg"
   xmlns:svg="http://www.w3.org/2000/svg">
  <defs
     id="defs1">
    <clipPath
       clipPathUnits="userSpaceOnUse"
       id="clipPath2">
      <path
         d="M 0,0 H 2236.6 V 2105.15 H 0 Z"
         transform="translate(0,-2.5e-5)"
         id="path2" />
    </clipPath>
    <clipPath
       clipPathUnits="userSpaceOnUse"
       id="clipPath4">
      <path
         d="M 0,0 H 2236.6 V 2105.15 H 0 Z"
         transform="translate(0,-2.5e-5)"
         id="path4" />
    </clipPath>
    <clipPath
       clipPathUnits="userSpaceOnUse"
       id="clipPath6">
      <path
         d="M 0,0 H 2236.6 V 2105.15 H 0 Z"
         transform="translate(0,-2.5e-5)"
         id="path6" />
    </clipPath>
    <clipPath
       clipPathUnits="userSpaceOnUse"
       id="clipPath8">
      <path
         d="M 0,0 H 2236.6 V 2105.15 H 0 Z"
         transform="translate(0,-2.5e-5)"
         id="path8" />
    </clipPath>
    <clipPath
       clipPathUnits="userSpaceOnUse"
       id="clipPath10">
      <path
         d="M 0,0 H 2236.6 V 2105.15 H 0 Z"
         transform="translate(0,-2.5e-5)"
         id="path10" />
    </clipPath>
    <clipPath
       clipPathUnits="userSpaceOnUse"
       id="clipPath12">
      <path
         d="M 0,0 H 2236.6 V 2105.15 H 0 Z"
         transform="matrix(0.1,0,0,-0.1,-116.91801,10.2391)"
         id="path12" />
    </clipPath>
    <clipPath
       clipPathUnits="userSpaceOnUse"
       id="clipPath14">
      <path
         d="M 0,0 H 2236.6 V 2105.15 H 0 Z"
         transform="translate(0,-2.5e-5)"
         id="path14" />
    </clipPath>
    <clipPath
       clipPathUnits="userSpaceOnUse"
       id="clipPath16">
      <path
         d="M 0,0 H 2236.6 V 2105.15 H 0 Z"
         transform="translate(0,-2.5e-5)"
         id="path16" />
    </clipPath>
    <clipPath
       clipPathUnits="userSpaceOnUse"
       id="clipPath18">
      <path
         d="M 0,0 H 2236.6 V 2105.15 H 0 Z"
         transform="matrix(0.1,0,0,-0.1,-8.3019505,90.080105)"
         id="path18" />
    </clipPath>
    <clipPath
       clipPathUnits="userSpaceOnUse"
       id="clipPath20">
      <path
         d="M 0,0 H 2236.6 V 2105.15 H 0 Z"
         transform="translate(0,-2.5e-5)"
         id="path20" />
    </clipPath>
    <clipPath
       clipPathUnits="userSpaceOnUse"
       id="clipPath22">
      <path
         d="M 0,0 H 2236.6 V 2105.15 H 0 Z"
         transform="translate(0,-2.5e-5)"
         id="path22" />
    </clipPath>
    <clipPath
       clipPathUnits="userSpaceOnUse"
       id="clipPath24">
      <path
         d="M 0,0 H 2236.6 V 2105.15 H 0 Z"
         transform="translate(0,-2.5e-5)"
         id="path24" />
    </clipPath>
    <clipPath
       clipPathUnits="userSpaceOnUse"
       id="clipPath27">
      <path
         d="M 0,0 H 2236.6 V 2105.15 H 0 Z"
         transform="matrix(0.1,0,0,-0.1,-136.761,131.20501)"
         id="path27" />
    </clipPath>
    <clipPath
       clipPathUnits="userSpaceOnUse"
       id="clipPath29">
      <path
         d="M 0,0 H 2236.6 V 2105.15 H 0 Z"
         transform="translate(0,-2.5e-5)"
         id="path29" />
    </clipPath>
    <clipPath
       clipPathUnits="userSpaceOnUse"
       id="clipPath31">
      <path
         d="M 0,0 H 2236.6 V 2105.15 H 0 Z"
         transform="translate(0,-2.5e-5)"
         id="path31" />
    </clipPath>
    <clipPath
       clipPathUnits="userSpaceOnUse"
       id="clipPath33">
      <path
         d="M 0,0 H 2236.6 V 2105.15 H 0 Z"
         transform="translate(0,-2.5e-5)"
         id="path33" />
    </clipPath>
    <clipPath
       clipPathUnits="userSpaceOnUse"
       id="clipPath35">
      <path
         d="M 0,0 H 2236.6 V 2105.15 H 0 Z"
         transform="translate(0,-2.5e-5)"
         id="path35" />
    </clipPath>
    <clipPath
       clipPathUnits="userSpaceOnUse"
       id="clipPath38">
      <path
         d="M 0,0 H 2236.6 V 2105.15 H 0 Z"
         transform="matrix(0.1,0,0,-0.1,-84.269905,25.410198)"
         id="path38" />
    </clipPath>
    <clipPath
       clipPathUnits="userSpaceOnUse"
       id="clipPath40">
      <path
         d="M 0,0 H 2236.6 V 2105.15 H 0 Z"
         transform="translate(0,-2.5e-5)"
         id="path40" />
    </clipPath>
    <clipPath
       clipPathUnits="userSpaceOnUse"
       id="clipPath42">
      <path
         d="M 0,0 H 2236.6 V 2105.15 H 0 Z"
         transform="translate(0,-2.5e-5)"
         id="path42" />
    </clipPath>
    <clipPath
       clipPathUnits="userSpaceOnUse"
       id="clipPath45">
      <path
         d="M 0,0 H 2236.6 V 2105.15 H 0 Z"
         transform="matrix(0.1,0,0,-0.1,-127.363,110.19301)"
         id="path45" />
    </clipPath>
    <clipPath
       clipPathUnits="userSpaceOnUse"
       id="clipPath47">
      <path
         d="M 0,0 H 2236.6 V 2105.15 H 0 Z"
         transform="translate(0,-2.5e-5)"
         id="path47" />
    </clipPath>
    <clipPath
       clipPathUnits="userSpaceOnUse"
       id="clipPath49">
      <path
         d="M 0,0 H 2236.6 V 2105.15 H 0 Z"
         transform="translate(0,-2.5e-5)"
         id="path49" />
    </clipPath>
    <clipPath
       clipPathUnits="userSpaceOnUse"
       id="clipPath54">
      <path
         d="M 0,0 H 2236.6 V 2105.15 H 0 Z"
         transform="matrix(0.1,0,0,-0.1,-83.428105,118.192)"
         id="path54" />
    </clipPath>
    <clipPath
       clipPathUnits="userSpaceOnUse"
       id="clipPath56">
      <path
         d="M 0,0 H 2236.6 V 2105.15 H 0 Z"
         transform="translate(0,-2.5e-5)"
         id="path56" />
    </clipPath>
    <clipPath
       clipPathUnits="userSpaceOnUse"
       id="clipPath58">
      <path
         d="M 0,0 H 2236.6 V 2105.15 H 0 Z"
         transform="translate(0,-2.5e-5)"
         id="path58" />
    </clipPath>
    <clipPath
       clipPathUnits="userSpaceOnUse"
       id="clipPath62">
      <path
         d="M 0,0 H 2236.6 V 2105.15 H 0 Z"
         transform="matrix(0.1,0,0,-0.1,-165.10701,118.192)"
         id="path62" />
    </clipPath>
    <clipPath
       clipPathUnits="userSpaceOnUse"
       id="clipPath64">
      <path
         d="M 0,0 H 2236.6 V 2105.15 H 0 Z"
         transform="translate(0,-2.5e-5)"
         id="path64" />
    </clipPath>
    <clipPath
       clipPathUnits="userSpaceOnUse"
       id="clipPath66">
      <path
         d="M 0,0 H 2236.6 V 2105.15 H 0 Z"
         transform="translate(0,-2.5e-5)"
         id="path66" />
    </clipPath>
    <clipPath
       clipPathUnits="userSpaceOnUse"
       id="clipPath71">
      <path
         d="M 0,0 H 2236.6 V 2105.15 H 0 Z"
         transform="matrix(0.1,0,0,-0.1,-122.742,154.428)"
         id="path71" />
    </clipPath>
  </defs>
  <sodipodi:namedview
     id="namedview1"
     pagecolor="#ffffff"
     bordercolor="#000000"
     borderopacity="0.25"
     inkscape:showpageshadow="2"
     inkscape:pageopacity="0.0"
     inkscape:pagecheckerboard="0"
     inkscape:deskcolor="#d1d1d1"
     inkscape:zoom="1.7914691"
     inkscape:cx="149.59789"
     inkscape:cy="140.66667"
     inkscape:window-width="1296"
     inkscape:window-height="704"
     inkscape:window-x="0"
     inkscape:window-y="0"
     inkscape:window-maximized="1"
     inkscape:current-layer="g1">
    <inkscape:page
       x="0"
       y="0"
       inkscape:label="1"
       id="page1"
       width="298.66666"
       height="281.33334"
       margin="0"
       bleed="0" />
  </sodipodi:namedview>
  <g
     id="g1"
     inkscape:groupmode="layer"
     inkscape:label="1">
    <path
       id="path1"
       d="M 482.004,350.555 H 2182.81 M 482.004,634.023 H 2182.81 M 482.004,917.488 H 2182.81 M 482.004,1200.96 H 2182.81 M 482.004,1484.43 H 2182.81 M 482.004,1767.89 H 2182.81 M 482.004,2051.26 H 2182.81 M 482.004,350.555 V 2051.36 M 765.473,350.555 V 2051.36 M 1048.94,350.555 V 2051.36 M 1332.41,350.555 V 2051.36 M 1615.88,350.555 V 2051.36 M 1899.34,350.555 V 2051.36 M 2182.71,350.555 V 2051.36"
       style="fill:none;stroke:#808080;stroke-width:1.9925;stroke-linecap:butt;stroke-linejoin:miter;stroke-miterlimit:10;stroke-dasharray:none;stroke-opacity:1"
       transform="matrix(0.13333333,0,0,-0.13333333,0,281.33333)"
       clip-path="url(#clipPath2)" />
    <path
       id="path3"
       d="M 482.004,350.555 V 2051.36"
       style="fill:none;stroke:#000000;stroke-width:7.9701;stroke-linecap:butt;stroke-linejoin:miter;stroke-miterlimit:10;stroke-dasharray:none;stroke-opacity:1"
       transform="matrix(0.13333333,0,0,-0.13333333,0,281.33333)"
       clip-path="url(#clipPath4)" />
    <path
       id="path5"
       d="M 2182.81,350.555 V 2051.36"
       style="fill:none;stroke:#000000;stroke-width:7.9701;stroke-linecap:butt;stroke-linejoin:miter;stroke-miterlimit:10;stroke-dasharray:none;stroke-opacity:1"
       transform="matrix(0.13333333,0,0,-0.13333333,0,281.33333)"
       clip-path="url(#clipPath6)" />
    <path
       id="path7"
       d="M 311.922,180.473 H 1129.4"
       style="fill:none;stroke:#000000;stroke-width:3.985;stroke-linecap:butt;stroke-linejoin:miter;stroke-miterlimit:10;stroke-dasharray:none;stroke-opacity:1"
       transform="matrix(0.13333333,0,0,-0.13333333,0,281.33333)"
       clip-path="url(#clipPath8)" />
    <path
       id="path9"
       d="m 1117.44,196.41 c 1,-5.976 11.96,-14.941 14.95,-15.937 -2.99,-0.996 -13.95,-9.965 -14.95,-15.942"
       style="fill:none;stroke:#000000;stroke-width:3.1879;stroke-linecap:round;stroke-linejoin:round;stroke-miterlimit:10;stroke-dasharray:none;stroke-opacity:1"
       transform="matrix(0.13333333,0,0,-0.13333333,0,281.33333)"
       clip-path="url(#clipPath10)" />
    <path
       id="path11"
       d="m 2.0741875,-1.9347281 c 0.2226562,0.035156 1.03125,0.1992187 1.03125,0.9140625 0,0.51562498 -0.3515625,0.91406248 -1.125,0.91406248 -0.8320313,0 -1.1953125,-0.57421875 -1.3828125,-1.41796878 C 0.5624687,-1.6534781 0.5624687,-1.7003531 0.457,-1.7003531 c -0.12890625,0 -0.12890625,0.070312 -0.12890625,0.2578125 v 1.31249998 c 0,0.1640625 0,0.234375 0.10546875,0.234375 0.0585938,0 0.0703125,0 0.2578125,-0.19921875 0.0117188,-0.01171875 0.0117188,-0.03515625 0.19921875,-0.22265625 0.43359375,0.421875 0.87890625,0.421875 1.08984375,0.421875 1.1484375,0 1.6054687,-0.66796875 1.6054687,-1.38281248 0,-0.5273438 -0.2929687,-0.8203125 -0.421875,-0.9492188 -0.328125,-0.3164062 -0.7148437,-0.3984375 -1.1367187,-0.46875 -0.5507813,-0.1171875 -1.21875,-0.2460937 -1.21875,-0.8203125 0,-0.3515625 0.2578125,-0.7617187 1.1132812,-0.7617187 1.1015625,0 1.1484375,0.9023437 1.171875,1.2070312 0,0.09375 0.09375,0.09375 0.1171875,0.09375 0.1289063,0 0.1289063,-0.046875 0.1289063,-0.2460937 v -0.9960938 c 0,-0.1757812 0,-0.2460937 -0.1171875,-0.2460937 -0.046875,0 -0.070312,0 -0.1992188,0.1171875 -0.023437,0.046875 -0.1289062,0.1289062 -0.1640625,0.1640625 -0.375,-0.28125 -0.7851562,-0.28125 -0.9375,-0.28125 -1.21874995,0 -1.59374995,0.6679687 -1.59374995,1.2304687 0,0.3398438 0.1640625,0.6210938 0.43359375,0.84375 0.3164062,0.2578125 0.5976562,0.3164063 1.3125,0.4570313 z m 3.5654297,-1.8164063 v -0.65625 l -1.4296875,0.1171875 v 0.3046875 c 0.703125,0 0.7734375,0.058594 0.7734375,0.4921875 v 4.6640625 c 0,0.4570313 -0.1054688,0.4570313 -0.7734375,0.4570313 v 0.3046875 c 0.3398437,-0.011719 0.8554687,-0.035156 1.1132812,-0.035156 0.2695313,0 0.7734375,0.023437 1.125,0.035156 V 1.6277719 c -0.6679687,0 -0.7734375,0 -0.7734375,-0.4570313 v -1.75781247 c 0.046875,0.15234375 0.46875,0.69140625 1.21875,0.69140625 1.1835938,0 2.2265625,-0.97265625 2.2265625,-2.26171878 0,-1.265625 -0.9726562,-2.25 -2.0859375,-2.25 -0.7734375,0 -1.1953125,0.4453125 -1.3945312,0.65625 z m 0.035156,2.6132813 v -2.2148438 c 0.28125,-0.515625 0.7734375,-0.796875 1.2773438,-0.796875 0.7265625,0 1.3359375,0.8671875 1.3359375,1.9921875 0,1.20703128 -0.6914063,2.05078128 -1.4296875,2.05078128 -0.3984375,0 -0.7734375,-0.19921875 -1.0429688,-0.609375 -0.140625,-0.2109375 -0.140625,-0.22265625 -0.140625,-0.42187498 z m 7.1074218,0.37499998 c 0.03516,0.3984375 0.304688,0.8203125 0.773438,0.8203125 0.210937,0 0.820312,-0.140625 0.820312,-0.94921875 V -1.4425406 h -0.246093 v 0.55078123 c 0,0.5859375 -0.246094,0.64453125 -0.363282,0.64453125 -0.328125,0 -0.363281,-0.45703125 -0.363281,-0.50390625 V -2.7433219 c 0,-0.4101562 0,-0.8085937 -0.363281,-1.171875 -0.386719,-0.3867187 -0.878906,-0.5507812 -1.359375,-0.5507812 -0.820313,0 -1.511719,0.46875 -1.511719,1.125 0,0.3046875 0.199219,0.46875 0.457031,0.46875 0.28125,0 0.46875,-0.1992188 0.46875,-0.4570313 0,-0.1171875 -0.05859,-0.4453125 -0.515625,-0.4570312 0.269532,-0.3515625 0.761719,-0.4570313 1.078125,-0.4570313 0.492188,0 1.054688,0.3867188 1.054688,1.2773438 v 0.3632812 c -0.503906,0.035156 -1.207031,0.058594 -1.828125,0.3632813 -0.75,0.3398437 -0.9960941,0.8554687 -0.9960941,1.28906248 0,0.80859375 0.9609381,1.0546875 1.5937501,1.0546875 0.65625,0 1.113281,-0.3984375 1.300781,-0.8671875 z m -0.07031,-1.62890628 v 0.9960938 c 0,0.94921873 -0.714844,1.28906248 -1.160156,1.28906248 -0.492188,0 -0.902344,-0.3515625 -0.902344,-0.85546875 0,-0.53906253 0.421875,-1.37109373 2.0625,-1.42968753 z m 2.894531,0.2226563 c 0,-1.6289063 0.820313,-2.0507813 1.347656,-2.0507813 0.09375,0 0.714844,0.011719 1.066407,0.375 -0.410157,0.023437 -0.46875,0.328125 -0.46875,0.4570313 0,0.2578125 0.1875,0.4570312 0.457031,0.4570312 0.257812,0 0.457031,-0.1640625 0.457031,-0.46875 0,-0.6796875 -0.75,-1.0664062 -1.523437,-1.0664062 -1.242188,0 -2.15625,1.078125 -2.15625,2.3085937 0,1.27734378 0.984375,2.26171878 2.144531,2.26171878 1.335937,0 1.652344,-1.19531248 1.652344,-1.28906248 0,-0.1054688 -0.105469,-0.1054688 -0.128907,-0.1054688 -0.09375,0 -0.117187,0.046875 -0.128906,0.1054688 -0.292969,0.92578123 -0.9375,1.04296873 -1.3125,1.04296873 -0.527344,0 -1.40625,-0.421875 -1.40625,-2.02734373 z m 4.379883,-0.3398438 c 0.05859,-1.4882812 0.902344,-1.734375 1.242187,-1.734375 1.019532,0 1.125,1.3476563 1.125,1.734375 z m -0.01172,0.2109375 h 2.789063 c 0.210937,0 0.246093,0 0.246093,-0.2109375 0,-0.984375 -0.539062,-1.9570312 -1.78125,-1.9570312 -1.160156,0 -2.074218,1.03125 -2.074218,2.2734375 0,1.33593748 1.042968,2.29687498 2.191406,2.29687498 1.21875,0 1.664062,-1.1015625 1.664062,-1.28906248 0,-0.1054688 -0.08203,-0.1171875 -0.128906,-0.1171875 -0.09375,0 -0.117187,0.058594 -0.128906,0.140625 -0.351563,1.01953123 -1.253906,1.01953123 -1.347656,1.01953123 -0.503907,0 -0.902344,-0.29296875 -1.125,-0.66796875 C 19.974578,-1.2901969 19.974578,-1.9464469 19.974579,-2.2980094 Z m 0,0"
       style="fill:#000000;fill-opacity:1;fill-rule:nonzero;stroke:none"
       aria-label="space"
       transform="matrix(1.3333333,0,0,1.3333333,155.89067,267.6812)"
       clip-path="url(#clipPath12)" />
    <path
       id="path13"
       d="M 311.922,180.473 V 997.949"
       style="fill:none;stroke:#000000;stroke-width:3.985;stroke-linecap:butt;stroke-linejoin:miter;stroke-miterlimit:10;stroke-dasharray:none;stroke-opacity:1"
       transform="matrix(0.13333333,0,0,-0.13333333,0,281.33333)"
       clip-path="url(#clipPath14)" />
    <path
       id="path15"
       d="m 295.98,985.992 c 5.977,0.996 14.946,11.957 15.942,14.948 0.996,-2.991 9.961,-13.952 15.941,-14.948"
       style="fill:none;stroke:#000000;stroke-width:3.1879;stroke-linecap:round;stroke-linejoin:round;stroke-miterlimit:10;stroke-dasharray:none;stroke-opacity:1"
       transform="matrix(0.13333333,0,0,-0.13333333,0,281.33333)"
       clip-path="url(#clipPath16)" />
    <path
       id="path17"
       d="M 1.7234406,-3.9843531 H 3.1531281 V -4.2890406 H 1.7234406 V -6.1288844 H 1.4773469 c -0.011719,0.8203125 -0.3164063,1.8867188 -1.28906252,1.921875 v 0.2226563 H 1.0320344 v 2.7539062 c 0,1.21875003 0.9257812,1.33593753 1.2890625,1.33593753 0.703125,0 0.984375,-0.703125 0.984375,-1.33593753 V -1.8046656 H 3.0593781 v 0.5507812 c 0,0.73828128 -0.3046875,1.11328128 -0.6679687,1.11328128 -0.6679688,0 -0.6679688,-0.90234378 -0.6679688,-1.07812498 z m 3.9082031,-0.421875 -1.3945312,0.1171875 v 0.3046875 c 0.65625,0 0.7382812,0.058594 0.7382812,0.5507812 v 2.67187503 c 0,0.45703125 -0.1054687,0.45703125 -0.7734375,0.45703125 V 2.1875e-5 C 4.5183625,-0.01169687 5.057425,-0.03513437 5.3035187,-0.03513437 c 0.3398438,0 0.6914063,0.0234375 1.03125,0.035156245 V -0.30466562 c -0.65625,0 -0.703125,-0.0585938 -0.703125,-0.4453125 z m 0.046875,-1.734375 c 0,-0.3164063 -0.2460937,-0.5273438 -0.5273437,-0.5273438 -0.3164063,0 -0.5273438,0.2695313 -0.5273438,0.5273438 0,0.2695312 0.2109375,0.5273437 0.5273438,0.5273437 0.28125,0 0.5273437,-0.1992187 0.5273437,-0.5273437 z m 2.0654297,2.71875 v 2.66015623 c 0,0.45703125 -0.1171875,0.45703125 -0.7851562,0.45703125 V 2.1875e-5 c 0.3515625,-0.011718745 0.8554687,-0.035156245 1.125,-0.035156245 0.2578125,0 0.7851562,0.0234375 1.1132812,0.035156245 V -0.30466562 c -0.65625,0 -0.7734375,0 -0.7734375,-0.45703125 V -2.5898219 c 0,-1.03125 0.7148438,-1.59375 1.3476563,-1.59375 0.6210938,0 0.7382808,0.5390625 0.7382808,1.1015625 v 2.32031253 c 0,0.45703125 -0.117187,0.45703125 -0.7734371,0.45703125 V 2.1875e-5 C 10.07598,-0.01169687 10.591605,-0.03513437 10.861136,-0.03513437 c 0.257812,0 0.773437,0.0234375 1.113281,0.035156245 V -0.30466562 c -0.667969,0 -0.785156,0 -0.785156,-0.45703125 V -2.5898219 c 0,-1.03125 0.714844,-1.59375 1.347656,-1.59375 0.632813,0 0.738281,0.5390625 0.738281,1.1015625 v 2.32031253 c 0,0.45703125 -0.105468,0.45703125 -0.773437,0.45703125 V 2.1875e-5 c 0.351562,-0.011718745 0.855469,-0.035156245 1.125,-0.035156245 0.257812,0 0.773437,0.0234375 1.113281,0.035156245 V -0.30466562 c -0.515625,0 -0.761719,0 -0.773437,-0.3046875 V -2.5077906 c 0,-0.8554688 0,-1.171875 -0.316407,-1.5234375 -0.128906,-0.1757813 -0.46875,-0.375 -1.042968,-0.375 -0.832032,0 -1.277344,0.5976562 -1.441407,0.984375 -0.140625,-0.8671875 -0.878906,-0.984375 -1.3242183,-0.984375 -0.7265625,0 -1.1953125,0.4335937 -1.4765625,1.0546875 v -1.0546875 l -1.40625,0.1171875 v 0.3046875 c 0.703125,0 0.7851562,0.070312 0.7851562,0.5625 z m 8.3144536,0.9140625 c 0.05859,-1.4882813 0.902343,-1.734375 1.242187,-1.734375 1.019531,0 1.125,1.3476562 1.125,1.734375 z m -0.01172,0.2109375 h 2.789062 c 0.210938,0 0.246094,0 0.246094,-0.2109375 0,-0.984375 -0.539062,-1.9570313 -1.78125,-1.9570313 -1.160156,0 -2.074219,1.03125 -2.074219,2.2734375 0,1.33593753 1.042969,2.29687503 2.191407,2.29687503 1.21875,0 1.664062,-1.1015625 1.664062,-1.28906253 0,-0.1054687 -0.08203,-0.1171875 -0.128906,-0.1171875 -0.09375,0 -0.117188,0.058594 -0.128906,0.140625 -0.351563,1.01953128 -1.253907,1.01953128 -1.347657,1.01953128 -0.503906,0 -0.902343,-0.29296875 -1.125,-0.66796875 C 16.046683,-1.2890406 16.046683,-1.9452906 16.046683,-2.2968531 Z m 0,0"
       style="fill:#000000;fill-opacity:1;fill-rule:nonzero;stroke:none"
       aria-label="time"
       transform="matrix(1.3333333,0,0,1.3333333,11.069267,161.22653)"
       clip-path="url(#clipPath18)" />
    <path
       id="path19"
       d="M 1332.41,1200.96 V 1449"
       style="fill:none;stroke:#000000;stroke-width:7.9701;stroke-linecap:butt;stroke-linejoin:miter;stroke-miterlimit:10;stroke-dasharray:none;stroke-opacity:1"
       transform="matrix(0.13333333,0,0,-0.13333333,0,281.33333)"
       clip-path="url(#clipPath20)" />
    <path
       id="path21"
       d="m 1311.69,1433.46 c 7.77,1.3 19.42,15.54 20.72,19.43 1.29,-3.89 12.95,-18.13 20.72,-19.43"
       style="fill:none;stroke:#000000;stroke-width:6.376;stroke-linecap:round;stroke-linejoin:round;stroke-miterlimit:10;stroke-dasharray:none;stroke-opacity:1"
       transform="matrix(0.13333333,0,0,-0.13333333,0,281.33333)"
       clip-path="url(#clipPath22)" />
    <path
       id="path23"
       d="m 1332.41,1342.69 v 0 0 z"
       style="fill:none;stroke:#000000;stroke-width:3.985;stroke-linecap:butt;stroke-linejoin:miter;stroke-miterlimit:10;stroke-dasharray:none;stroke-opacity:1"
       transform="matrix(0.13333333,0,0,-0.13333333,0,281.33333)"
       clip-path="url(#clipPath24)" />
    <g
       id="g24"
       aria-label="∆t"
       transform="matrix(1.3333333,0,0,1.3333333,182.348,106.39333)"
       clip-path="url(#clipPath27)">
      <path
         id="path25"
         d="m 4.1013047,-6.2100391 c -0.082031,-0.1640625 -0.1289063,-0.2109375 -0.2695313,-0.2109375 -0.1289062,0 -0.1875,0.046875 -0.2460937,0.1757813 l -3.09375001,6.03515624 c -0.0351563,0.0703125 -0.0585938,0.1171875 -0.0585938,0.12890625 0,0.0820312475 0.0703125,0.0820312475 0.2109375,0.0820312475 H 7.0192734 c 0.140625,0 0.2109375,0 0.2109375,-0.0820312475 0,-0.01171875 0,-0.0234375 -0.046875,-0.1171875 z m -0.5742188,0.6796875 2.4960938,4.83984379 h -4.96875 z m 0,0"
         style="fill:#000000;fill-opacity:1;fill-rule:nonzero;stroke:none" />
      <path
         id="path26"
         d="m 9.5886094,-3.5850391 h 0.8554686 c 0.152344,0 0.269531,0 0.269531,-0.1640625 0,-0.1171875 -0.09375,-0.1171875 -0.257812,-0.1171875 H 9.6589219 l 0.3632811,-1.4882812 c 0,-0.140625 -0.1171874,-0.2578125 -0.2695311,-0.2578125 -0.2929688,0 -0.3632813,0.2578125 -0.375,0.3515625 l -0.3632813,1.3945312 h -0.84375 c -0.1640625,0 -0.28125,0 -0.28125,0.1640625 0,0.1171875 0.1054688,0.1171875 0.2695313,0.1171875 h 0.796875 l -0.609375,2.4375 c -0.082031,0.26953129 -0.082031,0.29296879 -0.082031,0.41015629 0,0.52734375 0.4101563,0.83203125 0.8789063,0.83203125 0.9257808,0 1.4531248,-1.28906254 1.4531248,-1.37109374 0,-0.046875 -0.02344,-0.1171875 -0.117188,-0.1171875 -0.08203,0 -0.09375,0.035156 -0.152343,0.1875 -0.28125,0.64453124 -0.7265626,1.07812499 -1.1718751,1.07812499 -0.1757812,0 -0.28125,-0.1171875 -0.28125,-0.41015625 0,-0.19921875 0.023437,-0.3046875 0.058594,-0.43359375 z m 0,0"
         style="fill:#000000;fill-opacity:1;fill-rule:nonzero;stroke:none" />
    </g>
    <path
       id="path28"
       d="M 772.547,350.555 H 1041.87"
       style="fill:none;stroke:#000000;stroke-width:7.9701;stroke-linecap:butt;stroke-linejoin:miter;stroke-miterlimit:10;stroke-dasharray:none;stroke-opacity:1"
       transform="matrix(0.13333333,0,0,-0.13333333,0,281.33333)"
       clip-path="url(#clipPath29)" />
    <path
       id="path30"
       d="m 788.086,329.832 c -1.293,7.77 -15.539,19.426 -19.426,20.723 3.887,1.293 18.133,12.949 19.426,20.722"
       style="fill:none;stroke:#000000;stroke-width:6.376;stroke-linecap:round;stroke-linejoin:round;stroke-miterlimit:10;stroke-dasharray:none;stroke-opacity:1"
       transform="matrix(0.13333333,0,0,-0.13333333,0,281.33333)"
       clip-path="url(#clipPath31)" />
    <path
       id="path32"
       d="m 1026.32,371.277 c 1.3,-7.773 15.55,-19.429 19.43,-20.722 -3.88,-1.297 -18.13,-12.953 -19.43,-20.723"
       style="fill:none;stroke:#000000;stroke-width:6.376;stroke-linecap:round;stroke-linejoin:round;stroke-miterlimit:10;stroke-dasharray:none;stroke-opacity:1"
       transform="matrix(0.13333333,0,0,-0.13333333,0,281.33333)"
       clip-path="url(#clipPath33)" />
    <path
       id="path34"
       d="m 907.207,350.555 v 0 0 z"
       style="fill:none;stroke:#000000;stroke-width:3.985;stroke-linecap:butt;stroke-linejoin:miter;stroke-miterlimit:10;stroke-dasharray:none;stroke-opacity:1"
       transform="matrix(0.13333333,0,0,-0.13333333,0,281.33333)"
       clip-path="url(#clipPath35)" />
    <g
       id="g35"
       aria-label="∆x"
       transform="matrix(1.3333333,0,0,1.3333333,112.35987,247.45307)"
       clip-path="url(#clipPath38)">
      <path
         id="path36"
         d="m 4.1011937,-6.2108937 c -0.082031,-0.1640625 -0.1289062,-0.2109375 -0.2695312,-0.2109375 -0.1289063,0 -0.1875,0.046875 -0.2460938,0.1757812 l -3.09374995,6.03515625 c -0.0351563,0.0703125 -0.0585938,0.1171875 -0.0585938,0.12890625 0,0.08203125 0.0703125,0.08203125 0.2109375,0.08203125 H 7.0191624 c 0.140625,0 0.2109375,0 0.2109375,-0.08203125 0,-0.01171875 0,-0.0234375 -0.046875,-0.1171875 z m -0.5742187,0.6796875 2.4960937,4.8398437 h -4.96875 z m 0,0"
         style="fill:#000000;fill-opacity:1;fill-rule:nonzero;stroke:none" />
      <path
         id="path37"
         d="m 12.084592,-3.62105 c -0.328125,0.058594 -0.421875,0.3515625 -0.421875,0.4804688 0,0.1757812 0.117188,0.328125 0.339844,0.328125 0.257812,0 0.503906,-0.2226563 0.503906,-0.5273438 0,-0.421875 -0.457031,-0.6210937 -0.878906,-0.6210937 -0.539063,0 -0.84375,0.46875 -0.949219,0.65625 -0.175781,-0.4335938 -0.574219,-0.65625 -0.9960936,-0.65625 -0.9609375,0 -1.4882812,1.1484375 -1.4882812,1.3828125 0,0.082031 0.070312,0.1054687 0.1289062,0.1054687 0.082031,0 0.1054688,-0.046875 0.1289063,-0.1054687 0.28125,-0.8789063 0.8671875,-1.1601563 1.2070312,-1.1601563 0.2578125,0 0.4921871,0.1757813 0.4921871,0.5859375 0,0.328125 -0.3867183,1.7578125 -0.5039058,2.19140625 -0.070312,0.28125 -0.3398438,0.83203125 -0.8320313,0.83203125 -0.1757812,0 -0.3632812,-0.0585938 -0.4570312,-0.1171875 0.2460937,-0.0351563 0.421875,-0.24609375 0.421875,-0.48046875 0,-0.22265625 -0.1640625,-0.32812495 -0.3398438,-0.32812495 -0.2578125,0 -0.4921875,0.23437495 -0.4921875,0.53906245 0,0.43359375 0.4804688,0.609375 0.8554688,0.609375 0.5273437,0 0.8320312,-0.421875 0.9609375,-0.66796875 0.2226562,0.59765625 0.7617183,0.66796875 0.9960933,0.66796875 0.972657,0 1.476563,-1.16015625 1.476563,-1.37109375 0,-0.046875 -0.02344,-0.1171875 -0.117188,-0.1171875 -0.09375,0 -0.105468,0.035156 -0.152343,0.1757813 -0.1875,0.6445312 -0.714844,1.0898437 -1.183594,1.0898437 -0.257813,0 -0.492188,-0.15234375 -0.492188,-0.5859375 0,-0.19921875 0.117188,-0.6914062 0.199219,-1.03125 0.03516,-0.1640625 0.28125,-1.1367187 0.292969,-1.1953125 0.117187,-0.3164062 0.386719,-0.796875 0.84375,-0.796875 0.152344,0 0.328125,0.023437 0.457031,0.1171875 z m 0,0"
         style="fill:#000000;fill-opacity:1;fill-rule:nonzero;stroke:none" />
    </g>
    <path
       id="path39"
       d="m 1352.33,1200.96 c 0,11 -8.92,19.92 -19.92,19.92 -11.01,0 -19.93,-8.92 -19.93,-19.92 0,-11.01 8.92,-19.93 19.93,-19.93 11,0 19.92,8.92 19.92,19.93"
       style="fill:#000000;fill-opacity:1;fill-rule:nonzero;stroke:none"
       transform="matrix(0.13333333,0,0,-0.13333333,0,281.33333)"
       clip-path="url(#clipPath40)" />
    <path
       id="path41"
       d="m 1352.33,1200.96 c 0,11 -8.92,19.92 -19.92,19.92 -11.01,0 -19.93,-8.92 -19.93,-19.92 0,-11.01 8.92,-19.93 19.93,-19.93 11,0 19.92,8.92 19.92,19.93 z"
       style="fill:none;stroke:#000000;stroke-width:3.985;stroke-linecap:butt;stroke-linejoin:miter;stroke-miterlimit:10;stroke-dasharray:none;stroke-opacity:1"
       transform="matrix(0.13333333,0,0,-0.13333333,0,281.33333)"
       clip-path="url(#clipPath42)" />
    <g
       id="g42"
       aria-label="T&#10;n&#10;i"
       transform="matrix(1.3333333,0,0,1.3333333,169.81733,134.40933)"
       clip-path="url(#clipPath45)">
      <path
         id="path43"
         d="m 3.9368047,-5.4603203 c 0.046875,-0.1992188 0.070312,-0.28125 0.2226562,-0.3164063 0.070312,-0.011719 0.3632813,-0.011719 0.5507813,-0.011719 1.03125,0 1.3359375,0.058594 1.3359375,0.7617187 0,0.1171875 0,0.2460938 -0.082031,0.7734375 l -0.011719,0.082031 c 0,0.058594 0.035156,0.1171875 0.1289062,0.1171875 0.1054688,0 0.1171875,-0.082031 0.140625,-0.2109375 l 0.234375,-1.546875 c 0.011719,-0.046875 0.011719,-0.1054688 0.011719,-0.1289063 0,-0.1289062 -0.082031,-0.1289062 -0.2578125,-0.1289062 H 1.1125859 c -0.22265621,0 -0.22265621,0.011719 -0.29296871,0.1757812 l -0.55078125,1.5820313 c -0.0351563,0.1171875 -0.0351563,0.140625 -0.0351563,0.140625 0,0.046875 0.0234375,0.1171875 0.1171875,0.1171875 0.09375,0 0.1171875,-0.046875 0.1640625,-0.2109375 C 1.0071172,-5.6595391 1.2883672,-5.7884453 2.5891484,-5.7884453 h 0.3515625 c 0.2460938,0 0.2460938,0.023437 0.2460938,0.09375 0,0.058594 -0.011719,0.1171875 -0.035156,0.1875 l -1.1953125,4.80468749 c -0.082031,0.31640625 -0.1054687,0.421875 -1.06640621,0.421875 -0.28125,0 -0.36328125,0 -0.36328125,0.1640625 0,0.1171874975 0.1171875,0.1171874975 0.15234375,0.1171874975 0.234375,0 0.49218751,-0.0234374975 0.73828121,-0.0234374975 0.2460938,0 0.5039063,0 0.7617188,0 0.3984375,0 0.4101562,0 0.7382812,0 0.1171875,0 0.7148438,0.0234374975 0.7851563,0.0234374975 0.082031,0 0.1875,0 0.1875,-0.1640624975 0,-0.1171875 -0.082031,-0.1171875 -0.3046875,-0.1171875 -0.2226563,0 -0.328125,0 -0.5742188,-0.0117188 -0.2109375,-0.0351563 -0.3164062,-0.0351563 -0.3164062,-0.1875 0,-0.046875 0.023437,-0.1171875 0.035156,-0.1875 z m 0,0"
         style="fill:#000000;fill-opacity:1;fill-rule:nonzero;stroke:none" />
      <path
         id="path44"
         d="m 8.4016484,-5.8704766 c -0.023437,-0.4570312 -0.4453125,-0.5742187 -0.6679687,-0.5742187 -0.234375,0 -0.3867188,0.140625 -0.4921875,0.328125 -0.1523438,0.2460937 -0.2226563,0.5625 -0.2226563,0.5859375 0,0.070312 0.058594,0.09375 0.1054688,0.09375 0.09375,0 0.1054687,-0.046875 0.140625,-0.140625 0.1171875,-0.4804688 0.2578125,-0.6679688 0.4453125,-0.6679688 0.2226562,0 0.2226562,0.2460938 0.2226562,0.3046875 0,0.09375 -0.058594,0.328125 -0.1054687,0.5039063 -0.046875,0.1640625 -0.1054688,0.3984375 -0.1289063,0.5390625 -0.046875,0.140625 -0.082031,0.3046875 -0.1171875,0.4453125 -0.046875,0.1757812 -0.1171875,0.46875 -0.1171875,0.5039062 0,0.1289063 0.1054688,0.1992188 0.2109375,0.1992188 0.1054688,0 0.2109375,-0.070312 0.2578125,-0.1640625 0.011719,-0.035156 0.058594,-0.2460938 0.09375,-0.3632813 l 0.1289063,-0.5390625 c 0.046875,-0.1523437 0.070312,-0.2578125 0.1054687,-0.3984375 0.046875,-0.1992187 0.2578125,-0.515625 0.4804688,-0.7382812 0.1171875,-0.1171875 0.375,-0.2929688 0.703125,-0.2929688 0.375,0 0.375,0.3046875 0.375,0.421875 0,0.3515625 -0.2578125,0.984375 -0.3632813,1.2539063 -0.035156,0.1054687 -0.070312,0.1992187 -0.070312,0.3046875 0,0.3046875 0.2695313,0.515625 0.5976563,0.515625 0.6093758,0 0.9023438,-0.7851563 0.9023438,-0.9140625 0,-0.011719 0,-0.09375 -0.117187,-0.09375 -0.08203,0 -0.08203,0.035156 -0.117188,0.1523437 -0.09375,0.3164063 -0.339843,0.65625 -0.644531,0.65625 -0.1171878,0 -0.1640628,-0.082031 -0.1640628,-0.2109375 0,-0.1171875 0.035156,-0.2226562 0.09375,-0.3515625 0.09375,-0.234375 0.3632818,-0.9023437 0.3632818,-1.2421875 0,-0.4921875 -0.3750006,-0.6914062 -0.8320318,-0.6914062 -0.2929688,0 -0.6796875,0.09375 -1.0664068,0.5742187 z M 7.4495,-1.9827813 c 0,-0.140625 -0.1054687,-0.2460937 -0.234375,-0.2460937 -0.1640625,0 -0.3398437,0.1640625 -0.3398437,0.328125 0,0.1523437 0.1054687,0.2460937 0.234375,0.2460937 0.1992187,0 0.3398437,-0.1757812 0.3398437,-0.328125 z M 7.0979375,0.10315625 c 0.023437,-0.05859375 0.082031,-0.2109375 0.1054688,-0.2578125 0.011719,-0.0585938 0.035156,-0.1171875 0.035156,-0.22265625 0,-0.328125 -0.2929687,-0.515625 -0.5976562,-0.515625 -0.609375,0 -0.9023438,0.78515625 -0.9023438,0.92578125 0,0.0234375 0.023437,0.08203125 0.1054688,0.08203125 0.082031,0 0.1054687,-0.03515625 0.1171875,-0.09375 0.1757812,-0.57421875 0.4921875,-0.71484375 0.65625,-0.71484375 0.1171875,0 0.1640625,0.0820313 0.1640625,0.2109375 0,0.1171875 -0.035156,0.2109375 -0.046875,0.2578125 L 6.41825,0.53675 C 6.3479375,0.71253125 6.3479375,0.72425 6.2659063,0.92346875 6.1955938,1.09925 6.1604375,1.1812812 6.1604375,1.28675 c 0,0.3046875 0.28125,0.515625 0.609375,0.515625 0.5976563,0 0.9023438,-0.7851563 0.9023438,-0.9140625 0,-0.0117188 -0.011719,-0.09375 -0.1171875,-0.09375 -0.082031,0 -0.09375,0.0351563 -0.1289063,0.15234375 -0.09375,0.30468745 -0.3398437,0.65624995 -0.6445312,0.65624995 -0.1054688,0 -0.1523438,-0.070312 -0.1523438,-0.2109375 0,-0.1171875 0.035156,-0.2109375 0.1054688,-0.39843745 z m 0,0"
         style="fill:#000000;fill-opacity:1;fill-rule:nonzero;stroke:none" />
    </g>
    <path
       id="path46"
       d="m 1068.87,1200.96 c 0,11 -8.92,19.92 -19.93,19.92 -11.01,0 -19.92,-8.92 -19.92,-19.92 0,-11.01 8.91,-19.93 19.92,-19.93 11.01,0 19.93,8.92 19.93,19.93"
       style="fill:#000000;fill-opacity:1;fill-rule:nonzero;stroke:none"
       transform="matrix(0.13333333,0,0,-0.13333333,0,281.33333)"
       clip-path="url(#clipPath47)" />
    <path
       id="path48"
       d="m 1068.87,1200.96 c 0,11 -8.92,19.92 -19.93,19.92 -11.01,0 -19.92,-8.92 -19.92,-19.92 0,-11.01 8.91,-19.93 19.92,-19.93 11.01,0 19.93,8.92 19.93,19.93 z"
       style="fill:none;stroke:#000000;stroke-width:3.985;stroke-linecap:butt;stroke-linejoin:miter;stroke-miterlimit:10;stroke-dasharray:none;stroke-opacity:1"
       transform="matrix(0.13333333,0,0,-0.13333333,0,281.33333)"
       clip-path="url(#clipPath49)" />
    <g
       id="g49"
       aria-label="T&#10;n&#10;i−1"
       transform="matrix(1.3333333,0,0,1.3333333,111.23747,123.744)"
       clip-path="url(#clipPath54)">
      <path
         id="path50"
         d="m 3.9381109,-5.4622969 c 0.046875,-0.1992187 0.070312,-0.28125 0.2226563,-0.3164062 0.070312,-0.011719 0.3632812,-0.011719 0.5507812,-0.011719 1.03125,0 1.3359375,0.058594 1.3359375,0.7617188 0,0.1171875 0,0.2460937 -0.082031,0.7734375 l -0.011719,0.082031 c 0,0.058594 0.035156,0.1171875 0.1289063,0.1171875 0.1054687,0 0.1171875,-0.082031 0.140625,-0.2109375 l 0.234375,-1.546875 c 0.011719,-0.046875 0.011719,-0.1054687 0.011719,-0.1289062 0,-0.1289063 -0.082031,-0.1289063 -0.2578125,-0.1289063 H 1.1138922 c -0.22265626,0 -0.22265626,0.011719 -0.29296876,0.1757813 l -0.55078125,1.5820312 c -0.0351563,0.1171875 -0.0351563,0.140625 -0.0351563,0.140625 0,0.046875 0.0234375,0.1171875 0.1171875,0.1171875 0.09375,0 0.1171875,-0.046875 0.1640625,-0.2109375 C 1.0084234,-5.6615156 1.2896734,-5.7904219 2.5904547,-5.7904219 h 0.3515625 c 0.2460937,0 0.2460937,0.023437 0.2460937,0.09375 0,0.058594 -0.011719,0.1171875 -0.035156,0.1875 l -1.1953125,4.80468753 c -0.082031,0.31640625 -0.1054688,0.421875 -1.06640626,0.421875 -0.28125,0 -0.36328125,0 -0.36328125,0.1640625 0,0.1171875 0.1171875,0.1171875 0.15234375,0.1171875 0.234375,0 0.49218746,-0.0234375 0.73828126,-0.0234375 0.2460937,0 0.5039062,0 0.7617187,0 0.3984375,0 0.4101563,0 0.7382813,0 0.1171875,0 0.7148437,0.0234375 0.7851562,0.0234375 0.082031,0 0.1875,0 0.1875,-0.1640625 0,-0.1171875 -0.082031,-0.1171875 -0.3046875,-0.1171875 -0.2226562,0 -0.328125,0 -0.5742187,-0.0117188 -0.2109375,-0.0351563 -0.3164063,-0.0351563 -0.3164063,-0.1875 0,-0.046875 0.023437,-0.1171875 0.035156,-0.1875 z m 0,0"
         style="fill:#000000;fill-opacity:1;fill-rule:nonzero;stroke:none" />
      <path
         id="path51"
         d="m 8.4029547,-5.8724531 c -0.023437,-0.4570313 -0.4453125,-0.5742188 -0.6679688,-0.5742188 -0.234375,0 -0.3867187,0.140625 -0.4921875,0.328125 -0.1523437,0.2460938 -0.2226562,0.5625 -0.2226562,0.5859375 0,0.070312 0.058594,0.09375 0.1054687,0.09375 0.09375,0 0.1054688,-0.046875 0.140625,-0.140625 0.1171875,-0.4804687 0.2578125,-0.6679687 0.4453125,-0.6679687 0.2226563,0 0.2226563,0.2460937 0.2226563,0.3046875 0,0.09375 -0.058594,0.328125 -0.1054688,0.5039062 -0.046875,0.1640625 -0.1054687,0.3984375 -0.1289062,0.5390625 -0.046875,0.140625 -0.082031,0.3046875 -0.1171875,0.4453125 -0.046875,0.1757813 -0.1171875,0.46875 -0.1171875,0.5039063 0,0.1289062 0.1054687,0.1992187 0.2109375,0.1992187 0.1054687,0 0.2109375,-0.070312 0.2578125,-0.1640625 0.011719,-0.035156 0.058594,-0.2460937 0.09375,-0.3632812 l 0.1289062,-0.5390625 c 0.046875,-0.1523438 0.070312,-0.2578125 0.1054688,-0.3984375 0.046875,-0.1992188 0.2578125,-0.515625 0.4804687,-0.7382813 0.1171875,-0.1171875 0.375,-0.2929687 0.703125,-0.2929687 0.375,0 0.375,0.3046875 0.375,0.421875 0,0.3515625 -0.2578125,0.984375 -0.3632812,1.2539062 -0.035156,0.1054688 -0.070312,0.1992188 -0.070312,0.3046875 0,0.3046875 0.2695312,0.515625 0.5976562,0.515625 0.6093756,0 0.9023446,-0.7851562 0.9023446,-0.9140625 0,-0.011719 0,-0.09375 -0.117188,-0.09375 -0.08203,0 -0.08203,0.035156 -0.117187,0.1523438 -0.09375,0.3164062 -0.339844,0.65625 -0.644532,0.65625 -0.1171876,0 -0.1640626,-0.082031 -0.1640626,-0.2109375 0,-0.1171875 0.035156,-0.2226563 0.09375,-0.3515625 0.09375,-0.234375 0.3632816,-0.9023438 0.3632816,-1.2421875 0,-0.4921875 -0.3750003,-0.6914063 -0.8320316,-0.6914063 -0.2929687,0 -0.6796875,0.09375 -1.0664067,0.5742188 z m -0.9521485,3.890625 c 0,-0.140625 -0.1054687,-0.2460938 -0.234375,-0.2460938 -0.1640625,0 -0.3398437,0.1640625 -0.3398437,0.328125 0,0.1523438 0.1054687,0.2460938 0.234375,0.2460938 0.1992187,0 0.3398437,-0.1757813 0.3398437,-0.328125 z M 7.0992437,0.10410938 c 0.023437,-0.05859375 0.082031,-0.2109375 0.1054688,-0.2578125 0.011719,-0.0585938 0.035156,-0.1171875 0.035156,-0.22265625 0,-0.328125 -0.2929687,-0.515625 -0.5976562,-0.515625 -0.609375,0 -0.9023438,0.78515625 -0.9023438,0.92578125 0,0.0234375 0.023437,0.08203125 0.1054688,0.08203125 0.082031,0 0.1054687,-0.03515625 0.1171875,-0.09375 0.1757812,-0.57421875 0.4921875,-0.71484375 0.65625,-0.71484375 0.1171875,0 0.1640625,0.0820313 0.1640625,0.2109375 0,0.1171875 -0.035156,0.2109375 -0.046875,0.2578125 L 6.4195562,0.53770313 c -0.070312,0.17578125 -0.070312,0.1875 -0.1523437,0.38671875 C 6.1969,1.1002031 6.1617437,1.1822344 6.1617437,1.2877031 c 0,0.3046875 0.28125,0.515625 0.609375,0.515625 0.5976563,0 0.9023438,-0.7851562 0.9023438,-0.91406247 0,-0.0117188 -0.011719,-0.09375 -0.1171875,-0.09375 -0.082031,0 -0.09375,0.0351563 -0.1289063,0.15234375 C 7.3336187,1.2525469 7.087525,1.6041094 6.7828375,1.6041094 c -0.1054688,0 -0.1523438,-0.070312 -0.1523438,-0.2109375 0,-0.1171875 0.035156,-0.2109375 0.1054688,-0.39843752 z m 0,0"
         style="fill:#000000;fill-opacity:1;fill-rule:nonzero;stroke:none" />
      <path
         id="path52"
         d="m 12.797486,0.40879688 c 0.09375,0 0.246094,0 0.246094,-0.15234375 0,-0.1640625 -0.152344,-0.1640625 -0.246094,-0.1640625 H 9.0357672 c -0.1054688,0 -0.2460938,0 -0.2460938,0.1640625 0,0.15234375 0.140625,0.15234375 0.2460938,0.15234375 z m 0,0"
         style="fill:#000000;fill-opacity:1;fill-rule:nonzero;stroke:none" />
      <path
         id="path53"
         d="m 15.941041,-2.0521406 c 0,-0.1757813 -0.02344,-0.1757813 -0.199219,-0.1757813 -0.398438,0.375 -1.007813,0.375 -1.21875,0.375 v 0.234375 c 0.152344,0 0.550781,0 0.902344,-0.1640625 v 3.0234375 c 0,0.1875 0,0.2695313 -0.609375,0.2695313 h -0.257813 v 0.234375 c 0.328125,-0.023437 0.796875,-0.023437 1.125,-0.023437 0.339844,0 0.796875,0 1.136719,0.023437 v -0.234375 h -0.257813 c -0.621093,0 -0.621093,-0.082031 -0.621093,-0.2695313 z m 0,0"
         style="fill:#000000;fill-opacity:1;fill-rule:nonzero;stroke:none" />
    </g>
    <path
       id="path55"
       d="m 1635.8,1200.96 c 0,11 -8.92,19.92 -19.92,19.92 -11.01,0 -19.93,-8.92 -19.93,-19.92 0,-11.01 8.92,-19.93 19.93,-19.93 11,0 19.92,8.92 19.92,19.93"
       style="fill:#000000;fill-opacity:1;fill-rule:nonzero;stroke:none"
       transform="matrix(0.13333333,0,0,-0.13333333,0,281.33333)"
       clip-path="url(#clipPath56)" />
    <path
       id="path57"
       d="m 1635.8,1200.96 c 0,11 -8.92,19.92 -19.92,19.92 -11.01,0 -19.93,-8.92 -19.93,-19.92 0,-11.01 8.92,-19.93 19.93,-19.93 11,0 19.92,8.92 19.92,19.93 z"
       style="fill:none;stroke:#000000;stroke-width:3.985;stroke-linecap:butt;stroke-linejoin:miter;stroke-miterlimit:10;stroke-dasharray:none;stroke-opacity:1"
       transform="matrix(0.13333333,0,0,-0.13333333,0,281.33333)"
       clip-path="url(#clipPath58)" />
    <g
       id="g58"
       aria-label="T&#10;n&#10;i+1"
       transform="matrix(1.3333333,0,0,1.3333333,220.14267,123.744)"
       clip-path="url(#clipPath62)">
      <path
         id="path59"
         d="m 3.9388984,-5.4622969 c 0.046875,-0.1992187 0.070313,-0.28125 0.2226563,-0.3164062 0.070312,-0.011719 0.3632812,-0.011719 0.5507812,-0.011719 1.03125,0 1.3359375,0.058594 1.3359375,0.7617188 0,0.1171875 0,0.2460937 -0.082031,0.7734375 l -0.011719,0.082031 c 0,0.058594 0.035156,0.1171875 0.1289063,0.1171875 0.1054687,0 0.1171875,-0.082031 0.140625,-0.2109375 l 0.234375,-1.546875 c 0.011719,-0.046875 0.011719,-0.1054687 0.011719,-0.1289062 0,-0.1289063 -0.082031,-0.1289063 -0.2578125,-0.1289063 H 1.1146797 c -0.22265626,0 -0.22265626,0.011719 -0.29296876,0.1757813 l -0.55078125,1.5820312 c -0.0351563,0.1171875 -0.0351563,0.140625 -0.0351563,0.140625 0,0.046875 0.0234375,0.1171875 0.1171875,0.1171875 0.09375,0 0.1171875,-0.046875 0.1640625,-0.2109375 C 1.0092109,-5.6615156 1.2904609,-5.7904219 2.5912422,-5.7904219 h 0.3515625 c 0.2460937,0 0.2460937,0.023437 0.2460937,0.09375 0,0.058594 -0.011719,0.1171875 -0.035156,0.1875 l -1.1953125,4.80468753 c -0.082031,0.31640625 -0.1054688,0.421875 -1.06640626,0.421875 -0.28125,0 -0.36328125,0 -0.36328125,0.1640625 0,0.1171875 0.1171875,0.1171875 0.15234375,0.1171875 0.234375,0 0.49218746,-0.0234375 0.73828126,-0.0234375 0.2460937,0 0.5039062,0 0.7617187,0 0.3984375,0 0.4101563,0 0.7382813,0 0.1171875,0 0.7148437,0.0234375 0.7851562,0.0234375 0.082031,0 0.1875,0 0.1875,-0.1640625 0,-0.1171875 -0.082031,-0.1171875 -0.3046875,-0.1171875 -0.2226562,0 -0.328125,0 -0.5742187,-0.0117188 -0.2109375,-0.0351563 -0.3164063,-0.0351563 -0.3164063,-0.1875 0,-0.046875 0.023437,-0.1171875 0.035156,-0.1875 z m 0,0"
         style="fill:#000000;fill-opacity:1;fill-rule:nonzero;stroke:none" />
      <path
         id="path60"
         d="M 8.4008125,-5.8724531 C 8.377375,-6.3294844 7.9555,-6.4466719 7.7328438,-6.4466719 c -0.234375,0 -0.3867188,0.140625 -0.4921875,0.328125 C 7.0883125,-5.8724531 7.018,-5.5560469 7.018,-5.5326094 c 0,0.070312 0.058594,0.09375 0.1054688,0.09375 0.09375,0 0.1054687,-0.046875 0.140625,-0.140625 0.1171875,-0.4804687 0.2578125,-0.6679687 0.4453125,-0.6679687 0.2226562,0 0.2226562,0.2460937 0.2226562,0.3046875 0,0.09375 -0.058594,0.328125 -0.1054687,0.5039062 -0.046875,0.1640625 -0.1054688,0.3984375 -0.1289063,0.5390625 -0.046875,0.140625 -0.082031,0.3046875 -0.1171875,0.4453125 -0.046875,0.1757813 -0.1171875,0.46875 -0.1171875,0.5039063 0,0.1289062 0.1054688,0.1992187 0.2109375,0.1992187 0.1054688,0 0.2109375,-0.070312 0.2578125,-0.1640625 0.011719,-0.035156 0.058594,-0.2460937 0.09375,-0.3632812 l 0.1289063,-0.5390625 c 0.046875,-0.1523438 0.070312,-0.2578125 0.1054687,-0.3984375 0.046875,-0.1992188 0.2578125,-0.515625 0.4804688,-0.7382813 0.1171875,-0.1171875 0.375,-0.2929687 0.703125,-0.2929687 0.375,0 0.375,0.3046875 0.375,0.421875 0,0.3515625 -0.2578125,0.984375 -0.3632813,1.2539062 -0.035156,0.1054688 -0.070312,0.1992188 -0.070312,0.3046875 0,0.3046875 0.2695313,0.515625 0.5976563,0.515625 0.6093757,0 0.9023447,-0.7851562 0.9023447,-0.9140625 0,-0.011719 0,-0.09375 -0.117188,-0.09375 -0.08203,0 -0.08203,0.035156 -0.117187,0.1523438 -0.09375,0.3164062 -0.339844,0.65625 -0.644532,0.65625 -0.1171877,0 -0.1640627,-0.082031 -0.1640627,-0.2109375 0,-0.1171875 0.035156,-0.2226563 0.09375,-0.3515625 0.09375,-0.234375 0.3632817,-0.9023438 0.3632817,-1.2421875 0,-0.4921875 -0.3750005,-0.6914063 -0.8320317,-0.6914063 -0.2929688,0 -0.6796875,0.09375 -1.0664068,0.5742188 z m -0.9492187,3.890625 c 0,-0.140625 -0.1054688,-0.2460938 -0.234375,-0.2460938 -0.1640625,0 -0.3398438,0.1640625 -0.3398438,0.328125 0,0.1523438 0.1054688,0.2460938 0.234375,0.2460938 0.1992188,0 0.3398438,-0.1757813 0.3398438,-0.328125 z M 7.1000313,0.10410938 c 0.023437,-0.05859375 0.082031,-0.2109375 0.1054687,-0.2578125 0.011719,-0.0585938 0.035156,-0.1171875 0.035156,-0.22265625 0,-0.328125 -0.2929688,-0.515625 -0.5976563,-0.515625 -0.609375,0 -0.9023437,0.78515625 -0.9023437,0.92578125 0,0.0234375 0.023437,0.08203125 0.1054687,0.08203125 0.082031,0 0.1054688,-0.03515625 0.1171875,-0.09375 0.1757813,-0.57421875 0.4921875,-0.71484375 0.65625,-0.71484375 0.1171875,0 0.1640625,0.0820313 0.1640625,0.2109375 0,0.1171875 -0.035156,0.2109375 -0.046875,0.2578125 L 6.4203438,0.53770313 C 6.3500313,0.71348438 6.3500313,0.72520313 6.268,0.92442188 6.1976875,1.1002031 6.1625313,1.1822344 6.1625313,1.2877031 c 0,0.3046875 0.28125,0.515625 0.609375,0.515625 0.5976562,0 0.9023437,-0.7851562 0.9023437,-0.91406247 0,-0.0117188 -0.011719,-0.09375 -0.1171875,-0.09375 -0.082031,0 -0.09375,0.0351563 -0.1289062,0.15234375 C 7.3344063,1.2525469 7.0883125,1.6041094 6.783625,1.6041094 c -0.1054687,0 -0.1523437,-0.070312 -0.1523437,-0.2109375 0,-0.1171875 0.035156,-0.2109375 0.1054687,-0.39843752 z m 0,0"
         style="fill:#000000;fill-opacity:1;fill-rule:nonzero;stroke:none" />
      <path
         id="path61"
         d="m 10.981867,0.40879688 h 1.933594 c 0.08203,0 0.234375,0 0.234375,-0.15234375 0,-0.1640625 -0.152344,-0.1640625 -0.234375,-0.1640625 H 10.981867 V -1.8412031 c 0,-0.082031 0,-0.234375 -0.152344,-0.234375 -0.152343,0 -0.152343,0.1523437 -0.152343,0.234375 V 0.09239063 H 8.7435859 c -0.082031,0 -0.234375,0 -0.234375,0.1640625 0,0.15234375 0.1523438,0.15234375 0.234375,0.15234375 H 10.67718 V 2.3423906 c 0,0.082031 0,0.234375 0.152343,0.234375 0.152344,0 0.152344,-0.1523437 0.152344,-0.234375 z m 4.792969,-2.46093748 c 0,-0.1757813 -0.02344,-0.1757813 -0.199219,-0.1757813 -0.398437,0.375 -1.007812,0.375 -1.21875,0.375 v 0.234375 c 0.152344,0 0.550781,0 0.902344,-0.1640625 v 3.0234375 c 0,0.1875 0,0.2695313 -0.609375,0.2695313 h -0.257813 v 0.234375 c 0.328125,-0.023437 0.796875,-0.023437 1.125,-0.023437 0.339844,0 0.796875,0 1.136719,0.023437 V 1.5103594 H 16.39593 c -0.621094,0 -0.621094,-0.082031 -0.621094,-0.2695313 z m 0,0"
         style="fill:#000000;fill-opacity:1;fill-rule:nonzero;stroke:none" />
    </g>
    <path
       id="path63"
       d="m 1352.33,1484.43 c 0,11 -8.92,19.92 -19.92,19.92 -11.01,0 -19.93,-8.92 -19.93,-19.92 0,-11.01 8.92,-19.93 19.93,-19.93 11,0 19.92,8.92 19.92,19.93"
       style="fill:#000000;fill-opacity:1;fill-rule:nonzero;stroke:none"
       transform="matrix(0.13333333,0,0,-0.13333333,0,281.33333)"
       clip-path="url(#clipPath64)" />
    <path
       id="path65"
       d="m 1352.33,1484.43 c 0,11 -8.92,19.92 -19.92,19.92 -11.01,0 -19.93,-8.92 -19.93,-19.92 0,-11.01 8.92,-19.93 19.93,-19.93 11,0 19.92,8.92 19.92,19.93 z"
       style="fill:none;stroke:#000000;stroke-width:3.985;stroke-linecap:butt;stroke-linejoin:miter;stroke-miterlimit:10;stroke-dasharray:none;stroke-opacity:1"
       transform="matrix(0.13333333,0,0,-0.13333333,0,281.33333)"
       clip-path="url(#clipPath66)" />
    <g
       id="g66"
       aria-label="T&#10;n+1&#10;i"
       transform="matrix(1.3333333,0,0,1.3333333,163.656,75.429333)"
       clip-path="url(#clipPath71)">
      <path
         id="path67"
         d="m 3.9376875,-5.4606719 c 0.046875,-0.1992187 0.070312,-0.28125 0.2226562,-0.3164062 0.070312,-0.011719 0.3632813,-0.011719 0.5507813,-0.011719 1.03125,0 1.3359375,0.058594 1.3359375,0.7617188 0,0.1171875 0,0.2460937 -0.082031,0.7734375 l -0.011719,0.082031 c 0,0.058594 0.035156,0.1171875 0.1289062,0.1171875 0.1054688,0 0.1171875,-0.082031 0.140625,-0.2109375 l 0.234375,-1.546875 c 0.011719,-0.046875 0.011719,-0.1054687 0.011719,-0.1289062 0,-0.1289063 -0.082031,-0.1289063 -0.2578125,-0.1289063 H 1.1134687 c -0.2226562,0 -0.2226562,0.011719 -0.2929687,0.1757813 l -0.55078125,1.5820312 c -0.0351563,0.1171875 -0.0351563,0.140625 -0.0351563,0.140625 0,0.046875 0.0234375,0.1171875 0.1171875,0.1171875 0.09375,0 0.1171875,-0.046875 0.1640625,-0.2109375 C 1.008,-5.6598906 1.28925,-5.7887969 2.5900312,-5.7887969 h 0.3515625 c 0.2460938,0 0.2460938,0.023437 0.2460938,0.09375 0,0.058594 -0.011719,0.1171875 -0.035156,0.1875 L 1.957219,-0.70285937 c -0.082031,0.31640625 -0.1054687,0.421875 -1.0664062,0.421875 -0.28125,0 -0.36328125,0 -0.36328125,0.1640625 0,0.117187495 0.1171875,0.117187495 0.15234375,0.117187495 0.234375,0 0.4921875,-0.023437495 0.7382812,-0.023437495 0.2460938,0 0.5039063,0 0.7617188,0 0.3984375,0 0.4101562,0 0.7382812,0 0.1171875,0 0.7148438,0.023437495 0.7851563,0.023437495 0.082031,0 0.1875,0 0.1875,-0.164062495 0,-0.1171875 -0.082031,-0.1171875 -0.3046875,-0.1171875 -0.2226563,0 -0.328125,0 -0.5742188,-0.0117188 -0.2109375,-0.0351563 -0.3164062,-0.0351563 -0.3164062,-0.1875 0,-0.046875 0.023437,-0.1171875 0.035156,-0.1875 z m 0,0"
         style="fill:#000000;fill-opacity:1;fill-rule:nonzero;stroke:none" />
      <path
         id="path68"
         d="m 8.4025312,-5.9792266 c -0.023437,-0.4570312 -0.4453125,-0.5742187 -0.6679687,-0.5742187 -0.234375,0 -0.3867188,0.140625 -0.4921875,0.328125 -0.1523438,0.2460937 -0.2226563,0.5625 -0.2226563,0.5859375 0,0.070312 0.058594,0.09375 0.1054688,0.09375 0.09375,0 0.1054687,-0.046875 0.140625,-0.140625 C 7.383,-6.1667266 7.523625,-6.3542266 7.711125,-6.3542266 c 0.2226562,0 0.2226562,0.2460938 0.2226562,0.3046875 0,0.09375 -0.058594,0.328125 -0.1054687,0.5039063 -0.046875,0.1640625 -0.1054688,0.3984375 -0.1289063,0.5390625 -0.046875,0.140625 -0.082031,0.3046875 -0.1171875,0.4453125 -0.046875,0.1757812 -0.1171875,0.46875 -0.1171875,0.5039062 0,0.1289063 0.1054688,0.1992188 0.2109375,0.1992188 0.1054688,0 0.2109375,-0.070312 0.2578125,-0.1640625 0.011719,-0.035156 0.058594,-0.2460938 0.09375,-0.3632813 l 0.1289063,-0.5390625 c 0.046875,-0.1523437 0.070312,-0.2578125 0.1054687,-0.3984375 0.046875,-0.1992187 0.2578125,-0.515625 0.4804688,-0.7382812 0.1171875,-0.1171875 0.375,-0.2929688 0.703125,-0.2929688 0.375,0 0.375,0.3046875 0.375,0.421875 0,0.3515625 -0.2578125,0.984375 -0.3632813,1.2539063 -0.035156,0.1054687 -0.070312,0.1992187 -0.070312,0.3046875 0,0.3046875 0.2695313,0.515625 0.5976563,0.515625 0.609375,0 0.902344,-0.7851563 0.902344,-0.9140625 0,-0.011719 0,-0.09375 -0.117187,-0.09375 -0.08203,0 -0.08203,0.035156 -0.117188,0.1523437 -0.09375,0.3164063 -0.339844,0.65625 -0.644531,0.65625 -0.117188,0 -0.164063,-0.082031 -0.164063,-0.2109375 0,-0.1171875 0.035156,-0.2226562 0.09375,-0.3515625 0.09375,-0.234375 0.363282,-0.9023437 0.363282,-1.2421875 0,-0.4921875 -0.3750008,-0.6914062 -0.832032,-0.6914062 -0.2929688,0 -0.6796875,0.09375 -1.0664068,0.5742187 z m 0,0"
         style="fill:#000000;fill-opacity:1;fill-rule:nonzero;stroke:none" />
      <path
         id="path69"
         d="m 14.197453,-5.2526641 h 1.933594 c 0.08203,0 0.234375,0 0.234375,-0.1523437 0,-0.1640625 -0.152344,-0.1640625 -0.234375,-0.1640625 h -1.933594 v -1.9335938 c 0,-0.082031 0,-0.234375 -0.152344,-0.234375 -0.152343,0 -0.152343,0.1523438 -0.152343,0.234375 v 1.9335938 h -1.933594 c -0.08203,0 -0.234375,0 -0.234375,0.1640625 0,0.1523437 0.152344,0.1523437 0.234375,0.1523437 h 1.933594 v 1.9335938 c 0,0.082031 0,0.234375 0.152343,0.234375 0.152344,0 0.152344,-0.1523438 0.152344,-0.234375 z m 4.792969,-2.4609375 c 0,-0.1757812 -0.02344,-0.1757812 -0.199219,-0.1757812 -0.398437,0.375 -1.007812,0.375 -1.21875,0.375 v 0.234375 c 0.152344,0 0.550781,0 0.902344,-0.1640625 v 3.0234375 c 0,0.1875 0,0.2695312 -0.609375,0.2695312 h -0.257813 v 0.234375 c 0.328125,-0.023437 0.796875,-0.023437 1.125,-0.023437 0.339844,0 0.796875,0 1.136719,0.023437 v -0.234375 h -0.257812 c -0.621094,0 -0.621094,-0.082031 -0.621094,-0.2695312 z m 0,0"
         style="fill:#000000;fill-opacity:1;fill-rule:nonzero;stroke:none" />
      <path
         id="path70"
         d="m 7.4503828,-1.2595 c 0,-0.140625 -0.1054687,-0.2460937 -0.234375,-0.2460937 -0.1640625,0 -0.3398437,0.1640625 -0.3398437,0.328125 0,0.1523437 0.1054687,0.2460937 0.234375,0.2460937 0.1992187,0 0.3398437,-0.1757812 0.3398437,-0.328125 z M 7.0988203,0.8264375 C 7.1222578,0.76784375 7.1808516,0.6155 7.2042891,0.568625 c 0.011719,-0.0585938 0.035156,-0.1171875 0.035156,-0.22265625 0,-0.328125 -0.2929687,-0.515625 -0.5976562,-0.515625 -0.609375,0 -0.9023438,0.78515625 -0.9023438,0.92578125 0,0.0234375 0.023437,0.0820313 0.1054688,0.0820313 0.082031,0 0.1054687,-0.0351563 0.1171875,-0.09375 0.1757812,-0.57421875 0.4921875,-0.71484375 0.65625,-0.71484375 0.1171875,0 0.1640625,0.08203125 0.1640625,0.2109375 0,0.1171875 -0.035156,0.2109375 -0.046875,0.2578125 L 6.4191328,1.2600313 c -0.070312,0.1757812 -0.070312,0.1875 -0.1523437,0.3867187 -0.070312,0.1757813 -0.1054688,0.2578125 -0.1054688,0.3632813 0,0.3046875 0.28125,0.515625 0.609375,0.515625 0.5976563,0 0.9023438,-0.7851563 0.9023438,-0.9140625 0,-0.011719 -0.011719,-0.09375 -0.1171875,-0.09375 -0.082031,0 -0.09375,0.035156 -0.1289063,0.1523437 -0.09375,0.3046875 -0.3398437,0.65625 -0.6445312,0.65625 -0.1054688,0 -0.1523438,-0.070312 -0.1523438,-0.2109375 0,-0.1171875 0.035156,-0.2109375 0.1054688,-0.3984375 z m 0,0"
         style="fill:#000000;fill-opacity:1;fill-rule:nonzero;stroke:none" />
    </g>
  </g>
</svg>
