<?xml version="1.0" encoding="UTF-8" standalone="no"?>
<!-- Created with Inkscape (http://www.inkscape.org/) -->

<svg
   version="1.1"
   id="svg1"
   width="550.66669"
   height="272"
   viewBox="0 0 550.66669 272"
   sodipodi:docname="inversion.svg"
   inkscape:version="1.3 (0e150ed6c4, 2023-07-21)"
   xmlns:inkscape="http://www.inkscape.org/namespaces/inkscape"
   xmlns:sodipodi="http://sodipodi.sourceforge.net/DTD/sodipodi-0.dtd"
   xmlns="http://www.w3.org/2000/svg"
   xmlns:svg="http://www.w3.org/2000/svg">
  <defs
     id="defs1" />
  <sodipodi:namedview
     id="namedview1"
     pagecolor="#ffffff"
     bordercolor="#000000"
     borderopacity="0.25"
     inkscape:showpageshadow="2"
     inkscape:pageopacity="0.0"
     inkscape:pagecheckerboard="0"
     inkscape:deskcolor="#d1d1d1"
     inkscape:zoom="1.2421307"
     inkscape:cx="275.33334"
     inkscape:cy="136.45907"
     inkscape:window-width="2560"
     inkscape:window-height="1369"
     inkscape:window-x="-8"
     inkscape:window-y="-7"
     inkscape:window-maximized="1"
     inkscape:current-layer="g1">
    <inkscape:page
       x="0"
       y="0"
       inkscape:label="1"
       id="page1"
       width="550.66669"
       height="272"
       margin="0"
       bleed="0" />
  </sodipodi:namedview>
  <g
     id="g1"
     inkscape:groupmode="layer"
     inkscape:label="1">
    <path
       id="path1"
       d="m 10.218047,-13.123937 c 0.128906,-0.480469 0.199219,-0.84375 0.199219,-1.101563 0,-0.316406 -0.09375,-0.609375 -0.316407,-0.867187 -0.1874996,-0.246094 -0.6679684,-0.363282 -1.4648434,-0.363282 l 0.1289063,-0.433593 h 7.1015621 l -0.128906,0.433593 c -0.925781,0.02344 -1.605469,0.164063 -2.0625,0.433594 -0.457031,0.292969 -0.808594,0.914063 -1.101562,1.898438 1.828125,0.07031 3.164062,0.527343 4.054687,1.335937 0.867188,0.84375 1.324219,1.8515625 1.324219,3 0,1.640625 -0.726563,3.0234375 -2.132813,4.2070313 -1.417968,1.1484375 -3.503906,1.7695312 -6.2460934,1.8164062 -0.1171875,0.5039063 -0.1640625,0.890625 -0.1640625,1.1601563 0,0.3632812 0.1171875,0.6445312 0.3867188,0.86718745 0.2578121,0.2109375 0.7851561,0.3046875 1.6054691,0.3046875 L 11.261016,0.0010625 H 4.1008594 l 0.1171875,-0.43359375 c 0.8671875,0 1.5117187,-0.140625 1.96875,-0.45703125 0.4570312,-0.3046875 0.796875,-0.9375 1.0078125,-1.875 -1.8398438,-0.070312 -3.2109375,-0.5507812 -4.078125,-1.359375 -0.8320313,-0.84375 -1.265625,-1.828125 -1.265625,-2.953125 0,-1.5820312 0.6679687,-2.9765625 2.0390625,-4.1484375 1.3710937,-1.183594 3.4804687,-1.828125 6.3281251,-1.898437 z m -0.4804689,9.7148433 c 1.8046879,0 3.2460939,-0.5742188 4.3476559,-1.7460938 1.101563,-1.1601562 1.652344,-2.4960937 1.652344,-4.0078125 0,-2.015625 -1.125,-3.128906 -3.328125,-3.316406 z m 0.3164059,-9.0703123 c -1.8281246,0 -3.2812496,0.597656 -4.3710934,1.78125 -1.1015625,1.1484373 -1.6289062,2.4960935 -1.6289062,4.0078123 0,2.015625 1.1015625,3.09375 3.3398437,3.28125 z m -50.106445,52.792969 c 0.304688,0 0.597656,0.128906 0.808594,0.339843 0.246094,0.246094 0.363281,0.503907 0.363281,0.84375 0,0.304688 -0.117187,0.597657 -0.363281,0.808594 -0.210938,0.246094 -0.503906,0.363281 -0.808594,0.363281 -0.339844,0 -0.597656,-0.117187 -0.84375,-0.363281 -0.210937,-0.210937 -0.339844,-0.503906 -0.339844,-0.808594 0,-0.339843 0.128907,-0.597656 0.339844,-0.84375 0.222656,-0.210937 0.503906,-0.339843 0.84375,-0.339843 z m 0.140625,4.664062 -2.332031,8.203125 c -0.140625,0.550781 -0.210938,0.890625 -0.210938,1.007813 0,0.117187 0.02344,0.222656 0.09375,0.316406 0.07031,0.07031 0.164063,0.09375 0.269532,0.09375 0.117187,0 0.257812,-0.04687 0.433593,-0.164063 0.421875,-0.363281 0.878907,-0.867187 1.335938,-1.511718 l 0.410156,0.257812 c -0.527344,0.820313 -1.148437,1.511719 -1.875,2.0625 -0.527344,0.410156 -1.03125,0.632813 -1.535156,0.632813 -0.304688,0 -0.574219,-0.105469 -0.761719,-0.292969 -0.222656,-0.1875 -0.316406,-0.433594 -0.316406,-0.714844 0,-0.292969 0.09375,-0.773437 0.292969,-1.441406 l 1.535156,-5.261719 c 0.234375,-0.867187 0.351562,-1.394531 0.351562,-1.628906 0,-0.164063 -0.04687,-0.316406 -0.164062,-0.410156 -0.117188,-0.117188 -0.28125,-0.164063 -0.503906,-0.164063 -0.164063,0 -0.527344,0.04687 -1.054688,0.117188 v -0.457032 z m 0,0"
       style="fill:#231f20;fill-opacity:1;fill-rule:nonzero;stroke:none"
       aria-label="Φ&#10;i"
       transform="matrix(1.3333333,0,0,1.3333333,376.04,134.21733)" />
    <path
       id="path2"
       d="m 1955.98,3266.87 c -238.69,115.38 -518.26,180.86 -769.9,180.92 -259.809,0.23 -467.467,-69.98 -564.055,-192.13"
       style="fill:none;stroke:#231f20;stroke-width:27.0764;stroke-linecap:butt;stroke-linejoin:miter;stroke-miterlimit:2.6131;stroke-dasharray:108.306, 135.382;stroke-dashoffset:0;stroke-opacity:1"
       transform="matrix(0.037412,0.05720933,0.10402093,-0.0680244,0,272)" />
    <path
       id="path3"
       d="m 3055.74,897.289 38.88,-84.961 61.92,69.84"
       style="fill:none;stroke:#231f20;stroke-width:19.8085;stroke-linecap:butt;stroke-linejoin:miter;stroke-miterlimit:2.6131;stroke-dasharray:none;stroke-opacity:1"
       transform="matrix(0.13333333,0,0,-0.13333333,0,272)" />
    <path
       id="path4"
       d="m 2808.78,1340.81 -114.48,50.4 92.16,84.24"
       style="fill:none;stroke:#231f20;stroke-width:26.64;stroke-linecap:butt;stroke-linejoin:miter;stroke-miterlimit:2.6131;stroke-dasharray:none;stroke-opacity:1"
       transform="matrix(0.13333333,0,0,-0.13333333,0,272)" />
    <path
       id="path5"
       d="m 2375.34,766.969 c 0,-74.16 -60.48,-134.641 -134.64,-134.641 -74.88,0 -135.36,60.481 -135.36,134.641 0,74.879 60.48,135.359 135.36,135.359 74.16,0 134.64,-60.48 134.64,-135.359"
       style="display:none;fill:#ffffff;fill-opacity:1;fill-rule:evenodd;stroke:none;opacity:0"
       transform="matrix(0.13333333,0,0,-0.13333333,0,272)" />
    <path
       id="path6"
       d="m 2375.34,766.969 c 0,-74.16 -60.48,-134.641 -134.64,-134.641 -74.88,0 -135.36,60.481 -135.36,134.641 0,74.879 60.48,135.359 135.36,135.359 74.16,0 134.64,-60.48 134.64,-135.359 z"
       style="fill:none;stroke:#231f20;stroke-width:29.9991;stroke-linecap:square;stroke-linejoin:miter;stroke-miterlimit:2.6131;stroke-dasharray:none;stroke-opacity:1"
       transform="matrix(0.13333333,0,0,-0.13333333,0,272)" />
    <path
       id="path7"
       d="m 3168.06,1881.53 c 0,-74.16 -60.48,-134.64 -134.64,-134.64 -74.88,0 -135.36,60.48 -135.36,134.64 0,74.88 60.48,135.36 135.36,135.36 74.16,0 134.64,-60.48 134.64,-135.36"
       style="display:none;fill:#ffffff;fill-opacity:1;fill-rule:evenodd;stroke:none;opacity:0"
       transform="matrix(0.13333333,0,0,-0.13333333,0,272)" />
    <path
       id="path8"
       d="m 3168.06,1881.53 c 0,-74.16 -60.48,-134.64 -134.64,-134.64 -74.88,0 -135.36,60.48 -135.36,134.64 0,74.88 60.48,135.36 135.36,135.36 74.16,0 134.64,-60.48 134.64,-135.36 z"
       style="fill:none;stroke:#231f20;stroke-width:29.9991;stroke-linecap:square;stroke-linejoin:miter;stroke-miterlimit:2.6131;stroke-dasharray:none;stroke-opacity:1"
       transform="matrix(0.13333333,0,0,-0.13333333,0,272)" />
    <path
       id="path9"
       d="m 1575.42,300.41 c 0,-74.883 -60.48,-135.359 -135.36,-135.359 -74.16,0 -134.64,60.476 -134.64,135.359 0,74.879 60.48,134.641 134.64,134.641 74.88,0 135.36,-60.481 135.36,-134.641"
       style="display:none;fill:#ffffff;fill-opacity:1;fill-rule:evenodd;stroke:none;opacity:0"
       transform="matrix(0.13333333,0,0,-0.13333333,0,272)" />
    <path
       id="path10"
       d="m 1575.42,300.41 c 0,-74.883 -60.48,-135.359 -135.36,-135.359 -74.16,0 -134.64,60.476 -134.64,135.359 0,74.879 60.48,134.641 134.64,134.641 74.88,0 135.36,-60.481 135.36,-134.641 z"
       style="fill:none;stroke:#231f20;stroke-width:29.9991;stroke-linecap:square;stroke-linejoin:miter;stroke-miterlimit:2.6131;stroke-dasharray:none;stroke-opacity:1"
       transform="matrix(0.13333333,0,0,-0.13333333,0,272)" />
    <path
       id="path11"
       d="m 1103.82,1265.21 c 0,-74.88 -59.76,-134.64 -134.64,-134.64 -74.883,0 -135.364,59.76 -135.364,134.64 0,74.88 60.481,135.36 135.364,135.36 74.88,0 134.64,-60.48 134.64,-135.36"
       style="display:none;fill:#ffffff;fill-opacity:1;fill-rule:evenodd;stroke:none;opacity:0"
       transform="matrix(0.13333333,0,0,-0.13333333,0,272)" />
    <path
       id="path12"
       d="m 1103.82,1265.21 c 0,-74.88 -59.76,-134.64 -134.64,-134.64 -74.883,0 -135.364,59.76 -135.364,134.64 0,74.88 60.481,135.36 135.364,135.36 74.88,0 134.64,-60.48 134.64,-135.36 z"
       style="fill:none;stroke:#231f20;stroke-width:29.9991;stroke-linecap:square;stroke-linejoin:miter;stroke-miterlimit:2.6131;stroke-dasharray:none;stroke-opacity:1"
       transform="matrix(0.13333333,0,0,-0.13333333,0,272)" />
    <path
       id="path13"
       d="m 5.4957422,-15.233266 c 0.3398437,0 0.5976562,0.09375 0.84375,0.328125 0.234375,0.246094 0.328125,0.503907 0.328125,0.84375 0,0.339844 -0.09375,0.597657 -0.328125,0.84375 -0.2460938,0.210938 -0.5039063,0.328125 -0.84375,0.328125 -0.3398438,0 -0.5976563,-0.117187 -0.84375,-0.328125 -0.2109375,-0.246093 -0.328125,-0.503906 -0.328125,-0.84375 0,-0.339843 0.1171875,-0.597656 0.328125,-0.84375 0.2460937,-0.234375 0.5039062,-0.328125 0.84375,-0.328125 z m 0.1875,4.628907 -3.046875,10.48828087 C 2.1090234,1.7589219 1.3707422,3.1182969 0.43324219,3.9386094 c -0.9375,0.84375 -1.96874999,1.2421875 -3.04687499,1.2421875 -0.5039063,0 -0.890625,-0.1171875 -1.125,-0.328125 -0.2695313,-0.2460938 -0.3867188,-0.5039063 -0.3867188,-0.8203125 0,-0.234375 0.09375,-0.4570313 0.28125,-0.6445313 0.1992188,-0.1757812 0.4101563,-0.2695312 0.6796875,-0.2695312 0.2109375,0 0.3984375,0.070312 0.5742188,0.2226562 0.140625,0.1171875 0.2109375,0.2578125 0.2109375,0.3984375 0,0.1992188 -0.09375,0.3867188 -0.28125,0.5390625 -0.1054688,0.070312 -0.1757813,0.140625 -0.1757813,0.2109375 l 0.023437,0.046875 c 0.023437,0.023437 0.082031,0.046875 0.1289063,0.070312 0.046875,0.023437 0.09375,0.023437 0.1875,0.023437 0.6445312,0 1.171875,-0.1875 1.62890624,-0.5976562 0.45703125,-0.4101563 0.84375,-1.1953125 1.20703125,-2.4257813 l 2.63671871,-9 c 0.234375,-0.8671875 0.3867188,-1.3710937 0.3867188,-1.4648437 0,-0.1875 -0.09375,-0.3515625 -0.2695313,-0.5039063 -0.1640625,-0.140625 -0.3867187,-0.2109375 -0.6210937,-0.2109375 -0.1171875,0 -0.2109375,0 -0.3632813,0.023437 -0.09375,0.023437 -0.234375,0.046875 -0.4570312,0.070312 V -9.8895156 Z M -211.50914,145.13197 l -3.31641,11.51953 1.32422,-1.16016 c 1.46485,-1.21875 2.42578,-2.13281 2.84766,-2.73047 0.15234,-0.1875 0.22265,-0.33984 0.22265,-0.45703 0,-0.0703 -0.0234,-0.11718 -0.0703,-0.1875 -0.0469,-0.0703 -0.15234,-0.1289 -0.29297,-0.15234 -0.11718,-0.0469 -0.36328,-0.0703 -0.71484,-0.0703 h -0.41016 l 0.11719,-0.4336 h 5.13281 l -0.11718,0.4336 c -0.57422,0.0469 -1.07813,0.11718 -1.51172,0.29297 -0.4336,0.14062 -0.84375,0.36328 -1.24219,0.66796 -0.79688,0.57422 -1.30078,0.98438 -1.55859,1.23047 l -1.00782,0.87891 c 0.16407,0.55078 0.375,1.34766 0.64453,2.35547 0.41016,1.67578 0.69141,2.66015 0.84375,2.97656 0.16407,0.31641 0.30469,0.45703 0.44532,0.45703 0.15234,0 0.29297,-0.0469 0.48047,-0.1875 0.41015,-0.29297 0.84375,-0.77344 1.30078,-1.41797 l 0.41015,0.28125 c -0.84375,1.07813 -1.48828,1.78125 -1.94531,2.1211 -0.45703,0.35156 -0.86719,0.52734 -1.25391,0.52734 -0.32812,0 -0.57421,-0.15234 -0.76171,-0.38672 -0.31641,-0.48047 -0.84375,-2.28515 -1.5586,-5.47265 l -1.60547,1.41796 -1.20703,4.14844 h -1.82812 l 3.89062,-13.37109 0.33985,-1.14844 c 0.0234,-0.1875 0.0469,-0.36328 0.0469,-0.50391 0,-0.1875 -0.0703,-0.33984 -0.21094,-0.48046 -0.15234,-0.11719 -0.36328,-0.16407 -0.63281,-0.16407 -0.1875,0 -0.45703,0.0234 -0.85547,0.0937 v -0.41015 z m -49.86914,-95.329103 -1.57031,5.320313 c 1.46484,-2.179688 2.57812,-3.597657 3.36328,-4.289063 0.77344,-0.703125 1.51172,-1.03125 2.23828,-1.03125 0.39844,0 0.71484,0.117188 0.98437,0.386719 0.23438,0.257812 0.35157,0.597656 0.35157,1.007812 0,0.480469 -0.0937,1.101563 -0.32813,1.863282 l -1.41797,4.945312 c -0.16406,0.574219 -0.26953,0.914063 -0.26953,1.03125 0,0.128906 0.0469,0.222656 0.10547,0.292969 0.0703,0.07031 0.14063,0.09375 0.21094,0.09375 0.0937,0 0.1875,-0.04687 0.33984,-0.140625 0.39844,-0.339844 0.85547,-0.820313 1.33594,-1.488281 l 0.38672,0.210937 c -0.73828,1.03125 -1.41797,1.78125 -2.0625,2.238281 -0.45703,0.28125 -0.86719,0.457032 -1.21875,0.457032 -0.29297,0 -0.53906,-0.105469 -0.70313,-0.269532 -0.16406,-0.1875 -0.25781,-0.433593 -0.25781,-0.714843 0,-0.386719 0.14063,-1.007813 0.39844,-1.921875 l 1.37109,-4.734375 c 0.16406,-0.574219 0.2461,-1.03125 0.2461,-1.359375 0,-0.152344 -0.0469,-0.292969 -0.15235,-0.386719 -0.0937,-0.09375 -0.23437,-0.140625 -0.375,-0.140625 -0.22265,0 -0.48047,0.09375 -0.77344,0.28125 -0.59765,0.363281 -1.19531,0.9375 -1.82812,1.734375 -0.62109,0.808594 -1.26563,1.839844 -1.96875,3.117187 -0.35156,0.644532 -0.66797,1.371094 -0.90234,2.15625 l -0.60938,1.945313 h -1.74609 l 2.13281,-7.347656 c 0.24609,-0.878907 0.38672,-1.417969 0.38672,-1.582032 0,-0.164062 -0.0703,-0.339843 -0.21094,-0.457031 -0.15234,-0.117187 -0.31641,-0.1875 -0.50391,-0.1875 -0.10546,0 -0.26953,0.02344 -0.5039,0.04687 l -0.4336,0.07031 -0.082,-0.433594 z m 0,0"
       style="fill:#231f20;fill-opacity:1;fill-rule:nonzero;stroke:none"
       aria-label="j&#10;k&#10;n"
       transform="matrix(1.3333333,0,0,1.3333333,436.52,31.881333)" />
    <path
       id="path14"
       d="M 835.101,12.6703 H 4535.6 L 3720.41,1417.2 H 19.9086 Z"
       style="fill:none;stroke:#231f20;stroke-width:16.5189;stroke-linecap:butt;stroke-linejoin:miter;stroke-miterlimit:2.6131;stroke-dasharray:none;stroke-opacity:1"
       transform="matrix(0.12094347,0,0,-0.14572267,0,272)" />
    <path
       id="path15"
       d="M 3384.78,781.371 H 859.738"
       style="fill:none;stroke:#231f20;stroke-width:28.3465;stroke-linecap:butt;stroke-linejoin:miter;stroke-miterlimit:2.6131;stroke-dasharray:141.732, 85.0395;stroke-dashoffset:0;stroke-opacity:1"
       transform="matrix(0.13333333,0,0,-0.13333333,0,272)" />
    <path
       id="path16"
       d="M 1061.34,1229.21 2240.7,766.969"
       style="fill:none;stroke:#231f20;stroke-width:28.3465;stroke-linecap:butt;stroke-linejoin:miter;stroke-miterlimit:2.6131;stroke-dasharray:none;stroke-opacity:1"
       transform="matrix(0.13333333,0,0,-0.13333333,0,272)" />
    <path
       id="path17"
       d="m 968.457,1265.93 215.283,6.48 c -46.8,-42.48 -67.68,-95.04 -61.92,-157.68 l -153.363,151.2"
       style="fill:#231f20;fill-opacity:1;fill-rule:evenodd;stroke:none"
       transform="matrix(0.13333333,0,0,-0.13333333,0,272)" />
    <path
       id="path18"
       d="M 1526.46,350.09 2240.7,766.969"
       style="fill:none;stroke:#231f20;stroke-width:28.3465;stroke-linecap:butt;stroke-linejoin:miter;stroke-miterlimit:2.6131;stroke-dasharray:none;stroke-opacity:1"
       transform="matrix(0.13333333,0,0,-0.13333333,0,272)" />
    <path
       id="path19"
       d="m 1440.78,300.41 128.16,173.52 c 4.32,-63.36 32.4,-112.321 85.68,-146.879 L 1440.78,300.41"
       style="fill:#231f20;fill-opacity:1;fill-rule:evenodd;stroke:none"
       transform="matrix(0.13333333,0,0,-0.13333333,0,272)" />
    <path
       id="path20"
       d="M 2975.82,1813.13 2241.42,779.93"
       style="fill:none;stroke:#231f20;stroke-width:28.3465;stroke-linecap:butt;stroke-linejoin:miter;stroke-miterlimit:2.6131;stroke-dasharray:none;stroke-opacity:1"
       transform="matrix(0.13333333,0,0,-0.13333333,0,272)" />
    <path
       id="path21"
       d="m 3034.14,1894.49 -46.08,-210.24 c -29.52,55.44 -75.6,88.56 -138.24,97.92 l 184.32,112.32"
       style="fill:#231f20;fill-opacity:1;fill-rule:evenodd;stroke:none"
       transform="matrix(0.13333333,0,0,-0.13333333,0,272)" />
  </g>
</svg>
