<?xml version="1.0" encoding="UTF-8" standalone="no"?>
<!-- Created with Inkscape (http://www.inkscape.org/) -->

<svg
   version="1.1"
   id="svg1"
   width="653.33331"
   height="436"
   viewBox="0 0 653.33331 436"
   sodipodi:docname="isomers.svg"
   inkscape:version="1.3 (1:1.3+202307231459+0e150ed6c4)"
   xmlns:inkscape="http://www.inkscape.org/namespaces/inkscape"
   xmlns:sodipodi="http://sodipodi.sourceforge.net/DTD/sodipodi-0.dtd"
   xmlns="http://www.w3.org/2000/svg"
   xmlns:svg="http://www.w3.org/2000/svg">
  <defs
     id="defs1" />
  <sodipodi:namedview
     id="namedview1"
     pagecolor="#ffffff"
     bordercolor="#000000"
     borderopacity="0.25"
     inkscape:showpageshadow="2"
     inkscape:pageopacity="0.0"
     inkscape:pagecheckerboard="0"
     inkscape:deskcolor="#d1d1d1"
     inkscape:zoom="1.0469388"
     inkscape:cx="326.66666"
     inkscape:cy="217.77777"
     inkscape:window-width="1296"
     inkscape:window-height="704"
     inkscape:window-x="0"
     inkscape:window-y="0"
     inkscape:window-maximized="1"
     inkscape:current-layer="g1">
    <inkscape:page
       x="0"
       y="0"
       inkscape:label="1"
       id="page1"
       width="653.33331"
       height="436"
       margin="0"
       bleed="0" />
  </sodipodi:namedview>
  <g
     id="g1"
     inkscape:groupmode="layer"
     inkscape:label="1">
    <path
       id="path1"
       d="M 3049.42,2573.45 H 4488.7 V 1134.17 H 3049.42 Z"
       style="fill:none;stroke:#231f20;stroke-width:19.9871;stroke-linecap:square;stroke-linejoin:miter;stroke-miterlimit:2.6131;stroke-dasharray:none;stroke-opacity:1"
       transform="matrix(0.13333333,0,0,-0.13333333,0,436)" />
    <path
       id="path2"
       d="m 3353.98,3065.21 -311.76,-483.84 3.6,5.76 16.56,-10.8 -5.76,-10.08 h -14.4 v 11.52 l 15.12,-10.08 311.76,484.56 -3.6,-6.48 -16.56,10.8 5.76,10.08 h 14.4 v -11.52 l -15.12,10.08"
       style="fill:#231f20;fill-opacity:1;fill-rule:evenodd;stroke:none"
       transform="matrix(0.13333333,0,0,-0.13333333,0,436)" />
    <path
       id="path3"
       d="M 4797.58,3068.09 4492.3,2584.25 v -0.72 l 4.32,6.48 16.56,-10.8 -6.48,-10.08 h -14.4 v 11.52 l 15.12,-9.36 305.28,483.84 -3.6,-6.48 -16.56,10.8 5.76,10.08 h 14.4 v -10.8 l -15.12,9.36"
       style="fill:#231f20;fill-opacity:1;fill-rule:evenodd;stroke:none"
       transform="matrix(0.13333333,0,0,-0.13333333,0,436)" />
    <path
       id="path4"
       d="m 3351.1,1628.09 -32.4,-50.4 22.32,-15.12 32.4,51.12 z m -64.8,-101.52 -32.4,-50.4 22.32,-14.4 32.4,50.4 z m -65.52,-100.8 -31.68,-50.4 21.6,-14.4 33.12,50.4 z m -64.8,-100.8 -32.4,-50.4 22.32,-14.4 33.12,50.4 z m -64.8,-100.8 -32.4,-50.4 22.32,-14.4 32.4,50.4 z m 259.92,403.92 -32.4,-50.4 22.32,-15.12 32.4,51.12 z m -64.8,-101.52 -32.4,-50.4 22.32,-14.4 32.4,50.4 z m -65.52,-100.8 -31.68,-50.4 21.6,-14.4 33.12,50.4 z m -64.8,-100.8 -32.4,-50.4 22.32,-14.4 33.12,50.4 z m -64.8,-100.8 -32.4,-50.4 22.32,-14.4 32.4,50.4 -22.32,14.4"
       style="fill:#231f20;fill-opacity:1;fill-rule:evenodd;stroke:none"
       transform="matrix(0.13333333,0,0,-0.13333333,0,436)" />
    <path
       id="path5"
       d="m 4809.1,1614.41 -327.6,-475.92 4.32,5.76 16.56,-11.52 -7.2,-10.08 -14.4,0.72 0.72,11.52 15.12,-10.08 326.88,476.64 v -0.72 l -3.6,-5.76 -16.56,11.52 6.48,9.36 14.4,-0.72 -0.72,-10.8 -14.4,10.08"
       style="fill:#231f20;fill-opacity:1;fill-rule:evenodd;stroke:none"
       transform="matrix(0.13333333,0,0,-0.13333333,0,436)" />
    <path
       id="path6"
       d="m 3421.66,3060.17 c 0,-33.12 -26.64,-60.48 -59.76,-60.48 -33.12,0 -59.76,27.36 -59.76,60.48 0,33.12 26.64,59.76 59.76,59.76 33.12,0 59.76,-26.64 59.76,-59.76"
       style="fill:#231f20;fill-opacity:1;fill-rule:evenodd;stroke:none"
       transform="matrix(0.13333333,0,0,-0.13333333,0,436)" />
    <path
       id="path7"
       d="m 3421.66,3060.17 c 0,-33.12 -26.64,-60.48 -59.76,-60.48 -33.12,0 -59.76,27.36 -59.76,60.48 0,33.12 26.64,59.76 59.76,59.76 33.12,0 59.76,-26.64 59.76,-59.76 z"
       style="fill:none;stroke:#231f20;stroke-width:26.6542;stroke-linecap:square;stroke-linejoin:miter;stroke-miterlimit:2.6131;stroke-dasharray:none;stroke-opacity:1"
       transform="matrix(0.13333333,0,0,-0.13333333,0,436)" />
    <path
       id="path8"
       d="m 3421.66,3060.17 c 0,-33.12 -26.64,-60.48 -59.76,-60.48 -33.12,0 -59.76,27.36 -59.76,60.48 0,33.12 26.64,59.76 59.76,59.76 33.12,0 59.76,-26.64 59.76,-59.76"
       style="fill:#231f20;fill-opacity:1;fill-rule:evenodd;stroke:none"
       transform="matrix(0.13333333,0,0,-0.13333333,0,436)" />
    <path
       id="path9"
       d="m 3421.66,3060.17 c 0,-33.12 -26.64,-60.48 -59.76,-60.48 -33.12,0 -59.76,27.36 -59.76,60.48 0,33.12 26.64,59.76 59.76,59.76 33.12,0 59.76,-26.64 59.76,-59.76 z"
       style="fill:none;stroke:#231f20;stroke-width:26.6542;stroke-linecap:square;stroke-linejoin:miter;stroke-miterlimit:2.6131;stroke-dasharray:none;stroke-opacity:1"
       transform="matrix(0.13333333,0,0,-0.13333333,0,436)" />
    <path
       id="path10"
       d="m 4541.98,2566.97 c 0,-33.12 -27.36,-60.48 -60.48,-60.48 -33.12,0 -59.76,27.36 -59.76,60.48 0,33.12 26.64,59.76 59.76,59.76 33.12,0 60.48,-26.64 60.48,-59.76"
       style="fill:#231f20;fill-opacity:1;fill-rule:evenodd;stroke:none"
       transform="matrix(0.13333333,0,0,-0.13333333,0,436)" />
    <path
       id="path11"
       d="m 4541.98,2566.97 c 0,-33.12 -27.36,-60.48 -60.48,-60.48 -33.12,0 -59.76,27.36 -59.76,60.48 0,33.12 26.64,59.76 59.76,59.76 33.12,0 60.48,-26.64 60.48,-59.76 z"
       style="fill:none;stroke:#231f20;stroke-width:26.6542;stroke-linecap:square;stroke-linejoin:miter;stroke-miterlimit:2.6131;stroke-dasharray:none;stroke-opacity:1"
       transform="matrix(0.13333333,0,0,-0.13333333,0,436)" />
    <path
       id="path12"
       d="m 3995.5,2093.93 c 0,-33.12 -27.36,-60.48 -60.48,-60.48 -32.4,0 -59.76,27.36 -59.76,60.48 0,33.12 27.36,59.76 59.76,59.76 33.12,0 60.48,-26.64 60.48,-59.76"
       style="fill:#231f20;fill-opacity:1;fill-rule:evenodd;stroke:none"
       transform="matrix(0.13333333,0,0,-0.13333333,0,436)" />
    <path
       id="path13"
       d="m 3995.5,2093.93 c 0,-33.12 -27.36,-60.48 -60.48,-60.48 -32.4,0 -59.76,27.36 -59.76,60.48 0,33.12 27.36,59.76 59.76,59.76 33.12,0 60.48,-26.64 60.48,-59.76 z"
       style="fill:none;stroke:#231f20;stroke-width:26.6542;stroke-linecap:square;stroke-linejoin:miter;stroke-miterlimit:2.6131;stroke-dasharray:none;stroke-opacity:1"
       transform="matrix(0.13333333,0,0,-0.13333333,0,436)" />
    <path
       id="path14"
       d="m 3109.18,1134.17 c 0,-33.12 -26.64,-59.76 -59.76,-59.76 -33.12,0 -60.48,26.64 -60.48,59.76 0,33.12 27.36,59.76 60.48,59.76 33.12,0 59.76,-26.64 59.76,-59.76"
       style="fill:#231f20;fill-opacity:1;fill-rule:evenodd;stroke:none"
       transform="matrix(0.13333333,0,0,-0.13333333,0,436)" />
    <path
       id="path15"
       d="m 3109.18,1134.17 c 0,-33.12 -26.64,-59.76 -59.76,-59.76 -33.12,0 -60.48,26.64 -60.48,59.76 0,33.12 27.36,59.76 60.48,59.76 33.12,0 59.76,-26.64 59.76,-59.76 z"
       style="fill:none;stroke:#231f20;stroke-width:26.6542;stroke-linecap:square;stroke-linejoin:miter;stroke-miterlimit:2.6131;stroke-dasharray:none;stroke-opacity:1"
       transform="matrix(0.13333333,0,0,-0.13333333,0,436)" />
    <path
       id="path16"
       d="m 4861.66,1620.89 c 0,-33.12 -27.36,-60.48 -60.48,-60.48 -33.12,0 -59.76,27.36 -59.76,60.48 0,33.12 26.64,59.76 59.76,59.76 33.12,0 60.48,-26.64 60.48,-59.76"
       style="fill:#231f20;fill-opacity:1;fill-rule:evenodd;stroke:none"
       transform="matrix(0.13333333,0,0,-0.13333333,0,436)" />
    <path
       id="path17"
       d="m 4861.66,1620.89 c 0,-33.12 -27.36,-60.48 -60.48,-60.48 -33.12,0 -59.76,27.36 -59.76,60.48 0,33.12 26.64,59.76 59.76,59.76 33.12,0 60.48,-26.64 60.48,-59.76 z"
       style="fill:none;stroke:#231f20;stroke-width:26.6542;stroke-linecap:square;stroke-linejoin:miter;stroke-miterlimit:2.6131;stroke-dasharray:none;stroke-opacity:1"
       transform="matrix(0.13333333,0,0,-0.13333333,0,436)" />
    <path
       id="path18"
       d="m 3361.9,3050.09 h 1439.28 v 19.44 H 3361.9 Z m 1429.92,0 h 19.44 v 19.44 h -19.44 z m -1419.84,19.44 h -19.44 v -19.44 h 19.44 v 19.44"
       style="fill:#231f20;fill-opacity:1;fill-rule:evenodd;stroke:none"
       transform="matrix(0.13333333,0,0,-0.13333333,0,436)" />
    <path
       id="path19"
       d="M 4791.82,3060.17 V 1620.89 h 19.44 v 1439.28 z m 0,-1429.92 v -19.44 h 19.44 v 19.44 z m 19.44,1419.84 v 19.44 h -19.44 v -19.44 h 19.44"
       style="fill:#231f20;fill-opacity:1;fill-rule:evenodd;stroke:none"
       transform="matrix(0.13333333,0,0,-0.13333333,0,436)" />
    <path
       id="path20"
       d="m 3935.74,2101.13 -558,937.44 -15.84,-10.08 v 11.52 h 14.4 l 6.48,-10.08 -17.28,-10.08 -3.6,6.48 v -0.72 l 558,-937.44 15.84,9.36 v -10.8 h -14.4 l -6.48,10.08 17.28,10.08 3.6,-6.48 v 0.72"
       style="fill:#231f20;fill-opacity:1;fill-rule:evenodd;stroke:none"
       transform="matrix(0.13333333,0,0,-0.13333333,0,436)" />
    <path
       id="path21"
       d="M 3914.86,2093.93 3048.7,1134.89 v -0.72 l 6.48,7.2 14.4,-13.68 -6.48,-7.2 h -14.4 v 12.96 l 14.4,-12.96 866.16,959.76 v 13.68 h -0.72 -12.96 l -7.2,-7.92 14.4,-13.68 6.48,7.2 v 0.72 l -14.4,13.68"
       style="fill:#231f20;fill-opacity:1;fill-rule:evenodd;stroke:none"
       transform="matrix(0.13333333,0,0,-0.13333333,0,436)" />
    <path
       id="path22"
       d="m 3941.5,2085.29 510.48,424.08 -25.2,30.96 -511.2,-424.8 25.92,-30.24"
       style="fill:#231f20;fill-opacity:1;fill-rule:evenodd;stroke:none"
       transform="matrix(0.13333333,0,0,-0.13333333,0,436)" />
    <path
       id="path23"
       d="m 4481.5,2559.77 -90,-154.8 -78.48,94.32 z"
       style="fill:#231f20;fill-opacity:1;fill-rule:evenodd;stroke:none"
       transform="matrix(0.13333333,0,0,-0.13333333,0,436)" />
    <path
       id="path24"
       d="m 3943.66,2078.09 862.56,-471.6 -5.04,2.88 10.08,18 10.8,-6.48 v -14.4 h -10.8 l 8.64,15.84 -864,471.6 6.48,-2.88 -10.08,-17.28 -10.8,5.76 v 14.4 h 11.52 l -9.36,-15.84"
       style="fill:#231f20;fill-opacity:1;fill-rule:evenodd;stroke:none"
       transform="matrix(0.13333333,0,0,-0.13333333,0,436)" />
    <path
       id="path25"
       d="m 4489.42,2591.45 -1049.04,451.44 -15.84,-36.72 1049.04,-451.44 15.84,36.72"
       style="fill:#231f20;fill-opacity:1;fill-rule:evenodd;stroke:none"
       transform="matrix(0.13333333,0,0,-0.13333333,0,436)" />
    <path
       id="path26"
       d="m 3382.06,3046.49 179.28,-10.8 -48.96,-112.32 z"
       style="fill:#231f20;fill-opacity:1;fill-rule:evenodd;stroke:none"
       transform="matrix(0.13333333,0,0,-0.13333333,0,436)" />
    <path
       id="path27"
       d="m 3342.46,3055.85 -265.68,-1811.52 40.32,-5.76 264.96,1811.52 -39.6,5.76"
       style="fill:#231f20;fill-opacity:1;fill-rule:evenodd;stroke:none"
       transform="matrix(0.13333333,0,0,-0.13333333,0,436)" />
    <path
       id="path28"
       d="m 3089.02,1187.45 -36,175.68 120.96,-18 z"
       style="fill:#231f20;fill-opacity:1;fill-rule:evenodd;stroke:none"
       transform="matrix(0.13333333,0,0,-0.13333333,0,436)" />
    <g
       id="g28"
       aria-label="1&#10;2&#10;3&#10;4&#10;C&#10;N&#10;H&#10;α&#10;β&#10;D"
       transform="matrix(1.3333333,0,0,1.3333333,521.78933,189.64133)">
      <path
         id="path29"
         d="m 1.8747969,-9.5513125 2.5664062,-1.2656255 h 0.28125 v 8.9414067 c 0,0.5976563 0.011719,0.96093755 0.058594,1.12500005 0.046875,0.140625 0.1640625,0.2578125 0.3046875,0.33984375 0.1640625,0.0585938 0.4804687,0.10546875 0.9609375,0.1171875 V -5.3125e-4 H 2.0622969 V -0.2935 c 0.4921875,-0.0117188 0.8203125,-0.046875 0.9726562,-0.1171875 0.1523438,-0.0820313 0.2460938,-0.1875 0.3046875,-0.3046875 0.046875,-0.12890625 0.082031,-0.515625 0.082031,-1.1601563 v -5.7070312 c 0,-0.7734375 -0.035156,-1.265625 -0.082031,-1.4882813 -0.023437,-0.1640625 -0.09375,-0.2929687 -0.1875,-0.3632812 -0.09375,-0.082031 -0.2226562,-0.1171875 -0.3515625,-0.1171875 -0.1992187,0 -0.46875,0.082031 -0.796875,0.2460937 z m 75.7441401,-51.4687505 -0.761718,2.050782 h -6.234375 v -0.292969 c 1.828125,-1.675781 3.117187,-3.046875 3.867187,-4.101563 0.761719,-1.054687 1.136719,-2.039062 1.136719,-2.917968 0,-0.667969 -0.199219,-1.230469 -0.621094,-1.664063 -0.410156,-0.433594 -0.890625,-0.632812 -1.476562,-0.632812 -0.527344,0 -0.984375,0.140625 -1.40625,0.445312 -0.410157,0.304688 -0.714844,0.75 -0.902344,1.347656 h -0.292969 c 0.128906,-0.960937 0.46875,-1.699218 0.996094,-2.226562 0.539062,-0.515625 1.207031,-0.773438 2.027344,-0.773438 0.84375,0 1.570312,0.269532 2.144531,0.832032 0.574219,0.550781 0.867187,1.207031 0.867187,1.957031 0,0.527344 -0.128906,1.066406 -0.375,1.617187 -0.386718,0.832032 -1.019531,1.722657 -1.886718,2.671875 -1.289063,1.417969 -2.097657,2.261719 -2.414063,2.554688 h 2.753906 c 0.574219,0 0.960938,-0.01172 1.183594,-0.05859 0.234375,-0.03516 0.433594,-0.128906 0.621094,-0.257812 0.175781,-0.128907 0.339844,-0.304688 0.480469,-0.550782 z m -151.96582,-64.775387 c 0.304688,-0.71485 0.679688,-1.25391 1.136719,-1.64063 0.457031,-0.39844 1.03125,-0.59765 1.722656,-0.59765 0.84375,0 1.5,0.26953 1.945313,0.83203 0.363281,0.42187 0.515625,0.85547 0.515625,1.3125 0,0.78515 -0.480469,1.57031 -1.441407,2.40234 0.644532,0.25781 1.136719,0.62109 1.476563,1.08984 0.339844,0.48047 0.492187,1.03125 0.492187,1.67579 0,0.91406 -0.28125,1.71093 -0.878906,2.3789 -0.75,0.86719 -1.851562,1.3125 -3.292969,1.3125 -0.714843,0 -1.195312,-0.0937 -1.453125,-0.26953 -0.257812,-0.17578 -0.386718,-0.36328 -0.386718,-0.57422 0,-0.14062 0.04687,-0.26953 0.175781,-0.39844 0.128906,-0.11718 0.269531,-0.16406 0.445312,-0.16406 0.128907,0 0.257813,0.0234 0.398438,0.0703 0.08203,0.0117 0.292969,0.10547 0.597656,0.26954 0.316406,0.17578 0.527344,0.26953 0.65625,0.30468 0.1875,0.0469 0.398438,0.082 0.609375,0.082 0.527344,0 0.984375,-0.21093 1.382813,-0.60937 0.410156,-0.42188 0.597656,-0.91406 0.597656,-1.47656 0,-0.39844 -0.09375,-0.8086 -0.269531,-1.19532 -0.152344,-0.29296 -0.292969,-0.51562 -0.445313,-0.65625 -0.234375,-0.21093 -0.539062,-0.39843 -0.9375,-0.57421 -0.375,-0.16407 -0.785156,-0.25782 -1.183594,-0.25782 h -0.257812 v -0.22265 c 0.421875,-0.0703 0.820312,-0.21094 1.242187,-0.44532 0.410157,-0.24609 0.714844,-0.55078 0.902344,-0.8789 0.175781,-0.36328 0.28125,-0.72656 0.28125,-1.13672 0,-0.55078 -0.164062,-0.98438 -0.503906,-1.30078 -0.328125,-0.33985 -0.75,-0.49219 -1.265625,-0.49219 -0.796875,0 -1.464844,0.43359 -2.015625,1.28906 z m -23.90918,189.861325 v 1.101562 h -1.40625 v 2.800782 h -1.300777 v -2.800782 h -4.47657 v -0.996093 l 4.91016,-7.019532 h 0.867187 v 6.914063 z m -2.707027,0 v -5.261719 l -3.71485,5.261719 z m 162.603512,-157.069336 0.234375,3.597656 h -0.234375 c -0.328125,-1.089843 -0.785156,-1.851562 -1.382813,-2.332031 -0.609375,-0.46875 -1.324218,-0.703125 -2.15625,-0.703125 -0.703125,0 -1.347656,0.175781 -1.898437,0.527344 -0.585938,0.363281 -1.03125,0.925781 -1.347656,1.710937 -0.316407,0.785157 -0.480469,1.757813 -0.480469,2.90625 0,0.960938 0.140625,1.792969 0.445312,2.496094 0.328125,0.703125 0.773438,1.230469 1.394532,1.617188 0.621093,0.363281 1.324218,0.5625 2.109375,0.5625 0.691406,0 1.300781,-0.152344 1.828125,-0.445313 0.527343,-0.292969 1.101562,-0.867187 1.722656,-1.746094 l 0.246094,0.152344 c -0.527344,0.949219 -1.160157,1.640625 -1.863282,2.074219 -0.703125,0.445312 -1.546875,0.644531 -2.519531,0.644531 -1.746094,0 -3.105469,-0.644531 -4.066406,-1.945312 -0.714844,-0.972657 -1.089844,-2.109375 -1.089844,-3.421875 0,-1.054688 0.246094,-2.039063 0.726563,-2.917969 0.457031,-0.878906 1.113281,-1.558594 1.945312,-2.0625 0.832031,-0.480469 1.746094,-0.714844 2.71875,-0.714844 0.773438,0 1.523438,0.175781 2.273438,0.5625 0.210937,0.105469 0.363281,0.175781 0.46875,0.175781 0.140625,0 0.246093,-0.07031 0.363281,-0.164062 0.128906,-0.128906 0.222656,-0.339844 0.292969,-0.574219 z M -61.098836,-141.80034 h 2.882813 l 6.457031,7.9336 v -6.09375 c 0,-0.65625 -0.05859,-1.06641 -0.199219,-1.23047 -0.199219,-0.21094 -0.503906,-0.31641 -0.914062,-0.31641 h -0.375 v -0.29297 h 3.679687 v 0.29297 h -0.363281 c -0.445313,0 -0.761719,0.12891 -0.960938,0.39844 -0.105468,0.17578 -0.175781,0.53906 -0.175781,1.14844 v 8.92969 h -0.269531 l -6.996094,-8.54297 v 6.52734 c 0,0.65625 0.08203,1.05469 0.210938,1.21875 0.210937,0.22266 0.515625,0.32813 0.925781,0.32813 h 0.375 v 0.29296 h -3.679688 v -0.29296 h 0.351563 c 0.457031,0 0.785156,-0.14063 0.972656,-0.41016 0.117188,-0.16406 0.164063,-0.53906 0.164063,-1.13672 v -7.35937 c -0.304688,-0.36329 -0.550782,-0.60938 -0.691407,-0.71485 -0.164062,-0.11719 -0.398437,-0.22265 -0.703125,-0.32812 -0.164062,-0.0469 -0.386718,-0.0586 -0.691406,-0.0586 z M 90.052531,38.644977 h 4.910156 V 35.60982 c 0,-0.527343 -0.02344,-0.890625 -0.09375,-1.054687 -0.04687,-0.140625 -0.164062,-0.257813 -0.339843,-0.339844 -0.222657,-0.128906 -0.445313,-0.1875 -0.703125,-0.1875 H 93.462687 V 33.73482 h 4.523438 v 0.292969 h -0.386719 c -0.234375,0 -0.46875,0.05859 -0.703125,0.175781 -0.175781,0.08203 -0.28125,0.210938 -0.328125,0.386719 -0.07031,0.152344 -0.09375,0.503906 -0.09375,1.019531 v 6.84375 c 0,0.527344 0.02344,0.878907 0.09375,1.054688 0.05859,0.128906 0.152344,0.246094 0.316406,0.339844 0.246094,0.128906 0.480469,0.1875 0.714844,0.1875 h 0.386719 v 0.292968 h -4.523438 v -0.292968 h 0.363282 c 0.433593,0 0.75,-0.117188 0.949218,-0.375 0.128907,-0.164063 0.1875,-0.574219 0.1875,-1.207032 v -3.222656 h -4.910156 v 3.222656 c 0,0.527344 0.03516,0.878907 0.09375,1.054688 0.04687,0.128906 0.164063,0.246094 0.339844,0.339844 0.222656,0.128906 0.445312,0.1875 0.703125,0.1875 h 0.386719 v 0.292968 h -4.546875 v -0.292968 h 0.386718 c 0.433594,0 0.75,-0.117188 0.949219,-0.375 0.117188,-0.164063 0.1875,-0.574219 0.1875,-1.207032 v -6.84375 c 0,-0.527343 -0.03516,-0.890625 -0.09375,-1.054687 -0.07031,-0.140625 -0.164062,-0.257813 -0.328125,-0.339844 -0.234375,-0.128906 -0.480469,-0.1875 -0.714844,-0.1875 H 87.029094 V 33.73482 h 4.546875 v 0.292969 H 91.18925 c -0.257813,0 -0.480469,0.05859 -0.703125,0.175781 -0.175781,0.08203 -0.292969,0.210938 -0.339844,0.386719 -0.05859,0.152344 -0.09375,0.503906 -0.09375,1.019531 z m 0,0"
         style="fill:#231f20;fill-opacity:1;fill-rule:nonzero;stroke:none" />
      <path
         id="path30"
         d="m -11.335164,-25.166547 h 1.171875 l -1.675781,3.820313 c 0.08203,1.429687 0.316406,2.144531 0.75,2.144531 0.140625,0 0.269531,-0.08203 0.398437,-0.234375 0.140625,-0.152344 0.210938,-0.339844 0.246094,-0.574219 h 0.316406 c -0.164062,1.277344 -0.515625,1.910156 -1.089844,1.910156 -0.1875,0 -0.386718,-0.105468 -0.539062,-0.316406 -0.164063,-0.210937 -0.328125,-0.925781 -0.433594,-2.191406 -0.960937,1.675781 -2.050781,2.507812 -3.234375,2.507812 -0.667969,0 -1.21875,-0.234375 -1.628906,-0.703125 -0.421875,-0.457031 -0.621094,-1.089843 -0.621094,-1.851562 0,-0.75 0.1875,-1.488281 0.574219,-2.191406 0.375,-0.714844 0.84375,-1.3125 1.417969,-1.792969 0.5625,-0.480469 1.207031,-0.714844 1.886718,-0.714844 0.480469,0 0.867188,0.140625 1.160157,0.445313 0.269531,0.304687 0.457031,0.785156 0.550781,1.40625 z m -1.03125,2.261719 c -0.03516,-0.375 -0.152344,-0.808594 -0.375,-1.289063 -0.199219,-0.457031 -0.527344,-0.703125 -0.9375,-0.703125 -0.609375,0 -1.21875,0.574219 -1.839844,1.746094 -0.621094,1.183594 -0.925781,2.203125 -0.925781,3.105469 0,0.480469 0.09375,0.867187 0.304687,1.148437 0.199219,0.292969 0.480469,0.433594 0.84375,0.433594 0.363282,0 0.703125,-0.1875 1.007813,-0.574219 0.304687,-0.386718 0.714844,-1.183593 1.265625,-2.402343 z M -90.02657,98.390094 h -1.183594 c 0.375,-0.65625 0.703125,-1.371094 0.925781,-2.179688 l 2.34375,-7.980469 c 0.339844,-1.136718 0.644531,-1.980468 0.914063,-2.554687 0.269531,-0.5625 0.644531,-1.007813 1.101562,-1.324219 0.480469,-0.328125 1.042969,-0.480469 1.6875,-0.480469 0.65625,0 1.183594,0.175782 1.59375,0.539063 0.421875,0.363281 0.621094,0.867187 0.621094,1.488281 0,1.359375 -0.84375,2.355469 -2.507813,2.941406 1.019532,0.503907 1.558594,1.265625 1.558594,2.320313 0,0.996094 -0.375,1.910156 -1.089844,2.753906 -0.703125,0.832031 -1.617187,1.242188 -2.707031,1.242188 -0.304687,0 -0.585937,-0.02344 -0.878906,-0.105469 -0.292969,-0.08203 -0.609375,-0.269531 -0.972656,-0.574219 -0.503907,1.816406 -0.960938,3.128906 -1.40625,3.914063 z m 1.628906,-4.546875 c 0.351562,0.597656 0.855469,0.902343 1.511719,0.902343 0.773437,0 1.417968,-0.480468 1.910156,-1.453125 0.492187,-0.984375 0.75,-1.828125 0.75,-2.542968 0,-0.820313 -0.257813,-1.394532 -0.785156,-1.769532 -0.316407,0.07031 -0.574219,0.105469 -0.714844,0.105469 -0.339844,0 -0.503906,-0.117187 -0.503906,-0.339844 0,-0.210937 0.152343,-0.316406 0.421875,-0.316406 0.28125,0 0.574218,0.08203 0.890625,0.222656 0.480468,-0.257812 0.902343,-0.703125 1.253906,-1.347656 0.328125,-0.632812 0.515625,-1.265625 0.515625,-1.851562 0,-0.386719 -0.105469,-0.691407 -0.292969,-0.914063 -0.1875,-0.222656 -0.445312,-0.339844 -0.773437,-0.339844 -0.351563,0 -0.667969,0.152344 -0.984375,0.421875 -0.304688,0.269532 -0.5625,0.667969 -0.75,1.195313 -0.199219,0.527344 -0.515625,1.535156 -0.960938,3.011719 z m 0,0"
         style="fill:#231f20;fill-opacity:1;fill-rule:nonzero;stroke:none" />
      <path
         id="path31"
         d="m -17.93282,120.67037 v -0.29297 h 0.351562 c 0.304688,0 0.539063,-0.0469 0.703125,-0.14063 0.175781,-0.0937 0.28125,-0.22265 0.363281,-0.39843 0.04687,-0.11719 0.08203,-0.4336 0.08203,-0.97266 v -6.97266 c 0,-0.55078 -0.03516,-0.8789 -0.09375,-1.00781 -0.04687,-0.15234 -0.175782,-0.25781 -0.351563,-0.375 -0.164062,-0.0937 -0.398437,-0.14062 -0.703125,-0.14062 h -0.351562 v -0.29297 h 4.746093 c 1.265625,0 2.273438,0.17578 3.058594,0.51562 0.9257814,0.42188 1.6406252,1.05469 2.1445314,1.92188 0.4804688,0.84375 0.7148438,1.80468 0.7148438,2.89453 0,0.73828 -0.1054688,1.41797 -0.3515625,2.05078 -0.234375,0.63281 -0.5625,1.14844 -0.9257813,1.55859 -0.3867187,0.41016 -0.8203125,0.73828 -1.3242187,0.98438 -0.5039067,0.25781 -1.1015627,0.44531 -1.8281247,0.57422 -0.304688,0.0586 -0.820313,0.0937 -1.488282,0.0937 z m 4.042968,-9.9961 v 8.27344 c 0,0.42188 0.01172,0.70313 0.07031,0.79688 0.02344,0.0937 0.105469,0.17578 0.199219,0.22265 0.152343,0.082 0.339843,0.12891 0.609375,0.12891 0.867187,0 1.535156,-0.30469 1.980468,-0.90235 0.632813,-0.79687 0.949219,-2.03906 0.949219,-3.72656 0,-1.35937 -0.210937,-2.4375 -0.644531,-3.25781 -0.328125,-0.64453 -0.761719,-1.07813 -1.3125,-1.30078 -0.363281,-0.15235 -0.984375,-0.23438 -1.851563,-0.23438 z m 0,0"
         style="fill:#231f20;fill-opacity:1;fill-rule:nonzero;stroke:none" />
    </g>
    <path
       id="path32"
       d="M 256.539,2563.37 H 1696.54 V 1124.09 H 256.539 Z"
       style="fill:none;stroke:#231f20;stroke-width:19.9871;stroke-linecap:square;stroke-linejoin:miter;stroke-miterlimit:2.6131;stroke-dasharray:none;stroke-opacity:1"
       transform="matrix(0.13333333,0,0,-0.13333333,0,436)" />
    <path
       id="path33"
       d="M 561.816,3055.13 249.34,2569.85 v 0.72 l 4.316,6.48 17.282,-10.8 -6.481,-10.08 H 249.34 v 12.24 l 15.84,-10.08 312.476,484.56 -4.316,-7.2 -17.281,11.52 6.48,10.08 h 15.117 v -12.24 l -15.84,10.08"
       style="fill:#231f20;fill-opacity:1;fill-rule:evenodd;stroke:none"
       transform="matrix(0.13333333,0,0,-0.13333333,0,436)" />
    <path
       id="path34"
       d="m 2003.98,3059.45 -305.28,-483.84 3.6,5.76 17.28,-10.8 -6.48,-10.08 h -14.4 v 11.52 l 15.84,-9.36 305.28,483.84 v 0.72 l -4.32,-7.2 -17.28,10.8 6.48,10.8 h 15.12 v -11.52 l -15.84,9.36"
       style="fill:#231f20;fill-opacity:1;fill-rule:evenodd;stroke:none"
       transform="matrix(0.13333333,0,0,-0.13333333,0,436)" />
    <path
       id="path35"
       d="m 558.938,1618.01 -32.399,-50.4 22.32,-14.4 32.399,50.4 z m -64.801,-100.8 -32.399,-50.4 22.321,-15.12 32.398,51.12 z m -64.797,-101.52 -33.121,-50.4 23.039,-14.4 32.398,50.4 z m -64.801,-100.8 -33.121,-50.4 23.039,-14.4 31.68,50.4 z m -65.519,-100.8 -32.403,-50.4 22.321,-14.4 32.402,50.4 z m 259.918,403.92 -32.399,-50.4 22.32,-14.4 32.399,50.4 z m -64.801,-100.8 -32.399,-50.4 22.321,-15.12 32.398,51.12 z m -64.797,-101.52 -33.121,-50.4 23.039,-14.4 32.398,50.4 z m -64.801,-100.8 -33.121,-50.4 23.039,-14.4 31.68,50.4 z m -65.519,-100.8 -32.403,-50.4 22.321,-14.4 32.402,50.4 -22.32,14.4"
       style="fill:#231f20;fill-opacity:1;fill-rule:evenodd;stroke:none"
       transform="matrix(0.13333333,0,0,-0.13333333,0,436)" />
    <path
       id="path36"
       d="m 630.219,3050.09 c 0,-33.12 -26.641,-60.48 -59.762,-60.48 -33.117,0 -60.48,27.36 -60.48,60.48 0,33.12 27.363,59.76 60.48,59.76 33.121,0 59.762,-26.64 59.762,-59.76"
       style="fill:#231f20;fill-opacity:1;fill-rule:evenodd;stroke:none"
       transform="matrix(0.13333333,0,0,-0.13333333,0,436)" />
    <path
       id="path37"
       d="m 630.219,3050.09 c 0,-33.12 -26.641,-60.48 -59.762,-60.48 -33.117,0 -60.48,27.36 -60.48,60.48 0,33.12 27.363,59.76 60.48,59.76 33.121,0 59.762,-26.64 59.762,-59.76 z"
       style="fill:none;stroke:#231f20;stroke-width:26.6542;stroke-linecap:square;stroke-linejoin:miter;stroke-miterlimit:2.6131;stroke-dasharray:none;stroke-opacity:1"
       transform="matrix(0.13333333,0,0,-0.13333333,0,436)" />
    <path
       id="path38"
       d="m 630.219,3050.09 c 0,-33.12 -26.641,-60.48 -59.762,-60.48 -33.117,0 -60.48,27.36 -60.48,60.48 0,33.12 27.363,59.76 60.48,59.76 33.121,0 59.762,-26.64 59.762,-59.76"
       style="fill:#231f20;fill-opacity:1;fill-rule:evenodd;stroke:none"
       transform="matrix(0.13333333,0,0,-0.13333333,0,436)" />
    <path
       id="path39"
       d="m 630.219,3050.09 c 0,-33.12 -26.641,-60.48 -59.762,-60.48 -33.117,0 -60.48,27.36 -60.48,60.48 0,33.12 27.363,59.76 60.48,59.76 33.121,0 59.762,-26.64 59.762,-59.76 z"
       style="fill:none;stroke:#231f20;stroke-width:26.6542;stroke-linecap:square;stroke-linejoin:miter;stroke-miterlimit:2.6131;stroke-dasharray:none;stroke-opacity:1"
       transform="matrix(0.13333333,0,0,-0.13333333,0,436)" />
    <path
       id="path40"
       d="m 1749.82,2556.89 c 0,-33.12 -27.36,-60.48 -60.48,-60.48 -33.12,0 -59.76,27.36 -59.76,60.48 0,33.12 26.64,59.76 59.76,59.76 33.12,0 60.48,-26.64 60.48,-59.76"
       style="fill:#231f20;fill-opacity:1;fill-rule:evenodd;stroke:none"
       transform="matrix(0.13333333,0,0,-0.13333333,0,436)" />
    <path
       id="path41"
       d="m 1749.82,2556.89 c 0,-33.12 -27.36,-60.48 -60.48,-60.48 -33.12,0 -59.76,27.36 -59.76,60.48 0,33.12 26.64,59.76 59.76,59.76 33.12,0 60.48,-26.64 60.48,-59.76 z"
       style="fill:none;stroke:#231f20;stroke-width:26.6542;stroke-linecap:square;stroke-linejoin:miter;stroke-miterlimit:2.6131;stroke-dasharray:none;stroke-opacity:1"
       transform="matrix(0.13333333,0,0,-0.13333333,0,436)" />
    <path
       id="path42"
       d="m 1203.34,2083.85 c 0,-33.12 -27.36,-60.48 -60.48,-60.48 -33.12,0 -59.76,27.36 -59.76,60.48 0,33.12 26.64,59.76 59.76,59.76 33.12,0 60.48,-26.64 60.48,-59.76"
       style="fill:#231f20;fill-opacity:1;fill-rule:evenodd;stroke:none"
       transform="matrix(0.13333333,0,0,-0.13333333,0,436)" />
    <path
       id="path43"
       d="m 1203.34,2083.85 c 0,-33.12 -27.36,-60.48 -60.48,-60.48 -33.12,0 -59.76,27.36 -59.76,60.48 0,33.12 26.64,59.76 59.76,59.76 33.12,0 60.48,-26.64 60.48,-59.76 z"
       style="fill:none;stroke:#231f20;stroke-width:26.6542;stroke-linecap:square;stroke-linejoin:miter;stroke-miterlimit:2.6131;stroke-dasharray:none;stroke-opacity:1"
       transform="matrix(0.13333333,0,0,-0.13333333,0,436)" />
    <path
       id="path44"
       d="m 317.02,1124.09 c 0,-33.12 -27.364,-59.76 -60.481,-59.76 -33.121,0 -59.762,26.64 -59.762,59.76 0,33.12 26.641,59.76 59.762,59.76 33.117,0 60.481,-26.64 60.481,-59.76"
       style="fill:#231f20;fill-opacity:1;fill-rule:evenodd;stroke:none"
       transform="matrix(0.13333333,0,0,-0.13333333,0,436)" />
    <path
       id="path45"
       d="m 317.02,1124.09 c 0,-33.12 -27.364,-59.76 -60.481,-59.76 -33.121,0 -59.762,26.64 -59.762,59.76 0,33.12 26.641,59.76 59.762,59.76 33.117,0 60.481,-26.64 60.481,-59.76 z"
       style="fill:none;stroke:#231f20;stroke-width:26.6542;stroke-linecap:square;stroke-linejoin:miter;stroke-miterlimit:2.6131;stroke-dasharray:none;stroke-opacity:1"
       transform="matrix(0.13333333,0,0,-0.13333333,0,436)" />
    <path
       id="path46"
       d="m 2069.5,1610.81 c 0,-33.12 -26.64,-60.48 -59.76,-60.48 -33.12,0 -60.48,27.36 -60.48,60.48 0,33.12 27.36,59.76 60.48,59.76 33.12,0 59.76,-26.64 59.76,-59.76"
       style="fill:#231f20;fill-opacity:1;fill-rule:evenodd;stroke:none"
       transform="matrix(0.13333333,0,0,-0.13333333,0,436)" />
    <path
       id="path47"
       d="m 2069.5,1610.81 c 0,-33.12 -26.64,-60.48 -59.76,-60.48 -33.12,0 -60.48,27.36 -60.48,60.48 0,33.12 27.36,59.76 60.48,59.76 33.12,0 59.76,-26.64 59.76,-59.76 z"
       style="fill:none;stroke:#231f20;stroke-width:26.6542;stroke-linecap:square;stroke-linejoin:miter;stroke-miterlimit:2.6131;stroke-dasharray:none;stroke-opacity:1"
       transform="matrix(0.13333333,0,0,-0.13333333,0,436)" />
    <path
       id="path48"
       d="M 570.457,3040.01 H 2009.74 v 20.16 H 570.457 Z m 1429.203,0 h 20.16 v 20.16 h -20.16 z m -1419.121,20.16 h -20.16 v -20.16 h 20.16 v 20.16"
       style="fill:#231f20;fill-opacity:1;fill-rule:evenodd;stroke:none"
       transform="matrix(0.13333333,0,0,-0.13333333,0,436)" />
    <path
       id="path49"
       d="M 1999.66,3050.09 V 1610.81 h 20.16 v 1439.28 z m 0,-1429.2 v -20.16 h 20.16 v 20.16 z m 20.16,1419.12 v 20.16 h -20.16 v -20.16 h 20.16"
       style="fill:#231f20;fill-opacity:1;fill-rule:evenodd;stroke:none"
       transform="matrix(0.13333333,0,0,-0.13333333,0,436)" />
    <path
       id="path50"
       d="m 560.379,3040.01 v -480.24 h 20.16 v 480.24 z m 0,-470.16 v -20.16 h 20.16 v 20.16 z m 20.16,460.08 v 20.16 h -20.16 v -20.16 h 20.16"
       style="fill:#231f20;fill-opacity:1;fill-rule:evenodd;stroke:none"
       transform="matrix(0.13333333,0,0,-0.13333333,0,436)" />
    <path
       id="path51"
       d="m 1692.94,1600.73 h 316.08 v 20.16 h -316.08 z m 306,0 h 20.88 v 20.16 h -20.88 z m -295.2,20.16 h -20.88 v -20.16 h 20.88 v 20.16"
       style="fill:#231f20;fill-opacity:1;fill-rule:evenodd;stroke:none"
       transform="matrix(0.13333333,0,0,-0.13333333,0,436)" />
    <path
       id="path52"
       d="m 560.379,2559.77 v -63.36 h 20.16 v 63.36 z m 0,-127.44 v -63.36 h 20.16 v 63.36 z m 0,-127.44 v -63.36 h 20.16 v 63.36 z m 0,-127.44 v -63.36 h 20.16 v 63.36 z m 0,-127.44 v -63.36 h 20.16 v 63.36 z m 0,-127.44 v -63.36 h 20.16 v 63.36 z m 0,-127.44 v -64.08 h 20.16 v 64.08 z m 0,-127.44 v -64.08 h 20.16 v 64.08 h -20.16"
       style="fill:#231f20;fill-opacity:1;fill-rule:evenodd;stroke:none"
       transform="matrix(0.13333333,0,0,-0.13333333,0,436)" />
    <path
       id="path53"
       d="m 570.457,1600.73 h 59.762 v 20.16 h -59.762 z m 119.52,0 h 59.761 v 20.16 h -59.761 z m 120.242,0 h 59.758 v 20.16 h -59.758 z m 119.519,0 h 60.481 v 20.16 h -60.481 z m 120.242,0 h 59.76 v 20.16 h -59.76 z m 120.24,0 h 59.76 v 20.16 h -59.76 z m 119.52,0 h 59.76 v 20.16 h -59.76 z m 120.24,0 h 59.76 v 20.16 h -59.76 z m 119.52,0 h 60.48 v 20.16 h -60.48 z m 120.24,0 h 33.12 v 20.16 h -33.12 v -20.16"
       style="fill:#231f20;fill-opacity:1;fill-rule:evenodd;stroke:none"
       transform="matrix(0.13333333,0,0,-0.13333333,0,436)" />
    <path
       id="path54"
       d="m 1143.58,2091.05 -558.002,937.44 -15.84,-9.36 v 10.8 h 14.399 l 6.48,-10.08 -17.277,-10.08 -3.602,5.76 558.722,-937.44 15.12,10.08 v -11.52 h -14.4 l -6.48,10.08 17.28,10.08 3.6,-5.04 v -0.72"
       style="fill:#231f20;fill-opacity:1;fill-rule:evenodd;stroke:none"
       transform="matrix(0.13333333,0,0,-0.13333333,0,436)" />
    <path
       id="path55"
       d="M 1122.7,2083.85 256.539,1124.09 v -13.68 h 13.68 l 7.199,7.92 -15.121,12.96 -5.758,-7.2 14.399,-13.68 866.162,959.04 v 0.72 l -6.48,-7.2 -15.12,12.96 7.2,7.92 h 14.4 v -12.96 l -14.4,12.96"
       style="fill:#231f20;fill-opacity:1;fill-rule:evenodd;stroke:none"
       transform="matrix(0.13333333,0,0,-0.13333333,0,436)" />
    <path
       id="path56"
       d="m 1149.34,2075.21 511.2,424.08 -25.92,30.96 -510.48,-424.8 25.2,-30.24"
       style="fill:#231f20;fill-opacity:1;fill-rule:evenodd;stroke:none"
       transform="matrix(0.13333333,0,0,-0.13333333,0,436)" />
    <path
       id="path57"
       d="m 1689.34,2549.69 -90,-154.8 -78.48,94.32 z"
       style="fill:#231f20;fill-opacity:1;fill-rule:evenodd;stroke:none"
       transform="matrix(0.13333333,0,0,-0.13333333,0,436)" />
    <path
       id="path58"
       d="m 1151.5,2068.01 864,-471.6 -6.48,3.6 9.36,17.28 11.52,-5.76 v -15.12 h -10.8 l 8.64,15.84 -864,471.6 6.48,-2.88 -10.08,-17.28 -10.8,5.76 v 14.4 h 10.8 l -8.64,-15.84"
       style="fill:#231f20;fill-opacity:1;fill-rule:evenodd;stroke:none"
       transform="matrix(0.13333333,0,0,-0.13333333,0,436)" />
    <path
       id="path59"
       d="m 1697.98,2581.37 -1049.761,451.44 -15.84,-36.72 1049.761,-450.72 15.84,36"
       style="fill:#231f20;fill-opacity:1;fill-rule:evenodd;stroke:none"
       transform="matrix(0.13333333,0,0,-0.13333333,0,436)" />
    <path
       id="path60"
       d="m 590.617,3036.41 178.563,-10.8 -48.242,-111.6 z"
       style="fill:#231f20;fill-opacity:1;fill-rule:evenodd;stroke:none"
       transform="matrix(0.13333333,0,0,-0.13333333,0,436)" />
    <path
       id="path61"
       d="M 550.297,3045.77 285.34,1234.25 l 38.879,-5.76 265.679,1811.52 -39.601,5.76"
       style="fill:#231f20;fill-opacity:1;fill-rule:evenodd;stroke:none"
       transform="matrix(0.13333333,0,0,-0.13333333,0,436)" />
    <path
       id="path62"
       d="m 296.859,1177.37 -36,175.68 120.957,-18 z"
       style="fill:#231f20;fill-opacity:1;fill-rule:evenodd;stroke:none"
       transform="matrix(0.13333333,0,0,-0.13333333,0,436)" />
    <g
       id="g62"
       aria-label="1&#10;2&#10;3&#10;4&#10;C&#10;N&#10;H&#10;α&#10;β&#10;L&#10;L=α-N-C-β&#10;1234&#10;D=α-C-N-β&#10;1234"
       transform="matrix(1.3333333,0,0,1.3333333,149.11733,188.87333)">
      <path
         id="path63"
         d="m 1.8748906,-9.5495313 2.5664063,-1.2656247 h 0.28125 v 8.941406 c 0,0.5976562 0.011719,0.9609375 0.058594,1.125 0.046875,0.140625 0.1640625,0.2578125 0.3046875,0.33984375 0.1640625,0.0585938 0.4804688,0.10546875 0.9609375,0.1171875 V 0.00125 h -3.984375 v -0.29296875 c 0.4921875,-0.0117188 0.8203125,-0.046875 0.9726563,-0.1171875 0.1523437,-0.0820313 0.2460937,-0.1875 0.3046875,-0.3046875 C 3.3866094,-0.8425 3.4217656,-1.2292188 3.4217656,-1.87375 v -5.7070313 c 0,-0.7734375 -0.035156,-1.265625 -0.082031,-1.4882812 -0.023437,-0.1640625 -0.09375,-0.2929688 -0.1875,-0.3632813 -0.09375,-0.082031 -0.2226563,-0.1171875 -0.3515625,-0.1171875 -0.1992188,0 -0.46875,0.082031 -0.796875,0.2460938 z m 75.7441404,-49.0224607 -0.761718,2.050781 h -6.234375 v -0.292969 c 1.828125,-1.675781 3.117187,-3.046875 3.867187,-4.101562 0.761719,-1.054688 1.136719,-2.039063 1.136719,-2.917969 0,-0.667969 -0.199219,-1.230469 -0.621094,-1.664062 -0.410156,-0.433594 -0.890625,-0.632813 -1.476562,-0.632813 -0.527344,0 -0.984375,0.140625 -1.40625,0.445313 -0.410157,0.304687 -0.714844,0.75 -0.902344,1.347656 h -0.292969 c 0.128906,-0.960938 0.46875,-1.699219 0.996094,-2.226563 0.539062,-0.515625 1.207031,-0.773437 2.027344,-0.773437 0.84375,0 1.570312,0.269531 2.144531,0.832031 0.574219,0.550781 0.867187,1.207031 0.867187,1.957031 0,0.527344 -0.128906,1.066407 -0.375,1.617188 -0.386718,0.832031 -1.019531,1.722656 -1.886718,2.671875 -1.289063,1.417969 -2.097657,2.261719 -2.414063,2.554687 h 2.753906 c 0.574219,0 0.960938,-0.01172 1.183594,-0.05859 0.234375,-0.03516 0.433594,-0.128907 0.621094,-0.257813 0.175781,-0.128906 0.339844,-0.304687 0.480469,-0.550781 z M -73.848742,-124.50168 c 0.304687,-0.71484 0.679687,-1.25391 1.136719,-1.64062 0.457031,-0.39844 1.03125,-0.59766 1.722656,-0.59766 0.84375,0 1.5,0.26953 1.945312,0.83203 0.363282,0.42188 0.515625,0.85547 0.515625,1.3125 0,0.78516 -0.480468,1.57031 -1.441406,2.40234 0.644531,0.25782 1.136719,0.6211 1.476563,1.08985 0.339843,0.48047 0.492187,1.03125 0.492187,1.67578 0,0.91406 -0.28125,1.71094 -0.878906,2.37891 -0.75,0.86718 -1.851563,1.3125 -3.292969,1.3125 -0.714844,0 -1.195312,-0.0937 -1.453125,-0.26954 -0.257812,-0.17578 -0.386719,-0.36328 -0.386719,-0.57421 0,-0.14063 0.04687,-0.26954 0.175782,-0.39844 0.128906,-0.11719 0.269531,-0.16406 0.445312,-0.16406 0.128906,0 0.257813,0.0234 0.398438,0.0703 0.08203,0.0117 0.292968,0.10547 0.597656,0.26953 0.316406,0.17578 0.527344,0.26953 0.65625,0.30469 0.1875,0.0469 0.398437,0.082 0.609375,0.082 0.527344,0 0.984375,-0.21094 1.382812,-0.60938 0.410157,-0.42187 0.597657,-0.91406 0.597657,-1.47656 0,-0.39844 -0.09375,-0.80859 -0.269532,-1.19531 -0.152343,-0.29297 -0.292968,-0.51563 -0.445312,-0.65625 -0.234375,-0.21094 -0.539063,-0.39844 -0.9375,-0.57422 -0.375,-0.16406 -0.785156,-0.25781 -1.183594,-0.25781 h -0.257812 v -0.22266 c 0.421875,-0.0703 0.820312,-0.21094 1.242187,-0.44531 0.410156,-0.2461 0.714844,-0.55078 0.902344,-0.87891 0.175781,-0.36328 0.28125,-0.72656 0.28125,-1.13672 0,-0.55078 -0.164063,-0.98437 -0.503906,-1.30078 -0.328125,-0.33984 -0.75,-0.49219 -1.265625,-0.49219 -0.796875,0 -1.464844,0.4336 -2.015625,1.28907 z m -23.90332,188.496094 v 1.101563 h -1.40625 v 2.800781 h -1.300778 v -2.800781 h -4.47657 v -0.996094 l 4.91016,-7.019531 h 0.867188 v 6.914062 z m -2.707028,0 v -5.261719 l -3.71485,5.261719 z m 49.708004,-204.662114 0.234375,3.59766 h -0.234375 c -0.328125,-1.08984 -0.785156,-1.85156 -1.382812,-2.33203 -0.609375,-0.46875 -1.324219,-0.70313 -2.15625,-0.70313 -0.703125,0 -1.347657,0.17579 -1.898438,0.52735 -0.585937,0.36328 -1.03125,0.92578 -1.347656,1.71094 -0.316406,0.78515 -0.480469,1.75781 -0.480469,2.90625 0,0.96093 0.140625,1.79296 0.445313,2.49609 0.328125,0.70312 0.773437,1.23047 1.394531,1.61719 0.621094,0.36328 1.324219,0.5625 2.109375,0.5625 0.691406,0 1.300781,-0.15235 1.828125,-0.44532 0.527344,-0.29296 1.101562,-0.86718 1.722656,-1.74609 l 0.246094,0.15234 c -0.527344,0.94922 -1.160156,1.64063 -1.863281,2.07422 -0.703125,0.44532 -1.546875,0.64453 -2.519532,0.64453 -1.746093,0 -3.105468,-0.64453 -4.066406,-1.94531 -0.714844,-0.97265 -1.089844,-2.10937 -1.089844,-3.42187 0,-1.05469 0.246094,-2.03907 0.726563,-2.91797 0.457031,-0.87891 1.113281,-1.5586 1.945312,-2.0625 0.832032,-0.48047 1.746094,-0.71485 2.71875,-0.71485 0.773438,0 1.523438,0.17579 2.273438,0.5625 0.210937,0.10547 0.363281,0.17579 0.46875,0.17579 0.140625,0 0.246094,-0.0703 0.363281,-0.16407 0.128906,-0.1289 0.222656,-0.33984 0.292969,-0.57422 z m 101.917969,49.628911 h 2.882812 l 6.457032,7.933594 v -6.09375 c 0,-0.65625 -0.05859,-1.066407 -0.199219,-1.230469 -0.199219,-0.210938 -0.503906,-0.316406 -0.914063,-0.316406 h -0.375 v -0.292969 h 3.679688 v 0.292969 h -0.363281 c -0.445313,0 -0.761719,0.128906 -0.960938,0.398437 -0.105469,0.175781 -0.175781,0.539063 -0.175781,1.148438 v 8.929687 h -0.269531 l -6.996094,-8.542969 v 6.527344 c 0,0.65625 0.08203,1.054688 0.210937,1.21875 0.210938,0.222656 0.515625,0.328125 0.925782,0.328125 h 0.375 v 0.292969 h -3.679688 v -0.292969 h 0.351563 c 0.457031,0 0.785156,-0.140625 0.972656,-0.410156 0.117187,-0.164063 0.164062,-0.539063 0.164062,-1.136719 v -7.359375 c -0.304687,-0.363281 -0.550781,-0.609375 -0.691406,-0.714844 -0.164062,-0.117187 -0.398437,-0.222656 -0.703125,-0.328125 -0.164062,-0.04687 -0.386719,-0.05859 -0.691406,-0.05859 z M 90.620984,39.94168 h 4.910157 v -3.035157 c 0,-0.527343 -0.02344,-0.890625 -0.09375,-1.054687 -0.04687,-0.140625 -0.164063,-0.257813 -0.339844,-0.339844 -0.222656,-0.128906 -0.445313,-0.1875 -0.703125,-0.1875 h -0.363281 v -0.292969 h 4.523437 v 0.292969 h -0.386719 c -0.234375,0 -0.46875,0.05859 -0.703125,0.175781 -0.175781,0.08203 -0.28125,0.210938 -0.328125,0.386719 -0.07031,0.152344 -0.09375,0.503906 -0.09375,1.019531 v 6.84375 c 0,0.527344 0.02344,0.878907 0.09375,1.054688 0.05859,0.128906 0.152344,0.246094 0.316407,0.339844 0.246093,0.128906 0.480468,0.1875 0.714843,0.1875 h 0.386719 v 0.292968 h -4.523437 v -0.292968 h 0.363281 c 0.433594,0 0.75,-0.117188 0.949219,-0.375 0.128906,-0.164063 0.1875,-0.574219 0.1875,-1.207032 v -3.222656 h -4.910157 v 3.222656 c 0,0.527344 0.03516,0.878907 0.09375,1.054688 0.04687,0.128906 0.164063,0.246094 0.339844,0.339844 0.222656,0.128906 0.445313,0.1875 0.703125,0.1875 h 0.386719 v 0.292968 h -4.546875 v -0.292968 h 0.386719 c 0.433593,0 0.75,-0.117188 0.949218,-0.375 0.117188,-0.164063 0.1875,-0.574219 0.1875,-1.207032 v -6.84375 c 0,-0.527343 -0.03516,-0.890625 -0.09375,-1.054687 -0.07031,-0.140625 -0.164062,-0.257813 -0.328125,-0.339844 -0.234375,-0.128906 -0.480468,-0.1875 -0.714843,-0.1875 h -0.386719 v -0.292969 h 4.546875 v 0.292969 h -0.386719 c -0.257812,0 -0.480469,0.05859 -0.703125,0.175781 -0.175781,0.08203 -0.292969,0.210938 -0.339844,0.386719 -0.05859,0.152344 -0.09375,0.503906 -0.09375,1.019531 z m 0,0"
         style="fill:#231f20;fill-opacity:1;fill-rule:nonzero;stroke:none" />
      <path
         id="path64"
         d="m -11.047961,-24.230195 h 1.1718751 l -1.6757811,3.820312 c 0.08203,1.429688 0.316406,2.144531 0.75,2.144531 0.140625,0 0.269531,-0.08203 0.398437,-0.234375 0.140625,-0.152343 0.210938,-0.339843 0.246094,-0.574218 h 0.3164063 c -0.1640623,1.277343 -0.5156253,1.910156 -1.0898433,1.910156 -0.1875,0 -0.386719,-0.105469 -0.539063,-0.316406 -0.164062,-0.210938 -0.328125,-0.925782 -0.433594,-2.191407 -0.960937,1.675782 -2.050781,2.507813 -3.234375,2.507813 -0.667968,0 -1.21875,-0.234375 -1.628906,-0.703125 -0.421875,-0.457031 -0.621094,-1.089844 -0.621094,-1.851563 0,-0.75 0.1875,-1.488281 0.574219,-2.191406 0.375,-0.714844 0.84375,-1.3125 1.417969,-1.792969 0.5625,-0.480468 1.207031,-0.714843 1.886719,-0.714843 0.480468,0 0.867187,0.140625 1.160156,0.445312 0.269531,0.304688 0.457031,0.785156 0.550781,1.40625 z m -1.03125,2.261718 c -0.03516,-0.375 -0.152344,-0.808593 -0.375,-1.289062 -0.199219,-0.457031 -0.527344,-0.703125 -0.9375,-0.703125 -0.609375,0 -1.21875,0.574219 -1.839844,1.746094 -0.621093,1.183593 -0.925781,2.203125 -0.925781,3.105468 0,0.480469 0.09375,0.867188 0.304688,1.148438 0.199218,0.292969 0.480468,0.433594 0.84375,0.433594 0.363281,0 0.703125,-0.1875 1.007812,-0.574219 0.304688,-0.386719 0.714844,-1.183594 1.265625,-2.402344 z M -89.666125,99.543242 h -1.183594 c 0.375,-0.65625 0.703125,-1.371094 0.925782,-2.179687 l 2.34375,-7.980469 c 0.339843,-1.136719 0.644531,-1.980469 0.914062,-2.554688 0.269531,-0.5625 0.644531,-1.007812 1.101563,-1.324218 0.480468,-0.328125 1.042968,-0.480469 1.6875,-0.480469 0.65625,0 1.183593,0.175781 1.59375,0.539062 0.421875,0.363282 0.621093,0.867188 0.621093,1.488282 0,1.359375 -0.84375,2.355468 -2.507812,2.941406 1.019531,0.503906 1.558594,1.265625 1.558594,2.320312 0,0.996094 -0.375,1.910157 -1.089844,2.753907 -0.703125,0.832031 -1.617188,1.242187 -2.707031,1.242187 -0.304688,0 -0.585938,-0.02344 -0.878907,-0.105469 -0.292968,-0.08203 -0.609375,-0.269531 -0.972656,-0.574218 -0.503906,1.816406 -0.960937,3.128906 -1.40625,3.914062 z m 1.628906,-4.546875 c 0.351563,0.597656 0.855469,0.902344 1.511719,0.902344 0.773438,0 1.417969,-0.480469 1.910156,-1.453125 0.492188,-0.984375 0.75,-1.828125 0.75,-2.542969 0,-0.820312 -0.257812,-1.394531 -0.785156,-1.769531 -0.316406,0.07031 -0.574219,0.105469 -0.714844,0.105469 -0.339843,0 -0.503906,-0.117188 -0.503906,-0.339844 0,-0.210938 0.152344,-0.316406 0.421875,-0.316406 0.28125,0 0.574219,0.08203 0.890625,0.222656 0.480469,-0.257813 0.902344,-0.703125 1.253906,-1.347656 0.328125,-0.632813 0.515625,-1.265625 0.515625,-1.851563 0,-0.386719 -0.105468,-0.691406 -0.292968,-0.914062 -0.1875,-0.222657 -0.445313,-0.339844 -0.773438,-0.339844 -0.351562,0 -0.667969,0.152344 -0.984375,0.421875 -0.304687,0.269531 -0.5625,0.667969 -0.75,1.195312 -0.199219,0.527344 -0.515625,1.535157 -0.960937,3.011719 z m 0,0"
         style="fill:#231f20;fill-opacity:1;fill-rule:nonzero;stroke:none" />
      <path
         id="path65"
         d="m -13.382922,116.87527 -0.375,3.72657 h -9.410156 v -0.29297 h 0.351562 c 0.304688,0 0.539063,-0.0586 0.738282,-0.15235 0.128906,-0.082 0.234375,-0.21093 0.316406,-0.38672 0.04687,-0.1289 0.08203,-0.44531 0.08203,-0.97265 v -6.97266 c 0,-0.55078 -0.03516,-0.8789 -0.08203,-1.00781 -0.05859,-0.15234 -0.175781,-0.25781 -0.351563,-0.375 -0.175781,-0.0937 -0.410156,-0.14063 -0.703125,-0.14063 h -0.351562 v -0.29296 h 5.648437 v 0.29296 h -0.46875 c -0.304687,0 -0.5625,0.0469 -0.75,0.16407 -0.128906,0.0703 -0.234375,0.1875 -0.316406,0.375 -0.04687,0.11718 -0.08203,0.45703 -0.08203,0.98437 v 6.75 c 0,0.53906 0.03516,0.87891 0.09375,1.03125 0.07031,0.15235 0.175781,0.25781 0.375,0.32813 0.117187,0.0469 0.445312,0.0703 0.9375,0.0703 h 0.878906 c 0.5625,0 1.042969,-0.0937 1.40625,-0.29297 0.375,-0.19922 0.703125,-0.51562 0.972656,-0.9375 0.28125,-0.42187 0.539063,-1.05469 0.773438,-1.89844 z m -49.678711,48.59766 -0.375,3.72656 h -9.410156 v -0.29297 h 0.351562 c 0.304688,0 0.539063,-0.0586 0.738282,-0.15234 0.128906,-0.082 0.234375,-0.21094 0.316406,-0.38672 0.04687,-0.12891 0.08203,-0.44531 0.08203,-0.97266 v -6.97265 c 0,-0.55078 -0.03516,-0.87891 -0.08203,-1.00781 -0.05859,-0.15235 -0.175781,-0.25782 -0.351563,-0.375 -0.175781,-0.0937 -0.410156,-0.14063 -0.703125,-0.14063 h -0.351562 v -0.29297 h 5.648437 v 0.29297 h -0.46875 c -0.304687,0 -0.5625,0.0469 -0.75,0.16406 -0.128906,0.0703 -0.234375,0.1875 -0.316406,0.375 -0.04687,0.11719 -0.08203,0.45703 -0.08203,0.98438 v 6.75 c 0,0.53906 0.03516,0.8789 0.09375,1.03125 0.07031,0.15234 0.175781,0.25781 0.375,0.32812 0.117187,0.0469 0.445312,0.0703 0.9375,0.0703 h 0.878906 c 0.5625,0 1.042969,-0.0937 1.40625,-0.29297 0.375,-0.19922 0.703125,-0.51563 0.972656,-0.9375 0.28125,-0.42188 0.539063,-1.05469 0.773438,-1.89844 z m 0,0"
         style="fill:#231f20;fill-opacity:1;fill-rule:nonzero;stroke:none" />
      <path
         id="path66"
         d="m -58.675891,162.30887 h 8.425782 v 0.63281 h -8.425782 z m 0,2.54297 h 8.425782 v 0.63281 h -8.425782 z m 0,0"
         style="fill:#231f20;fill-opacity:1;fill-rule:nonzero;stroke:none" />
      <path
         id="path67"
         d="m -38.33507,162.32059 h 1.171875 l -1.675782,3.82031 c 0.08203,1.42969 0.316407,2.14453 0.75,2.14453 0.140625,0 0.269532,-0.082 0.398438,-0.23438 0.140625,-0.15234 0.210937,-0.33984 0.246094,-0.57421 h 0.316406 c -0.164063,1.27734 -0.515625,1.91015 -1.089844,1.91015 -0.1875,0 -0.386719,-0.10547 -0.539062,-0.3164 -0.164063,-0.21094 -0.328125,-0.92579 -0.433594,-2.19141 -0.960938,1.67578 -2.050781,2.50781 -3.234375,2.50781 -0.667969,0 -1.21875,-0.23437 -1.628906,-0.70312 -0.421875,-0.45703 -0.621094,-1.08985 -0.621094,-1.85157 0,-0.75 0.1875,-1.48828 0.574219,-2.1914 0.375,-0.71485 0.84375,-1.3125 1.417968,-1.79297 0.5625,-0.48047 1.207032,-0.71484 1.886719,-0.71484 0.480469,0 0.867188,0.14062 1.160156,0.44531 0.269532,0.30469 0.457032,0.78515 0.550782,1.40625 z m -1.03125,2.26171 c -0.03516,-0.375 -0.152344,-0.80859 -0.375,-1.28906 -0.199219,-0.45703 -0.527344,-0.70312 -0.9375,-0.70312 -0.609375,0 -1.21875,0.57422 -1.839844,1.74609 -0.621094,1.18359 -0.925781,2.20313 -0.925781,3.10547 0,0.48047 0.09375,0.86719 0.304687,1.14844 0.199219,0.29297 0.480469,0.43359 0.84375,0.43359 0.363281,0 0.703125,-0.1875 1.007813,-0.57422 0.304687,-0.38672 0.714843,-1.18359 1.265625,-2.40234 z m 0,0"
         style="fill:#231f20;fill-opacity:1;fill-rule:nonzero;stroke:none" />
      <path
         id="path68"
         d="m -30.448352,165.02762 h 4.03125 v 1.16015 h -4.03125 z m 8.493165,-6.42188 h 2.882812 l 6.457031,7.9336 v -6.09375 c 0,-0.65625 -0.05859,-1.06641 -0.199218,-1.23047 -0.199219,-0.21094 -0.503907,-0.31641 -0.914063,-0.31641 h -0.375 v -0.29297 h 3.679688 v 0.29297 h -0.363282 c -0.445312,0 -0.761718,0.12891 -0.960937,0.39844 -0.105469,0.17578 -0.175781,0.53906 -0.175781,1.14844 v 8.92968 h -0.269532 l -6.996093,-8.54297 v 6.52735 c 0,0.65625 0.08203,1.05469 0.210937,1.21875 0.210938,0.22265 0.515625,0.32812 0.925781,0.32812 h 0.375 v 0.29297 h -3.679687 v -0.29297 h 0.351562 c 0.457032,0 0.785157,-0.14062 0.972657,-0.41015 0.117187,-0.16407 0.164062,-0.53907 0.164062,-1.13672 v -7.35938 c -0.304687,-0.36328 -0.550781,-0.60937 -0.691406,-0.71484 -0.164063,-0.11719 -0.398438,-0.22266 -0.703125,-0.32813 -0.164063,-0.0469 -0.386719,-0.0586 -0.691406,-0.0586 z m 16.851562,6.42188 h 4.03125 v 1.16015 h -4.03125 z m 18.767578,-6.65625 0.234375,3.59765 h -0.234375 c -0.328125,-1.08984 -0.785156,-1.85156 -1.382812,-2.33203 -0.609375,-0.46875 -1.324219,-0.70312 -2.15625,-0.70312 -0.7031254,0 -1.3476566,0.17578 -1.8984379,0.52734 -0.5859375,0.36328 -1.03125,0.92578 -1.3476562,1.71094 -0.3164063,0.78515 -0.4804688,1.75781 -0.4804688,2.90625 0,0.96094 0.140625,1.79297 0.4453125,2.49609 0.328125,0.70313 0.7734375,1.23047 1.3945313,1.61719 0.6210937,0.36328 1.3242187,0.5625 2.1093751,0.5625 0.691406,0 1.300781,-0.15234 1.828125,-0.44531 0.527344,-0.29297 1.101562,-0.86719 1.722656,-1.7461 l 0.246094,0.15235 c -0.527344,0.94922 -1.160156,1.64062 -1.863281,2.07422 -0.703125,0.44531 -1.546875,0.64453 -2.5195316,0.64453 -1.7460938,0 -3.1054688,-0.64453 -4.0664063,-1.94532 -0.7148437,-0.97265 -1.0898437,-2.10937 -1.0898437,-3.42187 0,-1.05469 0.2460937,-2.03906 0.7265625,-2.91797 0.4570312,-0.87891 1.1132812,-1.55859 1.9453125,-2.0625 0.8320312,-0.48047 1.7460937,-0.71484 2.71875,-0.71484 0.7734376,0 1.5234376,0.17578 2.2734376,0.5625 0.210937,0.10547 0.363281,0.17578 0.46875,0.17578 0.140625,0 0.246094,-0.0703 0.363281,-0.16406 0.128906,-0.12891 0.222656,-0.33985 0.292969,-0.57422 z m 7.007813,6.65625 h 4.03125 v 1.16015 h -4.03125 z m 0,0"
         style="fill:#231f20;fill-opacity:1;fill-rule:nonzero;stroke:none" />
      <path
         id="path69"
         d="m 29.853406,172.62137 h -1.183593 c 0.375,-0.65625 0.703125,-1.3711 0.925781,-2.17969 l 2.34375,-7.98047 c 0.339844,-1.13672 0.644531,-1.98047 0.914062,-2.55469 0.269532,-0.5625 0.644532,-1.00781 1.101563,-1.32422 0.480469,-0.32812 1.042969,-0.48046 1.6875,-0.48046 0.65625,0 1.183594,0.17578 1.59375,0.53906 0.421875,0.36328 0.621094,0.86719 0.621094,1.48828 0,1.35937 -0.84375,2.35547 -2.507813,2.94141 1.019531,0.5039 1.558594,1.26562 1.558594,2.32031 0,0.99609 -0.375,1.91015 -1.089844,2.7539 -0.703125,0.83204 -1.617187,1.24219 -2.707031,1.24219 -0.304688,0 -0.585938,-0.0234 -0.878906,-0.10547 -0.292969,-0.082 -0.609375,-0.26953 -0.972657,-0.57422 -0.503906,1.81641 -0.960937,3.12891 -1.40625,3.91407 z m 1.628907,-4.54688 c 0.351562,0.59766 0.855468,0.90235 1.511718,0.90235 0.773438,0 1.417969,-0.48047 1.910157,-1.45313 0.492187,-0.98437 0.75,-1.82812 0.75,-2.54297 0,-0.82031 -0.257813,-1.39453 -0.785157,-1.76953 -0.316406,0.0703 -0.574218,0.10547 -0.714843,0.10547 -0.339844,0 -0.503907,-0.11719 -0.503907,-0.33984 0,-0.21094 0.152344,-0.31641 0.421875,-0.31641 0.28125,0 0.574219,0.082 0.890625,0.22266 0.480469,-0.25782 0.902344,-0.70313 1.253907,-1.34766 0.328125,-0.63281 0.515625,-1.26563 0.515625,-1.85156 0,-0.38672 -0.105469,-0.69141 -0.292969,-0.91407 -0.1875,-0.22265 -0.445313,-0.33984 -0.773438,-0.33984 -0.351562,0 -0.667968,0.15234 -0.984375,0.42188 -0.304687,0.26953 -0.5625,0.66796 -0.75,1.19531 -0.199218,0.52734 -0.515625,1.53515 -0.960937,3.01172 z m 0,0"
         style="fill:#231f20;fill-opacity:1;fill-rule:nonzero;stroke:none" />
      <path
         id="path70"
         d="m -42.612414,177.23855 2.085937,-1.03125 h 0.222657 v 7.26563 c 0,0.48047 0.01172,0.78516 0.05859,0.91406 0.03516,0.11719 0.128907,0.21094 0.246094,0.26953 0.128906,0.0586 0.386719,0.0937 0.773438,0.10547 v 0.23438 h -3.234375 v -0.23438 c 0.398437,-0.0117 0.667968,-0.0351 0.796875,-0.10547 0.117187,-0.0586 0.1875,-0.14062 0.246093,-0.24609 0.03516,-0.10547 0.05859,-0.41016 0.05859,-0.9375 v -4.64063 c 0,-0.62109 -0.02344,-1.01953 -0.05859,-1.20703 -0.02344,-0.1289 -0.08203,-0.23437 -0.164062,-0.29297 -0.07031,-0.0703 -0.175781,-0.0937 -0.28125,-0.0937 -0.152344,0 -0.375,0.0586 -0.644531,0.19922 z m 28.417969,6.09375 -0.609375,1.66407 h -5.074219 v -0.23438 c 1.488281,-1.35937 2.542969,-2.48437 3.152344,-3.33984 0.609375,-0.85547 0.925781,-1.65235 0.925781,-2.36719 0,-0.53906 -0.175781,-0.99609 -0.515625,-1.34766 -0.339844,-0.35156 -0.726563,-0.52734 -1.195313,-0.52734 -0.421875,0 -0.808593,0.11719 -1.136718,0.375 -0.339844,0.24609 -0.585938,0.60938 -0.75,1.08984 h -0.234375 c 0.105468,-0.78515 0.386718,-1.38281 0.808593,-1.80468 0.445313,-0.42188 0.996094,-0.63282 1.652344,-0.63282 0.691406,0 1.277344,0.22266 1.746094,0.67969 0.46875,0.44531 0.703125,0.97266 0.703125,1.58203 0,0.4336 -0.105469,0.87891 -0.304688,1.3125 -0.316406,0.67969 -0.832031,1.40625 -1.535156,2.16797 -1.054687,1.16016 -1.699219,1.85156 -1.957031,2.08594 h 2.226562 c 0.46875,0 0.785157,-0.0117 0.972657,-0.0586 0.1875,-0.0234 0.339843,-0.0937 0.503906,-0.19922 0.140625,-0.10547 0.269531,-0.2461 0.386719,-0.44532 z m 20.9824216,-5.29687 c 0.2460937,-0.58594 0.5507812,-1.03125 0.9140625,-1.34766 0.375,-0.3164 0.84375,-0.48047 1.40625,-0.48047 0.6914062,0 1.2187499,0.22266 1.5820309,0.67969 0.292969,0.33985 0.421875,0.69141 0.421875,1.06641 0,0.63281 -0.386718,1.27734 -1.1718747,1.94531 0.5156247,0.21094 0.9257817,0.51563 1.1953127,0.89063 0.269531,0.38671 0.398437,0.84375 0.398437,1.35937 0,0.73828 -0.234375,1.39453 -0.714843,1.93359 -0.609375,0.70313 -1.5000004,1.06641 -2.6718754,1.06641 -0.5859375,0 -0.9726563,-0.0703 -1.1835938,-0.22266 -0.2109375,-0.14062 -0.3164062,-0.29296 -0.3164062,-0.45703 0,-0.11718 0.046875,-0.22265 0.1523437,-0.32812 0.1054688,-0.0937 0.2226563,-0.12891 0.3632813,-0.12891 0.1054687,0 0.1992187,0.0117 0.3164062,0.0469 0.070312,0.0117 0.234375,0.0937 0.4804688,0.22265 0.2695312,0.14063 0.4335937,0.22266 0.5390625,0.2461 0.1523437,0.0351 0.328125,0.0703 0.4921875,0.0703 0.4335937,0 0.8085937,-0.17578 1.1367184,-0.50391 0.316407,-0.32812 0.480469,-0.73828 0.480469,-1.19531 0,-0.31641 -0.08203,-0.65625 -0.222656,-0.97266 -0.117188,-0.23437 -0.234375,-0.41015 -0.363281,-0.52734 -0.1875004,-0.17578 -0.4335942,-0.32812 -0.7617192,-0.46875 -0.3046875,-0.12891 -0.6328125,-0.21094 -0.9609375,-0.21094 H 8.1004766 v -0.17578 c 0.328125,-0.0586 0.65625,-0.17578 0.9960937,-0.36328 0.3398438,-0.19922 0.5859375,-0.44531 0.7382813,-0.71484 0.140625,-0.29297 0.2226564,-0.58594 0.2226564,-0.92578 0,-0.44532 -0.1289064,-0.79688 -0.3984377,-1.05469 -0.28125,-0.26953 -0.609375,-0.39844 -1.03125,-0.39844 -0.6445312,0 -1.1953125,0.35156 -1.640625,1.04297 z m 28.7080074,3.78516 v 0.90234 h -1.148437 v 2.27344 h -1.054688 v -2.27344 h -3.632812 v -0.80859 l 3.984375,-5.70704 h 0.703125 v 5.61329 z m -2.203125,0 v -4.26563 l -3.011718,4.26563 z m 0,0"
         style="fill:#231f20;fill-opacity:1;fill-rule:nonzero;stroke:none" />
      <path
         id="path71"
         d="m 211.31532,168.91238 v -0.29297 h 0.35156 c 0.30469,0 0.53907,-0.0469 0.70313,-0.14062 0.17578,-0.0937 0.28125,-0.22266 0.36328,-0.39844 0.0469,-0.11719 0.082,-0.43359 0.082,-0.97265 v -6.97266 c 0,-0.55078 -0.0352,-0.87891 -0.0937,-1.00781 -0.0469,-0.15235 -0.17578,-0.25782 -0.35156,-0.375 -0.16406,-0.0937 -0.39844,-0.14063 -0.70313,-0.14063 h -0.35156 v -0.29297 h 4.74609 c 1.26563,0 2.27344,0.17578 3.0586,0.51563 0.92578,0.42187 1.64062,1.05469 2.14453,1.92187 0.48047,0.84375 0.71484,1.80469 0.71484,2.89453 0,0.73829 -0.10547,1.41797 -0.35156,2.05079 -0.23437,0.63281 -0.5625,1.14843 -0.92578,1.55859 -0.38672,0.41016 -0.82031,0.73828 -1.32422,0.98437 -0.50391,0.25782 -1.10156,0.44532 -1.82812,0.57422 -0.30469,0.0586 -0.82032,0.0937 -1.48829,0.0937 z m 4.04297,-9.99609 v 8.27344 c 0,0.42187 0.0117,0.70312 0.0703,0.79687 0.0234,0.0937 0.10547,0.17578 0.19922,0.22266 0.15234,0.082 0.33984,0.1289 0.60938,0.1289 0.86718,0 1.53515,-0.30468 1.98046,-0.90234 0.63282,-0.79687 0.94922,-2.03906 0.94922,-3.72656 0,-1.35938 -0.21093,-2.4375 -0.64453,-3.25781 -0.32812,-0.64454 -0.76172,-1.07813 -1.3125,-1.30079 -0.36328,-0.15234 -0.98437,-0.23437 -1.85156,-0.23437 z m 0,0"
         style="fill:#231f20;fill-opacity:1;fill-rule:nonzero;stroke:none" />
      <path
         id="path72"
         d="m 227.30848,162.02176 h 8.42579 v 0.63281 h -8.42579 z m 0,2.54297 h 8.42579 v 0.63281 h -8.42579 z m 0,0"
         style="fill:#231f20;fill-opacity:1;fill-rule:nonzero;stroke:none" />
      <path
         id="path73"
         d="m 247.6493,162.03348 h 1.17188 l -1.67578,3.82031 c 0.082,1.42969 0.3164,2.14453 0.75,2.14453 0.14062,0 0.26953,-0.082 0.39844,-0.23437 0.14062,-0.15235 0.21093,-0.33985 0.24609,-0.57422 h 0.31641 c -0.16407,1.27734 -0.51563,1.91015 -1.08985,1.91015 -0.1875,0 -0.38672,-0.10547 -0.53906,-0.3164 -0.16406,-0.21094 -0.32813,-0.92578 -0.43359,-2.19141 -0.96094,1.67578 -2.05079,2.50781 -3.23438,2.50781 -0.66797,0 -1.21875,-0.23437 -1.62891,-0.70312 -0.42187,-0.45703 -0.62109,-1.08985 -0.62109,-1.85156 0,-0.75 0.1875,-1.48829 0.57422,-2.19141 0.375,-0.71484 0.84375,-1.3125 1.41797,-1.79297 0.5625,-0.48047 1.20703,-0.71484 1.88672,-0.71484 0.48047,0 0.86718,0.14062 1.16015,0.44531 0.26953,0.30469 0.45703,0.78516 0.55078,1.40625 z m -1.03125,2.26172 c -0.0352,-0.375 -0.15234,-0.8086 -0.375,-1.28907 -0.19921,-0.45703 -0.52734,-0.70312 -0.9375,-0.70312 -0.60937,0 -1.21875,0.57422 -1.83984,1.74609 -0.62109,1.1836 -0.92578,2.20313 -0.92578,3.10547 0,0.48047 0.0937,0.86719 0.30469,1.14844 0.19922,0.29297 0.48047,0.43359 0.84375,0.43359 0.36328,0 0.70312,-0.1875 1.00781,-0.57422 0.30469,-0.38672 0.71484,-1.18359 1.26562,-2.40234 z m 0,0"
         style="fill:#231f20;fill-opacity:1;fill-rule:nonzero;stroke:none" />
      <path
         id="path74"
         d="m 255.60927,164.74051 h 4.03125 v 1.16015 h -4.03125 z m 18.26367,-6.65625 0.23437,3.59765 h -0.23437 c -0.32813,-1.08984 -0.78516,-1.85156 -1.38281,-2.33203 -0.60938,-0.46875 -1.32422,-0.70312 -2.15625,-0.70312 -0.70313,0 -1.34766,0.17578 -1.89844,0.52734 -0.58594,0.36328 -1.03125,0.92578 -1.34766,1.71094 -0.3164,0.78516 -0.48047,1.75781 -0.48047,2.90625 0,0.96094 0.14063,1.79297 0.44532,2.49609 0.32812,0.70313 0.77343,1.23047 1.39453,1.61719 0.62109,0.36328 1.32422,0.5625 2.10937,0.5625 0.69141,0 1.30078,-0.15234 1.82813,-0.44531 0.52734,-0.29297 1.10156,-0.86719 1.72265,-1.7461 l 0.2461,0.15235 c -0.52735,0.94922 -1.16016,1.64062 -1.86328,2.07422 -0.70313,0.44531 -1.54688,0.64453 -2.51954,0.64453 -1.74609,0 -3.10546,-0.64453 -4.0664,-1.94531 -0.71485,-0.97266 -1.08985,-2.10938 -1.08985,-3.42188 0,-1.05469 0.2461,-2.03906 0.72657,-2.91797 0.45703,-0.8789 1.11328,-1.55859 1.94531,-2.0625 0.83203,-0.48047 1.74609,-0.71484 2.71875,-0.71484 0.77344,0 1.52344,0.17578 2.27344,0.5625 0.21093,0.10547 0.36328,0.17578 0.46875,0.17578 0.14062,0 0.24609,-0.0703 0.36328,-0.16406 0.1289,-0.12891 0.22265,-0.33985 0.29297,-0.57422 z m 7.00781,6.65625 h 4.03125 v 1.16015 h -4.03125 z m 8.92383,-6.42188 h 2.88281 l 6.45703,7.9336 v -6.09375 c 0,-0.65625 -0.0586,-1.06641 -0.19922,-1.23047 -0.19922,-0.21094 -0.5039,-0.31641 -0.91406,-0.31641 h -0.375 v -0.29297 h 3.67969 v 0.29297 h -0.36328 c -0.44532,0 -0.76172,0.12891 -0.96094,0.39844 -0.10547,0.17578 -0.17578,0.53906 -0.17578,1.14844 v 8.92968 h -0.26953 l -6.9961,-8.54296 v 6.52734 c 0,0.65625 0.082,1.05469 0.21094,1.21875 0.21094,0.22266 0.51563,0.32812 0.92578,0.32812 h 0.375 v 0.29297 h -3.67969 v -0.29297 h 0.35157 c 0.45703,0 0.78515,-0.14062 0.97265,-0.41015 0.11719,-0.16406 0.16407,-0.53906 0.16407,-1.13672 v -7.35938 c -0.30469,-0.36328 -0.55079,-0.60937 -0.69141,-0.71484 -0.16406,-0.11719 -0.39844,-0.22266 -0.70313,-0.32812 -0.16406,-0.0469 -0.38671,-0.0586 -0.6914,-0.0586 z m 16.85156,6.42188 h 4.03125 v 1.16015 h -4.03125 z m 0,0"
         style="fill:#231f20;fill-opacity:1;fill-rule:nonzero;stroke:none" />
      <path
         id="path75"
         d="m 315.90809,172.33426 h -1.18359 c 0.375,-0.65625 0.70313,-1.3711 0.92578,-2.17969 l 2.34375,-7.98047 c 0.33985,-1.13672 0.64453,-1.98047 0.91406,-2.55469 0.26954,-0.5625 0.64454,-1.00781 1.10157,-1.32421 0.48047,-0.32813 1.04297,-0.48047 1.6875,-0.48047 0.65625,0 1.18359,0.17578 1.59375,0.53906 0.42187,0.36328 0.62109,0.86719 0.62109,1.48828 0,1.35938 -0.84375,2.35547 -2.50781,2.94141 1.01953,0.5039 1.55859,1.26562 1.55859,2.32031 0,0.99609 -0.375,1.91016 -1.08984,2.75391 -0.70313,0.83203 -1.61719,1.24218 -2.70703,1.24218 -0.30469,0 -0.58594,-0.0234 -0.87891,-0.10547 -0.29297,-0.082 -0.60937,-0.26953 -0.97266,-0.57421 -0.5039,1.8164 -0.96093,3.1289 -1.40625,3.91406 z m 1.62891,-4.54688 c 0.35156,0.59766 0.85547,0.90235 1.51172,0.90235 0.77344,0 1.41797,-0.48047 1.91016,-1.45313 0.49218,-0.98437 0.75,-1.82812 0.75,-2.54297 0,-0.82031 -0.25782,-1.39453 -0.78516,-1.76953 -0.31641,0.0703 -0.57422,0.10547 -0.71484,0.10547 -0.33985,0 -0.50391,-0.11719 -0.50391,-0.33984 0,-0.21094 0.15234,-0.31641 0.42187,-0.31641 0.28125,0 0.57422,0.082 0.89063,0.22266 0.48047,-0.25782 0.90234,-0.70313 1.25391,-1.34766 0.32812,-0.63281 0.51562,-1.26562 0.51562,-1.85156 0,-0.38672 -0.10547,-0.69141 -0.29297,-0.91406 -0.1875,-0.22266 -0.44531,-0.33985 -0.77344,-0.33985 -0.35156,0 -0.66796,0.15235 -0.98437,0.42188 -0.30469,0.26953 -0.5625,0.66797 -0.75,1.19531 -0.19922,0.52734 -0.51563,1.53516 -0.96094,3.01172 z m 0,0"
         style="fill:#231f20;fill-opacity:1;fill-rule:nonzero;stroke:none" />
      <path
         id="path76"
         d="m 243.08192,176.23074 2.08594,-1.03125 h 0.22266 v 7.26563 c 0,0.48047 0.0117,0.78515 0.0586,0.91406 0.0352,0.11719 0.12891,0.21094 0.24609,0.26953 0.12891,0.0586 0.38672,0.0937 0.77344,0.10547 v 0.23437 h -3.23437 v -0.23437 c 0.39843,-0.0117 0.66796,-0.0352 0.79687,-0.10547 0.11719,-0.0586 0.1875,-0.14062 0.24609,-0.24609 0.0352,-0.10547 0.0586,-0.41016 0.0586,-0.9375 v -4.64063 c 0,-0.62109 -0.0234,-1.01953 -0.0586,-1.20703 -0.0234,-0.12891 -0.082,-0.23437 -0.16406,-0.29297 -0.0703,-0.0703 -0.17578,-0.0937 -0.28125,-0.0937 -0.15234,0 -0.375,0.0586 -0.64453,0.19922 z m 28.99512,6.09375 -0.60938,1.66406 h -5.07421 v -0.23437 c 1.48828,-1.35938 2.54296,-2.48438 3.15234,-3.33984 0.60937,-0.85547 0.92578,-1.65235 0.92578,-2.36719 0,-0.53906 -0.17578,-0.9961 -0.51562,-1.34766 -0.33985,-0.35156 -0.72657,-0.52734 -1.19532,-0.52734 -0.42187,0 -0.80859,0.11719 -1.13672,0.375 -0.33984,0.24609 -0.58593,0.60937 -0.75,1.08984 h -0.23437 c 0.10547,-0.78515 0.38672,-1.38281 0.80859,-1.80469 0.44532,-0.42187 0.9961,-0.63281 1.65235,-0.63281 0.6914,0 1.27734,0.22266 1.74609,0.67969 0.46875,0.44531 0.70313,0.97266 0.70313,1.58203 0,0.43359 -0.10547,0.87891 -0.30469,1.3125 -0.31641,0.67969 -0.83203,1.40625 -1.53516,2.16797 -1.05469,1.16016 -1.69922,1.85156 -1.95703,2.08594 h 2.22656 c 0.46875,0 0.78516,-0.0117 0.97266,-0.0586 0.1875,-0.0234 0.33984,-0.0937 0.50391,-0.19922 0.14062,-0.10546 0.26953,-0.24609 0.38671,-0.44531 z m 20.98242,-5.29687 c 0.24609,-0.58594 0.55078,-1.03125 0.91406,-1.34766 0.375,-0.31641 0.84375,-0.48047 1.40625,-0.48047 0.69141,0 1.21875,0.22266 1.58203,0.67969 0.29297,0.33984 0.42188,0.69141 0.42188,1.06641 0,0.63281 -0.38672,1.27734 -1.17188,1.94531 0.51563,0.21094 0.92579,0.51562 1.19532,0.89062 0.26953,0.38672 0.39843,0.84375 0.39843,1.35938 0,0.73828 -0.23437,1.39453 -0.71484,1.93359 -0.60937,0.70313 -1.5,1.06641 -2.67187,1.06641 -0.58594,0 -0.97266,-0.0703 -1.1836,-0.22266 -0.21094,-0.14062 -0.3164,-0.29297 -0.3164,-0.45703 0,-0.11719 0.0469,-0.22266 0.15234,-0.32812 0.10547,-0.0937 0.22266,-0.12891 0.36328,-0.12891 0.10547,0 0.19922,0.0117 0.31641,0.0469 0.0703,0.0117 0.23437,0.0937 0.48047,0.22266 0.26953,0.14063 0.43359,0.22266 0.53906,0.24609 0.15234,0.0352 0.32812,0.0703 0.49219,0.0703 0.43359,0 0.80859,-0.17578 1.13671,-0.50391 0.31641,-0.32812 0.48047,-0.73828 0.48047,-1.19531 0,-0.31641 -0.082,-0.65625 -0.22265,-0.97266 -0.11719,-0.23437 -0.23438,-0.41015 -0.36328,-0.52734 -0.1875,-0.17578 -0.4336,-0.32813 -0.76172,-0.46875 -0.30469,-0.12891 -0.63282,-0.21094 -0.96094,-0.21094 h -0.19922 v -0.17578 c 0.32813,-0.0586 0.65625,-0.17578 0.99609,-0.36328 0.33985,-0.19922 0.58594,-0.44531 0.73829,-0.71485 0.14062,-0.29296 0.22265,-0.58593 0.22265,-0.92578 0,-0.44531 -0.1289,-0.79687 -0.39844,-1.05468 -0.28125,-0.26954 -0.60937,-0.39844 -1.03125,-0.39844 -0.64453,0 -1.19531,0.35156 -1.64062,1.04297 z m 28.77832,3.78515 v 0.90235 h -1.14844 v 2.27343 h -1.05468 v -2.27343 h -3.63282 v -0.8086 l 3.98438,-5.70703 h 0.70312 v 5.61328 z m -2.20312,0 v -4.26562 l -3.01172,4.26562 z m 0,0"
         style="fill:#231f20;fill-opacity:1;fill-rule:nonzero;stroke:none" />
    </g>
    <path
       id="path77"
       d="m 1922.62,2458.25 c 0,-43.92 -35.28,-79.92 -79.92,-79.92 -43.92,0 -79.92,36 -79.92,79.92 0,44.64 36,79.92 79.92,79.92 44.64,0 79.92,-35.28 79.92,-79.92 z"
       style="fill:none;stroke:#231f20;stroke-width:13.3257;stroke-linecap:square;stroke-linejoin:miter;stroke-miterlimit:2.6131;stroke-dasharray:none;stroke-opacity:1"
       transform="matrix(0.13333333,0,0,-0.13333333,0,436)" />
    <path
       id="path78"
       d="m 1223.5,1896.65 c 0,-43.92 -36,-79.92 -80.64,-79.92 -43.92,0 -79.2,36 -79.2,79.92 0,44.64 35.28,80.64 79.2,80.64 44.64,0 80.64,-36 80.64,-80.64 z"
       style="fill:none;stroke:#231f20;stroke-width:13.3257;stroke-linecap:square;stroke-linejoin:miter;stroke-miterlimit:2.6131;stroke-dasharray:none;stroke-opacity:1"
       transform="matrix(0.13333333,0,0,-0.13333333,0,436)" />
    <path
       id="path79"
       d="m 174.457,1214.81 c 0,-43.92 -35.277,-79.92 -79.1992,-79.92 -44.6406,0 -80.6406,36 -80.6406,79.92 0,44.64 36,79.92 80.6406,79.92 43.9222,0 79.1992,-35.28 79.1992,-79.92 z"
       style="fill:none;stroke:#231f20;stroke-width:13.3257;stroke-linecap:square;stroke-linejoin:miter;stroke-miterlimit:2.6131;stroke-dasharray:none;stroke-opacity:1"
       transform="matrix(0.13333333,0,0,-0.13333333,0,436)" />
    <path
       id="path80"
       d="m 470.379,3056.57 c 0,-43.92 -36,-79.92 -79.922,-79.92 -44.641,0 -80.641,36 -80.641,79.92 0,43.92 36,79.92 80.641,79.92 43.922,0 79.922,-36 79.922,-79.92 z"
       style="fill:none;stroke:#231f20;stroke-width:13.3257;stroke-linecap:square;stroke-linejoin:miter;stroke-miterlimit:2.6131;stroke-dasharray:none;stroke-opacity:1"
       transform="matrix(0.13333333,0,0,-0.13333333,0,436)" />
    <path
       id="path81"
       d="m 3262.54,3063.05 c 0,-43.92 -36,-79.92 -80.64,-79.92 -43.92,0 -79.2,36 -79.2,79.92 0,44.64 35.28,79.92 79.2,79.92 44.64,0 80.64,-35.28 80.64,-79.92 z"
       style="fill:none;stroke:#231f20;stroke-width:13.3257;stroke-linecap:square;stroke-linejoin:miter;stroke-miterlimit:2.6131;stroke-dasharray:none;stroke-opacity:1"
       transform="matrix(0.13333333,0,0,-0.13333333,0,436)" />
    <path
       id="path82"
       d="m 2963.74,1211.93 c 0,-44.64 -36,-80.64 -80.64,-80.64 -43.92,0 -79.2,36 -79.2,80.64 0,43.92 35.28,79.2 79.2,79.2 44.64,0 80.64,-35.28 80.64,-79.2 z"
       style="fill:none;stroke:#231f20;stroke-width:13.3257;stroke-linecap:square;stroke-linejoin:miter;stroke-miterlimit:2.6131;stroke-dasharray:none;stroke-opacity:1"
       transform="matrix(0.13333333,0,0,-0.13333333,0,436)" />
    <path
       id="path83"
       d="m 4014.94,1890.17 c 0,-43.92 -35.28,-79.92 -79.92,-79.92 -43.92,0 -79.92,36 -79.92,79.92 0,43.92 36,79.92 79.92,79.92 44.64,0 79.92,-36 79.92,-79.92 z"
       style="fill:none;stroke:#231f20;stroke-width:13.3257;stroke-linecap:square;stroke-linejoin:miter;stroke-miterlimit:2.6131;stroke-dasharray:none;stroke-opacity:1"
       transform="matrix(0.13333333,0,0,-0.13333333,0,436)" />
    <path
       id="path84"
       d="m 4720.54,2479.85 c 0,-43.92 -36,-79.92 -79.92,-79.92 -43.92,0 -79.92,36 -79.92,79.92 0,44.64 36,79.92 79.92,79.92 43.92,0 79.92,-35.28 79.92,-79.92 z"
       style="fill:none;stroke:#231f20;stroke-width:13.3257;stroke-linecap:square;stroke-linejoin:miter;stroke-miterlimit:2.6131;stroke-dasharray:none;stroke-opacity:1"
       transform="matrix(0.13333333,0,0,-0.13333333,0,436)" />
    <path
       id="path85"
       d="m 2016.94,1602.89 -327.6,-475.92 4.32,5.76 16.56,-11.52 -7.2,-10.08 -13.68,0.72 v 11.52 l 15.12,-10.08 327.6,475.92 h -0.72 l -3.6,-5.76 -16.56,11.52 7.2,9.36 13.68,-0.72 v -10.8 l -15.12,10.08"
       style="fill:#231f20;fill-opacity:1;fill-rule:evenodd;stroke:none"
       transform="matrix(0.13333333,0,0,-0.13333333,0,436)" />
    <path
       id="path86"
       d="m 3348.22,3045.05 v -480.24 h 20.16 v 480.24 z m 0,-470.16 v -20.16 h 20.16 v 20.16 z m 20.16,460.08 v 20.16 h -20.16 v -20.16 h 20.16"
       style="fill:#231f20;fill-opacity:1;fill-rule:evenodd;stroke:none"
       transform="matrix(0.13333333,0,0,-0.13333333,0,436)" />
    <path
       id="path87"
       d="m 4480.78,1605.77 h 316.08 v 20.16 h -316.08 z m 306,0 h 20.88 v 20.16 h -20.88 z m -295.2,20.16 h -20.88 v -20.16 h 20.88 v 20.16"
       style="fill:#231f20;fill-opacity:1;fill-rule:evenodd;stroke:none"
       transform="matrix(0.13333333,0,0,-0.13333333,0,436)" />
    <path
       id="path88"
       d="m 3348.22,2564.81 v -63.36 h 20.16 v 63.36 z m 0,-127.44 v -63.36 h 20.16 v 63.36 z m 0,-127.44 v -63.36 h 20.16 v 63.36 z m 0,-127.44 v -63.36 h 20.16 v 63.36 z m 0,-127.44 v -63.36 h 20.16 v 63.36 z m 0,-127.44 v -63.36 h 20.16 v 63.36 z m 0,-127.44 v -63.36 h 20.16 v 63.36 z m 0,-127.44 v -64.08 h 20.16 v 64.08 h -20.16"
       style="fill:#231f20;fill-opacity:1;fill-rule:evenodd;stroke:none"
       transform="matrix(0.13333333,0,0,-0.13333333,0,436)" />
    <path
       id="path89"
       d="m 3358.3,1605.77 h 59.76 v 20.16 h -59.76 z m 119.52,0 h 59.76 v 20.16 h -59.76 z m 120.24,0 h 59.76 v 20.16 h -59.76 z m 119.52,0 h 60.48 v 20.16 h -60.48 z m 120.24,0 h 59.76 v 20.16 h -59.76 z m 119.52,0 h 60.48 v 20.16 h -60.48 z m 120.24,0 h 59.76 v 20.16 h -59.76 z m 120.24,0 h 59.76 v 20.16 h -59.76 z m 119.52,0 h 60.48 v 20.16 h -60.48 z m 120.24,0 h 33.12 v 20.16 h -33.12 v -20.16"
       style="fill:#231f20;fill-opacity:1;fill-rule:evenodd;stroke:none"
       transform="matrix(0.13333333,0,0,-0.13333333,0,436)" />
    <path
       id="path90"
       d="M 573.34,1609.37 265.18,1129.85"
       style="fill:none;stroke:#231f20;stroke-width:21.2542;stroke-linecap:butt;stroke-linejoin:miter;stroke-miterlimit:2.6131;stroke-dasharray:42.5084, 63.7626;stroke-dashoffset:0;stroke-opacity:1"
       transform="matrix(0.13333333,0,0,-0.13333333,0,436)" />
    <path
       id="path91"
       d="M 3360.46,1610.09 3053.02,1130.57"
       style="fill:none;stroke:#231f20;stroke-width:21.2542;stroke-linecap:butt;stroke-linejoin:miter;stroke-miterlimit:2.6131;stroke-dasharray:42.5084, 63.7626;stroke-dashoffset:0;stroke-opacity:1"
       transform="matrix(0.13333333,0,0,-0.13333333,0,436)" />
  </g>
</svg>
