<?xml version="1.0" encoding="UTF-8" standalone="no"?>
<!-- Created with Inkscape (http://www.inkscape.org/) -->

<svg
   version="1.1"
   id="svg1"
   width="709.33331"
   height="233.33333"
   viewBox="0 0 709.33331 233.33333"
   sodipodi:docname="ortho.svg"
   inkscape:version="1.3 (0e150ed6c4, 2023-07-21)"
   xmlns:inkscape="http://www.inkscape.org/namespaces/inkscape"
   xmlns:sodipodi="http://sodipodi.sourceforge.net/DTD/sodipodi-0.dtd"
   xmlns="http://www.w3.org/2000/svg"
   xmlns:svg="http://www.w3.org/2000/svg">
  <defs
     id="defs1" />
  <sodipodi:namedview
     id="namedview1"
     pagecolor="#ffffff"
     bordercolor="#000000"
     borderopacity="0.25"
     inkscape:showpageshadow="2"
     inkscape:pageopacity="0.0"
     inkscape:pagecheckerboard="0"
     inkscape:deskcolor="#d1d1d1"
     inkscape:zoom="0.86560152"
     inkscape:cx="354.66666"
     inkscape:cy="116.10423"
     inkscape:window-width="2560"
     inkscape:window-height="1369"
     inkscape:window-x="-8"
     inkscape:window-y="-7"
     inkscape:window-maximized="1"
     inkscape:current-layer="g1">
    <inkscape:page
       x="0"
       y="0"
       inkscape:label="1"
       id="page1"
       width="709.33331"
       height="233.33333"
       margin="0"
       bleed="0" />
  </sodipodi:namedview>
  <g
     id="g1"
     inkscape:groupmode="layer"
     inkscape:label="1">
    <path
       id="path1"
       d="M 1272.14,1722.81 H 4245.02 V 483.688 H 1272.14 Z"
       style="fill:none;stroke:#231f20;stroke-width:34.9994;stroke-linecap:butt;stroke-linejoin:miter;stroke-miterlimit:2.6131;stroke-dasharray:none;stroke-opacity:1"
       transform="matrix(0.13333333,0,0,-0.13333333,0,233.33333)" />
    <path
       id="path2"
       d="M 1272.14,1722.81 2329.1,1313.85"
       style="fill:none;stroke:#231f20;stroke-width:34.9994;stroke-linecap:butt;stroke-linejoin:miter;stroke-miterlimit:2.6131;stroke-dasharray:none;stroke-opacity:1"
       transform="matrix(0.13333333,0,0,-0.13333333,0,233.33333)" />
    <path
       id="path3"
       d="M 4245.02,1722.81 5301.98,1313.85"
       style="fill:none;stroke:#231f20;stroke-width:34.9994;stroke-linecap:butt;stroke-linejoin:miter;stroke-miterlimit:2.6131;stroke-dasharray:none;stroke-opacity:1"
       transform="matrix(0.13333333,0,0,-0.13333333,0,233.33333)" />
    <path
       id="path4"
       d="M 1272.14,483.688 2329.1,74.7305"
       style="fill:none;stroke:#231f20;stroke-width:34.9994;stroke-linecap:butt;stroke-linejoin:miter;stroke-miterlimit:2.6131;stroke-dasharray:none;stroke-opacity:1"
       transform="matrix(0.13333333,0,0,-0.13333333,0,233.33333)" />
    <path
       id="path5"
       d="M 5301.98,74.7305 4245.02,483.688"
       style="fill:none;stroke:#231f20;stroke-width:34.9994;stroke-linecap:butt;stroke-linejoin:miter;stroke-miterlimit:2.6131;stroke-dasharray:none;stroke-opacity:1"
       transform="matrix(0.13333333,0,0,-0.13333333,0,233.33333)" />
    <path
       id="path6"
       d="M 2329.1,1313.85 H 5301.98 V 74.7305 H 2329.1 V 1313.85"
       style="display:none;fill:#ffffff;fill-opacity:1;fill-rule:evenodd;stroke:none;opacity:0"
       transform="matrix(0.13333333,0,0,-0.13333333,0,233.33333)" />
    <path
       id="path7"
       d="M 2329.1,1313.85 H 5301.98 V 74.7305 H 2329.1 Z"
       style="fill:none;stroke:#231f20;stroke-width:34.9994;stroke-linecap:butt;stroke-linejoin:miter;stroke-miterlimit:2.6131;stroke-dasharray:none;stroke-opacity:1"
       transform="matrix(0.13333333,0,0,-0.13333333,0,233.33333)" />
    <path
       id="path8"
       d="M 4245.02,1313.85 V 483.688 H 2329.1"
       style="display:none;fill:none;stroke:#aeacac;stroke-width:34.9994;stroke-linecap:butt;stroke-linejoin:miter;stroke-miterlimit:2.6131;stroke-dasharray:none;stroke-opacity:1;opacity:0"
       transform="matrix(0.13333333,0,0,-0.13333333,0,233.33333)" />
    <path
       id="path9"
       d="M 5301.98,74.7305 4245.02,483.688"
       style="display:none;fill:none;stroke:#aeacac;stroke-width:34.9994;stroke-linecap:butt;stroke-linejoin:miter;stroke-miterlimit:2.6131;stroke-dasharray:none;stroke-opacity:1;opacity:0"
       transform="matrix(0.13333333,0,0,-0.13333333,0,233.33333)" />
    <path
       id="path10"
       d="M 2329.1,1313.85 H 5301.98 V 74.7305 H 2329.1 Z"
       style="fill:none;stroke:#231f20;stroke-width:34.9994;stroke-linecap:butt;stroke-linejoin:miter;stroke-miterlimit:2.6131;stroke-dasharray:none;stroke-opacity:1"
       transform="matrix(0.13333333,0,0,-0.13333333,0,233.33333)" />
    <path
       id="path11"
       d="M 218.059,467.129 V 1168.41"
       style="fill:none;stroke:#231f20;stroke-width:21.2542;stroke-linecap:butt;stroke-linejoin:miter;stroke-miterlimit:2.6131;stroke-dasharray:none;stroke-opacity:1"
       transform="matrix(0.13333333,0,0,-0.13333333,0,233.33333)" />
    <path
       id="path12"
       d="m 218.059,1291.53 -64.801,-130.32 h 130.32 z"
       style="fill:#231f20;fill-opacity:1;fill-rule:evenodd;stroke:none"
       transform="matrix(0.13333333,0,0,-0.13333333,0,233.33333)" />
    <path
       id="path13"
       d="M 221.656,467.129 H 938.777"
       style="fill:none;stroke:#231f20;stroke-width:21.2542;stroke-linecap:butt;stroke-linejoin:miter;stroke-miterlimit:2.6131;stroke-dasharray:none;stroke-opacity:1"
       transform="matrix(0.13333333,0,0,-0.13333333,0,233.33333)" />
    <path
       id="path14"
       d="M 1061.9,467.129 932.297,531.93 V 401.609 Z"
       style="fill:#231f20;fill-opacity:1;fill-rule:evenodd;stroke:none"
       transform="matrix(0.13333333,0,0,-0.13333333,0,233.33333)" />
    <path
       id="path15"
       d="M 221.656,467.129 752.297,260.488"
       style="fill:none;stroke:#231f20;stroke-width:21.2542;stroke-linecap:butt;stroke-linejoin:miter;stroke-miterlimit:2.6131;stroke-dasharray:none;stroke-opacity:1"
       transform="matrix(0.13333333,0,0,-0.13333333,0,233.33333)" />
    <path
       id="path16"
       d="M 866.777,216.57 769.578,323.848 722.777,202.891 Z"
       style="fill:#231f20;fill-opacity:1;fill-rule:evenodd;stroke:none"
       transform="matrix(0.13333333,0,0,-0.13333333,0,233.33333)" />
    <path
       id="path17"
       d="M 13.806055,-15.890406 3.3646487,-0.96071875 h 6.5273437 c 0.9843746,0 1.7460936,-0.21093745 2.2968746,-0.64453125 0.527344,-0.4570312 1.007813,-1.3476562 1.417969,-2.671875 l 0.386719,0.082031 -0.75,4.19531245 H 0.31777369 V -0.433375 L 10.513086,-14.952906 H 5.4271487 c -0.84375,0 -1.4648438,0.09375 -1.8515625,0.292969 -0.3867188,0.164062 -0.6679688,0.457031 -0.8671875,0.785156 -0.1875,0.363281 -0.375,1.007812 -0.5507813,1.945312 H 1.7240237 l 0.3398437,-3.960937 z m 63.240234,118.822266 3.398438,5.09766 c 0.960937,1.40625 1.664062,2.29687 2.121094,2.66015 0.457031,0.38672 1.03125,0.57422 1.746093,0.6211 v 0.43359 h -6.84375 v -0.43359 c 0.457032,0 0.796875,-0.0469 1.007813,-0.14063 0.175781,-0.0703 0.316406,-0.16406 0.410156,-0.31641 0.128906,-0.14062 0.175781,-0.30468 0.175781,-0.45703 0,-0.16406 -0.04687,-0.35156 -0.128906,-0.52734 -0.04687,-0.14063 -0.257812,-0.48047 -0.621094,-1.03125 l -2.707031,-4.07813 -3.316406,4.27735 c -0.363281,0.44531 -0.574219,0.73828 -0.644531,0.8789 -0.07031,0.17579 -0.09375,0.31641 -0.09375,0.48047 0,0.26953 0.09375,0.45703 0.304687,0.63282 0.222656,0.16406 0.621094,0.25781 1.207031,0.28125 v 0.43359 h -5.648437 v -0.43359 c 0.410156,-0.0469 0.75,-0.11719 1.03125,-0.23438 0.503906,-0.22266 0.960937,-0.48047 1.394531,-0.84375 0.433594,-0.33984 0.9375,-0.86719 1.488281,-1.58203 l 3.773438,-4.73438 -3.152344,-4.582027 c -0.832031,-1.21875 -1.558594,-2.039062 -2.15625,-2.425781 -0.597656,-0.398438 -1.265625,-0.597656 -2.039062,-0.621094 v -0.433594 h 7.347656 v 0.433594 c -0.632813,0.02344 -1.054688,0.117188 -1.300781,0.316406 -0.210938,0.164063 -0.339844,0.351563 -0.339844,0.574219 0,0.304688 0.199219,0.714844 0.5625,1.265625 l 2.4375,3.656252 2.835937,-3.574221 c 0.316407,-0.410156 0.527344,-0.703125 0.597657,-0.867187 0.07031,-0.175781 0.09375,-0.316406 0.09375,-0.480469 0,-0.164062 -0.04687,-0.316406 -0.140625,-0.433594 -0.09375,-0.164062 -0.257813,-0.292968 -0.433594,-0.339843 -0.1875,-0.07031 -0.550781,-0.117188 -1.101563,-0.117188 v -0.433594 h 5.613282 v 0.433594 c -0.433594,0.02344 -0.785157,0.09375 -1.078125,0.222656 -0.433594,0.164063 -0.808594,0.398438 -1.148438,0.714844 -0.363281,0.316406 -0.867187,0.867188 -1.488281,1.675781 z m 22.31543,-62.950196 h 5.542971 v 0.433594 h -0.31641 c -0.21094,0 -0.5039,0.09375 -0.8789,0.269531 -0.38672,0.1875 -0.75,0.421875 -1.08985,0.761719 -0.30469,0.339844 -0.6914,0.890625 -1.17187,1.652344 l -3.843754,6.035156 v 3.972656 c 0,0.984375 0.128907,1.59375 0.339844,1.828125 0.292969,0.339844 0.773438,0.503906 1.417969,0.503906 h 0.503906 v 0.433594 h -6.75 v -0.433594 h 0.5625 c 0.667969,0 1.148438,-0.210937 1.429688,-0.621093 0.175781,-0.246094 0.269531,-0.820313 0.269531,-1.710938 V 49.344945 L 91.00625,42.700414 c -0.503906,-0.773437 -0.867187,-1.277344 -1.054687,-1.464844 -0.164063,-0.199218 -0.550782,-0.433593 -1.125,-0.703125 -0.175782,-0.09375 -0.386719,-0.117187 -0.703125,-0.117187 v -0.433594 h 6.820312 v 0.433594 h -0.363281 c -0.351563,0 -0.691406,0.07031 -1.007813,0.269531 -0.304687,0.164063 -0.480468,0.421875 -0.480468,0.761719 0,0.292969 0.246093,0.796875 0.726562,1.511719 l 3.304688,5.132812 3.128902,-4.886719 c 0.48047,-0.75 0.71485,-1.300781 0.71485,-1.664062 0,-0.210938 -0.0703,-0.398438 -0.1875,-0.574219 -0.0937,-0.164062 -0.26953,-0.304687 -0.48047,-0.410156 -0.22266,-0.09375 -0.527345,-0.140625 -0.937501,-0.140625 z m 0,0"
       style="fill:#231f20;fill-opacity:1;fill-rule:nonzero;stroke:none"
       aria-label="Z&#10;X&#10;Y"
       transform="matrix(1.3333333,0,0,1.3333333,1.330208,84.265333)" />
  </g>
</svg>
