<?xml version="1.0" encoding="UTF-8" standalone="no"?>
<!-- Created with Inkscape (http://www.inkscape.org/) -->

<svg
   version="1.1"
   id="svg1"
   width="548"
   height="448"
   viewBox="0 0 548 448"
   sodipodi:docname="shake.svg"
   inkscape:version="1.3 (0e150ed6c4, 2023-07-21)"
   xmlns:inkscape="http://www.inkscape.org/namespaces/inkscape"
   xmlns:sodipodi="http://sodipodi.sourceforge.net/DTD/sodipodi-0.dtd"
   xmlns="http://www.w3.org/2000/svg"
   xmlns:svg="http://www.w3.org/2000/svg">
  <defs
     id="defs1" />
  <sodipodi:namedview
     id="namedview1"
     pagecolor="#ffffff"
     bordercolor="#000000"
     borderopacity="0.25"
     inkscape:showpageshadow="2"
     inkscape:pageopacity="0.0"
     inkscape:pagecheckerboard="0"
     inkscape:deskcolor="#d1d1d1"
     inkscape:zoom="1.120438"
     inkscape:cx="274.8925"
     inkscape:cy="224.46579"
     inkscape:window-width="2560"
     inkscape:window-height="1369"
     inkscape:window-x="-8"
     inkscape:window-y="-7"
     inkscape:window-maximized="1"
     inkscape:current-layer="g1">
    <inkscape:page
       x="0"
       y="0"
       inkscape:label="1"
       id="page1"
       width="548"
       height="448"
       margin="0"
       bleed="0" />
  </sodipodi:namedview>
  <g
     id="g1"
     inkscape:groupmode="layer"
     inkscape:label="1">
    <path
       id="path1"
       d="m 5.3775516,-15.270734 c 0.3046875,0 0.5976562,0.128906 0.8085937,0.339843 0.2460938,0.246094 0.3632813,0.503907 0.3632813,0.84375 0,0.304688 -0.1171875,0.597657 -0.3632813,0.808594 -0.2109375,0.246094 -0.5039062,0.363281 -0.8085937,0.363281 -0.3398438,0 -0.5976563,-0.117187 -0.84375,-0.363281 -0.2109375,-0.210937 -0.3398438,-0.503906 -0.3398438,-0.808594 0,-0.339843 0.1289063,-0.597656 0.3398438,-0.84375 0.2226562,-0.210937 0.5039062,-0.339843 0.84375,-0.339843 z m 0.140625,4.664062 -2.3320313,8.2031251 c -0.140625,0.5507813 -0.2109375,0.890625 -0.2109375,1.0078125 0,0.1171875 0.023437,0.2226563 0.09375,0.3164063 0.070312,0.070312 0.1640625,0.09375 0.2695313,0.09375 0.1171875,0 0.2578125,-0.046875 0.4335937,-0.1640625 0.421875,-0.3632813 0.8789063,-0.8671875 1.3359375,-1.5117188 l 0.4101563,0.2578125 c -0.5273438,0.8203125 -1.1484375,1.5117188 -1.875,2.06250005 -0.5273438,0.41015625 -1.03125,0.6328125 -1.5351563,0.6328125 -0.3046875,0 -0.5742187,-0.10546875 -0.7617187,-0.29296875 -0.2226563,-0.1875 -0.3164063,-0.43359375 -0.3164063,-0.71484375 0,-0.29296875 0.09375,-0.77343755 0.2929688,-1.44140625 l 1.5351562,-5.2617188 c 0.234375,-0.8671875 0.3515625,-1.3945312 0.3515625,-1.6289062 0,-0.1640625 -0.046875,-0.3164063 -0.1640625,-0.4101563 -0.1171875,-0.1171875 -0.28125,-0.1640625 -0.5039062,-0.1640625 -0.1640625,0 -0.5273438,0.046875 -1.0546875,0.1171875 v -0.4570312 z m 0,0"
       style="fill:#231f20;fill-opacity:1;fill-rule:nonzero;stroke:none"
       aria-label="i"
       transform="matrix(1.3333333,0,0,1.3333333,45.8104,313.79067)" />
    <path
       id="path2"
       d="m 2624.54,151.93 c 0,-74.1605 -60.48,-134.6409 -134.64,-134.6409 -74.88,0 -135.36,60.4804 -135.36,134.6409 0,74.879 60.48,135.359 135.36,135.359 74.16,0 134.64,-60.48 134.64,-135.359"
       style="display:none;fill:#ffffff;fill-opacity:1;fill-rule:evenodd;stroke:none;opacity:0"
       transform="matrix(0.13333333,0,0,-0.13333333,0,448)" />
    <path
       id="path3"
       d="m 2624.54,151.93 c 0,-74.1605 -60.48,-134.6409 -134.64,-134.6409 -74.88,0 -135.36,60.4804 -135.36,134.6409 0,74.879 60.48,135.359 135.36,135.359 74.16,0 134.64,-60.48 134.64,-135.359 z"
       style="fill:none;stroke:#231f20;stroke-width:29.9991;stroke-linecap:square;stroke-linejoin:miter;stroke-miterlimit:2.6131;stroke-dasharray:none;stroke-opacity:1"
       transform="matrix(0.13333333,0,0,-0.13333333,0,448)" />
    <path
       id="path4"
       d="m 294.617,926.648 c 0,-74.16 -60.48,-134.64 -134.64,-134.64 -74.8793,0 -135.3598,60.48 -135.3598,134.64 0,74.882 60.4805,135.362 135.3598,135.362 74.16,0 134.64,-60.48 134.64,-135.362"
       style="display:none;fill:#ffffff;fill-opacity:1;fill-rule:evenodd;stroke:none;opacity:0"
       transform="matrix(0.13333333,0,0,-0.13333333,0,448)" />
    <path
       id="path5"
       d="m 294.617,926.648 c 0,-74.16 -60.48,-134.64 -134.64,-134.64 -74.8793,0 -135.3598,60.48 -135.3598,134.64 0,74.882 60.4805,135.362 135.3598,135.362 74.16,0 134.64,-60.48 134.64,-135.362 z"
       style="fill:none;stroke:#231f20;stroke-width:29.9991;stroke-linecap:square;stroke-linejoin:miter;stroke-miterlimit:2.6131;stroke-dasharray:none;stroke-opacity:1"
       transform="matrix(0.13333333,0,0,-0.13333333,0,448)" />
    <path
       id="path6"
       d="m 1196.06,2944.09 c 0,-74.88 -60.48,-135.36 -135.36,-135.36 -74.161,0 -134.641,60.48 -134.641,135.36 0,74.88 60.48,134.64 134.641,134.64 74.88,0 135.36,-60.48 135.36,-134.64"
       style="display:none;fill:#ffffff;fill-opacity:1;fill-rule:evenodd;stroke:none;opacity:0"
       transform="matrix(0.13333333,0,0,-0.13333333,0,448)" />
    <path
       id="path7"
       d="m 1196.06,2944.09 c 0,-74.88 -60.48,-135.36 -135.36,-135.36 -74.161,0 -134.641,60.48 -134.641,135.36 0,74.88 60.48,134.64 134.641,134.64 74.88,0 135.36,-60.48 135.36,-134.64 z"
       style="fill:none;stroke:#231f20;stroke-width:29.9991;stroke-linecap:square;stroke-linejoin:miter;stroke-miterlimit:2.6131;stroke-dasharray:none;stroke-opacity:1"
       transform="matrix(0.13333333,0,0,-0.13333333,0,448)" />
    <path
       id="path8"
       d="m 336.379,3072.97 c 0,-74.88 -59.762,-134.64 -134.641,-134.64 -74.879,0 -135.3591,59.76 -135.3591,134.64 0,74.88 60.4801,135.36 135.3591,135.36 74.879,0 134.641,-60.48 134.641,-135.36"
       style="display:none;fill:#ffffff;fill-opacity:1;fill-rule:evenodd;stroke:none;opacity:0"
       transform="matrix(0.13333333,0,0,-0.13333333,0,448)" />
    <path
       id="path9"
       d="m 336.379,3072.97 c 0,-74.88 -59.762,-134.64 -134.641,-134.64 -74.879,0 -135.3591,59.76 -135.3591,134.64 0,74.88 60.4801,135.36 135.3591,135.36 74.879,0 134.641,-60.48 134.641,-135.36 z"
       style="fill:none;stroke:#231f20;stroke-width:29.9991;stroke-linecap:square;stroke-linejoin:miter;stroke-miterlimit:2.6131;stroke-dasharray:none;stroke-opacity:1"
       transform="matrix(0.13333333,0,0,-0.13333333,0,448)" />
    <path
       id="path10"
       d="m 5.4958516,-15.234945 c 0.3398437,0 0.5976562,0.09375 0.84375,0.328125 0.234375,0.246093 0.328125,0.503906 0.328125,0.84375 0,0.339843 -0.09375,0.597656 -0.328125,0.84375 -0.2460938,0.210937 -0.5039063,0.328125 -0.84375,0.328125 -0.3398438,0 -0.5976563,-0.117188 -0.84375,-0.328125 -0.2109375,-0.246094 -0.328125,-0.503907 -0.328125,-0.84375 0,-0.339844 0.1171875,-0.597657 0.328125,-0.84375 0.2460937,-0.234375 0.5039062,-0.328125 0.84375,-0.328125 z m 0.1875,4.628906 -3.046875,10.48828119 C 2.1091328,1.7572422 1.3708516,3.1166172 0.43335156,3.9369297 c -0.9375,0.84375 -1.96874996,1.2421875 -3.04687496,1.2421875 -0.5039063,0 -0.890625,-0.1171875 -1.125,-0.328125 -0.2695313,-0.2460938 -0.3867188,-0.5039063 -0.3867188,-0.8203125 0,-0.234375 0.09375,-0.4570313 0.28125,-0.6445313 0.1992188,-0.1757812 0.4101563,-0.2695312 0.6796875,-0.2695312 0.2109375,0 0.3984375,0.070312 0.5742188,0.2226562 0.140625,0.1171875 0.2109375,0.2578125 0.2109375,0.3984375 0,0.1992188 -0.09375,0.3867188 -0.28125,0.5390625 -0.1054688,0.070312 -0.1757813,0.140625 -0.1757813,0.2109375 l 0.023437,0.046875 c 0.023437,0.023437 0.082031,0.046875 0.1289063,0.070312 0.046875,0.023437 0.09375,0.023437 0.1875,0.023437 0.6445312,0 1.171875,-0.1875 1.62890621,-0.5976562 0.45703125,-0.4101563 0.84375,-1.1953125 1.20703125,-2.4257813 l 2.63671874,-9 c 0.234375,-0.8671875 0.3867188,-1.3710937 0.3867188,-1.4648437 0,-0.1875 -0.09375,-0.3515625 -0.2695313,-0.5039063 -0.1640625,-0.140625 -0.3867187,-0.2109375 -0.6210937,-0.2109375 -0.1171875,0 -0.2109375,0 -0.3632813,0.023437 -0.09375,0.023437 -0.234375,0.046875 -0.4570312,0.070312 v -0.4101562 z m 0,0"
       style="fill:#231f20;fill-opacity:1;fill-rule:nonzero;stroke:none"
       aria-label="j"
       transform="matrix(1.3333333,0,0,1.3333333,324.40267,396.25467)" />
    <path
       id="path11"
       d="m 4091.18,1445.77 c 0,-74.16 -60.48,-134.64 -134.64,-134.64 -74.88,0 -135.36,60.48 -135.36,134.64 0,74.88 60.48,135.36 135.36,135.36 74.16,0 134.64,-60.48 134.64,-135.36"
       style="display:none;fill:#ffffff;fill-opacity:1;fill-rule:evenodd;stroke:none;opacity:0"
       transform="matrix(0.13333333,0,0,-0.13333333,0,448)" />
    <path
       id="path12"
       d="m 4091.18,1445.77 c 0,-74.16 -60.48,-134.64 -134.64,-134.64 -74.88,0 -135.36,60.48 -135.36,134.64 0,74.88 60.48,135.36 135.36,135.36 74.16,0 134.64,-60.48 134.64,-135.36 z"
       style="fill:none;stroke:#231f20;stroke-width:29.9991;stroke-linecap:square;stroke-linejoin:miter;stroke-miterlimit:2.6131;stroke-dasharray:none;stroke-opacity:1"
       transform="matrix(0.13333333,0,0,-0.13333333,0,448)" />
    <path
       id="path13"
       d="m 3235.1,1582.57 c 0,-74.16 -60.48,-134.64 -134.64,-134.64 -74.88,0 -135.36,60.48 -135.36,134.64 0,74.88 60.48,135.36 135.36,135.36 74.16,0 134.64,-60.48 134.64,-135.36"
       style="display:none;fill:#ffffff;fill-opacity:1;fill-rule:evenodd;stroke:none;opacity:0"
       transform="matrix(0.13333333,0,0,-0.13333333,0,448)" />
    <path
       id="path14"
       d="m 3235.1,1582.57 c 0,-74.16 -60.48,-134.64 -134.64,-134.64 -74.88,0 -135.36,60.48 -135.36,134.64 0,74.88 60.48,135.36 135.36,135.36 74.16,0 134.64,-60.48 134.64,-135.36 z"
       style="fill:none;stroke:#231f20;stroke-width:29.9991;stroke-linecap:square;stroke-linejoin:miter;stroke-miterlimit:2.6131;stroke-dasharray:none;stroke-opacity:1"
       transform="matrix(0.13333333,0,0,-0.13333333,0,448)" />
    <path
       id="path15"
       d="M 159.258,926.648 2489.18,151.93"
       style="fill:none;stroke:#231f20;stroke-width:28.3465;stroke-linecap:butt;stroke-linejoin:miter;stroke-miterlimit:2.6131;stroke-dasharray:none;stroke-opacity:1"
       transform="matrix(0.13333333,0,0,-0.13333333,0,448)" />
    <path
       id="path16"
       d="m 159.258,926.648 40.32,2047.682"
       style="fill:none;stroke:#231f20;stroke-width:28.3465;stroke-linecap:butt;stroke-linejoin:miter;stroke-miterlimit:2.6131;stroke-dasharray:141.732, 85.0395;stroke-dashoffset:0;stroke-opacity:1"
       transform="matrix(0.13333333,0,0,-0.13333333,0,448)" />
    <path
       id="path17"
       d="m 201.02,3073.69 -88.563,-196.56 c 57.602,27.36 113.762,26.64 169.922,-2.88 l -81.359,199.44"
       style="fill:#231f20;fill-opacity:1;fill-rule:evenodd;stroke:none"
       transform="matrix(0.13333333,0,0,-0.13333333,0,448)" />
    <path
       id="path18"
       d="M 159.258,926.648 1015.34,2853.37"
       style="fill:none;stroke:#231f20;stroke-width:28.3465;stroke-linecap:butt;stroke-linejoin:miter;stroke-miterlimit:2.6131;stroke-dasharray:none;stroke-opacity:1"
       transform="matrix(0.13333333,0,0,-0.13333333,0,448)" />
    <path
       id="path19"
       d="M 1055.66,2944.09 898.699,2797.93 c 62.641,2.88 114.481,-20.16 154.081,-69.12 l 2.88,215.28"
       style="fill:#231f20;fill-opacity:1;fill-rule:evenodd;stroke:none"
       transform="matrix(0.13333333,0,0,-0.13333333,0,448)" />
    <path
       id="path20"
       d="M 1053.5,2939.77 3100.46,1583.29"
       style="fill:none;stroke:#231f20;stroke-width:28.3465;stroke-linecap:butt;stroke-linejoin:miter;stroke-miterlimit:2.6131;stroke-dasharray:none;stroke-opacity:1"
       transform="matrix(0.13333333,0,0,-0.13333333,0,448)" />
    <path
       id="path21"
       d="m 201.02,3073.69 761.757,-115.2"
       style="fill:none;stroke:#231f20;stroke-width:28.3465;stroke-linecap:butt;stroke-linejoin:miter;stroke-miterlimit:2.6131;stroke-dasharray:56.693, 28.3465;stroke-dashoffset:0;stroke-opacity:1"
       transform="matrix(0.13333333,0,0,-0.13333333,0,448)" />
    <path
       id="path22"
       d="m 1061.42,2943.37 -183.604,113.76 c 19.442,-60.48 10.801,-115.92 -25.199,-167.76 l 208.803,54"
       style="fill:#231f20;fill-opacity:1;fill-rule:evenodd;stroke:none"
       transform="matrix(0.13333333,0,0,-0.13333333,0,448)" />
    <path
       id="path23"
       d="m 2489.18,151.93 571.68,1339.92"
       style="fill:none;stroke:#231f20;stroke-width:28.3465;stroke-linecap:butt;stroke-linejoin:miter;stroke-miterlimit:2.6131;stroke-dasharray:none;stroke-opacity:1"
       transform="matrix(0.13333333,0,0,-0.13333333,0,448)" />
    <path
       id="path24"
       d="m 3100.46,1583.29 -156.24,-149.04 c 63.36,4.32 115.2,-18 156.24,-66.24 v 215.28"
       style="fill:#231f20;fill-opacity:1;fill-rule:evenodd;stroke:none"
       transform="matrix(0.13333333,0,0,-0.13333333,0,448)" />
    <path
       id="path25"
       d="m 6.4932813,-8.3329703 -2.015625,6.9140625 c -0.1054688,0.375 -0.1640625,0.62109374 -0.1640625,0.73828124 0,0.046875 0.023437,0.0820313 0.058594,0.1171875 0.023437,0.0234375 0.058594,0.046875 0.09375,0.046875 0.046875,0 0.1054688,-0.0234375 0.1757813,-0.0703125 0.140625,-0.09375 0.3632812,-0.33984375 0.6796875,-0.71484374 l 0.1992187,0.1289062 c -0.2929687,0.38671879 -0.5742187,0.70312504 -0.8554687,0.94921879 -0.28125,0.24609375 -0.5625,0.36328125 -0.8085938,0.36328125 -0.140625,0 -0.2460937,-0.046875 -0.328125,-0.1406250025 C 3.4464063,-0.09468906 3.3995313,-0.22359531 3.3995313,-0.39937656 c 0,-0.22265625 0.058594,-0.52734375 0.1757812,-0.90234374 l 0.234375,-0.7265625 C 3.2354688,-1.1493766 2.7198438,-0.54000156 2.2628125,-0.20015781 1.9346875,0.02249844 1.63,0.13968594 1.3370313,0.13968594 1.0440625,0.13968594 0.78625,0.01077969 0.56359375,-0.25875156 0.3409375,-0.51656406 0.22375,-0.87984531 0.22375,-1.3368766 c 0,-0.5742187 0.19921875,-1.1953125 0.57421875,-1.8515625 0.35156255,-0.6679687 0.84375005,-1.2070312 1.46484375,-1.6171875 0.46875,-0.328125 0.9140625,-0.5039062 1.3125,-0.5039062 0.2226563,0 0.3984375,0.046875 0.5507813,0.140625 0.1640625,0.082031 0.3046875,0.2226562 0.4453125,0.4101562 L 5.145625,-6.7978141 c 0.046875,-0.140625 0.082031,-0.2460937 0.1171875,-0.328125 0.046875,-0.1640625 0.070312,-0.2929687 0.070312,-0.3984375 0,-0.070312 -0.035156,-0.140625 -0.09375,-0.1992187 -0.082031,-0.070312 -0.1875,-0.1054688 -0.3164062,-0.1054688 -0.082031,0 -0.2460938,0.011719 -0.4453125,0.035156 v -0.2109375 z m -2.1679688,4.1601562 c 0,-0.2578125 -0.082031,-0.4453125 -0.2226562,-0.609375 C 3.9620313,-4.9345328 3.78625,-5.0048453 3.551875,-5.0048453 c -0.4921875,0 -1.0078125,0.4101562 -1.5351562,1.2070312 -0.5390625,0.8203125 -0.8085938,1.6054688 -0.8085938,2.34375 0,0.2929688 0.082031,0.51562504 0.1992188,0.66796879 0.1289062,0.1640625 0.28125,0.234375 0.46875,0.234375 0.4101562,0 0.9140625,-0.4453125 1.5234375,-1.32421879 0.609375,-0.8671875 0.9257812,-1.640625 0.9257812,-2.296875 z M 14.708125,-2.80465 c 0.164063,0 0.304688,0.058594 0.410156,0.1640625 0.117188,0.1171875 0.1875,0.2578125 0.1875,0.421875 0,0.1523438 -0.07031,0.3046875 -0.1875,0.4101563 -0.105468,0.1171875 -0.246093,0.1757812 -0.410156,0.1757812 -0.164062,0 -0.292969,-0.058594 -0.410156,-0.1757812 -0.117188,-0.1054688 -0.175781,-0.2578125 -0.175781,-0.4101563 0,-0.1640625 0.05859,-0.3046875 0.175781,-0.421875 0.105469,-0.1054687 0.246094,-0.1640625 0.410156,-0.1640625 z m 0.08203,2.3203125 -1.171875,4.1132813 C 13.54797,3.898475 13.512812,4.0625375 13.512812,4.13285 c 0,0.058594 0.01172,0.1054688 0.04687,0.1523438 0.03516,0.035156 0.08203,0.046875 0.128906,0.046875 0.05859,0 0.140625,-0.023437 0.222656,-0.082031 0.210938,-0.1875 0.445313,-0.4335937 0.667969,-0.7617187 l 0.210937,0.140625 c -0.269531,0.3984375 -0.585937,0.75 -0.9375,1.03125 -0.269531,0.1992187 -0.515625,0.3046875 -0.773437,0.3046875 -0.152344,0 -0.28125,-0.046875 -0.386719,-0.140625 -0.105469,-0.09375 -0.152344,-0.2109375 -0.152344,-0.3632813 0,-0.140625 0.04687,-0.375 0.140625,-0.7148437 l 0.773438,-2.625 C 13.571406,0.6875375 13.63,0.41800625 13.63,0.30081875 13.63,0.2187875 13.606563,0.148475 13.547969,0.1016 13.489375,0.0312875 13.407344,0.00785 13.301875,0.00785 c -0.09375,0 -0.269531,0.0234375 -0.539062,0.05859375 V -0.1562125 Z m 3.28711,-2.3085937 c 0.175781,0 0.304687,0.046875 0.421875,0.1640625 0.128906,0.1171875 0.175781,0.2578125 0.175781,0.421875 0,0.1640625 -0.04687,0.3046875 -0.175781,0.421875 -0.117188,0.1054687 -0.246094,0.1640625 -0.421875,0.1640625 -0.164063,0 -0.292969,-0.058594 -0.410157,-0.1640625 -0.117187,-0.1171875 -0.175781,-0.2578125 -0.175781,-0.421875 0,-0.1640625 0.05859,-0.3046875 0.175781,-0.421875 0.117188,-0.1171875 0.246094,-0.1640625 0.410157,-0.1640625 z m 0.105468,2.3085937 -1.523437,5.25 c -0.26953,0.9375 -0.64453,1.6171875 -1.11328,2.0273438 -0.46875,0.421875 -0.984375,0.6210937 -1.523438,0.6210937 -0.246094,0 -0.445312,-0.058594 -0.5625,-0.1640625 -0.128906,-0.1171875 -0.1875,-0.2578125 -0.1875,-0.4101562 0,-0.1171875 0.04687,-0.2226563 0.140625,-0.328125 0.09375,-0.082031 0.210938,-0.1289063 0.339844,-0.1289063 0.105469,0 0.199219,0.035156 0.28125,0.1054688 0.08203,0.058594 0.117187,0.140625 0.117187,0.2109375 0,0.09375 -0.04687,0.1875 -0.152343,0.2578125 -0.04687,0.035156 -0.08203,0.070312 -0.08203,0.1054687 l 0.01172,0.035156 c 0.01172,0.011719 0.03516,0.023437 0.05859,0.035156 0.02344,0.011719 0.04687,0.011719 0.105469,0.011719 0.316406,0 0.585937,-0.1054688 0.808593,-0.3046875 0.234376,-0.1992185 0.421876,-0.597656 0.597658,-1.207031 l 1.324218,-4.5 c 0.117188,-0.43359375 0.1875,-0.69140625 0.1875,-0.73828125 0,-0.09375 -0.04687,-0.17578125 -0.128906,-0.24609375 -0.08203,-0.08203125 -0.1875,-0.1171875 -0.316406,-0.1171875 -0.05859,0 -0.105469,0 -0.175781,0.01171875 -0.04687,0.01171875 -0.117188,0.0234375 -0.222657,0.046875 v -0.2109375 z m 6.008789,-14.9355465 c 0,0.585937 -0.140625,1.160156 -0.457031,1.746093 -0.304687,0.574219 -0.738281,1.03125 -1.289062,1.359375 -0.574219,0.339844 -1.113282,0.503907 -1.628907,0.503907 -0.539062,0 -0.972656,-0.175782 -1.300781,-0.515625 -0.351562,-0.339844 -0.515625,-0.773438 -0.515625,-1.324219 0,-0.585938 0.164063,-1.160156 0.503906,-1.734375 0.316407,-0.574219 0.761719,-1.03125 1.3125,-1.371094 0.550782,-0.328125 1.101563,-0.503906 1.617188,-0.503906 0.515625,0 0.925781,0.175781 1.265625,0.515625 0.339844,0.339844 0.492187,0.785156 0.492187,1.324219 z m -0.972656,-0.410157 c 0,-0.351562 -0.08203,-0.632812 -0.257812,-0.820312 -0.1875,-0.210938 -0.410157,-0.304688 -0.691407,-0.304688 -0.574218,0 -1.101562,0.421875 -1.582031,1.230469 -0.480469,0.832031 -0.726562,1.652344 -0.726562,2.460938 0,0.363281 0.09375,0.65625 0.28125,0.855468 0.199218,0.199219 0.421875,0.304688 0.714843,0.304688 0.550782,0 1.066407,-0.410156 1.546875,-1.230469 0.480469,-0.808594 0.714844,-1.652344 0.714844,-2.496094 z m 77.736334,-203.460939 -2.015631,6.91406 c -0.105468,0.375 -0.164062,0.6211 -0.164062,0.73829 0,0.0469 0.02344,0.082 0.05859,0.11718 0.02344,0.0234 0.05859,0.0469 0.09375,0.0469 0.04687,0 0.105468,-0.0234 0.175781,-0.0703 0.140625,-0.0937 0.363281,-0.33985 0.679687,-0.71485 l 0.199219,0.12891 c -0.292969,0.38672 -0.574219,0.70312 -0.855469,0.94922 -0.28125,0.24609 -0.5625,0.36328 -0.808593,0.36328 -0.140625,0 -0.246094,-0.0469 -0.328125,-0.14063 -0.08203,-0.0937 -0.128907,-0.22265 -0.128907,-0.39843 0,-0.22266 0.05859,-0.52735 0.175782,-0.90235 l 0.234375,-0.72656 c -0.574219,0.87891 -1.089844,1.48828 -1.546875,1.82812 -0.328125,0.22266 -0.632813,0.33985 -0.925782,0.33985 -0.292968,0 -0.550781,-0.12891 -0.773437,-0.39844 -0.222656,-0.25781 -0.339844,-0.62109 -0.339844,-1.07812 0,-0.57422 0.199219,-1.19532 0.574219,-1.85157 0.351562,-0.66797 0.84375,-1.20703 1.464844,-1.61718 0.46875,-0.32813 0.914062,-0.50391 1.3125,-0.50391 0.222656,0 0.398437,0.0469 0.550781,0.14062 0.164062,0.082 0.304687,0.22266 0.445312,0.41016 l 0.574219,-2.03906 c 0.04687,-0.14063 0.08203,-0.2461 0.117188,-0.32813 0.04687,-0.16406 0.07031,-0.29297 0.07031,-0.39843 0,-0.0703 -0.03516,-0.14063 -0.09375,-0.19922 -0.08203,-0.0703 -0.1875,-0.10547 -0.316406,-0.10547 -0.08203,0 -0.246094,0.0117 -0.445313,0.0351 v -0.21093 z m -2.167974,4.16016 c 0,-0.25781 -0.08203,-0.44531 -0.222657,-0.60938 -0.140625,-0.15234 -0.316406,-0.22265 -0.550781,-0.22265 -0.492187,0 -1.007812,0.41015 -1.535156,1.20703 -0.539063,0.82031 -0.808594,1.60547 -0.808594,2.34375 0,0.29297 0.08203,0.51562 0.199219,0.66797 0.128906,0.16406 0.28125,0.23437 0.46875,0.23437 0.410156,0 0.914062,-0.44531 1.523437,-1.32422 0.609375,-0.86718 0.925782,-1.64062 0.925782,-2.29687 z m 10.312504,1.36523 c 0.16406,0 0.30468,0.0586 0.41015,0.16407 0.11719,0.11718 0.1875,0.25781 0.1875,0.42187 0,0.15234 -0.0703,0.30469 -0.1875,0.41016 -0.10547,0.11718 -0.24609,0.17578 -0.41015,0.17578 -0.16407,0 -0.29297,-0.0586 -0.41016,-0.17578 -0.11719,-0.10547 -0.17578,-0.25782 -0.17578,-0.41016 0,-0.16406 0.0586,-0.30469 0.17578,-0.42187 0.10547,-0.10547 0.24609,-0.16407 0.41016,-0.16407 z m 0.082,2.32032 -1.17188,4.11328 c -0.0703,0.26953 -0.10547,0.43359 -0.10547,0.5039 0,0.0586 0.0117,0.10547 0.0469,0.15235 0.0352,0.0351 0.082,0.0469 0.12891,0.0469 0.0586,0 0.14062,-0.0234 0.22265,-0.082 0.21094,-0.1875 0.44531,-0.43359 0.66797,-0.76172 l 0.21094,0.14063 c -0.26953,0.39843 -0.58594,0.75 -0.9375,1.03125 -0.26953,0.19922 -0.51563,0.30468 -0.77344,0.30468 -0.15234,0 -0.28125,-0.0469 -0.38672,-0.14062 -0.10547,-0.0937 -0.15234,-0.21094 -0.15234,-0.36328 0,-0.14063 0.0469,-0.375 0.14062,-0.71485 l 0.77344,-2.625 c 0.11719,-0.43359 0.17578,-0.70312 0.17578,-0.82031 0,-0.082 -0.0234,-0.15234 -0.082,-0.19922 -0.0586,-0.0703 -0.14062,-0.0937 -0.24609,-0.0937 -0.0937,0 -0.26953,0.0234 -0.53907,0.0586 v -0.22266 z m 3.36035,-2.3086 c 0.17578,0 0.30469,0.0469 0.42187,0.16406 0.12891,0.11719 0.17579,0.25782 0.17579,0.42188 0,0.16406 -0.0469,0.30469 -0.17579,0.42187 -0.11718,0.10547 -0.24609,0.16407 -0.42187,0.16407 -0.16406,0 -0.29297,-0.0586 -0.41016,-0.16407 -0.11718,-0.11718 -0.17578,-0.25781 -0.17578,-0.42187 0,-0.16406 0.0586,-0.30469 0.17578,-0.42188 0.11719,-0.11718 0.2461,-0.16406 0.41016,-0.16406 z m 0.10547,2.3086 -1.52344,5.25 c -0.26953,0.9375 -0.64453,1.61718 -1.11328,2.02734 -0.46875,0.42187 -0.98438,0.62109 -1.52344,0.62109 -0.24609,0 -0.44531,-0.0586 -0.5625,-0.16406 -0.1289,-0.11719 -0.1875,-0.25781 -0.1875,-0.41016 0,-0.11718 0.0469,-0.22265 0.14063,-0.32812 0.0937,-0.082 0.21093,-0.12891 0.33984,-0.12891 0.10547,0 0.19922,0.0352 0.28125,0.10547 0.082,0.0586 0.11719,0.14063 0.11719,0.21094 0,0.0937 -0.0469,0.1875 -0.15235,0.25781 -0.0469,0.0352 -0.082,0.0703 -0.082,0.10547 l 0.0117,0.0352 c 0.0117,0.0117 0.0352,0.0234 0.0586,0.0351 0.0234,0.0117 0.0469,0.0117 0.10546,0.0117 0.31641,0 0.58594,-0.10547 0.8086,-0.30469 0.23437,-0.19921 0.42187,-0.59765 0.59765,-1.20703 l 1.32422,-4.5 c 0.11719,-0.43359 0.1875,-0.6914 0.1875,-0.73828 0,-0.0937 -0.0469,-0.17578 -0.1289,-0.24609 -0.082,-0.082 -0.1875,-0.11719 -0.31641,-0.11719 -0.0586,0 -0.10547,0 -0.17578,0.0117 -0.0469,0.0117 -0.11719,0.0234 -0.22266,0.0469 v -0.21093 z M -2.5711719,-245.6611 c 0.1640625,0 0.3046875,0.0586 0.4101563,0.16407 0.1171875,0.11718 0.1875,0.25781 0.1875,0.42187 0,0.15235 -0.070312,0.30469 -0.1875,0.41016 -0.1054688,0.11719 -0.2460938,0.17578 -0.4101563,0.17578 -0.1640625,0 -0.2929687,-0.0586 -0.4101562,-0.17578 -0.1171875,-0.10547 -0.1757813,-0.25781 -0.1757813,-0.41016 0,-0.16406 0.058594,-0.30469 0.1757813,-0.42187 0.1054687,-0.10547 0.2460937,-0.16407 0.4101562,-0.16407 z m 0.082031,2.32032 -1.171875,4.11328 c -0.070312,0.26953 -0.1054688,0.43359 -0.1054688,0.5039 0,0.0586 0.011719,0.10547 0.046875,0.15235 0.035156,0.0351 0.082031,0.0469 0.1289063,0.0469 0.058594,0 0.140625,-0.0234 0.2226562,-0.082 0.2109375,-0.1875 0.4453125,-0.43359 0.6679688,-0.76172 l 0.2109375,0.14063 c -0.2695313,0.39844 -0.5859375,0.75 -0.9375,1.03125 -0.2695313,0.19922 -0.515625,0.30469 -0.7734375,0.30469 -0.1523438,0 -0.28125,-0.0469 -0.3867188,-0.14063 -0.1054687,-0.0937 -0.1523437,-0.21094 -0.1523437,-0.36328 0,-0.14063 0.046875,-0.375 0.140625,-0.71484 l 0.7734375,-2.625 c 0.1171875,-0.4336 0.1757812,-0.70313 0.1757812,-0.82032 0,-0.082 -0.023437,-0.15234 -0.082031,-0.19922 -0.058594,-0.0703 -0.140625,-0.0937 -0.2460938,-0.0937 -0.09375,0 -0.2695312,0.0234 -0.5390625,0.0586 v -0.22266 z M 171.58117,-119.79293 c 0.17578,0 0.30469,0.0469 0.42188,0.16406 0.1289,0.11719 0.17578,0.25781 0.17578,0.42188 0,0.16406 -0.0469,0.30468 -0.17578,0.42187 -0.11719,0.10547 -0.2461,0.16406 -0.42188,0.16406 -0.16406,0 -0.29297,-0.0586 -0.41015,-0.16406 -0.11719,-0.11719 -0.17579,-0.25781 -0.17579,-0.42187 0,-0.16407 0.0586,-0.30469 0.17579,-0.42188 0.11718,-0.11719 0.24609,-0.16406 0.41015,-0.16406 z m 0.10547,2.30859 -1.52344,5.25 c -0.26953,0.9375 -0.64453,1.61719 -1.11328,2.02735 -0.46875,0.42187 -0.98437,0.62109 -1.52344,0.62109 -0.24609,0 -0.44531,-0.0586 -0.5625,-0.16406 -0.1289,-0.11719 -0.1875,-0.25781 -0.1875,-0.41016 0,-0.11719 0.0469,-0.22265 0.14063,-0.32812 0.0937,-0.082 0.21094,-0.12891 0.33984,-0.12891 0.10547,0 0.19922,0.0352 0.28125,0.10547 0.082,0.0586 0.11719,0.14062 0.11719,0.21094 0,0.0937 -0.0469,0.1875 -0.15234,0.25781 -0.0469,0.0352 -0.082,0.0703 -0.082,0.10547 l 0.0117,0.0352 c 0.0117,0.0117 0.0352,0.0234 0.0586,0.0352 0.0234,0.0117 0.0469,0.0117 0.10547,0.0117 0.3164,0 0.58593,-0.10547 0.80859,-0.30469 0.23438,-0.19922 0.42188,-0.59765 0.59766,-1.20703 l 1.32422,-4.5 c 0.11718,-0.43359 0.1875,-0.69141 0.1875,-0.73828 0,-0.0937 -0.0469,-0.17578 -0.12891,-0.24609 -0.082,-0.082 -0.1875,-0.11719 -0.31641,-0.11719 -0.0586,0 -0.10547,0 -0.17578,0.0117 -0.0469,0.0117 -0.11719,0.0234 -0.22265,0.0469 v -0.21094 z m 92.91797,29.730471 c 0.17578,0 0.30469,0.04687 0.42187,0.164063 0.12891,0.117187 0.17579,0.257812 0.17579,0.421875 0,0.164062 -0.0469,0.304687 -0.17579,0.421875 -0.11718,0.105469 -0.24609,0.164062 -0.42187,0.164062 -0.16406,0 -0.29297,-0.05859 -0.41016,-0.164062 -0.11718,-0.117188 -0.17578,-0.257813 -0.17578,-0.421875 0,-0.164063 0.0586,-0.304688 0.17578,-0.421875 0.11719,-0.117188 0.2461,-0.164063 0.41016,-0.164063 z m 0.10547,2.308594 -1.52344,5.25 c -0.26953,0.9375 -0.64453,1.617188 -1.11328,2.027344 -0.46875,0.421875 -0.98438,0.621094 -1.52344,0.621094 -0.24609,0 -0.44531,-0.05859 -0.5625,-0.164063 -0.1289,-0.117187 -0.1875,-0.257812 -0.1875,-0.410156 0,-0.117188 0.0469,-0.222656 0.14063,-0.328125 0.0937,-0.08203 0.21093,-0.128906 0.33984,-0.128906 0.10547,0 0.19922,0.03516 0.28125,0.105468 0.082,0.05859 0.11719,0.140625 0.11719,0.210938 0,0.09375 -0.0469,0.1875 -0.15235,0.257812 -0.0469,0.03516 -0.082,0.07031 -0.082,0.105469 l 0.0117,0.03516 c 0.0117,0.01172 0.0352,0.02344 0.0586,0.03516 0.0234,0.01172 0.0469,0.01172 0.10546,0.01172 0.31641,0 0.58594,-0.105468 0.8086,-0.304687 0.23437,-0.199219 0.42187,-0.597656 0.59765,-1.207031 l 1.32422,-4.5 c 0.11719,-0.433594 0.1875,-0.691407 0.1875,-0.738282 0,-0.09375 -0.0469,-0.175781 -0.1289,-0.246093 -0.082,-0.08203 -0.1875,-0.117188 -0.31641,-0.117188 -0.0586,0 -0.10547,0 -0.17578,0.01172 -0.0469,0.01172 -0.11719,0.02344 -0.22266,0.04687 v -0.210938 z m 6.13476,-0.457031 c 0.28125,-0.117188 0.52735,-0.28125 0.70313,-0.503906 0.14062,-0.152344 0.22265,-0.292969 0.22265,-0.433594 0,-0.08203 -0.0117,-0.140625 -0.0469,-0.199219 -0.0117,-0.03516 -0.0703,-0.09375 -0.16406,-0.1875 -0.082,-0.09375 -0.14063,-0.152344 -0.15235,-0.199219 -0.0234,-0.05859 -0.0351,-0.140625 -0.0351,-0.222656 0,-0.164062 0.0586,-0.316406 0.16406,-0.433594 0.11719,-0.117187 0.25781,-0.175781 0.41016,-0.175781 0.16406,0 0.30468,0.05859 0.43359,0.1875 0.11719,0.128906 0.17578,0.292969 0.17578,0.480469 0,0.351562 -0.12891,0.714844 -0.41016,1.054687 -0.26953,0.363282 -0.66796,0.632813 -1.18359,0.832032 z M -85.803594,-257.03707 c 0.164063,0 0.304688,0.0586 0.410157,0.16406 0.117187,0.11719 0.1875,0.25781 0.1875,0.42188 0,0.15234 -0.07031,0.30468 -0.1875,0.41015 -0.105469,0.11719 -0.246094,0.17578 -0.410157,0.17578 -0.164062,0 -0.292968,-0.0586 -0.410156,-0.17578 -0.117187,-0.10547 -0.175781,-0.25781 -0.175781,-0.41015 0,-0.16407 0.05859,-0.30469 0.175781,-0.42188 0.105469,-0.10547 0.246094,-0.16406 0.410156,-0.16406 z m 0.08203,2.32031 -1.171875,4.11328 c -0.07031,0.26953 -0.105469,0.4336 -0.105469,0.50391 0,0.0586 0.01172,0.10547 0.04687,0.15234 0.03516,0.0352 0.08203,0.0469 0.128906,0.0469 0.05859,0 0.140625,-0.0234 0.222656,-0.082 0.210938,-0.1875 0.445313,-0.4336 0.667969,-0.76172 l 0.210938,0.14062 c -0.269532,0.39844 -0.585938,0.75 -0.9375,1.03125 -0.269532,0.19922 -0.515625,0.30469 -0.773438,0.30469 -0.152344,0 -0.28125,-0.0469 -0.386719,-0.14063 -0.105468,-0.0937 -0.152343,-0.21093 -0.152343,-0.36328 0,-0.14062 0.04687,-0.375 0.140625,-0.71484 l 0.773437,-2.625 c 0.117188,-0.43359 0.175781,-0.70313 0.175781,-0.82031 0,-0.082 -0.02344,-0.15235 -0.08203,-0.19922 -0.05859,-0.0703 -0.140625,-0.0937 -0.246094,-0.0937 -0.09375,0 -0.269531,0.0234 -0.539062,0.0586 v -0.22265 z m 6.213867,-0.45703 c 0.28125,-0.11719 0.527343,-0.28125 0.703125,-0.50391 0.140625,-0.15234 0.222656,-0.29297 0.222656,-0.43359 0,-0.082 -0.01172,-0.14063 -0.04687,-0.19922 -0.01172,-0.0352 -0.07031,-0.0937 -0.164063,-0.1875 -0.08203,-0.0937 -0.140625,-0.15234 -0.152343,-0.19922 -0.02344,-0.0586 -0.03516,-0.14062 -0.03516,-0.22265 0,-0.16407 0.05859,-0.31641 0.164063,-0.4336 0.117187,-0.11719 0.257812,-0.17578 0.410156,-0.17578 0.164063,0 0.304688,0.0586 0.433594,0.1875 0.117187,0.12891 0.175781,0.29297 0.175781,0.48047 0,0.35156 -0.128906,0.71484 -0.410156,1.05469 -0.269531,0.36328 -0.667969,0.63281 -1.183594,0.83203 z m 315.448247,105.28418 -0.59766,2.49609 h -0.21094 c 0.0352,-0.29297 0.0469,-0.5039 0.0469,-0.65625 0,-0.375 -0.17578,-0.71484 -0.50391,-1.01953 -0.33984,-0.28125 -0.80859,-0.43359 -1.39453,-0.43359 -1.21875,0 -2.20312,0.57422 -2.97656,1.71094 -0.6211,0.90234 -0.92578,1.91015 -0.92578,3.02343 0,0.73828 0.19922,1.39453 0.5625,1.9336 0.38672,0.52734 0.97265,0.79687 1.75781,0.79687 0.19922,0 0.38672,-0.0234 0.55078,-0.0469 0.17578,-0.0352 0.44531,-0.11719 0.78516,-0.23438 l 0.58593,-2.03906 c 0.082,-0.29297 0.12891,-0.51563 0.12891,-0.69141 0,-0.1289 -0.0586,-0.23437 -0.15234,-0.30468 -0.17578,-0.11719 -0.4336,-0.1875 -0.79688,-0.1875 h -0.16406 l 0.0586,-0.22266 h 3.30469 l -0.0586,0.22266 c -0.29297,0.0117 -0.51563,0.0586 -0.65625,0.11718 -0.12891,0.0703 -0.25782,0.17578 -0.35157,0.33985 -0.0703,0.10547 -0.17578,0.41015 -0.3164,0.91406 l -0.59766,2.01562 c -0.52734,0.23438 -0.94922,0.38672 -1.28906,0.45704 -0.32813,0.082 -0.66797,0.11718 -1.03125,0.11718 -0.84375,0 -1.51172,-0.15234 -2.03906,-0.48047 -0.51563,-0.30468 -0.90235,-0.72656 -1.16016,-1.24218 -0.23437,-0.51563 -0.36328,-1.03125 -0.36328,-1.53516 0,-0.70312 0.14062,-1.34766 0.44531,-1.96875 0.28125,-0.60937 0.64453,-1.13672 1.07813,-1.57031 0.43359,-0.42188 0.90234,-0.76172 1.40625,-1.00781 0.6914,-0.33985 1.42968,-0.50391 2.20312,-0.50391 0.5625,0 1.07813,0.082 1.53516,0.26953 0.17578,0.0703 0.3164,0.11719 0.39844,0.11719 0.0937,0 0.17578,-0.0234 0.24609,-0.0703 0.0703,-0.0469 0.16406,-0.15235 0.26953,-0.31641 z m 11.458,5.25586 c 0.17579,0 0.30469,0.0469 0.42188,0.16406 0.12891,0.11719 0.17578,0.25781 0.17578,0.42188 0,0.16406 -0.0469,0.30468 -0.17578,0.42187 -0.11719,0.10547 -0.24609,0.16406 -0.42188,0.16406 -0.16406,0 -0.29296,-0.0586 -0.41015,-0.16406 -0.11719,-0.11719 -0.17578,-0.25781 -0.17578,-0.42187 0,-0.16407 0.0586,-0.30469 0.17578,-0.42188 0.11719,-0.11719 0.24609,-0.16406 0.41015,-0.16406 z m 0.10547,2.30859 -1.52343,5.25 c -0.26954,0.9375 -0.64454,1.61719 -1.11329,2.02735 -0.46875,0.42187 -0.98437,0.62109 -1.52343,0.62109 -0.2461,0 -0.44532,-0.0586 -0.5625,-0.16406 -0.12891,-0.11719 -0.1875,-0.25782 -0.1875,-0.41016 0,-0.11719 0.0469,-0.22266 0.14062,-0.32812 0.0937,-0.082 0.21094,-0.12891 0.33985,-0.12891 0.10546,0 0.19921,0.0352 0.28125,0.10547 0.082,0.0586 0.11718,0.14062 0.11718,0.21094 0,0.0937 -0.0469,0.1875 -0.15234,0.25781 -0.0469,0.0351 -0.082,0.0703 -0.082,0.10547 l 0.0117,0.0351 c 0.0117,0.0117 0.0351,0.0234 0.0586,0.0352 0.0234,0.0117 0.0469,0.0117 0.10547,0.0117 0.31641,0 0.58594,-0.10547 0.80859,-0.30469 0.23438,-0.19922 0.42188,-0.59766 0.59766,-1.20703 l 1.32422,-4.5 c 0.11719,-0.43359 0.1875,-0.69141 0.1875,-0.73828 0,-0.0937 -0.0469,-0.17578 -0.12891,-0.2461 -0.082,-0.082 -0.1875,-0.11718 -0.3164,-0.11718 -0.0586,0 -0.10547,0 -0.17579,0.0117 -0.0469,0.0117 -0.11718,0.0234 -0.22265,0.0469 v -0.21094 z m 3.14649,-2.32031 c 0.16406,0 0.30469,0.0586 0.41015,0.16406 0.11719,0.11719 0.1875,0.25781 0.1875,0.42188 0,0.15234 -0.0703,0.30468 -0.1875,0.41015 -0.10546,0.11719 -0.24609,0.17578 -0.41015,0.17578 -0.16406,0 -0.29297,-0.0586 -0.41016,-0.17578 -0.11719,-0.10547 -0.17578,-0.25781 -0.17578,-0.41015 0,-0.16407 0.0586,-0.30469 0.17578,-0.42188 0.10547,-0.10547 0.2461,-0.16406 0.41016,-0.16406 z m 0.082,2.32031 -1.17188,4.11328 c -0.0703,0.26953 -0.10546,0.4336 -0.10546,0.50391 0,0.0586 0.0117,0.10547 0.0469,0.15234 0.0352,0.0352 0.082,0.0469 0.12891,0.0469 0.0586,0 0.14062,-0.0234 0.22265,-0.082 0.21094,-0.1875 0.44532,-0.4336 0.66797,-0.76172 l 0.21094,0.14062 c -0.26953,0.39844 -0.58594,0.75 -0.9375,1.03125 -0.26953,0.19922 -0.51563,0.30469 -0.77344,0.30469 -0.15234,0 -0.28125,-0.0469 -0.38672,-0.14062 -0.10547,-0.0937 -0.15234,-0.21094 -0.15234,-0.36329 0,-0.14062 0.0469,-0.375 0.14062,-0.71484 l 0.77344,-2.625 c 0.11719,-0.43359 0.17578,-0.70312 0.17578,-0.82031 0,-0.082 -0.0234,-0.15235 -0.082,-0.19922 -0.0586,-0.0703 -0.14062,-0.0937 -0.24609,-0.0937 -0.0937,0 -0.26953,0.0234 -0.53906,0.0586 v -0.22265 z m -307.760745,-157.89844 -0.597656,2.4961 h -0.210938 c 0.03516,-0.29297 0.04687,-0.50391 0.04687,-0.65625 0,-0.375 -0.175781,-0.71485 -0.503906,-1.01953 -0.339844,-0.28125 -0.808594,-0.4336 -1.394531,-0.4336 -1.21875,0 -2.203125,0.57422 -2.976563,1.71094 -0.621094,0.90234 -0.925781,1.91016 -0.925781,3.02344 0,0.73828 0.199219,1.39453 0.5625,1.93359 0.386719,0.52735 0.972656,0.79688 1.757812,0.79688 0.199219,0 0.386719,-0.0234 0.550782,-0.0469 0.175781,-0.0352 0.445312,-0.11719 0.785156,-0.23437 l 0.585937,-2.03907 c 0.08203,-0.29296 0.128907,-0.51562 0.128907,-0.6914 0,-0.12891 -0.05859,-0.23438 -0.152344,-0.30469 -0.175781,-0.11719 -0.433594,-0.1875 -0.796875,-0.1875 h -0.164063 l 0.05859,-0.22266 h 3.304688 l -0.05859,0.22266 c -0.292969,0.0117 -0.515625,0.0586 -0.65625,0.11719 -0.128906,0.0703 -0.257813,0.17578 -0.351563,0.33984 -0.07031,0.10547 -0.175781,0.41016 -0.316406,0.91406 l -0.597656,2.01563 c -0.527344,0.23437 -0.949219,0.38672 -1.289063,0.45703 -0.328125,0.082 -0.667968,0.11719 -1.03125,0.11719 -0.84375,0 -1.511718,-0.15235 -2.039062,-0.48047 -0.515625,-0.30469 -0.902344,-0.72656 -1.160156,-1.24219 -0.234375,-0.51562 -0.363282,-1.03125 -0.363282,-1.53515 0,-0.70313 0.140625,-1.34766 0.445313,-1.96875 0.28125,-0.60938 0.644531,-1.13672 1.078125,-1.57032 0.433594,-0.42187 0.902344,-0.76172 1.40625,-1.00781 0.691406,-0.33984 1.429687,-0.50391 2.203125,-0.50391 0.5625,0 1.078125,0.082 1.535156,0.26954 0.175781,0.0703 0.316406,0.11718 0.398438,0.11718 0.09375,0 0.175781,-0.0234 0.246093,-0.0703 0.07031,-0.0469 0.164063,-0.15234 0.269532,-0.31641 z m 11.399414,5.31446 c 0.164062,0 0.304687,0.0586 0.410156,0.16406 0.117188,0.11719 0.1875,0.25781 0.1875,0.42188 0,0.15234 -0.07031,0.30468 -0.1875,0.41015 -0.105469,0.11719 -0.246094,0.17578 -0.410156,0.17578 -0.164063,0 -0.292969,-0.0586 -0.410156,-0.17578 -0.117188,-0.10547 -0.175782,-0.25781 -0.175782,-0.41015 0,-0.16407 0.05859,-0.30469 0.175782,-0.42188 0.105468,-0.10547 0.246093,-0.16406 0.410156,-0.16406 z m 0.08203,2.32031 -1.171875,4.11328 c -0.07031,0.26953 -0.105469,0.4336 -0.105469,0.50391 0,0.0586 0.01172,0.10547 0.04687,0.15234 0.03516,0.0352 0.08203,0.0469 0.128907,0.0469 0.05859,0 0.140625,-0.0234 0.222656,-0.082 0.210937,-0.1875 0.445312,-0.4336 0.667969,-0.76172 l 0.210937,0.14062 c -0.269531,0.39844 -0.585937,0.75 -0.9375,1.03125 -0.269531,0.19922 -0.515625,0.30469 -0.773437,0.30469 -0.152344,0 -0.28125,-0.0469 -0.386719,-0.14063 -0.105469,-0.0937 -0.152344,-0.21093 -0.152344,-0.36328 0,-0.14062 0.04687,-0.375 0.140625,-0.71484 l 0.773438,-2.625 c 0.117187,-0.43359 0.175781,-0.70313 0.175781,-0.82031 0,-0.082 -0.02344,-0.15235 -0.08203,-0.19922 -0.05859,-0.0703 -0.140625,-0.0937 -0.246094,-0.0937 -0.09375,0 -0.269531,0.0234 -0.539063,0.0586 v -0.22265 z m 3.290039,-2.30859 c 0.175782,0 0.304688,0.0469 0.421875,0.16406 0.128907,0.11719 0.175782,0.25781 0.175782,0.42187 0,0.16407 -0.04687,0.30469 -0.175782,0.42188 -0.117187,0.10547 -0.246093,0.16406 -0.421875,0.16406 -0.164062,0 -0.292968,-0.0586 -0.410156,-0.16406 -0.117187,-0.11719 -0.175781,-0.25781 -0.175781,-0.42188 0,-0.16406 0.05859,-0.30468 0.175781,-0.42187 0.117188,-0.11719 0.246094,-0.16406 0.410156,-0.16406 z m 0.105469,2.30859 -1.523437,5.25 c -0.269532,0.9375 -0.644532,1.61719 -1.113282,2.02734 -0.46875,0.42188 -0.984375,0.6211 -1.523437,0.6211 -0.246094,0 -0.445313,-0.0586 -0.5625,-0.16406 -0.128906,-0.11719 -0.1875,-0.25782 -0.1875,-0.41016 0,-0.11719 0.04687,-0.22266 0.140625,-0.32813 0.09375,-0.082 0.210937,-0.1289 0.339844,-0.1289 0.105468,0 0.199218,0.0351 0.28125,0.10547 0.08203,0.0586 0.117187,0.14062 0.117187,0.21093 0,0.0937 -0.04687,0.1875 -0.152344,0.25782 -0.04687,0.0351 -0.08203,0.0703 -0.08203,0.10547 l 0.01172,0.0351 c 0.01172,0.0117 0.03516,0.0234 0.05859,0.0352 0.02344,0.0117 0.04687,0.0117 0.105468,0.0117 0.316407,0 0.585938,-0.10547 0.808594,-0.30469 0.234375,-0.19922 0.421875,-0.59766 0.597656,-1.20703 l 1.324219,-4.5 c 0.117188,-0.4336 0.1875,-0.69141 0.1875,-0.73828 0,-0.0937 -0.04687,-0.17578 -0.128906,-0.2461 -0.08203,-0.082 -0.1875,-0.11718 -0.316406,-0.11718 -0.05859,0 -0.105469,0 -0.175782,0.0117 -0.04687,0.0117 -0.117187,0.0234 -0.222656,0.0469 v -0.21094 z m 88.892578,98.56934 -2.015625,6.91406 c -0.105469,0.375 -0.164062,0.62109 -0.164062,0.73828 0,0.0469 0.02344,0.082 0.05859,0.11719 0.02344,0.0234 0.05859,0.0469 0.09375,0.0469 0.04687,0 0.105469,-0.0234 0.175782,-0.0703 0.140625,-0.0937 0.363281,-0.33984 0.679687,-0.71484 l 0.199219,0.1289 c -0.292969,0.38672 -0.574219,0.70313 -0.855469,0.94922 -0.28125,0.2461 -0.5625,0.36328 -0.808594,0.36328 -0.140625,0 -0.246093,-0.0469 -0.328125,-0.14062 -0.08203,-0.0937 -0.128906,-0.22266 -0.128906,-0.39844 0,-0.22266 0.05859,-0.52734 0.175781,-0.90234 l 0.234375,-0.72657 c -0.574218,0.87891 -1.089843,1.48829 -1.546875,1.82813 -0.328125,0.22266 -0.632812,0.33984 -0.925781,0.33984 -0.292969,0 -0.550781,-0.1289 -0.773437,-0.39843 -0.222657,-0.25782 -0.339844,-0.6211 -0.339844,-1.07813 0,-0.57422 0.199219,-1.19531 0.574219,-1.85156 0.351562,-0.66797 0.84375,-1.20703 1.464843,-1.61719 0.46875,-0.32812 0.914063,-0.50391 1.3125,-0.50391 0.222657,0 0.398438,0.0469 0.550782,0.14063 0.164062,0.082 0.304687,0.22266 0.445312,0.41016 l 0.574219,-2.03907 c 0.04687,-0.14062 0.08203,-0.24609 0.117187,-0.32812 0.04687,-0.16406 0.07031,-0.29297 0.07031,-0.39844 0,-0.0703 -0.03516,-0.14062 -0.09375,-0.19922 -0.08203,-0.0703 -0.1875,-0.10547 -0.316406,-0.10547 -0.08203,0 -0.246094,0.0117 -0.445313,0.0352 v -0.21094 z m -2.167969,4.16015 c 0,-0.25781 -0.08203,-0.44531 -0.222656,-0.60937 -0.140625,-0.15235 -0.316406,-0.22266 -0.550781,-0.22266 -0.492188,0 -1.007813,0.41016 -1.535156,1.20703 -0.539063,0.82032 -0.808594,1.60547 -0.808594,2.34375 0,0.29297 0.08203,0.51563 0.199219,0.66797 0.128906,0.16406 0.28125,0.23438 0.46875,0.23438 0.410156,0 0.914062,-0.44532 1.523437,-1.32422 0.609375,-0.86719 0.925781,-1.64063 0.925781,-2.29688 z m 9.981446,-1.59375 c 0.28125,-0.11718 0.527343,-0.28125 0.703125,-0.5039 0.140625,-0.15235 0.222656,-0.29297 0.222656,-0.4336 0,-0.082 -0.01172,-0.14062 -0.04687,-0.19922 -0.01172,-0.0351 -0.07031,-0.0937 -0.164063,-0.1875 -0.08203,-0.0937 -0.140625,-0.15234 -0.152343,-0.19921 -0.02344,-0.0586 -0.03516,-0.14063 -0.03516,-0.22266 0,-0.16406 0.05859,-0.31641 0.164063,-0.43359 0.117187,-0.11719 0.257812,-0.17579 0.410156,-0.17579 0.164063,0 0.304688,0.0586 0.433594,0.1875 0.117187,0.12891 0.175781,0.29297 0.175781,0.48047 0,0.35157 -0.128906,0.71485 -0.410156,1.05469 -0.269531,0.36328 -0.667969,0.63281 -1.183594,0.83203 z m 8.320312,2.88867 c 0.164063,0 0.304688,0.0586 0.410156,0.16407 0.117188,0.11718 0.1875,0.25781 0.1875,0.42187 0,0.15235 -0.07031,0.30469 -0.1875,0.41016 -0.105468,0.11719 -0.246093,0.17578 -0.410156,0.17578 -0.164062,0 -0.292969,-0.0586 -0.410156,-0.17578 -0.117188,-0.10547 -0.175781,-0.25781 -0.175781,-0.41016 0,-0.16406 0.05859,-0.30469 0.175781,-0.42187 0.105469,-0.10547 0.246094,-0.16407 0.410156,-0.16407 z m 0.08203,2.32032 -1.171875,4.11328 c -0.07031,0.26953 -0.105468,0.43359 -0.105468,0.5039 0,0.0586 0.01172,0.10547 0.04687,0.15235 0.03516,0.0351 0.08203,0.0469 0.128906,0.0469 0.05859,0 0.140625,-0.0234 0.222656,-0.082 0.210938,-0.1875 0.445313,-0.43359 0.667969,-0.76172 l 0.210937,0.14063 c -0.269531,0.39844 -0.585937,0.75 -0.9375,1.03125 -0.269531,0.19922 -0.515625,0.30469 -0.773437,0.30469 -0.152344,0 -0.28125,-0.0469 -0.386719,-0.14063 -0.105469,-0.0937 -0.152344,-0.21094 -0.152344,-0.36328 0,-0.14063 0.04687,-0.375 0.140625,-0.71484 l 0.773438,-2.625 c 0.117187,-0.4336 0.175781,-0.70313 0.175781,-0.82032 0,-0.082 -0.02344,-0.15234 -0.08203,-0.19922 -0.05859,-0.0703 -0.140625,-0.0937 -0.246094,-0.0937 -0.09375,0 -0.269531,0.0234 -0.539062,0.0586 v -0.22266 z m 3.360352,-2.3086 c 0.175781,0 0.304688,0.0469 0.421875,0.16407 0.128906,0.11718 0.175781,0.25781 0.175781,0.42187 0,0.16406 -0.04687,0.30469 -0.175781,0.42188 -0.117187,0.10546 -0.246094,0.16406 -0.421875,0.16406 -0.164062,0 -0.292969,-0.0586 -0.410156,-0.16406 -0.117188,-0.11719 -0.175781,-0.25782 -0.175781,-0.42188 0,-0.16406 0.05859,-0.30469 0.175781,-0.42187 0.117187,-0.11719 0.246094,-0.16407 0.410156,-0.16407 z m 0.105469,2.3086 -1.523438,5.25 c -0.269531,0.9375 -0.644531,1.61718 -1.113281,2.02734 -0.46875,0.42188 -0.984375,0.62109 -1.523437,0.62109 -0.246094,0 -0.445313,-0.0586 -0.5625,-0.16406 -0.128907,-0.11719 -0.1875,-0.25781 -0.1875,-0.41015 0,-0.11719 0.04687,-0.22266 0.140625,-0.32813 0.09375,-0.082 0.210937,-0.12891 0.339843,-0.12891 0.105469,0 0.199219,0.0352 0.28125,0.10547 0.08203,0.0586 0.117188,0.14063 0.117188,0.21094 0,0.0937 -0.04687,0.1875 -0.152344,0.25781 -0.04687,0.0352 -0.08203,0.0703 -0.08203,0.10547 l 0.01172,0.0352 c 0.01172,0.0117 0.03516,0.0234 0.05859,0.0351 0.02344,0.0117 0.04687,0.0117 0.105469,0.0117 0.316406,0 0.585938,-0.10547 0.808594,-0.30468 0.234375,-0.19922 0.421875,-0.59766 0.597656,-1.20704 l 1.324219,-4.5 c 0.117187,-0.43359 0.1875,-0.6914 0.1875,-0.73828 0,-0.0937 -0.04687,-0.17578 -0.128906,-0.24609 -0.08203,-0.082 -0.1875,-0.11719 -0.316407,-0.11719 -0.05859,0 -0.105468,0 -0.175781,0.0117 -0.04687,0.0117 -0.117187,0.0234 -0.222656,0.0469 v -0.21094 z m 0,0"
       style="fill:#231f20;fill-opacity:1;fill-rule:nonzero;stroke:none"
       aria-label="d&#10;ij&#10;o&#10;d&#10;ij&#10;i&#10;j&#10;j’&#10;i’&#10;G&#10;ji&#10;G&#10;ij&#10;d’&#10;ij"
       transform="matrix(1.3333333,0,0,1.3333333,155.82667,411.61453)" />
    <path
       id="path26"
       d="m 3196.94,1570.33 761.04,-115.2"
       style="fill:none;stroke:#231f20;stroke-width:28.3465;stroke-linecap:butt;stroke-linejoin:miter;stroke-miterlimit:2.6131;stroke-dasharray:56.693, 28.3465;stroke-dashoffset:0;stroke-opacity:1"
       transform="matrix(0.13333333,0,0,-0.13333333,0,448)" />
    <path
       id="path27"
       d="m 3098.3,1585.45 208.8,54 c -36.72,-51.84 -45.36,-107.28 -25.92,-167.76 l -182.88,113.76"
       style="fill:#231f20;fill-opacity:1;fill-rule:evenodd;stroke:none"
       transform="matrix(0.13333333,0,0,-0.13333333,0,448)" />
    <path
       id="path28"
       d="M 2489.18,151.93 3881.66,1380.25"
       style="fill:none;stroke:#231f20;stroke-width:28.3465;stroke-linecap:butt;stroke-linejoin:miter;stroke-miterlimit:2.6131;stroke-dasharray:none;stroke-opacity:1"
       transform="matrix(0.13333333,0,0,-0.13333333,0,448)" />
    <path
       id="path29"
       d="m 3956.54,1445.77 -204.48,-66.96 c 58.32,-23.76 95.76,-66.24 112.32,-126.72 l 92.16,193.68"
       style="fill:#231f20;fill-opacity:1;fill-rule:evenodd;stroke:none"
       transform="matrix(0.13333333,0,0,-0.13333333,0,448)" />
    <path
       id="path30"
       d="M 201.02,3073.69 3957.98,1455.13"
       style="fill:none;stroke:#231f20;stroke-width:14.1704;stroke-linecap:butt;stroke-linejoin:miter;stroke-miterlimit:2.6131;stroke-dasharray:28.3408, 14.1704;stroke-dashoffset:0;stroke-opacity:1"
       transform="matrix(0.13333333,0,0,-0.13333333,0,448)" />
  </g>
</svg>
