<?xml version="1.0" encoding="UTF-8" standalone="no"?>
<!-- Created with Inkscape (http://www.inkscape.org/) -->

<svg
   version="1.1"
   id="svg1"
   width="429.33334"
   height="722.66669"
   viewBox="0 0 429.33334 722.66669"
   sodipodi:docname="ttmheatbath.svg"
   inkscape:version="1.3 (1:1.3+202307231459+0e150ed6c4)"
   xmlns:inkscape="http://www.inkscape.org/namespaces/inkscape"
   xmlns:sodipodi="http://sodipodi.sourceforge.net/DTD/sodipodi-0.dtd"
   xmlns="http://www.w3.org/2000/svg"
   xmlns:svg="http://www.w3.org/2000/svg">
  <defs
     id="defs1" />
  <sodipodi:namedview
     id="namedview1"
     pagecolor="#ffffff"
     bordercolor="#000000"
     borderopacity="0.25"
     inkscape:showpageshadow="2"
     inkscape:pageopacity="0.0"
     inkscape:pagecheckerboard="0"
     inkscape:deskcolor="#d1d1d1"
     inkscape:zoom="0.69741696"
     inkscape:cx="215.07937"
     inkscape:cy="361.33334"
     inkscape:window-width="1296"
     inkscape:window-height="704"
     inkscape:window-x="0"
     inkscape:window-y="0"
     inkscape:window-maximized="1"
     inkscape:current-layer="g1">
    <inkscape:page
       x="0"
       y="0"
       inkscape:label="1"
       id="page1"
       width="429.33334"
       height="722.66669"
       margin="0"
       bleed="0" />
  </sodipodi:namedview>
  <g
     id="g1"
     inkscape:groupmode="layer"
     inkscape:label="1">
    <path
       id="path1"
       d="M 0,0 H 3220 V 5420 H 0 Z"
       style="fill:#ffffff;fill-opacity:1;fill-rule:nonzero;stroke:none"
       transform="matrix(0.13333333,0,0,-0.13333333,0,722.66667)" />
    <path
       id="path2"
       d="M 1205,4215 H 2405 V 5415 H 1205 Z"
       style="fill:#ffffff;fill-opacity:1;fill-rule:nonzero;stroke:#000000;stroke-width:10;stroke-linecap:butt;stroke-linejoin:miter;stroke-miterlimit:10;stroke-dasharray:none;stroke-opacity:1"
       transform="matrix(0.13333333,0,0,-0.13333333,0,722.66667)" />
    <path
       id="path3"
       d="M 405,15 H 3205 V 1815 H 405 Z"
       style="fill:#3333ff;fill-opacity:1;fill-rule:nonzero;stroke:none"
       transform="matrix(0.13333333,0,0,-0.13333333,0,722.66667)" />
    <path
       id="path4"
       d="m 405,2415 h 300 c 66.668,0 133.332,0 200,0 h 236.3"
       style="fill:none;stroke:#000000;stroke-width:10;stroke-linecap:butt;stroke-linejoin:miter;stroke-miterlimit:10;stroke-dasharray:none;stroke-opacity:1"
       transform="matrix(0.13333333,0,0,-0.13333333,0,722.66667)" />
    <path
       id="path5"
       d="m 1193.8,2415 -70,-35 17.5,35 -17.5,35 70,-35"
       style="fill:#000000;fill-opacity:1;fill-rule:nonzero;stroke:none"
       transform="matrix(0.13333333,0,0,-0.13333333,0,722.66667)" />
    <path
       id="path6"
       d="m 1193.8,2415 -70,-35 17.5,35 -17.5,35 z"
       style="fill:none;stroke:#000000;stroke-width:10;stroke-linecap:butt;stroke-linejoin:miter;stroke-miterlimit:10;stroke-dasharray:none;stroke-opacity:1"
       transform="matrix(0.13333333,0,0,-0.13333333,0,722.66667)" />
    <path
       id="path7"
       d="M 1205,1815 H 2405 V 3015 H 1205 Z"
       style="fill:#ffffff;fill-opacity:1;fill-rule:nonzero;stroke:#000000;stroke-width:10;stroke-linecap:butt;stroke-linejoin:miter;stroke-miterlimit:10;stroke-dasharray:none;stroke-opacity:1"
       transform="matrix(0.13333333,0,0,-0.13333333,0,722.66667)" />
    <path
       id="path8"
       d="M 2005,4215 V 3078.7"
       style="fill:none;stroke:#000000;stroke-width:10;stroke-linecap:butt;stroke-linejoin:miter;stroke-miterlimit:10;stroke-dasharray:none;stroke-opacity:1"
       transform="matrix(0.13333333,0,0,-0.13333333,0,722.66667)" />
    <path
       id="path9"
       d="m 2005,3026.2 -35,70 35,-17.5 35,17.5 -35,-70"
       style="fill:#000000;fill-opacity:1;fill-rule:nonzero;stroke:none"
       transform="matrix(0.13333333,0,0,-0.13333333,0,722.66667)" />
    <path
       id="path10"
       d="m 2005,3026.2 -35,70 35,-17.5 35,17.5 z"
       style="fill:none;stroke:#000000;stroke-width:10;stroke-linecap:butt;stroke-linejoin:miter;stroke-miterlimit:10;stroke-dasharray:none;stroke-opacity:1"
       transform="matrix(0.13333333,0,0,-0.13333333,0,722.66667)" />
    <path
       id="path11"
       d="M 1605,3078.7 V 4151.3"
       style="fill:none;stroke:#000000;stroke-width:10;stroke-linecap:butt;stroke-linejoin:miter;stroke-miterlimit:10;stroke-dasharray:none;stroke-opacity:1"
       transform="matrix(0.13333333,0,0,-0.13333333,0,722.66667)" />
    <path
       id="path12"
       d="m 1605,3026.2 -35,70 35,-17.5 35,17.5 -35,-70"
       style="fill:#000000;fill-opacity:1;fill-rule:nonzero;stroke:none"
       transform="matrix(0.13333333,0,0,-0.13333333,0,722.66667)" />
    <path
       id="path13"
       d="m 1605,3026.2 -35,70 35,-17.5 35,17.5 z"
       style="fill:none;stroke:#000000;stroke-width:10;stroke-linecap:butt;stroke-linejoin:miter;stroke-miterlimit:10;stroke-dasharray:none;stroke-opacity:1"
       transform="matrix(0.13333333,0,0,-0.13333333,0,722.66667)" />
    <path
       id="path14"
       d="m 1605,4203.8 35,-70 -35,17.5 -35,-17.5 35,70"
       style="fill:#000000;fill-opacity:1;fill-rule:nonzero;stroke:none"
       transform="matrix(0.13333333,0,0,-0.13333333,0,722.66667)" />
    <path
       id="path15"
       d="m 1605,4203.8 35,-70 -35,17.5 -35,-17.5 z"
       style="fill:none;stroke:#000000;stroke-width:10;stroke-linecap:butt;stroke-linejoin:miter;stroke-miterlimit:10;stroke-dasharray:none;stroke-opacity:1"
       transform="matrix(0.13333333,0,0,-0.13333333,0,722.66667)" />
    <path
       id="path16"
       d="m 1644.65,4796.62 3.22,-0.68 -11.33,-35.94 H 1534 v 3.61 h 4.98 c 5.6,0 9.61,1.83 12.02,5.47 1.36,2.08 2.05,6.9 2.05,14.46 v 85.44 c 0,8.27 -0.91,13.45 -2.74,15.53 -2.54,2.87 -6.31,4.3 -11.33,4.3 H 1534 v 3.61 h 59.96 v -3.61 c -7.03,0.07 -11.96,-0.59 -14.79,-1.95 -2.83,-1.37 -4.77,-3.1 -5.81,-5.18 -1.04,-2.08 -1.56,-7.06 -1.56,-14.94 v -83.2 c 0,-5.41 0.52,-9.12 1.56,-11.14 0.78,-1.36 1.98,-2.37 3.61,-3.02 1.63,-0.66 6.71,-0.98 15.24,-0.98 h 9.67 c 10.15,0 17.28,0.75 21.38,2.24 4.1,1.5 7.85,4.16 11.23,7.97 3.39,3.8 6.77,9.81 10.16,18.01 z m 64.31,-23.73 c -9.17,-7.1 -14.94,-11.2 -17.28,-12.3 -3.52,-1.63 -7.26,-2.45 -11.23,-2.45 -6.18,0 -11.28,2.12 -15.28,6.35 -4.01,4.23 -6.01,9.8 -6.01,16.7 0,4.36 0.98,8.14 2.93,11.33 2.67,4.43 7.31,8.59 13.92,12.5 6.6,3.91 17.59,8.66 32.95,14.26 v 3.51 c 0,8.92 -1.41,15.04 -4.24,18.36 -2.83,3.32 -6.95,4.98 -12.36,4.98 -4.1,0 -7.35,-1.1 -9.76,-3.32 -2.47,-2.21 -3.71,-4.75 -3.71,-7.61 l 0.19,-5.67 c 0,-2.99 -0.76,-5.3 -2.29,-6.93 -1.53,-1.63 -3.54,-2.44 -6.01,-2.44 -2.41,0 -4.38,0.84 -5.9,2.54 -1.54,1.69 -2.3,4 -2.3,6.93 0,5.6 2.86,10.74 8.59,15.43 5.73,4.69 13.77,7.03 24.12,7.03 7.94,0 14.46,-1.34 19.53,-4 3.84,-2.02 6.68,-5.18 8.5,-9.48 1.17,-2.8 1.76,-8.52 1.76,-17.18 v -30.38 c 0,-8.52 0.16,-13.75 0.49,-15.67 0.32,-1.92 0.86,-3.2 1.61,-3.86 0.75,-0.65 1.61,-0.97 2.59,-0.97 1.04,0 1.95,0.22 2.73,0.68 1.37,0.85 4,3.22 7.91,7.13 v -5.47 c -7.29,-9.76 -14.26,-14.65 -20.9,-14.65 -3.19,0 -5.73,1.11 -7.62,3.32 -1.88,2.22 -2.86,5.99 -2.93,11.33 z m 0,6.35 v 34.08 c -9.83,-3.91 -16.17,-6.67 -19.04,-8.3 -5.14,-2.86 -8.82,-5.86 -11.03,-8.98 -2.22,-3.13 -3.32,-6.55 -3.32,-10.26 0,-4.69 1.39,-8.58 4.2,-11.67 2.8,-3.09 6.02,-4.64 9.66,-4.64 4.95,0 11.46,3.26 19.53,9.77 z m 64.05,99.61 v -29.4 h 20.9 v -6.83 h -20.9 v -58.01 c 0,-5.79 0.83,-9.7 2.49,-11.72 1.66,-2.02 3.79,-3.03 6.39,-3.03 2.15,0 4.24,0.67 6.25,2.01 2.02,1.33 3.59,3.3 4.69,5.9 h 3.81 c -2.28,-6.38 -5.5,-11.18 -9.67,-14.4 -4.17,-3.22 -8.46,-4.83 -12.89,-4.83 -2.99,0 -5.92,0.83 -8.79,2.49 -2.86,1.66 -4.98,4.03 -6.34,7.13 -1.37,3.09 -2.06,7.86 -2.06,14.3 v 60.16 h -14.16 v 3.22 c 3.59,1.43 7.25,3.86 10.99,7.28 3.74,3.42 7.08,7.47 10.01,12.15 1.5,2.48 3.58,7 6.25,13.58 z m 55.47,0 v -29.4 h 20.9 v -6.83 h -20.9 v -58.01 c 0,-5.79 0.83,-9.7 2.49,-11.72 1.66,-2.02 3.79,-3.03 6.39,-3.03 2.15,0 4.23,0.67 6.25,2.01 2.02,1.33 3.59,3.3 4.69,5.9 h 3.81 c -2.28,-6.38 -5.5,-11.18 -9.67,-14.4 -4.17,-3.22 -8.46,-4.83 -12.89,-4.83 -3,0 -5.92,0.83 -8.79,2.49 -2.86,1.66 -4.98,4.03 -6.35,7.13 -1.36,3.09 -2.05,7.86 -2.05,14.3 v 60.16 h -14.16 v 3.22 c 3.59,1.43 7.25,3.86 10.99,7.28 3.74,3.42 7.08,7.47 10.01,12.15 1.5,2.48 3.58,7 6.25,13.58 z m 52.24,20.02 c 2.74,0 5.07,-0.96 6.99,-2.88 1.92,-1.92 2.88,-4.25 2.88,-6.99 0,-2.73 -0.96,-5.07 -2.88,-7.03 -1.92,-1.95 -4.25,-2.93 -6.99,-2.93 -2.73,0 -5.08,0.98 -7.03,2.93 -1.95,1.96 -2.93,4.3 -2.93,7.03 0,2.74 0.96,5.07 2.88,6.99 1.92,1.92 4.28,2.88 7.08,2.88 z m 8.11,-46.78 v -71.88 c 0,-5.59 0.4,-9.32 1.22,-11.17 0.81,-1.86 2.02,-3.25 3.61,-4.16 1.6,-0.91 4.51,-1.36 8.74,-1.36 V 4760 h -43.45 v 3.52 c 4.36,0 7.29,0.42 8.78,1.27 1.5,0.84 2.69,2.24 3.57,4.19 0.88,1.96 1.32,5.7 1.32,11.23 v 34.48 c 0,9.7 -0.3,15.98 -0.88,18.85 -0.46,2.08 -1.17,3.53 -2.15,4.34 -0.98,0.82 -2.31,1.22 -4,1.22 -1.83,0 -4.04,-0.49 -6.64,-1.46 l -1.37,3.51 26.95,10.94 z m 100.58,-58.11 c -2.41,-11.78 -7.12,-20.84 -14.16,-27.19 -7.03,-6.35 -14.81,-9.52 -23.34,-9.52 -10.15,0 -19.01,4.26 -26.56,12.79 -7.55,8.53 -11.33,20.05 -11.33,34.57 0,14.06 4.19,25.49 12.55,34.28 8.37,8.79 18.41,13.18 30.13,13.18 8.79,0 16.01,-2.33 21.68,-6.98 5.66,-4.66 8.5,-9.49 8.5,-14.5 0,-2.48 -0.8,-4.48 -2.4,-6.01 -1.59,-1.53 -3.82,-2.3 -6.69,-2.3 -3.84,0 -6.74,1.24 -8.69,3.72 -1.1,1.36 -1.84,3.97 -2.19,7.81 -0.36,3.84 -1.68,6.77 -3.96,8.79 -2.28,1.95 -5.44,2.93 -9.47,2.93 -6.52,0 -11.75,-2.41 -15.73,-7.23 -5.27,-6.38 -7.91,-14.81 -7.91,-25.29 0,-10.68 2.62,-20.1 7.87,-28.27 5.24,-8.17 12.32,-12.26 21.24,-12.26 6.37,0 12.1,2.18 17.18,6.54 3.58,3 7.07,8.43 10.45,16.31 z m 27.82,21.78 c -0.07,-13.28 3.15,-23.7 9.66,-31.25 6.52,-7.55 14.16,-11.33 22.95,-11.33 5.86,0 10.96,1.62 15.29,4.84 4.33,3.22 7.96,8.74 10.89,16.55 l 3.02,-1.95 c -1.36,-8.92 -5.34,-17.04 -11.91,-24.37 -6.58,-7.32 -14.81,-10.98 -24.71,-10.98 -10.74,0 -19.94,4.18 -27.58,12.55 -7.66,8.36 -11.48,19.61 -11.48,33.73 0,15.31 3.92,27.24 11.77,35.8 7.84,8.56 17.69,12.84 29.54,12.84 10.03,0 18.26,-3.31 24.71,-9.91 6.44,-6.61 9.66,-15.45 9.66,-26.52 z m 0,5.67 h 41.4 c -0.32,5.73 -1,9.76 -2.05,12.11 -1.63,3.64 -4.05,6.51 -7.27,8.59 -3.22,2.08 -6.6,3.12 -10.11,3.12 -5.4,0 -10.24,-2.09 -14.5,-6.29 -4.27,-4.2 -6.76,-10.05 -7.47,-17.53"
       style="fill:#000000;fill-opacity:1;fill-rule:nonzero;stroke:none"
       transform="matrix(0.13333333,0,0,-0.13333333,0,722.66667)" />
    <path
       id="path17"
       d="m 1471.8,2485.2 v -52.35 h 29.1 c 7.55,0 12.6,1.14 15.14,3.42 3.38,3 5.27,8.27 5.66,15.82 h 3.61 V 2406 h -3.61 c -0.91,6.44 -1.82,10.57 -2.74,12.4 -1.17,2.28 -3.09,4.07 -5.76,5.37 -2.66,1.3 -6.77,1.95 -12.3,1.95 h -29.1 v -43.65 c 0,-5.86 0.26,-9.42 0.78,-10.69 0.52,-1.27 1.43,-2.28 2.73,-3.03 1.3,-0.75 3.78,-1.12 7.42,-1.12 h 22.47 c 7.48,0 12.92,0.52 16.3,1.56 3.39,1.04 6.64,3.09 9.77,6.15 4.03,4.04 8.17,10.13 12.4,18.26 h 3.91 L 1536.15,2360 H 1434.1 v 3.61 h 4.69 c 3.12,0 6.09,0.75 8.89,2.25 2.08,1.04 3.5,2.6 4.25,4.69 0.74,2.08 1.12,6.34 1.12,12.79 v 86.04 c 0,8.39 -0.85,13.57 -2.54,15.52 -2.35,2.61 -6.25,3.91 -11.72,3.91 h -4.69 v 3.61 h 102.05 l 1.47,-29 h -3.81 c -1.37,6.96 -2.88,11.75 -4.54,14.35 -1.66,2.61 -4.12,4.59 -7.38,5.96 -2.6,0.98 -7.19,1.47 -13.76,1.47 z m 117.24,13.67 v -118.66 c 0,-5.59 0.41,-9.3 1.23,-11.13 0.81,-1.82 2.06,-3.2 3.75,-4.15 1.69,-0.94 4.86,-1.41 9.48,-1.41 V 2360 h -43.85 v 3.52 c 4.1,0 6.9,0.42 8.4,1.27 1.49,0.84 2.66,2.24 3.51,4.19 0.85,1.96 1.27,5.7 1.27,11.23 v 81.25 c 0,10.09 -0.22,16.3 -0.68,18.61 -0.46,2.31 -1.19,3.89 -2.2,4.73 -1.01,0.85 -2.29,1.27 -3.86,1.27 -1.69,0 -3.84,-0.52 -6.44,-1.56 l -1.66,3.42 26.66,10.94 z m 39.75,-83.11 c -0.07,-13.28 3.16,-23.7 9.67,-31.25 6.51,-7.55 14.16,-11.33 22.95,-11.33 5.86,0 10.95,1.62 15.28,4.84 4.33,3.22 7.96,8.74 10.89,16.55 l 3.03,-1.95 c -1.37,-8.92 -5.34,-17.04 -11.92,-24.37 -6.57,-7.32 -14.81,-10.98 -24.71,-10.98 -10.74,0 -19.93,4.18 -27.58,12.55 -7.65,8.36 -11.48,19.61 -11.48,33.73 0,15.31 3.92,27.24 11.77,35.8 7.85,8.56 17.69,12.84 29.54,12.84 10.03,0 18.26,-3.31 24.71,-9.91 6.44,-6.61 9.67,-15.45 9.67,-26.52 z m 0,5.67 h 41.41 c -0.33,5.73 -1.01,9.76 -2.06,12.11 -1.62,3.64 -4.05,6.51 -7.27,8.59 -3.22,2.08 -6.59,3.12 -10.11,3.12 -5.4,0 -10.24,-2.09 -14.5,-6.29 -4.26,-4.2 -6.76,-10.05 -7.47,-17.53 z m 149.69,-27.45 c -2.41,-11.78 -7.13,-20.84 -14.16,-27.19 -7.03,-6.35 -14.82,-9.52 -23.34,-9.52 -10.16,0 -19.02,4.26 -26.57,12.79 -7.55,8.53 -11.32,20.05 -11.32,34.57 0,14.06 4.18,25.49 12.55,34.28 8.36,8.79 18.4,13.18 30.12,13.18 8.79,0 16.02,-2.33 21.68,-6.98 5.67,-4.66 8.5,-9.49 8.5,-14.5 0,-2.48 -0.8,-4.48 -2.39,-6.01 -1.6,-1.53 -3.83,-2.3 -6.69,-2.3 -3.84,0 -6.74,1.24 -8.7,3.72 -1.1,1.36 -1.84,3.97 -2.19,7.81 -0.36,3.84 -1.68,6.77 -3.96,8.79 -2.28,1.95 -5.44,2.93 -9.47,2.93 -6.51,0 -11.75,-2.41 -15.72,-7.23 -5.28,-6.38 -7.91,-14.81 -7.91,-25.29 0,-10.68 2.62,-20.1 7.86,-28.27 5.24,-8.17 12.32,-12.26 21.24,-12.26 6.38,0 12.11,2.18 17.19,6.54 3.58,3 7.06,8.43 10.44,16.31 z m 38.75,84.87 v -29.4 h 20.9 v -6.83 h -20.9 v -58.01 c 0,-5.79 0.83,-9.7 2.49,-11.72 1.66,-2.02 3.79,-3.03 6.39,-3.03 2.15,0 4.23,0.67 6.25,2.01 2.02,1.33 3.59,3.3 4.69,5.9 h 3.81 c -2.28,-6.38 -5.5,-11.18 -9.67,-14.4 -4.17,-3.22 -8.46,-4.83 -12.89,-4.83 -3,0 -5.92,0.83 -8.79,2.49 -2.86,1.66 -4.98,4.03 -6.35,7.13 -1.36,3.09 -2.05,7.86 -2.05,14.3 v 60.16 h -14.16 v 3.22 c 3.59,1.43 7.25,3.86 10.99,7.28 3.74,3.42 7.08,7.47 10.01,12.15 1.5,2.48 3.58,7 6.25,13.58 z m 55.66,-26.76 v -20.12 c 7.49,13.41 15.17,20.12 23.05,20.12 3.58,0 6.54,-1.09 8.88,-3.27 2.35,-2.18 3.52,-4.71 3.52,-7.57 0,-2.54 -0.85,-4.69 -2.54,-6.45 -1.69,-1.75 -3.71,-2.63 -6.05,-2.63 -2.28,0 -4.84,1.12 -7.67,3.37 -2.83,2.25 -4.93,3.37 -6.3,3.37 -1.17,0 -2.44,-0.66 -3.81,-1.96 -2.93,-2.66 -5.95,-7.06 -9.08,-13.18 v -42.87 c 0,-4.95 0.62,-8.69 1.86,-11.23 0.84,-1.76 2.34,-3.22 4.49,-4.4 2.15,-1.17 5.24,-1.75 9.28,-1.75 V 2360 h -45.81 v 3.52 c 4.56,0 7.95,0.71 10.16,2.14 1.63,1.05 2.77,2.71 3.42,4.98 0.32,1.11 0.49,4.27 0.49,9.48 v 34.67 c 0,10.41 -0.21,16.61 -0.64,18.6 -0.42,1.99 -1.2,3.43 -2.34,4.34 -1.14,0.91 -2.56,1.37 -4.25,1.37 -2.02,0 -4.3,-0.49 -6.84,-1.46 l -0.97,3.51 27.05,10.94 z m 84.14,0 c 13.54,0 24.42,-5.14 32.62,-15.43 6.96,-8.79 10.45,-18.88 10.45,-30.27 0,-8.01 -1.92,-16.12 -5.76,-24.32 -3.84,-8.2 -9.13,-14.39 -15.87,-18.55 -6.74,-4.17 -14.24,-6.25 -22.51,-6.25 -13.48,0 -24.19,5.37 -32.13,16.11 -6.71,9.05 -10.06,19.21 -10.06,30.47 0,8.2 2.03,16.36 6.11,24.46 4.06,8.11 9.42,14.1 16.06,17.97 6.64,3.87 13.67,5.81 21.09,5.81 z m -3.03,-6.35 c -3.45,0 -6.91,-1.02 -10.39,-3.07 -3.49,-2.05 -6.31,-5.65 -8.45,-10.79 -2.15,-5.15 -3.23,-11.75 -3.23,-19.83 0,-13.02 2.59,-24.25 7.77,-33.69 5.18,-9.44 11.99,-14.16 20.46,-14.16 6.31,0 11.52,2.6 15.62,7.81 4.1,5.21 6.15,14.16 6.15,26.86 0,15.88 -3.41,28.38 -10.25,37.5 -4.62,6.25 -10.52,9.37 -17.68,9.37 z m 85.36,-12.6 c 10.48,12.63 20.47,18.95 29.98,18.95 4.88,0 9.08,-1.22 12.59,-3.66 3.52,-2.44 6.32,-6.47 8.4,-12.06 1.44,-3.91 2.15,-9.9 2.15,-17.97 v -38.19 c 0,-5.66 0.46,-9.5 1.37,-11.52 0.71,-1.63 1.87,-2.9 3.47,-3.81 1.59,-0.91 4.54,-1.36 8.83,-1.36 V 2360 h -44.24 v 3.52 h 1.86 c 4.17,0 7.08,0.63 8.74,1.9 1.66,1.27 2.81,3.14 3.47,5.62 0.26,0.97 0.39,4.03 0.39,9.17 v 36.63 c 0,8.13 -1.06,14.04 -3.17,17.72 -2.12,3.68 -5.69,5.52 -10.7,5.52 -7.75,0 -15.46,-4.23 -23.14,-12.7 v -47.17 c 0,-6.05 0.35,-9.79 1.07,-11.23 0.91,-1.88 2.16,-3.27 3.76,-4.14 1.6,-0.88 4.83,-1.32 9.72,-1.32 V 2360 h -44.24 v 3.52 h 1.95 c 4.56,0 7.63,1.15 9.23,3.46 1.6,2.31 2.39,6.72 2.39,13.23 v 33.21 c 0,10.74 -0.24,17.28 -0.73,19.63 -0.49,2.34 -1.24,3.93 -2.24,4.78 -1.02,0.85 -2.37,1.27 -4.06,1.27 -1.82,0 -4,-0.49 -6.54,-1.46 l -1.47,3.51 26.96,10.94 h 4.2 z m 131.73,18.95 v -30.47 h -3.22 c -2.47,9.57 -5.65,16.08 -9.52,19.53 -3.87,3.45 -8.81,5.18 -14.8,5.18 -4.55,0 -8.23,-1.2 -11.03,-3.62 -2.8,-2.41 -4.2,-5.07 -4.2,-8 0,-3.65 1.04,-6.77 3.13,-9.38 2.01,-2.67 6.12,-5.5 12.3,-8.49 l 14.26,-6.94 c 13.21,-6.44 19.82,-14.94 19.82,-25.49 0,-8.13 -3.07,-14.69 -9.22,-19.67 -6.16,-4.98 -13.04,-7.47 -20.66,-7.47 -5.47,0 -11.72,0.97 -18.75,2.93 -2.15,0.65 -3.91,0.97 -5.27,0.97 -1.5,0 -2.67,-0.85 -3.52,-2.54 h -3.22 v 31.94 h 3.22 c 1.82,-9.12 5.3,-15.99 10.45,-20.61 5.14,-4.62 10.91,-6.93 17.28,-6.93 4.5,0 8.16,1.32 10.99,3.95 2.83,2.64 4.25,5.81 4.25,9.52 0,4.5 -1.58,8.27 -4.74,11.33 -3.16,3.06 -9.45,6.94 -18.89,11.62 -9.45,4.69 -15.63,8.92 -18.56,12.7 -2.93,3.71 -4.39,8.4 -4.39,14.06 0,7.36 2.52,13.51 7.57,18.46 5.04,4.95 11.57,7.42 19.58,7.42 3.51,0 7.78,-0.75 12.79,-2.25 3.32,-0.97 5.53,-1.46 6.64,-1.46 1.04,0 1.85,0.23 2.44,0.68 0.59,0.46 1.27,1.47 2.05,3.03 h 3.22"
       style="fill:#000000;fill-opacity:1;fill-rule:nonzero;stroke:none"
       transform="matrix(0.13333333,0,0,-0.13333333,0,722.66667)" />
    <path
       id="path18"
       d="m 1441.11,930.996 h 61.53 v 37.891 c 0,6.769 -0.43,11.23 -1.27,13.379 -0.66,1.629 -2.02,3.027 -4.1,4.199 -2.81,1.562 -5.77,2.344 -8.89,2.344 h -4.69 v 3.613 h 56.64 v -3.613 h -4.69 c -3.12,0 -6.08,-0.75 -8.88,-2.246 -2.08,-1.043 -3.5,-2.622 -4.25,-4.735 -0.75,-2.117 -1.12,-6.43 -1.12,-12.941 v -85.449 c 0,-6.708 0.42,-11.133 1.27,-13.282 0.65,-1.629 1.98,-3.027 4,-4.199 2.86,-1.562 5.86,-2.344 8.98,-2.344 h 4.69 V 860 h -56.64 v 3.613 h 4.69 c 5.4,0 9.34,1.594 11.82,4.785 1.62,2.082 2.44,7.098 2.44,15.04 v 40.332 h -61.53 v -40.332 c 0,-6.708 0.43,-11.133 1.27,-13.282 0.66,-1.629 2.02,-3.027 4.1,-4.199 2.81,-1.562 5.77,-2.344 8.89,-2.344 h 4.79 V 860 h -56.74 v 3.613 h 4.69 c 5.46,0 9.44,1.594 11.91,4.785 1.56,2.082 2.34,7.098 2.34,15.04 v 85.449 c 0,6.769 -0.42,11.23 -1.27,13.379 -0.65,1.629 -1.98,3.027 -4,4.199 -2.86,1.562 -5.86,2.344 -8.98,2.344 h -4.69 v 3.613 h 56.74 v -3.613 h -4.79 c -3.12,0 -6.08,-0.75 -8.89,-2.246 -2.02,-1.043 -3.41,-2.622 -4.19,-4.735 -0.79,-2.117 -1.18,-6.43 -1.18,-12.941 z m 124.55,-15.234 c -0.06,-13.282 3.16,-23.699 9.67,-31.25 6.51,-7.551 14.16,-11.328 22.95,-11.328 5.86,0 10.95,1.613 15.29,4.836 4.32,3.222 7.95,8.738 10.88,16.55 l 3.03,-1.953 c -1.37,-8.918 -5.34,-17.039 -11.91,-24.363 -6.58,-7.324 -14.82,-10.988 -24.71,-10.988 -10.74,0 -19.94,4.183 -27.59,12.55 -7.65,8.364 -11.47,19.61 -11.47,33.739 0,15.3 3.92,27.23 11.77,35.793 7.84,8.558 17.69,12.84 29.54,12.84 10.02,0 18.26,-3.305 24.7,-9.911 6.45,-6.609 9.67,-15.449 9.67,-26.515 z m 0,5.664 h 41.41 c -0.32,5.73 -1.01,9.765 -2.05,12.109 -1.63,3.645 -4.05,6.512 -7.27,8.594 -3.23,2.082 -6.6,3.125 -10.11,3.125 -5.41,0 -10.24,-2.098 -14.5,-6.297 -4.27,-4.199 -6.76,-10.043 -7.48,-17.531 z m 124.4,-48.535 c -9.18,-7.098 -14.94,-11.2 -17.29,-12.305 -3.51,-1.629 -7.25,-2.441 -11.23,-2.441 -6.18,0 -11.27,2.117 -15.28,6.347 -4,4.231 -6.01,9.797 -6.01,16.699 0,4.364 0.98,8.137 2.93,11.329 2.67,4.425 7.31,8.593 13.92,12.5 6.61,3.906 17.6,8.66 32.96,14.257 v 3.516 c 0,8.918 -1.42,15.039 -4.25,18.359 -2.83,3.321 -6.95,4.981 -12.35,4.981 -4.1,0 -7.36,-1.106 -9.77,-3.32 -2.47,-2.215 -3.71,-4.754 -3.71,-7.618 l 0.2,-5.664 c 0,-2.996 -0.77,-5.304 -2.3,-6.933 -1.53,-1.629 -3.53,-2.442 -6,-2.442 -2.42,0 -4.38,0.848 -5.91,2.539 -1.53,1.692 -2.3,4.004 -2.3,6.934 0,5.598 2.87,10.742 8.6,15.43 5.73,4.687 13.77,7.031 24.12,7.031 7.94,0 14.45,-1.336 19.53,-4.004 3.84,-2.02 6.67,-5.176 8.49,-9.473 1.18,-2.8 1.76,-8.527 1.76,-17.187 v -30.371 c 0,-8.528 0.17,-13.754 0.49,-15.672 0.32,-1.922 0.86,-3.207 1.61,-3.86 0.75,-0.652 1.61,-0.976 2.59,-0.976 1.04,0 1.95,0.226 2.73,0.683 1.37,0.848 4.01,3.223 7.91,7.129 v -5.468 c -7.29,-9.766 -14.25,-14.649 -20.89,-14.649 -3.2,0 -5.73,1.106 -7.62,3.321 -1.89,2.214 -2.86,5.988 -2.93,11.328 z m 0,6.347 v 34.082 c -9.83,-3.906 -16.18,-6.672 -19.04,-8.3 -5.15,-2.864 -8.82,-5.86 -11.04,-8.985 -2.21,-3.125 -3.32,-6.543 -3.32,-10.254 0,-4.687 1.4,-8.578 4.2,-11.668 2.8,-3.093 6.02,-4.64 9.67,-4.64 4.95,0 11.45,3.254 19.53,9.765 z m 64.04,99.61 v -29.395 h 20.9 v -6.836 h -20.9 v -58.008 c 0,-5.793 0.83,-9.699 2.49,-11.718 1.66,-2.02 3.79,-3.028 6.4,-3.028 2.15,0 4.23,0.668 6.25,2.004 2.02,1.332 3.58,3.301 4.69,5.906 h 3.8 c -2.27,-6.378 -5.5,-11.179 -9.66,-14.402 -4.17,-3.223 -8.47,-4.836 -12.89,-4.836 -3,0 -5.93,0.832 -8.79,2.492 -2.87,1.661 -4.98,4.036 -6.35,7.129 -1.37,3.09 -2.05,7.86 -2.05,14.305 v 60.156 h -14.16 v 3.223 c 3.58,1.433 7.24,3.859 10.99,7.277 3.74,3.418 7.07,7.469 10,12.156 1.5,2.473 3.59,7 6.25,13.575 z m 165.63,-51.27 c 9.18,-1.953 16.04,-5.078 20.6,-9.375 6.32,-5.988 9.47,-13.312 9.47,-21.973 0,-6.574 -2.08,-12.875 -6.25,-18.894 -4.16,-6.023 -9.87,-10.418 -17.13,-13.184 -7.26,-2.769 -18.35,-4.152 -33.26,-4.152 h -62.5 v 3.613 h 4.98 c 5.54,0 9.51,1.758 11.92,5.274 1.49,2.277 2.24,7.129 2.24,14.551 v 85.546 c 0,8.204 -0.94,13.379 -2.83,15.528 -2.54,2.863 -6.31,4.297 -11.33,4.297 h -4.98 v 3.613 h 57.23 c 10.68,0 19.24,-0.781 25.68,-2.344 9.77,-2.344 17.22,-6.492 22.37,-12.449 5.14,-5.957 7.71,-12.813 7.71,-20.559 0,-6.64 -2.02,-12.582 -6.05,-17.82 -4.04,-5.242 -9.99,-9.133 -17.87,-11.672 z m -51.18,5.274 c 2.41,-0.457 5.16,-0.797 8.26,-1.024 3.09,-0.23 6.49,-0.344 10.2,-0.344 9.51,0 16.65,1.028 21.44,3.079 4.78,2.05 8.44,5.191 10.98,9.421 2.54,4.231 3.81,8.856 3.81,13.868 0,7.746 -3.15,14.355 -9.47,19.824 -6.32,5.469 -15.53,8.203 -27.64,8.203 -6.51,0 -12.37,-0.715 -17.58,-2.149 z m 0,-63.282 c 7.56,-1.757 15.01,-2.636 22.37,-2.636 11.78,0 20.77,2.652 26.95,7.961 6.18,5.304 9.28,11.863 9.28,19.675 0,5.145 -1.4,10.09 -4.2,14.844 -2.8,4.754 -7.36,8.496 -13.67,11.231 -6.32,2.734 -14.13,4.101 -23.44,4.101 -4.04,0 -7.49,-0.066 -10.35,-0.195 -2.86,-0.129 -5.18,-0.36 -6.94,-0.684 z m 149.01,3.321 c -9.18,-7.098 -14.94,-11.2 -17.29,-12.305 -3.51,-1.629 -7.25,-2.441 -11.23,-2.441 -6.18,0 -11.27,2.117 -15.28,6.347 -4,4.231 -6.01,9.797 -6.01,16.699 0,4.364 0.98,8.137 2.93,11.329 2.67,4.425 7.31,8.593 13.92,12.5 6.61,3.906 17.6,8.66 32.96,14.257 v 3.516 c 0,8.918 -1.42,15.039 -4.25,18.359 -2.83,3.321 -6.95,4.981 -12.35,4.981 -4.1,0 -7.36,-1.106 -9.77,-3.32 -2.47,-2.215 -3.71,-4.754 -3.71,-7.618 l 0.2,-5.664 c 0,-2.996 -0.77,-5.304 -2.3,-6.933 -1.53,-1.629 -3.53,-2.442 -6,-2.442 -2.42,0 -4.38,0.848 -5.91,2.539 -1.53,1.692 -2.3,4.004 -2.3,6.934 0,5.598 2.87,10.742 8.6,15.43 5.73,4.687 13.77,7.031 24.12,7.031 7.94,0 14.45,-1.336 19.53,-4.004 3.84,-2.02 6.67,-5.176 8.49,-9.473 1.18,-2.8 1.76,-8.527 1.76,-17.187 v -30.371 c 0,-8.528 0.17,-13.754 0.49,-15.672 0.32,-1.922 0.86,-3.207 1.61,-3.86 0.75,-0.652 1.61,-0.976 2.59,-0.976 1.04,0 1.95,0.226 2.73,0.683 1.37,0.848 4.01,3.223 7.91,7.129 v -5.468 c -7.29,-9.766 -14.25,-14.649 -20.89,-14.649 -3.2,0 -5.73,1.106 -7.62,3.321 -1.89,2.214 -2.86,5.988 -2.93,11.328 z m 0,6.347 v 34.082 c -9.83,-3.906 -16.18,-6.672 -19.04,-8.3 -5.15,-2.864 -8.82,-5.86 -11.04,-8.985 -2.21,-3.125 -3.32,-6.543 -3.32,-10.254 0,-4.687 1.4,-8.578 4.2,-11.668 2.8,-3.093 6.02,-4.64 9.67,-4.64 4.95,0 11.45,3.254 19.53,9.765 z m 64.04,99.61 v -29.395 h 20.9 v -6.836 h -20.9 v -58.008 c 0,-5.793 0.83,-9.699 2.49,-11.718 1.66,-2.02 3.79,-3.028 6.4,-3.028 2.15,0 4.23,0.668 6.25,2.004 2.02,1.332 3.58,3.301 4.69,5.906 h 3.8 c -2.27,-6.378 -5.5,-11.179 -9.66,-14.402 -4.17,-3.223 -8.47,-4.836 -12.89,-4.836 -3,0 -5.93,0.832 -8.79,2.492 -2.87,1.661 -4.98,4.036 -6.35,7.129 -1.37,3.09 -2.05,7.86 -2.05,14.305 v 60.156 h -14.16 v 3.223 c 3.58,1.433 7.24,3.859 10.99,7.277 3.74,3.418 7.07,7.469 10,12.156 1.5,2.473 3.59,7 6.25,13.575 z m 55.76,20.019 v -65.429 c 7.23,7.941 12.96,13.039 17.19,15.285 4.23,2.246 8.47,3.367 12.7,3.367 5.07,0 9.44,-1.399 13.08,-4.199 3.65,-2.801 6.35,-7.196 8.11,-13.184 1.24,-4.168 1.85,-11.785 1.85,-22.852 v -31.64 c 0,-5.664 0.46,-9.539 1.37,-11.621 0.65,-1.563 1.76,-2.801 3.32,-3.711 1.56,-0.91 4.43,-1.367 8.59,-1.367 V 860 h -43.94 v 3.516 h 2.05 c 4.17,0 7.06,0.636 8.69,1.906 1.63,1.269 2.77,3.141 3.42,5.613 0.19,1.043 0.29,4.102 0.29,9.18 v 31.64 c 0,9.766 -0.5,16.18 -1.51,19.239 -1.01,3.058 -2.62,5.355 -4.84,6.886 -2.21,1.528 -4.88,2.293 -8,2.293 -3.19,0 -6.52,-0.847 -9.96,-2.539 -3.45,-1.691 -7.59,-5.109 -12.41,-10.254 v -47.265 c 0,-6.121 0.35,-9.93 1.03,-11.426 0.68,-1.496 1.95,-2.75 3.81,-3.758 1.85,-1.011 5.06,-1.515 9.62,-1.515 V 860 h -44.34 v 3.516 c 3.97,0 7.1,0.617 9.38,1.855 1.3,0.652 2.34,1.887 3.12,3.711 0.78,1.824 1.17,5.535 1.17,11.133 v 80.957 c 0,10.223 -0.24,16.504 -0.73,18.848 -0.49,2.343 -1.24,3.937 -2.24,4.785 -1.02,0.847 -2.37,1.269 -4.06,1.269 -1.37,0 -3.58,-0.519 -6.64,-1.562 l -1.37,3.418 26.76,10.937 h 4.49"
       style="fill:#000000;fill-opacity:1;fill-rule:nonzero;stroke:none"
       transform="matrix(0.13333333,0,0,-0.13333333,0,722.66667)" />
    <path
       id="path19"
       d="m 131.699,2495.45 v -45.8 h -3.613 c -1.172,8.79 -3.27,15.79 -6.297,20.99 -3.027,5.21 -7.344,9.35 -12.941,12.41 -5.598,3.06 -11.3949,4.59 -17.3832,4.59 -6.7695,0 -12.371,-2.07 -16.7968,-6.2 -4.4258,-4.14 -6.6407,-8.84 -6.6407,-14.12 0,-4.03 1.3985,-7.71 4.1993,-11.03 4.0351,-4.88 13.6406,-11.4 28.8084,-19.53 12.371,-6.64 20.817,-11.74 25.344,-15.28 4.523,-3.55 8.008,-7.74 10.449,-12.55 2.442,-4.82 3.66,-9.87 3.66,-15.14 0,-10.03 -3.89,-18.67 -11.668,-25.93 -7.781,-7.26 -17.793,-10.89 -30.0309,-10.89 -3.8399,0 -7.4532,0.3 -10.8399,0.88 -2.0195,0.33 -6.1992,1.52 -12.5469,3.57 -6.3515,2.05 -10.371,3.07 -12.0625,3.07 -1.6289,0 -2.914,-0.49 -3.8554,-1.46 -0.9453,-0.98 -1.6446,-3 -2.1016,-6.06 h -3.6133 v 45.41 h 3.6133 c 1.6914,-9.5 3.9727,-16.61 6.836,-21.33 2.8632,-4.73 7.2421,-8.65 13.1367,-11.77 5.8906,-3.13 12.3515,-4.69 19.3828,-4.69 8.1367,0 14.5667,2.15 19.2887,6.45 4.719,4.29 7.078,9.37 7.078,15.23 0,3.25 -0.894,6.54 -2.683,9.86 -1.793,3.32 -4.574,6.42 -8.352,9.28 -2.539,1.95 -9.472,6.11 -20.8005,12.45 -11.3281,6.35 -19.3828,11.41 -24.1679,15.19 -4.7891,3.77 -8.418,7.94 -10.8907,12.5 -2.4726,4.56 -3.7109,9.57 -3.7109,15.04 0,9.5 3.6445,17.69 10.9375,24.56 7.293,6.87 16.5703,10.3 27.832,10.3 7.0313,0 14.4845,-1.73 22.3635,-5.18 3.644,-1.63 6.219,-2.44 7.715,-2.44 1.691,0 3.078,0.51 4.152,1.52 1.074,1.01 1.934,3.04 2.586,6.1 z M 192.207,2431 h 61.523 v 37.89 c 0,6.77 -0.421,11.23 -1.269,13.38 -0.652,1.62 -2.02,3.02 -4.102,4.19 -2.8,1.57 -5.761,2.35 -8.886,2.35 h -4.688 v 3.61 h 56.641 v -3.61 h -4.688 c -3.125,0 -6.086,-0.75 -8.886,-2.25 -2.082,-1.04 -3.5,-2.62 -4.247,-4.73 -0.75,-2.12 -1.125,-6.43 -1.125,-12.94 v -85.45 c 0,-6.71 0.422,-11.14 1.27,-13.28 0.652,-1.63 1.984,-3.03 4.004,-4.2 2.863,-1.57 5.859,-2.35 8.984,-2.35 h 4.688 V 2360 h -56.641 v 3.61 h 4.688 c 5.402,0 9.343,1.6 11.816,4.79 1.629,2.08 2.441,7.1 2.441,15.04 v 40.33 h -61.523 v -40.33 c 0,-6.71 0.422,-11.14 1.27,-13.28 0.652,-1.63 2.019,-3.03 4.101,-4.2 2.801,-1.57 5.762,-2.35 8.887,-2.35 h 4.785 V 2360 h -56.738 v 3.61 h 4.687 c 5.469,0 9.442,1.6 11.914,4.79 1.563,2.08 2.344,7.1 2.344,15.04 v 85.45 c 0,6.77 -0.422,11.23 -1.269,13.38 -0.653,1.62 -1.985,3.02 -4.004,4.19 -2.864,1.57 -5.86,2.35 -8.985,2.35 h -4.687 v 3.61 h 56.738 v -3.61 h -4.785 c -3.125,0 -6.086,-0.75 -8.887,-2.25 -2.019,-1.04 -3.418,-2.62 -4.199,-4.73 -0.781,-2.12 -1.172,-6.43 -1.172,-12.94 z m 164.981,-67.39 V 2360 h -56.739 v 3.61 h 4.688 c 5.468,0 9.441,1.6 11.914,4.79 1.562,2.08 2.344,7.1 2.344,15.04 v 85.54 c 0,6.71 -0.422,11.14 -1.27,13.29 -0.652,1.62 -1.984,3.02 -4.004,4.19 -2.863,1.57 -5.859,2.35 -8.984,2.35 h -4.688 v 3.61 h 56.739 v -3.61 h -4.786 c -5.402,0 -9.343,-1.6 -11.816,-4.79 -1.629,-2.08 -2.441,-7.09 -2.441,-15.04 v -85.54 c 0,-6.71 0.421,-11.14 1.269,-13.28 0.652,-1.63 2.02,-3.03 4.102,-4.2 2.8,-1.57 5.761,-2.35 8.886,-2.35 h 4.786"
       style="fill:#000000;fill-opacity:1;fill-rule:nonzero;stroke:none"
       transform="matrix(0.13333333,0,0,-0.13333333,0,722.66667)" />
    <path
       id="path20"
       d="m 853.203,3875.2 v -52.35 h 29.102 c 7.55,0 12.597,1.14 15.136,3.42 3.387,3 5.274,8.27 5.664,15.82 h 3.614 V 3796 h -3.614 c -0.91,6.44 -1.824,10.57 -2.734,12.4 -1.172,2.28 -3.094,4.07 -5.762,5.37 -2.668,1.3 -6.769,1.95 -12.304,1.95 h -29.102 v -43.65 c 0,-5.86 0.262,-9.42 0.781,-10.69 0.52,-1.27 1.434,-2.28 2.735,-3.03 1.301,-0.75 3.777,-1.12 7.422,-1.12 h 22.461 c 7.488,0 12.921,0.52 16.308,1.56 3.387,1.04 6.641,3.09 9.766,6.15 4.035,4.04 8.172,10.13 12.402,18.26 h 3.906 L 917.559,3750 H 815.508 v 3.61 h 4.687 c 3.125,0 6.086,0.75 8.887,2.25 2.082,1.04 3.5,2.6 4.25,4.69 0.746,2.08 1.121,6.34 1.121,12.79 v 86.04 c 0,8.39 -0.848,13.57 -2.539,15.52 -2.344,2.61 -6.25,3.91 -11.719,3.91 h -4.687 v 3.61 h 102.051 l 1.464,-29 h -3.808 c -1.367,6.96 -2.879,11.75 -4.539,14.35 -1.66,2.61 -4.121,4.59 -7.375,5.96 -2.606,0.98 -7.196,1.47 -13.77,1.47 z m 117.246,13.67 v -118.66 c 0,-5.59 0.406,-9.3 1.223,-11.13 0.812,-1.82 2.066,-3.2 3.758,-4.15 1.691,-0.94 4.851,-1.41 9.472,-1.41 V 3750 h -43.847 v 3.52 c 4.101,0 6.902,0.42 8.398,1.27 1.496,0.84 2.668,2.24 3.516,4.19 0.847,1.96 1.269,5.7 1.269,11.23 v 81.25 c 0,10.09 -0.226,16.3 -0.683,18.61 -0.457,2.31 -1.188,3.89 -2.196,4.73 -1.011,0.85 -2.296,1.27 -3.859,1.27 -1.691,0 -3.84,-0.52 -6.445,-1.56 l -1.66,3.42 26.66,10.94 z m 39.751,-83.11 c -0.07,-13.28 3.15,-23.7 9.66,-31.25 6.52,-7.55 14.16,-11.33 22.95,-11.33 5.86,0 10.96,1.62 15.29,4.84 4.33,3.22 7.95,8.74 10.88,16.55 l 3.03,-1.95 c -1.37,-8.92 -5.34,-17.04 -11.91,-24.37 -6.58,-7.32 -14.81,-10.98 -24.71,-10.98 -10.74,0 -19.94,4.18 -27.59,12.55 -7.65,8.36 -11.472,19.61 -11.472,33.73 0,15.31 3.922,27.24 11.772,35.8 7.84,8.56 17.69,12.84 29.54,12.84 10.02,0 18.26,-3.31 24.7,-9.91 6.45,-6.61 9.67,-15.45 9.67,-26.52 z m 0,5.67 h 41.4 c -0.32,5.73 -1.01,9.76 -2.05,12.11 -1.63,3.64 -4.05,6.51 -7.27,8.59 -3.23,2.08 -6.6,3.12 -10.11,3.12 -5.4,0 -10.24,-2.09 -14.5,-6.29 -4.27,-4.2 -6.76,-10.05 -7.47,-17.53 z m 149.68,-27.45 c -2.41,-11.78 -7.13,-20.84 -14.16,-27.19 -7.03,-6.35 -14.81,-9.52 -23.34,-9.52 -10.15,0 -19.01,4.26 -26.56,12.79 -7.55,8.53 -11.33,20.05 -11.33,34.57 0,14.06 4.19,25.49 12.55,34.28 8.37,8.79 18.41,13.18 30.13,13.18 8.79,0 16.01,-2.33 21.68,-6.98 5.66,-4.66 8.49,-9.49 8.49,-14.5 0,-2.48 -0.79,-4.48 -2.39,-6.01 -1.59,-1.53 -3.82,-2.3 -6.69,-2.3 -3.84,0 -6.74,1.24 -8.69,3.72 -1.11,1.36 -1.84,3.97 -2.19,7.81 -0.36,3.84 -1.68,6.77 -3.96,8.79 -2.28,1.95 -5.44,2.93 -9.47,2.93 -6.52,0 -11.75,-2.41 -15.73,-7.23 -5.27,-6.38 -7.91,-14.81 -7.91,-25.29 0,-10.68 2.62,-20.1 7.87,-28.27 5.23,-8.17 12.32,-12.26 21.23,-12.26 6.38,0 12.11,2.18 17.19,6.54 3.58,3 7.06,8.43 10.45,16.31 z m 38.75,84.87 v -29.4 h 20.9 v -6.83 h -20.9 v -58.01 c 0,-5.79 0.83,-9.7 2.5,-11.72 1.66,-2.02 3.78,-3.03 6.39,-3.03 2.15,0 4.23,0.67 6.25,2.01 2.02,1.33 3.58,3.3 4.69,5.9 h 3.81 c -2.28,-6.38 -5.5,-11.18 -9.67,-14.4 -4.17,-3.22 -8.47,-4.83 -12.89,-4.83 -3,0 -5.93,0.83 -8.79,2.49 -2.87,1.66 -4.98,4.03 -6.35,7.13 -1.37,3.09 -2.05,7.86 -2.05,14.3 v 60.16 h -14.16 v 3.22 c 3.58,1.43 7.24,3.86 10.99,7.28 3.74,3.42 7.08,7.47 10.01,12.15 1.49,2.48 3.58,7 6.25,13.58 z m 55.67,-26.76 v -20.12 c 7.49,13.41 15.16,20.12 23.04,20.12 3.59,0 6.55,-1.09 8.89,-3.27 2.34,-2.18 3.52,-4.71 3.52,-7.57 0,-2.54 -0.85,-4.69 -2.54,-6.45 -1.69,-1.75 -3.71,-2.63 -6.06,-2.63 -2.27,0 -4.83,1.12 -7.66,3.37 -2.83,2.25 -4.94,3.37 -6.3,3.37 -1.17,0 -2.44,-0.66 -3.81,-1.96 -2.93,-2.66 -5.96,-7.06 -9.08,-13.18 v -42.87 c 0,-4.95 0.61,-8.69 1.85,-11.23 0.85,-1.76 2.35,-3.22 4.49,-4.4 2.15,-1.17 5.25,-1.75 9.28,-1.75 V 3750 h -45.8 v 3.52 c 4.56,0 7.94,0.71 10.16,2.14 1.63,1.05 2.76,2.71 3.42,4.98 0.32,1.11 0.48,4.27 0.48,9.48 v 34.67 c 0,10.41 -0.21,16.61 -0.63,18.6 -0.42,1.99 -1.21,3.43 -2.34,4.34 -1.14,0.91 -2.56,1.37 -4.25,1.37 -2.02,0 -4.3,-0.49 -6.84,-1.46 l -0.98,3.51 27.06,10.94 z m 84.14,0 c 13.54,0 24.41,-5.14 32.61,-15.43 6.97,-8.79 10.45,-18.88 10.45,-30.27 0,-8.01 -1.92,-16.12 -5.76,-24.32 -3.84,-8.2 -9.13,-14.39 -15.86,-18.55 -6.74,-4.17 -14.25,-6.25 -22.52,-6.25 -13.47,0 -24.18,5.37 -32.13,16.11 -6.7,9.05 -10.05,19.21 -10.05,30.47 0,8.2 2.03,16.36 6.1,24.46 4.07,8.11 9.42,14.1 16.06,17.97 6.64,3.87 13.68,5.81 21.1,5.81 z m -3.03,-6.35 c -3.45,0 -6.92,-1.02 -10.4,-3.07 -3.48,-2.05 -6.3,-5.65 -8.45,-10.79 -2.15,-5.15 -3.22,-11.75 -3.22,-19.83 0,-13.02 2.59,-24.25 7.77,-33.69 5.17,-9.44 11.99,-14.16 20.45,-14.16 6.32,0 11.53,2.6 15.63,7.81 4.1,5.21 6.15,14.16 6.15,26.86 0,15.88 -3.42,28.38 -10.25,37.5 -4.63,6.25 -10.52,9.37 -17.68,9.37 z m 85.35,-12.6 c 10.48,12.63 20.48,18.95 29.98,18.95 4.89,0 9.08,-1.22 12.6,-3.66 3.52,-2.44 6.32,-6.47 8.4,-12.06 1.43,-3.91 2.15,-9.9 2.15,-17.97 v -38.19 c 0,-5.66 0.45,-9.5 1.36,-11.52 0.72,-1.63 1.88,-2.9 3.47,-3.81 1.6,-0.91 4.54,-1.36 8.84,-1.36 V 3750 h -44.24 v 3.52 h 1.86 c 4.16,0 7.08,0.63 8.74,1.9 1.66,1.27 2.81,3.14 3.46,5.62 0.26,0.97 0.39,4.03 0.39,9.17 v 36.63 c 0,8.13 -1.06,14.04 -3.17,17.72 -2.12,3.68 -5.68,5.52 -10.69,5.52 -7.75,0 -15.46,-4.23 -23.15,-12.7 v -47.17 c 0,-6.05 0.36,-9.79 1.08,-11.23 0.91,-1.88 2.16,-3.27 3.76,-4.14 1.59,-0.88 4.83,-1.32 9.71,-1.32 V 3750 h -44.24 v 3.52 h 1.96 c 4.56,0 7.63,1.15 9.23,3.46 1.59,2.31 2.39,6.72 2.39,13.23 v 33.21 c 0,10.74 -0.24,17.28 -0.73,19.63 -0.49,2.34 -1.24,3.93 -2.25,4.78 -1.01,0.85 -2.36,1.27 -4.05,1.27 -1.83,0 -4.01,-0.49 -6.55,-1.46 l -1.46,3.51 26.95,10.94 h 4.2 v -18.95"
       style="fill:#000000;fill-opacity:1;fill-rule:nonzero;stroke:none"
       transform="matrix(0.13333333,0,0,-0.13333333,0,722.66667)" />
    <path
       id="path21"
       d="m 885.391,3572.01 v -38.57 c 0,-8.33 0.91,-13.51 2.734,-15.53 2.473,-2.86 6.219,-4.3 11.23,-4.3 h 5.079 V 3510 h -56.739 v 3.61 h 4.981 c 5.597,0 9.601,1.83 12.012,5.47 1.3,2.02 1.953,6.81 1.953,14.36 v 85.54 c 0,8.34 -0.879,13.51 -2.637,15.53 -2.539,2.87 -6.316,4.3 -11.328,4.3 h -4.981 v 3.61 h 48.535 c 11.848,0 21.192,-1.22 28.028,-3.66 6.836,-2.44 12.597,-6.56 17.285,-12.35 4.687,-5.8 7.031,-12.67 7.031,-20.61 0,-10.81 -3.562,-19.6 -10.691,-26.37 -7.129,-6.77 -17.207,-10.15 -30.227,-10.15 -3.191,0 -6.64,0.22 -10.351,0.68 -3.711,0.46 -7.684,1.14 -11.914,2.05 z m 0,5.57 c 3.449,-0.65 6.511,-1.14 9.179,-1.47 2.668,-0.32 4.95,-0.48 6.836,-0.48 6.77,0 12.614,2.62 17.532,7.86 4.914,5.24 7.371,12.03 7.371,20.36 0,5.73 -1.172,11.05 -3.516,15.97 -2.344,4.91 -5.664,8.59 -9.961,11.03 -4.297,2.44 -9.18,3.66 -14.648,3.66 -3.321,0 -7.586,-0.62 -12.793,-1.85 z m 102.597,71.29 v -65.43 c 7.227,7.94 12.962,13.04 17.192,15.28 4.23,2.25 8.46,3.37 12.69,3.37 5.08,0 9.44,-1.4 13.09,-4.2 3.64,-2.8 6.34,-7.19 8.1,-13.18 1.24,-4.17 1.86,-11.79 1.86,-22.85 v -31.65 c 0,-5.66 0.46,-9.53 1.37,-11.62 0.65,-1.56 1.75,-2.8 3.32,-3.71 1.56,-0.91 4.42,-1.36 8.59,-1.36 V 3510 h -43.95 v 3.52 h 2.05 c 4.17,0 7.07,0.63 8.7,1.9 1.63,1.27 2.76,3.14 3.41,5.62 0.2,1.04 0.3,4.1 0.3,9.17 v 31.65 c 0,9.76 -0.51,16.18 -1.51,19.23 -1.02,3.06 -2.63,5.36 -4.84,6.89 -2.22,1.53 -4.88,2.29 -8.01,2.29 -3.19,0 -6.51,-0.84 -9.96,-2.54 -3.449,-1.69 -7.585,-5.1 -12.402,-10.25 v -47.27 c 0,-6.12 0.344,-9.92 1.028,-11.42 0.683,-1.5 1.953,-2.75 3.808,-3.76 1.856,-1.01 5.059,-1.51 9.616,-1.51 V 3510 h -44.335 v 3.52 c 3.973,0 7.098,0.61 9.375,1.85 1.301,0.65 2.344,1.89 3.125,3.71 0.782,1.83 1.172,5.54 1.172,11.13 v 80.96 c 0,10.22 -0.242,16.51 -0.73,18.85 -0.488,2.34 -1.238,3.94 -2.246,4.78 -1.012,0.85 -2.363,1.27 -4.055,1.27 -1.367,0 -3.582,-0.52 -6.641,-1.56 l -1.367,3.42 26.758,10.94 z m 117.482,-46.78 c 13.54,0 24.41,-5.14 32.62,-15.43 6.96,-8.79 10.45,-18.88 10.45,-30.27 0,-8.01 -1.93,-16.12 -5.77,-24.32 -3.84,-8.2 -9.13,-14.39 -15.86,-18.55 -6.74,-4.17 -14.25,-6.25 -22.52,-6.25 -13.47,0 -24.18,5.37 -32.12,16.11 -6.71,9.05 -10.06,19.21 -10.06,30.47 0,8.2 2.03,16.36 6.1,24.46 4.07,8.11 9.42,14.1 16.07,17.97 6.64,3.87 13.67,5.81 21.09,5.81 z m -3.03,-6.35 c -3.45,0 -6.92,-1.02 -10.4,-3.07 -3.48,-2.05 -6.3,-5.65 -8.45,-10.79 -2.14,-5.15 -3.22,-11.75 -3.22,-19.83 0,-13.02 2.59,-24.25 7.77,-33.69 5.17,-9.44 11.99,-14.16 20.45,-14.16 6.32,0 11.53,2.6 15.63,7.81 4.1,5.21 6.15,14.16 6.15,26.86 0,15.88 -3.42,28.38 -10.25,37.5 -4.62,6.25 -10.52,9.37 -17.68,9.37 z m 85.35,-12.6 c 10.48,12.63 20.48,18.95 29.98,18.95 4.89,0 9.09,-1.22 12.6,-3.66 3.52,-2.44 6.32,-6.47 8.4,-12.06 1.43,-3.91 2.15,-9.9 2.15,-17.97 v -38.19 c 0,-5.66 0.46,-9.5 1.37,-11.52 0.71,-1.63 1.87,-2.9 3.46,-3.81 1.6,-0.91 4.54,-1.36 8.84,-1.36 V 3510 h -44.24 v 3.52 h 1.86 c 4.17,0 7.08,0.63 8.74,1.9 1.66,1.27 2.81,3.14 3.46,5.62 0.27,0.97 0.39,4.03 0.39,9.17 v 36.63 c 0,8.13 -1.05,14.04 -3.17,17.72 -2.11,3.68 -5.68,5.52 -10.69,5.52 -7.75,0 -15.46,-4.23 -23.15,-12.7 v -47.17 c 0,-6.05 0.36,-9.79 1.08,-11.23 0.91,-1.88 2.16,-3.27 3.76,-4.14 1.59,-0.88 4.83,-1.32 9.71,-1.32 V 3510 h -44.23 v 3.52 h 1.95 c 4.56,0 7.63,1.15 9.23,3.46 1.59,2.31 2.39,6.72 2.39,13.23 v 33.21 c 0,10.74 -0.24,17.28 -0.73,19.63 -0.49,2.34 -1.24,3.93 -2.25,4.78 -1.01,0.85 -2.36,1.27 -4.05,1.27 -1.83,0 -4.01,-0.49 -6.54,-1.46 l -1.47,3.51 26.95,10.94 h 4.2 z m 117.68,18.95 c 13.54,0 24.41,-5.14 32.62,-15.43 6.96,-8.79 10.45,-18.88 10.45,-30.27 0,-8.01 -1.93,-16.12 -5.77,-24.32 -3.84,-8.2 -9.13,-14.39 -15.86,-18.55 -6.74,-4.17 -14.25,-6.25 -22.52,-6.25 -13.47,0 -24.18,5.37 -32.12,16.11 -6.71,9.05 -10.06,19.21 -10.06,30.47 0,8.2 2.03,16.36 6.1,24.46 4.07,8.11 9.42,14.1 16.07,17.97 6.64,3.87 13.67,5.81 21.09,5.81 z m -3.03,-6.35 c -3.45,0 -6.92,-1.02 -10.4,-3.07 -3.48,-2.05 -6.3,-5.65 -8.45,-10.79 -2.14,-5.15 -3.22,-11.75 -3.22,-19.83 0,-13.02 2.59,-24.25 7.77,-33.69 5.17,-9.44 11.99,-14.16 20.45,-14.16 6.32,0 11.53,2.6 15.63,7.81 4.1,5.21 6.15,14.16 6.15,26.86 0,15.88 -3.42,28.38 -10.25,37.5 -4.62,6.25 -10.52,9.37 -17.68,9.37 z m 85.35,-12.6 c 10.48,12.63 20.48,18.95 29.98,18.95 4.89,0 9.09,-1.22 12.6,-3.66 3.52,-2.44 6.32,-6.47 8.4,-12.06 1.43,-3.91 2.15,-9.9 2.15,-17.97 v -38.19 c 0,-5.66 0.46,-9.5 1.37,-11.52 0.71,-1.63 1.87,-2.9 3.46,-3.81 1.6,-0.91 4.54,-1.36 8.84,-1.36 V 3510 h -44.24 v 3.52 h 1.86 c 4.17,0 7.08,0.63 8.74,1.9 1.66,1.27 2.81,3.14 3.46,5.62 0.27,0.97 0.39,4.03 0.39,9.17 v 36.63 c 0,8.13 -1.05,14.04 -3.17,17.72 -2.11,3.68 -5.68,5.52 -10.69,5.52 -7.75,0 -15.46,-4.23 -23.15,-12.7 v -47.17 c 0,-6.05 0.36,-9.79 1.08,-11.23 0.91,-1.88 2.16,-3.27 3.76,-4.14 1.59,-0.88 4.83,-1.32 9.71,-1.32 V 3510 h -44.23 v 3.52 h 1.95 c 4.56,0 7.63,1.15 9.23,3.46 1.59,2.31 2.39,6.72 2.39,13.23 v 33.21 c 0,10.74 -0.24,17.28 -0.73,19.63 -0.49,2.34 -1.24,3.93 -2.25,4.78 -1.01,0.85 -2.36,1.27 -4.05,1.27 -1.83,0 -4.01,-0.49 -6.54,-1.46 l -1.47,3.51 26.95,10.94 h 4.2 v -18.95"
       style="fill:#000000;fill-opacity:1;fill-rule:nonzero;stroke:none"
       transform="matrix(0.13333333,0,0,-0.13333333,0,722.66667)" />
    <path
       id="path22"
       d="m 900.41,3405.45 3.028,-45.02 h -3.028 c -4.035,13.48 -9.797,23.18 -17.285,29.1 -7.488,5.93 -16.473,8.89 -26.953,8.89 -8.789,0 -16.731,-2.23 -23.828,-6.69 -7.098,-4.46 -12.68,-11.57 -16.746,-21.34 -4.071,-9.76 -6.106,-21.91 -6.106,-36.43 0,-11.98 1.922,-22.36 5.762,-31.15 3.84,-8.79 9.621,-15.52 17.336,-20.21 7.715,-4.69 16.519,-7.03 26.414,-7.03 8.594,0 16.18,1.84 22.754,5.52 6.574,3.67 13.801,10.98 21.68,21.92 l 3.027,-1.96 c -6.641,-11.78 -14.387,-20.41 -23.242,-25.87 -8.856,-5.47 -19.368,-8.21 -31.543,-8.21 -21.942,0 -38.934,8.14 -50.977,24.42 -8.984,12.11 -13.476,26.36 -13.476,42.77 0,13.22 2.961,25.36 8.886,36.43 5.926,11.06 14.078,19.64 24.465,25.73 10.383,6.09 21.727,9.13 34.031,9.13 9.571,0 19.012,-2.34 28.321,-7.03 2.734,-1.44 4.687,-2.15 5.859,-2.15 1.758,0 3.289,0.62 4.59,1.86 1.691,1.75 2.898,4.19 3.613,7.32 z m 62.871,-43.36 c 13.543,0 24.414,-5.14 32.617,-15.43 6.962,-8.79 10.452,-18.88 10.452,-30.27 0,-8.01 -1.92,-16.12 -5.76,-24.32 -3.844,-8.2 -9.133,-14.39 -15.871,-18.55 -6.739,-4.17 -14.242,-6.25 -22.512,-6.25 -13.477,0 -24.187,5.37 -32.129,16.11 -6.707,9.05 -10.058,19.21 -10.058,30.47 0,8.2 2.035,16.36 6.105,24.46 4.066,8.11 9.422,14.1 16.063,17.97 6.64,3.87 13.671,5.81 21.093,5.81 z m -3.027,-6.35 c -3.449,0 -6.918,-1.02 -10.399,-3.07 -3.484,-2.05 -6.3,-5.65 -8.449,-10.79 -2.148,-5.15 -3.222,-11.75 -3.222,-19.83 0,-13.02 2.589,-24.25 7.765,-33.69 5.176,-9.44 11.992,-14.16 20.457,-14.16 6.317,0 11.524,2.6 15.625,7.81 4.102,5.21 6.153,14.16 6.153,26.86 0,15.88 -3.418,28.38 -10.254,37.5 -4.621,6.25 -10.516,9.37 -17.676,9.37 z m 137.696,3.71 v -54.2 c 0,-10.35 0.25,-16.68 0.73,-18.99 0.49,-2.31 1.27,-3.92 2.35,-4.83 1.07,-0.91 2.32,-1.37 3.76,-1.37 2.01,0 4.29,0.55 6.83,1.66 l 1.37,-3.42 -26.76,-11.03 h -4.39 v 18.94 c -7.69,-8.33 -13.55,-13.57 -17.58,-15.72 -4.04,-2.15 -8.3,-3.22 -12.8,-3.22 -5.01,0 -9.35,1.44 -13.03,4.34 -3.68,2.9 -6.23,6.62 -7.67,11.18 -1.43,4.56 -2.15,11.01 -2.15,19.34 v 39.94 c 0,4.23 -0.45,7.16 -1.36,8.79 -0.91,1.63 -2.27,2.88 -4.05,3.76 -1.8,0.88 -5.04,1.29 -9.72,1.22 v 3.61 h 31.34 v -59.86 c 0,-8.33 1.45,-13.8 4.35,-16.41 2.9,-2.6 6.4,-3.9 10.5,-3.9 2.8,0 5.97,0.88 9.52,2.63 3.55,1.76 7.76,5.11 12.65,10.06 v 50.69 c 0,5.07 -0.93,8.51 -2.79,10.3 -1.85,1.79 -5.71,2.75 -11.57,2.88 v 3.61 z m 15.14,-8.88 27.54,11.13 h 3.71 v -20.9 c 4.62,7.88 9.26,13.4 13.91,16.56 4.66,3.15 9.55,4.73 14.7,4.73 8.98,0 16.47,-3.52 22.46,-10.55 7.36,-8.59 11.04,-19.79 11.04,-33.59 0,-15.43 -4.43,-28.19 -13.29,-38.28 -7.29,-8.27 -16.47,-12.4 -27.53,-12.4 -4.82,0 -8.99,0.68 -12.5,2.05 -2.61,0.97 -5.54,2.93 -8.79,5.86 v -27.25 c 0,-6.12 0.37,-10.01 1.12,-11.67 0.75,-1.66 2.05,-2.98 3.91,-3.96 1.85,-0.97 5.22,-1.46 10.1,-1.46 v -3.61 h -46.87 v 3.61 h 2.44 c 3.58,-0.07 6.64,0.62 9.18,2.05 1.24,0.72 2.2,1.87 2.88,3.47 0.69,1.59 1.03,5.64 1.03,12.16 v 84.57 c 0,5.79 -0.27,9.47 -0.79,11.03 -0.52,1.56 -1.35,2.74 -2.48,3.52 -1.15,0.78 -2.69,1.17 -4.65,1.17 -1.56,0 -3.54,-0.46 -5.95,-1.37 z m 31.25,-15.53 v -33.4 c 0,-7.23 0.29,-11.98 0.87,-14.26 0.92,-3.77 3.15,-7.09 6.7,-9.96 3.54,-2.86 8.02,-4.29 13.42,-4.29 6.51,0 11.79,2.53 15.82,7.61 5.28,6.64 7.91,15.99 7.91,28.03 0,13.67 -2.99,24.19 -8.98,31.54 -4.17,5.08 -9.12,7.62 -14.85,7.62 -3.12,0 -6.21,-0.78 -9.27,-2.34 -2.35,-1.18 -6.22,-4.69 -11.62,-10.55 z m 105.95,73.83 v -118.66 c 0,-5.59 0.41,-9.3 1.23,-11.13 0.81,-1.82 2.06,-3.2 3.75,-4.15 1.69,-0.94 4.86,-1.41 9.48,-1.41 V 3270 h -43.85 v 3.52 c 4.1,0 6.9,0.42 8.4,1.27 1.49,0.84 2.66,2.24 3.51,4.19 0.85,1.96 1.27,5.7 1.27,11.23 v 81.25 c 0,10.09 -0.22,16.3 -0.68,18.61 -0.46,2.31 -1.19,3.89 -2.2,4.73 -1.01,0.85 -2.29,1.27 -3.86,1.27 -1.69,0 -3.84,-0.52 -6.44,-1.56 l -1.66,3.42 26.66,10.94 z m 47.46,0 c 2.74,0 5.07,-0.96 6.99,-2.88 1.92,-1.92 2.88,-4.25 2.88,-6.99 0,-2.73 -0.96,-5.07 -2.88,-7.03 -1.92,-1.95 -4.25,-2.93 -6.99,-2.93 -2.73,0 -5.07,0.98 -7.03,2.93 -1.95,1.96 -2.93,4.3 -2.93,7.03 0,2.74 0.96,5.07 2.89,6.99 1.91,1.92 4.27,2.88 7.07,2.88 z m 8.11,-46.78 v -71.88 c 0,-5.59 0.41,-9.32 1.22,-11.17 0.81,-1.86 2.02,-3.25 3.62,-4.16 1.59,-0.91 4.5,-1.36 8.73,-1.36 V 3270 h -43.45 v 3.52 c 4.36,0 7.29,0.42 8.79,1.27 1.49,0.84 2.68,2.24 3.56,4.19 0.88,1.96 1.32,5.7 1.32,11.23 v 34.48 c 0,9.7 -0.29,15.98 -0.88,18.85 -0.46,2.08 -1.17,3.53 -2.15,4.34 -0.98,0.82 -2.31,1.22 -4,1.22 -1.83,0 -4.04,-0.49 -6.64,-1.46 l -1.37,3.51 26.95,10.94 z m 50.68,-18.95 c 10.48,12.63 20.48,18.95 29.98,18.95 4.89,0 9.09,-1.22 12.6,-3.66 3.52,-2.44 6.32,-6.47 8.4,-12.06 1.43,-3.91 2.15,-9.9 2.15,-17.97 v -38.19 c 0,-5.66 0.46,-9.5 1.37,-11.52 0.71,-1.63 1.87,-2.9 3.46,-3.81 1.6,-0.91 4.54,-1.36 8.84,-1.36 V 3270 h -44.24 v 3.52 h 1.86 c 4.17,0 7.08,0.63 8.74,1.9 1.66,1.27 2.81,3.14 3.46,5.62 0.27,0.97 0.39,4.03 0.39,9.17 v 36.63 c 0,8.13 -1.05,14.04 -3.17,17.72 -2.11,3.68 -5.68,5.52 -10.69,5.52 -7.75,0 -15.46,-4.23 -23.15,-12.7 v -47.17 c 0,-6.05 0.36,-9.79 1.08,-11.23 0.91,-1.88 2.16,-3.27 3.76,-4.14 1.59,-0.88 4.83,-1.32 9.71,-1.32 V 3270 h -44.23 v 3.52 h 1.95 c 4.56,0 7.63,1.15 9.23,3.46 1.59,2.31 2.39,6.72 2.39,13.23 v 33.21 c 0,10.74 -0.24,17.28 -0.73,19.63 -0.49,2.34 -1.24,3.93 -2.25,4.78 -1.01,0.85 -2.36,1.27 -4.05,1.27 -1.83,0 -4.01,-0.49 -6.54,-1.46 l -1.47,3.51 26.95,10.94 h 4.2 z m 97.85,-40.52 c -5.46,2.67 -9.66,6.4 -12.59,11.18 -2.93,4.79 -4.4,10.08 -4.4,15.87 0,8.85 3.34,16.47 10.01,22.85 6.68,6.38 15.22,9.57 25.64,9.57 8.52,0 15.91,-2.08 22.16,-6.25 h 18.95 c 2.8,0 4.43,-0.08 4.88,-0.24 0.46,-0.17 0.78,-0.44 0.98,-0.83 0.39,-0.59 0.59,-1.63 0.59,-3.13 0,-1.69 -0.17,-2.86 -0.49,-3.51 -0.2,-0.33 -0.54,-0.59 -1.03,-0.79 -0.48,-0.19 -2.13,-0.29 -4.93,-0.29 h -11.62 c 3.64,-4.69 5.47,-10.67 5.47,-17.97 0,-8.33 -3.19,-15.46 -9.57,-21.38 -6.38,-5.93 -14.94,-8.89 -25.69,-8.89 -4.42,0 -8.95,0.65 -13.57,1.95 -2.86,-2.47 -4.8,-4.63 -5.81,-6.49 -1.01,-1.86 -1.51,-3.44 -1.51,-4.74 0,-1.1 0.53,-2.18 1.61,-3.22 1.07,-1.04 3.17,-1.79 6.3,-2.25 1.82,-0.26 6.37,-0.49 13.67,-0.68 13.41,-0.33 22.1,-0.78 26.07,-1.37 6.06,-0.85 10.89,-3.09 14.51,-6.74 3.61,-3.64 5.41,-8.13 5.41,-13.47 0,-7.36 -3.45,-14.26 -10.35,-20.71 -10.15,-9.5 -23.4,-14.25 -39.74,-14.25 -12.57,0 -23.18,2.83 -31.84,8.49 -4.88,3.26 -7.32,6.64 -7.32,10.16 0,1.56 0.36,3.12 1.07,4.69 1.11,2.41 3.39,5.76 6.84,10.05 0.45,0.59 3.77,4.11 9.96,10.55 -3.39,2.02 -5.78,3.83 -7.18,5.42 -1.4,1.6 -2.1,3.4 -2.1,5.42 0,2.28 0.93,4.95 2.78,8.01 1.86,3.06 6.14,7.39 12.84,12.99 z m 17,54.78 c -4.82,0 -8.86,-1.92 -12.11,-5.76 -3.26,-3.84 -4.89,-9.73 -4.89,-17.68 0,-10.28 2.22,-18.26 6.65,-23.92 3.38,-4.3 7.68,-6.45 12.89,-6.45 4.95,0 9.01,1.86 12.2,5.57 3.19,3.71 4.79,9.54 4.79,17.48 0,10.35 -2.25,18.46 -6.74,24.32 -3.32,4.29 -7.59,6.44 -12.79,6.44 z m -17.97,-87.4 c -3.06,-3.32 -5.37,-6.41 -6.94,-9.28 -1.56,-2.86 -2.34,-5.5 -2.34,-7.91 0,-3.12 1.89,-5.86 5.66,-8.2 6.52,-4.04 15.92,-6.06 28.23,-6.06 11.72,0 20.36,2.07 25.93,6.21 5.56,4.13 8.34,8.54 8.34,13.23 0,3.39 -1.66,5.79 -4.98,7.22 -3.38,1.44 -10.09,2.28 -20.11,2.54 -14.65,0.39 -25.91,1.14 -33.79,2.25"
       style="fill:#000000;fill-opacity:1;fill-rule:nonzero;stroke:none"
       transform="matrix(0.13333333,0,0,-0.13333333,0,722.66667)" />
    <path
       id="path23"
       d="m 2231.8,3755.2 v -52.35 h 29.1 c 7.55,0 12.6,1.14 15.14,3.42 3.38,3 5.27,8.27 5.66,15.82 h 3.61 V 3676 h -3.61 c -0.91,6.44 -1.82,10.57 -2.74,12.4 -1.17,2.28 -3.09,4.07 -5.76,5.37 -2.66,1.3 -6.77,1.95 -12.3,1.95 h -29.1 v -43.65 c 0,-5.86 0.26,-9.42 0.78,-10.69 0.52,-1.27 1.43,-2.28 2.73,-3.03 1.3,-0.75 3.78,-1.12 7.42,-1.12 h 22.47 c 7.48,0 12.92,0.52 16.3,1.56 3.39,1.04 6.64,3.09 9.77,6.15 4.03,4.04 8.17,10.13 12.4,18.26 h 3.91 L 2296.15,3630 H 2194.1 v 3.61 h 4.69 c 3.12,0 6.09,0.75 8.89,2.25 2.08,1.04 3.5,2.6 4.25,4.69 0.74,2.08 1.12,6.34 1.12,12.79 v 86.04 c 0,8.39 -0.85,13.57 -2.54,15.52 -2.35,2.61 -6.25,3.91 -11.72,3.91 h -4.69 v 3.61 h 102.05 l 1.47,-29 h -3.81 c -1.37,6.96 -2.88,11.75 -4.54,14.35 -1.66,2.61 -4.12,4.59 -7.38,5.96 -2.6,0.98 -7.19,1.47 -13.76,1.47 z m 117.24,13.67 v -118.66 c 0,-5.59 0.41,-9.3 1.23,-11.13 0.81,-1.82 2.06,-3.2 3.75,-4.15 1.69,-0.94 4.86,-1.41 9.48,-1.41 V 3630 h -43.85 v 3.52 c 4.1,0 6.9,0.42 8.4,1.27 1.49,0.84 2.66,2.24 3.51,4.19 0.85,1.96 1.27,5.7 1.27,11.23 v 81.25 c 0,10.09 -0.22,16.3 -0.68,18.61 -0.46,2.31 -1.19,3.89 -2.2,4.73 -1.01,0.85 -2.29,1.27 -3.86,1.27 -1.69,0 -3.84,-0.52 -6.44,-1.56 l -1.66,3.42 26.66,10.94 z m 39.75,-83.11 c -0.07,-13.28 3.16,-23.7 9.67,-31.25 6.51,-7.55 14.16,-11.33 22.95,-11.33 5.86,0 10.95,1.62 15.28,4.84 4.33,3.22 7.96,8.74 10.89,16.55 l 3.03,-1.95 c -1.37,-8.92 -5.34,-17.04 -11.92,-24.37 -6.57,-7.32 -14.81,-10.98 -24.71,-10.98 -10.74,0 -19.93,4.18 -27.58,12.55 -7.65,8.36 -11.48,19.61 -11.48,33.73 0,15.31 3.92,27.24 11.77,35.8 7.85,8.56 17.69,12.84 29.54,12.84 10.03,0 18.26,-3.31 24.71,-9.91 6.44,-6.61 9.67,-15.45 9.67,-26.52 z m 0,5.67 h 41.41 c -0.33,5.73 -1.01,9.76 -2.06,12.11 -1.62,3.64 -4.05,6.51 -7.27,8.59 -3.22,2.08 -6.59,3.12 -10.11,3.12 -5.4,0 -10.24,-2.09 -14.5,-6.29 -4.26,-4.2 -6.76,-10.05 -7.47,-17.53 z m 149.69,-27.45 c -2.41,-11.78 -7.13,-20.84 -14.16,-27.19 -7.03,-6.35 -14.82,-9.52 -23.34,-9.52 -10.16,0 -19.02,4.26 -26.57,12.79 -7.55,8.53 -11.32,20.05 -11.32,34.57 0,14.06 4.18,25.49 12.55,34.28 8.36,8.79 18.4,13.18 30.12,13.18 8.79,0 16.02,-2.33 21.68,-6.98 5.67,-4.66 8.5,-9.49 8.5,-14.5 0,-2.48 -0.8,-4.48 -2.39,-6.01 -1.6,-1.53 -3.83,-2.3 -6.69,-2.3 -3.84,0 -6.74,1.24 -8.7,3.72 -1.1,1.36 -1.84,3.97 -2.19,7.81 -0.36,3.84 -1.68,6.77 -3.96,8.79 -2.28,1.95 -5.44,2.93 -9.47,2.93 -6.51,0 -11.75,-2.41 -15.72,-7.23 -5.28,-6.38 -7.91,-14.81 -7.91,-25.29 0,-10.68 2.62,-20.1 7.86,-28.27 5.24,-8.17 12.32,-12.26 21.24,-12.26 6.38,0 12.11,2.18 17.19,6.54 3.58,3 7.06,8.43 10.44,16.31 z m 38.75,84.87 v -29.4 h 20.9 v -6.83 h -20.9 v -58.01 c 0,-5.79 0.83,-9.7 2.49,-11.72 1.66,-2.02 3.79,-3.03 6.39,-3.03 2.15,0 4.23,0.67 6.25,2.01 2.02,1.33 3.59,3.3 4.69,5.9 h 3.81 c -2.28,-6.38 -5.5,-11.18 -9.67,-14.4 -4.17,-3.22 -8.46,-4.83 -12.89,-4.83 -3,0 -5.92,0.83 -8.79,2.49 -2.86,1.66 -4.98,4.03 -6.35,7.13 -1.36,3.09 -2.05,7.86 -2.05,14.3 v 60.16 h -14.16 v 3.22 c 3.59,1.43 7.25,3.86 10.99,7.28 3.74,3.42 7.08,7.47 10.01,12.15 1.5,2.48 3.58,7 6.25,13.58 z m 55.66,-26.76 v -20.12 c 7.49,13.41 15.17,20.12 23.05,20.12 3.58,0 6.54,-1.09 8.88,-3.27 2.35,-2.18 3.52,-4.71 3.52,-7.57 0,-2.54 -0.85,-4.69 -2.54,-6.45 -1.69,-1.75 -3.71,-2.63 -6.05,-2.63 -2.28,0 -4.84,1.12 -7.67,3.37 -2.83,2.25 -4.93,3.37 -6.3,3.37 -1.17,0 -2.44,-0.66 -3.81,-1.96 -2.93,-2.66 -5.95,-7.06 -9.08,-13.18 v -42.87 c 0,-4.95 0.62,-8.69 1.86,-11.23 0.84,-1.76 2.34,-3.22 4.49,-4.4 2.15,-1.17 5.24,-1.75 9.28,-1.75 V 3630 h -45.81 v 3.52 c 4.56,0 7.95,0.71 10.16,2.14 1.63,1.05 2.77,2.71 3.42,4.98 0.32,1.11 0.49,4.27 0.49,9.48 v 34.67 c 0,10.41 -0.21,16.61 -0.64,18.6 -0.42,1.99 -1.2,3.43 -2.34,4.34 -1.14,0.91 -2.56,1.37 -4.25,1.37 -2.02,0 -4.3,-0.49 -6.84,-1.46 l -0.97,3.51 27.05,10.94 z m 84.14,0 c 13.54,0 24.42,-5.14 32.62,-15.43 6.96,-8.79 10.45,-18.88 10.45,-30.27 0,-8.01 -1.92,-16.12 -5.76,-24.32 -3.84,-8.2 -9.13,-14.39 -15.87,-18.55 -6.74,-4.17 -14.24,-6.25 -22.51,-6.25 -13.48,0 -24.19,5.37 -32.13,16.11 -6.71,9.05 -10.06,19.21 -10.06,30.47 0,8.2 2.03,16.36 6.11,24.46 4.06,8.11 9.42,14.1 16.06,17.97 6.64,3.87 13.67,5.81 21.09,5.81 z m -3.03,-6.35 c -3.45,0 -6.91,-1.02 -10.39,-3.07 -3.49,-2.05 -6.31,-5.65 -8.45,-10.79 -2.15,-5.15 -3.23,-11.75 -3.23,-19.83 0,-13.02 2.59,-24.25 7.77,-33.69 5.18,-9.44 11.99,-14.16 20.46,-14.16 6.31,0 11.52,2.6 15.62,7.81 4.1,5.21 6.15,14.16 6.15,26.86 0,15.88 -3.41,28.38 -10.25,37.5 -4.62,6.25 -10.52,9.37 -17.68,9.37 z m 85.36,-12.6 c 10.48,12.63 20.47,18.95 29.98,18.95 4.88,0 9.08,-1.22 12.59,-3.66 3.52,-2.44 6.32,-6.47 8.4,-12.06 1.44,-3.91 2.15,-9.9 2.15,-17.97 v -38.19 c 0,-5.66 0.46,-9.5 1.37,-11.52 0.71,-1.63 1.87,-2.9 3.47,-3.81 1.59,-0.91 4.54,-1.36 8.83,-1.36 V 3630 h -44.24 v 3.52 h 1.86 c 4.17,0 7.08,0.63 8.74,1.9 1.66,1.27 2.81,3.14 3.47,5.62 0.26,0.97 0.39,4.03 0.39,9.17 v 36.63 c 0,8.13 -1.06,14.04 -3.17,17.72 -2.12,3.68 -5.69,5.52 -10.7,5.52 -7.75,0 -15.46,-4.23 -23.14,-12.7 v -47.17 c 0,-6.05 0.35,-9.79 1.07,-11.23 0.91,-1.88 2.16,-3.27 3.76,-4.14 1.6,-0.88 4.83,-1.32 9.72,-1.32 V 3630 h -44.24 v 3.52 h 1.95 c 4.56,0 7.63,1.15 9.23,3.46 1.6,2.31 2.39,6.72 2.39,13.23 v 33.21 c 0,10.74 -0.24,17.28 -0.73,19.63 -0.49,2.34 -1.24,3.93 -2.24,4.78 -1.02,0.85 -2.37,1.27 -4.06,1.27 -1.82,0 -4,-0.49 -6.54,-1.46 l -1.47,3.51 26.96,10.94 h 4.2 z m 96.68,65.73 c 2.73,0 5.06,-0.96 6.98,-2.88 1.92,-1.92 2.88,-4.25 2.88,-6.99 0,-2.73 -0.96,-5.07 -2.88,-7.03 -1.92,-1.95 -4.25,-2.93 -6.98,-2.93 -2.74,0 -5.08,0.98 -7.04,2.93 -1.95,1.96 -2.93,4.3 -2.93,7.03 0,2.74 0.97,5.07 2.89,6.99 1.92,1.92 4.27,2.88 7.08,2.88 z m 8.1,-46.78 v -71.88 c 0,-5.59 0.41,-9.32 1.22,-11.17 0.82,-1.86 2.02,-3.25 3.62,-4.16 1.59,-0.91 4.5,-1.36 8.73,-1.36 V 3630 h -43.45 v 3.52 c 4.36,0 7.29,0.42 8.79,1.27 1.49,0.84 2.68,2.24 3.56,4.19 0.88,1.96 1.32,5.7 1.32,11.23 v 34.48 c 0,9.7 -0.29,15.98 -0.88,18.85 -0.46,2.08 -1.17,3.53 -2.15,4.34 -0.97,0.82 -2.31,1.22 -4,1.22 -1.83,0 -4.04,-0.49 -6.64,-1.46 l -1.37,3.51 26.95,10.94 z m 100.59,-58.11 c -2.41,-11.78 -7.13,-20.84 -14.16,-27.19 -7.03,-6.35 -14.82,-9.52 -23.34,-9.52 -10.16,0 -19.02,4.26 -26.57,12.79 -7.55,8.53 -11.32,20.05 -11.32,34.57 0,14.06 4.18,25.49 12.55,34.28 8.36,8.79 18.4,13.18 30.12,13.18 8.79,0 16.02,-2.33 21.68,-6.98 5.67,-4.66 8.5,-9.49 8.5,-14.5 0,-2.48 -0.8,-4.48 -2.39,-6.01 -1.6,-1.53 -3.83,-2.3 -6.69,-2.3 -3.84,0 -6.74,1.24 -8.7,3.72 -1.1,1.36 -1.84,3.97 -2.19,7.81 -0.36,3.84 -1.68,6.77 -3.96,8.79 -2.28,1.95 -5.44,2.93 -9.47,2.93 -6.51,0 -11.75,-2.41 -15.72,-7.23 -5.28,-6.38 -7.91,-14.81 -7.91,-25.29 0,-10.68 2.62,-20.1 7.86,-28.27 5.24,-8.17 12.32,-12.26 21.24,-12.26 6.38,0 12.11,2.18 17.19,6.54 3.58,3 7.06,8.43 10.44,16.31 l 2.84,-1.37"
       style="fill:#000000;fill-opacity:1;fill-rule:nonzero;stroke:none"
       transform="matrix(0.13333333,0,0,-0.13333333,0,722.66667)" />
    <path
       id="path24"
       d="m 2330.61,3525.45 v -45.8 h -3.62 c -1.17,8.79 -3.27,15.79 -6.29,20.99 -3.03,5.21 -7.35,9.35 -12.95,12.41 -5.59,3.06 -11.39,4.59 -17.38,4.59 -6.77,0 -12.37,-2.07 -16.8,-6.2 -4.42,-4.14 -6.64,-8.84 -6.64,-14.12 0,-4.03 1.4,-7.71 4.2,-11.03 4.04,-4.88 13.64,-11.4 28.81,-19.53 12.37,-6.64 20.82,-11.74 25.35,-15.28 4.52,-3.55 8,-7.74 10.44,-12.55 2.45,-4.82 3.66,-9.87 3.66,-15.14 0,-10.03 -3.89,-18.67 -11.66,-25.93 -7.78,-7.26 -17.8,-10.89 -30.03,-10.89 -3.84,0 -7.46,0.3 -10.84,0.88 -2.02,0.33 -6.2,1.52 -12.55,3.57 -6.35,2.05 -10.37,3.07 -12.06,3.07 -1.63,0 -2.92,-0.49 -3.86,-1.46 -0.94,-0.98 -1.64,-3 -2.1,-6.06 h -3.61 v 45.41 h 3.61 c 1.69,-9.5 3.97,-16.61 6.84,-21.33 2.86,-4.73 7.24,-8.65 13.13,-11.77 5.89,-3.13 12.35,-4.69 19.38,-4.69 8.14,0 14.57,2.15 19.29,6.45 4.72,4.29 7.08,9.37 7.08,15.23 0,3.25 -0.89,6.54 -2.68,9.86 -1.79,3.32 -4.58,6.42 -8.35,9.28 -2.54,1.95 -9.48,6.11 -20.8,12.45 -11.33,6.35 -19.39,11.41 -24.17,15.19 -4.79,3.77 -8.42,7.94 -10.89,12.5 -2.48,4.56 -3.71,9.57 -3.71,15.04 0,9.5 3.64,17.69 10.93,24.56 7.3,6.87 16.57,10.3 27.84,10.3 7.03,0 14.48,-1.73 22.36,-5.18 3.64,-1.63 6.22,-2.44 7.71,-2.44 1.7,0 3.08,0.51 4.16,1.52 1.07,1.01 1.93,3.04 2.58,6.1 z m 51.62,-16.6 v -29.4 h 20.9 v -6.83 h -20.9 v -58.01 c 0,-5.79 0.83,-9.7 2.49,-11.72 1.66,-2.02 3.79,-3.03 6.39,-3.03 2.15,0 4.23,0.67 6.25,2.01 2.02,1.33 3.59,3.3 4.69,5.9 h 3.81 c -2.28,-6.38 -5.5,-11.18 -9.67,-14.4 -4.17,-3.22 -8.46,-4.83 -12.89,-4.83 -3,0 -5.92,0.83 -8.79,2.49 -2.86,1.66 -4.98,4.03 -6.35,7.13 -1.36,3.09 -2.05,7.86 -2.05,14.3 v 60.16 h -14.16 v 3.22 c 3.59,1.43 7.25,3.86 10.99,7.28 3.74,3.42 7.08,7.47 10.01,12.15 1.5,2.48 3.58,7 6.25,13.58 z m 73.24,-26.76 c 13.54,0 24.41,-5.14 32.62,-15.43 6.96,-8.79 10.45,-18.88 10.45,-30.27 0,-8.01 -1.93,-16.12 -5.77,-24.32 -3.84,-8.2 -9.13,-14.39 -15.86,-18.55 -6.74,-4.17 -14.25,-6.25 -22.52,-6.25 -13.47,0 -24.18,5.37 -32.12,16.11 -6.71,9.05 -10.06,19.21 -10.06,30.47 0,8.2 2.03,16.36 6.1,24.46 4.07,8.11 9.42,14.1 16.07,17.97 6.64,3.87 13.67,5.81 21.09,5.81 z m -3.03,-6.35 c -3.45,0 -6.92,-1.02 -10.4,-3.07 -3.48,-2.05 -6.3,-5.65 -8.45,-10.79 -2.14,-5.15 -3.22,-11.75 -3.22,-19.83 0,-13.02 2.59,-24.25 7.77,-33.69 5.17,-9.44 11.99,-14.16 20.45,-14.16 6.32,0 11.53,2.6 15.63,7.81 4.1,5.21 6.15,14.16 6.15,26.86 0,15.88 -3.42,28.38 -10.25,37.5 -4.62,6.25 -10.52,9.37 -17.68,9.37 z m 52.83,-5.17 27.54,11.13 h 3.71 v -20.9 c 4.62,7.88 9.27,13.4 13.92,16.56 4.65,3.15 9.55,4.73 14.7,4.73 8.98,0 16.47,-3.52 22.46,-10.55 7.35,-8.59 11.03,-19.79 11.03,-33.59 0,-15.43 -4.42,-28.19 -13.28,-38.28 -7.29,-8.27 -16.47,-12.4 -27.54,-12.4 -4.81,0 -8.98,0.68 -12.5,2.05 -2.6,0.97 -5.53,2.93 -8.79,5.86 v -27.25 c 0,-6.12 0.38,-10.01 1.13,-11.67 0.74,-1.66 2.05,-2.98 3.9,-3.96 1.86,-0.97 5.23,-1.46 10.11,-1.46 v -3.61 h -46.87 v 3.61 h 2.44 c 3.58,-0.07 6.64,0.62 9.18,2.05 1.23,0.72 2.2,1.87 2.88,3.47 0.68,1.59 1.02,5.64 1.02,12.16 v 84.57 c 0,5.79 -0.26,9.47 -0.78,11.03 -0.52,1.56 -1.35,2.74 -2.49,3.52 -1.14,0.78 -2.68,1.17 -4.64,1.17 -1.56,0 -3.54,-0.46 -5.95,-1.37 z m 31.25,-15.53 v -33.4 c 0,-7.23 0.3,-11.98 0.88,-14.26 0.91,-3.77 3.14,-7.09 6.69,-9.96 3.55,-2.86 8.03,-4.29 13.43,-4.29 6.51,0 11.78,2.53 15.82,7.61 5.27,6.64 7.91,15.99 7.91,28.03 0,13.67 -3,24.19 -8.98,31.54 -4.17,5.08 -9.12,7.62 -14.85,7.62 -3.12,0 -6.22,-0.78 -9.28,-2.34 -2.34,-1.18 -6.21,-4.69 -11.62,-10.55 z m 68.75,15.53 27.54,11.13 h 3.71 v -20.9 c 4.62,7.88 9.27,13.4 13.92,16.56 4.65,3.15 9.55,4.73 14.7,4.73 8.98,0 16.47,-3.52 22.46,-10.55 7.35,-8.59 11.03,-19.79 11.03,-33.59 0,-15.43 -4.42,-28.19 -13.28,-38.28 -7.29,-8.27 -16.47,-12.4 -27.54,-12.4 -4.81,0 -8.98,0.68 -12.5,2.05 -2.6,0.97 -5.53,2.93 -8.79,5.86 v -27.25 c 0,-6.12 0.38,-10.01 1.13,-11.67 0.74,-1.66 2.05,-2.98 3.9,-3.96 1.86,-0.97 5.23,-1.46 10.11,-1.46 v -3.61 h -46.87 v 3.61 h 2.44 c 3.58,-0.07 6.64,0.62 9.18,2.05 1.23,0.72 2.2,1.87 2.88,3.47 0.68,1.59 1.02,5.64 1.02,12.16 v 84.57 c 0,5.79 -0.26,9.47 -0.78,11.03 -0.52,1.56 -1.35,2.74 -2.49,3.52 -1.14,0.78 -2.68,1.17 -4.64,1.17 -1.56,0 -3.54,-0.46 -5.95,-1.37 z m 31.25,-15.53 v -33.4 c 0,-7.23 0.3,-11.98 0.88,-14.26 0.91,-3.77 3.14,-7.09 6.69,-9.96 3.55,-2.86 8.03,-4.29 13.43,-4.29 6.51,0 11.78,2.53 15.82,7.61 5.27,6.64 7.91,15.99 7.91,28.03 0,13.67 -3,24.19 -8.98,31.54 -4.17,5.08 -9.12,7.62 -14.85,7.62 -3.12,0 -6.22,-0.78 -9.28,-2.34 -2.34,-1.18 -6.21,-4.69 -11.62,-10.55 z m 97.95,73.83 c 2.74,0 5.07,-0.96 6.99,-2.88 1.92,-1.92 2.88,-4.25 2.88,-6.99 0,-2.73 -0.96,-5.07 -2.88,-7.03 -1.92,-1.95 -4.25,-2.93 -6.99,-2.93 -2.73,0 -5.08,0.98 -7.03,2.93 -1.95,1.96 -2.93,4.3 -2.93,7.03 0,2.74 0.96,5.07 2.88,6.99 1.92,1.92 4.28,2.88 7.08,2.88 z m 8.11,-46.78 v -71.88 c 0,-5.59 0.4,-9.32 1.22,-11.17 0.81,-1.86 2.02,-3.25 3.61,-4.16 1.6,-0.91 4.51,-1.36 8.74,-1.36 V 3390 h -43.45 v 3.52 c 4.36,0 7.29,0.42 8.78,1.27 1.5,0.84 2.69,2.24 3.57,4.19 0.88,1.96 1.32,5.7 1.32,11.23 v 34.48 c 0,9.7 -0.3,15.98 -0.88,18.85 -0.46,2.08 -1.17,3.53 -2.15,4.34 -0.98,0.82 -2.31,1.22 -4,1.22 -1.83,0 -4.04,-0.49 -6.64,-1.46 l -1.37,3.51 26.95,10.94 z m 50.68,-18.95 c 10.48,12.63 20.48,18.95 29.98,18.95 4.89,0 9.08,-1.22 12.6,-3.66 3.52,-2.44 6.32,-6.47 8.4,-12.06 1.43,-3.91 2.15,-9.9 2.15,-17.97 v -38.19 c 0,-5.66 0.45,-9.5 1.36,-11.52 0.72,-1.63 1.88,-2.9 3.47,-3.81 1.6,-0.91 4.54,-1.36 8.84,-1.36 V 3390 h -44.24 v 3.52 h 1.86 c 4.16,0 7.08,0.63 8.74,1.9 1.66,1.27 2.81,3.14 3.46,5.62 0.26,0.97 0.39,4.03 0.39,9.17 v 36.63 c 0,8.13 -1.06,14.04 -3.17,17.72 -2.12,3.68 -5.68,5.52 -10.69,5.52 -7.75,0 -15.46,-4.23 -23.15,-12.7 v -47.17 c 0,-6.05 0.36,-9.79 1.08,-11.23 0.91,-1.88 2.16,-3.27 3.76,-4.14 1.59,-0.88 4.83,-1.32 9.71,-1.32 V 3390 h -44.24 v 3.52 h 1.96 c 4.56,0 7.63,1.15 9.23,3.46 1.59,2.31 2.39,6.72 2.39,13.23 v 33.21 c 0,10.74 -0.24,17.28 -0.73,19.63 -0.49,2.34 -1.24,3.93 -2.25,4.78 -1.01,0.85 -2.36,1.27 -4.05,1.27 -1.83,0 -4.01,-0.49 -6.55,-1.46 l -1.46,3.51 26.95,10.94 h 4.2 z m 97.85,-40.52 c -5.47,2.67 -9.66,6.4 -12.59,11.18 -2.93,4.79 -4.4,10.08 -4.4,15.87 0,8.85 3.34,16.47 10.01,22.85 6.67,6.38 15.22,9.57 25.64,9.57 8.52,0 15.91,-2.08 22.16,-6.25 h 18.95 c 2.8,0 4.42,-0.08 4.88,-0.24 0.46,-0.17 0.78,-0.44 0.98,-0.83 0.39,-0.59 0.58,-1.63 0.58,-3.13 0,-1.69 -0.16,-2.86 -0.48,-3.51 -0.2,-0.33 -0.54,-0.59 -1.03,-0.79 -0.49,-0.19 -2.13,-0.29 -4.93,-0.29 h -11.62 c 3.64,-4.69 5.47,-10.67 5.47,-17.97 0,-8.33 -3.19,-15.46 -9.57,-21.38 -6.38,-5.93 -14.95,-8.89 -25.69,-8.89 -4.42,0 -8.95,0.65 -13.57,1.95 -2.86,-2.47 -4.8,-4.63 -5.81,-6.49 -1.01,-1.86 -1.52,-3.44 -1.52,-4.74 0,-1.1 0.54,-2.18 1.62,-3.22 1.07,-1.04 3.17,-1.79 6.29,-2.25 1.83,-0.26 6.38,-0.49 13.68,-0.68 13.41,-0.33 22.1,-0.78 26.07,-1.37 6.06,-0.85 10.89,-3.09 14.5,-6.74 3.62,-3.64 5.42,-8.13 5.42,-13.47 0,-7.36 -3.45,-14.26 -10.35,-20.71 -10.16,-9.5 -23.41,-14.25 -39.75,-14.25 -12.56,0 -23.17,2.83 -31.83,8.49 -4.88,3.26 -7.33,6.64 -7.33,10.16 0,1.56 0.36,3.12 1.08,4.69 1.1,2.41 3.39,5.76 6.83,10.05 0.46,0.59 3.78,4.11 9.97,10.55 -3.39,2.02 -5.78,3.83 -7.18,5.42 -1.4,1.6 -2.1,3.4 -2.1,5.42 0,2.28 0.93,4.95 2.78,8.01 1.86,3.06 6.14,7.39 12.84,12.99 z m 17,54.78 c -4.82,0 -8.86,-1.92 -12.11,-5.76 -3.26,-3.84 -4.89,-9.73 -4.89,-17.68 0,-10.28 2.22,-18.26 6.64,-23.92 3.39,-4.3 7.69,-6.45 12.89,-6.45 4.95,0 9.02,1.86 12.21,5.57 3.19,3.71 4.79,9.54 4.79,17.48 0,10.35 -2.25,18.46 -6.74,24.32 -3.32,4.29 -7.59,6.44 -12.79,6.44 z m -17.97,-87.4 c -3.06,-3.32 -5.37,-6.41 -6.94,-9.28 -1.56,-2.86 -2.34,-5.5 -2.34,-7.91 0,-3.12 1.89,-5.86 5.66,-8.2 6.52,-4.04 15.92,-6.06 28.23,-6.06 11.71,0 20.36,2.07 25.93,6.21 5.56,4.13 8.34,8.54 8.34,13.23 0,3.39 -1.66,5.79 -4.98,7.22 -3.38,1.44 -10.09,2.28 -20.11,2.54 -14.65,0.39 -25.91,1.14 -33.79,2.25"
       style="fill:#000000;fill-opacity:1;fill-rule:nonzero;stroke:none"
       transform="matrix(0.13333333,0,0,-0.13333333,0,722.66667)" />
  </g>
</svg>
